<svg id="圖層_1" data-name="圖層 1" xmlns="http://www.w3.org/2000/svg" viewBox="0 0 595.28 217.17"><defs><style>.cls-1{fill:#fff;}.cls-2{isolation:isolate;}</style></defs><title>logo-w</title><g id="Group_376" data-name="Group 376"><polygon class="cls-1" points="249.18 44.74 249.21 44.69 208.97 17.98 192.76 7.18 192.76 6.91 192.34 6.91 181.96 0 181.96 0.02 113.53 99.7 78.58 64.74 78.55 64.77 78.55 64.74 65.46 64.74 65.46 130.19 13.09 130.19 13.09 13.1 78.55 13.1 78.55 0.01 13.09 0.01 0 0.01 0 13.1 0 130.19 0 143.28 13.09 143.28 65.46 143.28 65.46 143.29 78.55 143.29 78.55 143.28 78.55 130.19 78.55 83.23 115.41 120.09 115.81 119.52 179.67 26.49 179.67 204.08 13.09 204.08 13.09 157.09 0 157.09 0 204.08 0 216.31 0 217.17 181.17 217.17 192.76 217.17 255.18 217.17 255.18 48.74 249.18 44.74"/><polygon class="cls-1" points="133.66 130.75 133.66 144.67 151.42 170.54 151.42 104.88 133.66 130.75"/><g id="Group_372" data-name="Group 372"><g id="CUBE_AI" data-name="CUBE AI" class="cls-2"><g class="cls-2"><path class="cls-1" d="M367.11,131.86v10.76c0,13-6.48,20.38-19,20.38s-19-7.41-19-20.38V100.5c0-13,6.48-20.37,19-20.37s19,7.41,19,20.37v7.87h-12V99.69c0-5.79-2.54-8-6.59-8s-6.6,2.19-6.6,8v43.74c0,5.79,2.55,7.88,6.6,7.88s6.59-2.09,6.59-7.88V131.86Z"/><path class="cls-1" d="M388.18,81.06v62.49c0,5.79,2.55,7.87,6.6,7.87s6.6-2.08,6.6-7.87V81.06h12v61.68c0,13-6.48,20.37-19,20.37s-19-7.41-19-20.37V81.06Z"/><path class="cls-1" d="M461.34,99.69v2.9c0,8.33-2.55,13.65-8.22,16.32,6.83,2.65,9.49,8.79,9.49,17.35v6.6c0,12.5-6.6,19.21-19.33,19.21h-20v-81h19.21C455.67,81.06,461.34,87.19,461.34,99.69ZM436,92.63V114h5c4.74,0,7.64-2.08,7.64-8.56V101c0-5.78-2-8.33-6.48-8.33Zm0,33V150.5h7.29c4.29,0,6.6-2,6.6-8v-7.06c0-7.52-2.43-9.84-8.22-9.84Z"/><path class="cls-1" d="M484.15,115.2h17.47v11.57H484.15V150.5h22v11.57H471.42v-81h34.72V92.63h-22Z"/></g><g class="cls-2"><path class="cls-1" d="M575.47,162.07H562.63l-2.2-14.7H544.81l-2.2,14.7H530.92l13-81h18.63Zm-29-25.69h12.26l-6.13-41Z"/><path class="cls-1" d="M582.55,81.06h12.73v81H582.55Z"/></g></g></g></g></svg>