<?xml version="1.0" encoding="utf-8"?>
<!-- Generator: Adobe Illustrator 23.0.3, SVG Export Plug-In . SVG Version: 6.00 Build 0)  -->
<svg version="1.1" id="圖層_1" xmlns:serif="http://www.serif.com/"
	 xmlns="http://www.w3.org/2000/svg" xmlns:xlink="http://www.w3.org/1999/xlink" x="0px" y="0px" viewBox="0 0 595.3 217.2"
	 style="enable-background:new 0 0 595.3 217.2;" xml:space="preserve">
<style type="text/css">
	.st0{fill:#222943;}
	.st1{enable-background:new    ;}
	.st2{fill:#0050E6;}
	.st3{fill:#808080;}
</style>
<g id="Group_376" transform="translate(-46.944 -36)">
	<g>
		<polygon class="st0" points="296.1,80.7 296.2,80.7 255.9,54 239.7,43.2 239.7,42.9 239.3,42.9 228.9,36 228.9,36 160.5,135.7 
			125.5,100.7 125.5,100.8 125.5,100.7 112.4,100.7 112.4,166.2 60,166.2 60,49.1 125.5,49.1 125.5,36 60,36 46.9,36 46.9,49.1 
			46.9,166.2 46.9,179.3 60,179.3 112.4,179.3 112.4,179.3 125.5,179.3 125.5,179.3 125.5,166.2 125.5,119.2 162.4,156.1 
			162.7,155.5 226.6,62.5 226.6,240.1 60,240.1 60,193.1 46.9,193.1 46.9,240.1 46.9,252.3 46.9,253.2 228.1,253.2 239.7,253.2 
			302.1,253.2 302.1,84.7 		"/>
		<polygon class="st0" points="180.6,166.8 180.6,180.7 198.4,206.5 198.4,140.9 		"/>
	</g>
	<g id="Group_372" transform="translate(117.253 52)">
		<g class="st1">
			<path class="st2" d="M296.8,115.9v10.8c0,13-6.5,20.4-19,20.4c-12.5,0-19-7.4-19-20.4V84.5c0-13,6.5-20.4,19-20.4
				c12.5,0,19,7.4,19,20.4v7.9h-12v-8.7c0-5.8-2.5-8-6.6-8c-4,0-6.6,2.2-6.6,8v43.7c0,5.8,2.5,7.9,6.6,7.9c4.1,0,6.6-2.1,6.6-7.9
				v-11.6H296.8z"/>
			<path class="st2" d="M317.9,65.1v62.5c0,5.8,2.5,7.9,6.6,7.9c4,0,6.6-2.1,6.6-7.9V65.1h12v61.7c0,13-6.5,20.4-19,20.4
				c-12.5,0-19-7.4-19-20.4V65.1H317.9z"/>
			<path class="st2" d="M391,83.7v2.9c0,8.3-2.5,13.7-8.2,16.3c6.8,2.7,9.5,8.8,9.5,17.4v6.6c0,12.5-6.6,19.2-19.3,19.2h-20v-81
				h19.2C385.4,65.1,391,71.2,391,83.7z M365.7,76.6V98h5c4.7,0,7.6-2.1,7.6-8.6V85c0-5.8-2-8.3-6.5-8.3H365.7z M365.7,109.6v24.9
				h7.3c4.3,0,6.6-2,6.6-8v-7.1c0-7.5-2.4-9.8-8.2-9.8H365.7z"/>
			<path class="st2" d="M413.8,99.2h17.5v11.6h-17.5v23.7h22v11.6h-34.7v-81h34.7v11.6h-22V99.2z"/>
		</g>
		<g class="st1">
			<path class="st3" d="M505.2,146.1h-12.8l-2.2-14.7h-15.6l-2.2,14.7h-11.7l13-81h18.6L505.2,146.1z M476.1,120.4h12.3l-6.1-41
				L476.1,120.4z"/>
			<path class="st3" d="M512.2,65.1H525v81h-12.7V65.1z"/>
		</g>
	</g>
</g>
</svg>
