<?xml version="1.0" encoding="utf-8"?>
<!-- Generator: Adobe Illustrator 25.2.0, SVG Export Plug-In . SVG Version: 6.00 Build 0)  -->
<svg version="1.1" id="圖層_1" xmlns="http://www.w3.org/2000/svg" xmlns:xlink="http://www.w3.org/1999/xlink" x="0px" y="0px"
	 viewBox="0 0 460.2 301.2" style="enable-background:new 0 0 460.2 301.2;" xml:space="preserve">
<style type="text/css">
	.st0{fill:none;}
	.st1{fill:#FFFFFF;}
	.st2{fill:url(#SVGID_1_);}
	.st3{fill:#617087;}
	.st4{font-family:'Montserrat-Medium';}
	.st5{font-size:6.8854px;}
	.st6{fill:#FFCB52;}
	.st7{font-family:'Montserrat-Bold';}
	.st8{font-size:17.9941px;}
	.st9{font-size:10.4966px;}
	.st10{fill:url(#SVGID_2_);}
	.st11{fill:#63C9FF;}
	.st12{font-family:'Montserrat-SemiBold';}
	.st13{fill:url(#SVGID_3_);}
	.st14{fill:#30DB9F;}
	.st15{fill:url(#SVGID_4_);}
	.st16{fill:url(#SVGID_5_);}
	.st17{font-size:21.5107px;}
	.st18{fill:#B4BDC2;}
	.st19{font-size:4.6193px;}
	.st20{fill:#FF5B52;}
	.st21{fill:#5291FF;}
	.st22{fill:#AA31DE;}
</style>
<g id="BACKGROUND">
</g>
<line class="st0" x1="630.1" y1="292.3" x2="0" y2="292.3"/>
<g>
	
		<image style="overflow:visible;opacity:0.45;enable-background:new    ;" width="179" height="171" xlink:href="4D009829F5BAB664.png"  transform="matrix(0.9943 0 0 0.9943 -1.9302 -1.744)">
	</image>
	<g>
		<path class="st1" d="M143.4,137.7H10.9c-0.9,0-1.7-0.7-1.7-1.7V10.9c0-0.9,0.7-1.7,1.7-1.7h132.5c0.9,0,1.7,0.7,1.7,1.7v125.2
			C145.1,137,144.4,137.7,143.4,137.7z"/>
	</g>
</g>
<g>
	
		<image style="overflow:visible;opacity:0.45;enable-background:new    ;" width="179" height="171" xlink:href="4D009829F5BAB665.png"  transform="matrix(0.9943 0 0 0.9943 143.0697 -1.744)">
	</image>
	<g>
		<rect x="154.1" y="9.2" class="st1" width="135.8" height="128.5"/>
	</g>
</g>
<g>
	
		<image style="overflow:visible;opacity:0.45;enable-background:new    ;" width="179" height="182" xlink:href="4D009829F5BAB663.png"  transform="matrix(0.9945 0 0 0.9945 -1.9456 133.2718)">
	</image>
	<g>
		<rect x="9.3" y="144.3" class="st1" width="135.8" height="138.8"/>
	</g>
</g>
<g>
	
		<image style="overflow:visible;opacity:0.45;enable-background:new    ;" width="179" height="171" xlink:href="4D009829F5BAB66C.png"  transform="matrix(0.9943 0 0 0.9943 288.0698 -1.744)">
	</image>
	<g>
		<rect x="299" y="9.2" class="st1" width="135.8" height="128.5"/>
	</g>
</g>
<g>
	
		<image style="overflow:visible;opacity:0.45;enable-background:new    ;" width="324" height="182" xlink:href="4D009829F5BAB66F.png"  transform="matrix(0.9963 0 0 0.9963 143.1521 133.1011)">
	</image>
	<g>
		<rect x="154.1" y="144.3" class="st1" width="280.7" height="138.8"/>
	</g>
</g>
<linearGradient id="SVGID_1_" gradientUnits="userSpaceOnUse" x1="142.5291" y1="263.7607" x2="345.785" y2="60.5047" gradientTransform="matrix(1 0 0 -1 0 301.8898)">
	<stop  offset="0" style="stop-color:#FFFF52"/>
	<stop  offset="1" style="stop-color:#FF5B52"/>
</linearGradient>
<path class="st2" d="M160.8,131v-27l27.7,9.8c4.1,1.4,8.5,1.6,12.7,0.5l33.5-9l20.3-4.5c4.6-1,9.4-0.5,13.6,1.5l0,0
	c3.1,1.4,6.5,2.1,10,2l4.6-0.2v27H160.8V131z"/>
<g>
	<text transform="matrix(1 0 0 1 199.4061 89.0903)" class="st3 st4 st5">*last 30 days</text>
</g>
<text transform="matrix(1 0 0 1 178.7994 70.6333)" class="st6 st7 st8">2,142,950</text>
<g>
	<text transform="matrix(1 0 0 1 184.7493 43.9799)" class="st3 st4 st9">Public Listing</text>
</g>
<g>
	
		<linearGradient id="SVGID_2_" gradientUnits="userSpaceOnUse" x1="13.3658" y1="249.824" x2="118.9412" y2="144.2486" gradientTransform="matrix(1 0 0 -1 0 301.8898)">
		<stop  offset="0" style="stop-color:#36E5FF"/>
		<stop  offset="1" style="stop-color:#09A2FF"/>
	</linearGradient>
	<path class="st10" d="M16,131v-27l20.5,11.8c4.7,2.7,10.4,2.9,15.2,0.4l0,0c3.7-1.8,7.9-2.2,11.9-1L66,116c4,1.2,8.3,0.8,12-1.1
		l25.1-12.8c2.4-1.2,5-1.8,7.7-1.8l27.7,0.6v30H16V131z"/>
	<g>
		<g>
			<text transform="matrix(1 0 0 1 46.5504 72.5239)" class="st11 st12 st8">$ 2723</text>
		</g>
		<g>
			<text transform="matrix(1 0 0 1 51.8936 89.0903)" class="st3 st4 st5">*per square ft</text>
		</g>
		<g>
			<g>
				<text transform="matrix(1 0 0 1 37.3006 43.9799)" class="st3 st4 st9">Avg. Unit Rent</text>
			</g>
		</g>
	</g>
</g>
<linearGradient id="SVGID_3_" gradientUnits="userSpaceOnUse" x1="305.7" y1="184.4398" x2="428.2001" y2="184.4398" gradientTransform="matrix(1 0 0 -1 0 301.8898)">
	<stop  offset="0" style="stop-color:#53E9FC"/>
	<stop  offset="1" style="stop-color:#30DB9F"/>
</linearGradient>
<path class="st13" d="M305.7,131v-20.7l27,3c7,2.4,14.6,2.5,21.7,0.1l2.6-0.9c5.1-1.7,10.6-2.2,15.9-1.3l10.2,1.6
	c7.5,1.2,15.1-0.2,21.7-3.9l0,0c4.2-2.4,8.9-3.8,13.7-4.2l9.7-0.8v27H305.7V131z"/>
<g>
	<text transform="matrix(1 0 0 1 332.3027 86.8198)" class="st3 st4 st5">*under market price</text>
</g>
<text transform="matrix(1 0 0 1 331.481 72.9028)" class="st14 st12 st8">232,000</text>
<g>
	<g>
		<text transform="matrix(1 0 0 1 325.3643 46.2495)" class="st3 st4 st9">Favorable Deals</text>
	</g>
</g>
<g>
	<g>
		
			<linearGradient id="SVGID_4_" gradientUnits="userSpaceOnUse" x1="13.219" y1="56.3308" x2="96.2235" y2="97.6624" gradientTransform="matrix(1 0 0 -1 0 301.8898)">
			<stop  offset="0" style="stop-color:#F5F5F5"/>
			<stop  offset="1" style="stop-color:#E6E6E6"/>
		</linearGradient>
		<path class="st15" d="M77.2,253.4c-21.9,0-39.7-17.8-39.7-39.7S55.3,174,77.2,174s39.7,17.8,39.7,39.7S99.1,253.4,77.2,253.4z
			 M77.2,181.4c-17.8,0-32.3,14.5-32.3,32.3S59.4,246,77.2,246s32.3-14.5,32.3-32.3S95,181.4,77.2,181.4z"/>
		
			<linearGradient id="SVGID_5_" gradientUnits="userSpaceOnUse" x1="38.7" y1="88.2898" x2="115.6" y2="88.2898" gradientTransform="matrix(1 0 0 -1 0 301.8898)">
			<stop  offset="0" style="stop-color:#FF5B52"/>
			<stop  offset="1" style="stop-color:#FFFF52"/>
		</linearGradient>
		<path class="st16" d="M110.7,214.5c-0.4,18.1-15.3,32.7-33.5,32.7c-18.5,0-33.6-15.1-33.6-33.6S58.7,180,77.2,180
			c0.2,0,0.4,0,0.5,0v-4.9c-0.2,0-0.4,0-0.5,0c-21.2,0-38.5,17.3-38.5,38.5s17.3,38.5,38.5,38.5c20.9,0,38-16.8,38.4-37.6H110.7z"/>
	</g>
	<g>
		<text transform="matrix(1 0 0 1 53.7711 220.0727)" class="st3 st4 st17">75%</text>
	</g>
</g>
<g>
	<text transform="matrix(1 0 0 1 55.6283 164.6792)" class="st3 st4 st5">Market Heat</text>
</g>
<g>
	<text transform="matrix(1 0 0 1 54.2789 268.9077)" class="st3 st4 st5">Seller Market</text>
</g>
<g>
	<g>
		<g>
			<path class="st18" d="M188,174.2c-0.1,0-0.2,0-0.2-0.1c-0.1-0.1-0.1-0.1-0.1-0.2c0-0.1,0-0.2,0.1-0.2c0.1-0.1,0.3-0.1,0.5,0
				c0.1,0.1,0.1,0.1,0.1,0.2c0,0.1,0,0.2-0.1,0.2C188.1,174.2,188.1,174.2,188,174.2z"/>
			<path class="st18" d="M412.7,173.9c0-0.2,0.1-0.3,0.3-0.3l0,0c0.2,0,0.3,0.1,0.3,0.3l0,0c0,0.2-0.1,0.3-0.3,0.3l0,0
				C412.9,174.2,412.7,174.1,412.7,173.9z M408.7,173.9c0-0.2,0.1-0.3,0.3-0.3l0,0c0.2,0,0.3,0.1,0.3,0.3l0,0c0,0.2-0.1,0.3-0.3,0.3
				l0,0C408.8,174.2,408.7,174.1,408.7,173.9z M404.7,173.9c0-0.2,0.1-0.3,0.3-0.3l0,0c0.2,0,0.3,0.1,0.3,0.3l0,0
				c0,0.2-0.2,0.3-0.3,0.3l0,0C404.8,174.2,404.7,174.1,404.7,173.9z M400.6,173.9c0-0.2,0.1-0.3,0.3-0.3l0,0c0.2,0,0.3,0.1,0.3,0.3
				l0,0c0,0.2-0.1,0.3-0.3,0.3l0,0C400.8,174.2,400.6,174.1,400.6,173.9z M396.6,173.9c0-0.2,0.2-0.3,0.3-0.3l0,0
				c0.2,0,0.3,0.1,0.3,0.3l0,0c0,0.2-0.1,0.3-0.3,0.3l0,0C396.8,174.2,396.6,174.1,396.6,173.9z M392.6,173.9c0-0.2,0.1-0.3,0.3-0.3
				l0,0c0.2,0,0.3,0.1,0.3,0.3l0,0c0,0.2-0.1,0.3-0.3,0.3l0,0C392.8,174.2,392.6,174.1,392.6,173.9z M388.6,173.9
				c0-0.2,0.1-0.3,0.3-0.3l0,0c0.2,0,0.3,0.1,0.3,0.3l0,0c0,0.2-0.1,0.3-0.3,0.3l0,0C388.7,174.2,388.6,174.1,388.6,173.9z
				 M384.6,173.9c0-0.2,0.1-0.3,0.3-0.3l0,0c0.2,0,0.3,0.1,0.3,0.3l0,0c0,0.2-0.1,0.3-0.3,0.3l0,0
				C384.7,174.2,384.6,174.1,384.6,173.9z M380.6,173.9c0-0.2,0.1-0.3,0.3-0.3l0,0c0.2,0,0.3,0.1,0.3,0.3l0,0c0,0.2-0.1,0.3-0.3,0.3
				l0,0C380.7,174.2,380.6,174.1,380.6,173.9z M376.5,173.9c0-0.2,0.1-0.3,0.3-0.3l0,0c0.2,0,0.3,0.1,0.3,0.3l0,0
				c0,0.2-0.1,0.3-0.3,0.3l0,0C376.7,174.2,376.5,174.1,376.5,173.9z M372.5,173.9c0-0.2,0.1-0.3,0.3-0.3l0,0c0.2,0,0.3,0.1,0.3,0.3
				l0,0c0,0.2-0.1,0.3-0.3,0.3l0,0C372.7,174.2,372.5,174.1,372.5,173.9z M368.5,173.9c0-0.2,0.1-0.3,0.3-0.3l0,0
				c0.2,0,0.3,0.1,0.3,0.3l0,0c0,0.2-0.2,0.3-0.3,0.3l0,0C368.6,174.2,368.5,174.1,368.5,173.9z M364.5,173.9c0-0.2,0.1-0.3,0.3-0.3
				l0,0c0.2,0,0.3,0.1,0.3,0.3l0,0c0,0.2-0.1,0.3-0.3,0.3l0,0C364.6,174.2,364.5,174.1,364.5,173.9z M360.5,173.9
				c0-0.2,0.1-0.3,0.3-0.3l0,0c0.2,0,0.3,0.1,0.3,0.3l0,0c0,0.2-0.2,0.3-0.3,0.3l0,0C360.6,174.2,360.5,174.1,360.5,173.9z
				 M356.4,173.9c0-0.2,0.1-0.3,0.3-0.3l0,0c0.2,0,0.3,0.1,0.3,0.3l0,0c0,0.2-0.1,0.3-0.3,0.3l0,0
				C356.6,174.2,356.4,174.1,356.4,173.9z M352.4,173.9c0-0.2,0.1-0.3,0.3-0.3l0,0c0.2,0,0.3,0.1,0.3,0.3l0,0c0,0.2-0.2,0.3-0.3,0.3
				l0,0C352.6,174.2,352.4,174.1,352.4,173.9z M348.4,173.9c0-0.2,0.1-0.3,0.3-0.3l0,0c0.2,0,0.3,0.1,0.3,0.3l0,0
				c0,0.2-0.1,0.3-0.3,0.3l0,0C348.5,174.2,348.4,174.1,348.4,173.9z M344.4,173.9c0-0.2,0.2-0.3,0.3-0.3l0,0c0.2,0,0.3,0.1,0.3,0.3
				l0,0c0,0.2-0.1,0.3-0.3,0.3l0,0C344.5,174.2,344.4,174.1,344.4,173.9z M340.4,173.9c0-0.2,0.1-0.3,0.3-0.3l0,0
				c0.2,0,0.3,0.1,0.3,0.3l0,0c0,0.2-0.1,0.3-0.3,0.3l0,0C340.5,174.2,340.4,174.1,340.4,173.9z M336.3,173.9c0-0.2,0.1-0.3,0.3-0.3
				l0,0c0.2,0,0.3,0.1,0.3,0.3l0,0c0,0.2-0.1,0.3-0.3,0.3l0,0C336.5,174.2,336.3,174.1,336.3,173.9z M332.3,173.9
				c0-0.2,0.1-0.3,0.3-0.3l0,0c0.2,0,0.3,0.1,0.3,0.3l0,0c0,0.2-0.1,0.3-0.3,0.3l0,0C332.5,174.2,332.3,174.1,332.3,173.9z
				 M328.3,173.9c0-0.2,0.1-0.3,0.3-0.3l0,0c0.2,0,0.3,0.1,0.3,0.3l0,0c0,0.2-0.1,0.3-0.3,0.3l0,0
				C328.4,174.2,328.3,174.1,328.3,173.9z M324.3,173.9c0-0.2,0.1-0.3,0.3-0.3l0,0c0.2,0,0.3,0.1,0.3,0.3l0,0c0,0.2-0.1,0.3-0.3,0.3
				l0,0C324.4,174.2,324.3,174.1,324.3,173.9z M320.3,173.9c0-0.2,0.1-0.3,0.3-0.3l0,0c0.2,0,0.3,0.1,0.3,0.3l0,0
				c0,0.2-0.1,0.3-0.3,0.3l0,0C320.4,174.2,320.3,174.1,320.3,173.9z M316.3,173.9c0-0.2,0.1-0.3,0.3-0.3l0,0c0.2,0,0.3,0.1,0.3,0.3
				l0,0c0,0.2-0.2,0.3-0.3,0.3l0,0C316.4,174.2,316.3,174.1,316.3,173.9z M312.2,173.9c0-0.2,0.1-0.3,0.3-0.3l0,0
				c0.2,0,0.3,0.1,0.3,0.3l0,0c0,0.2-0.1,0.3-0.3,0.3l0,0C312.4,174.2,312.2,174.1,312.2,173.9z M308.2,173.9c0-0.2,0.1-0.3,0.3-0.3
				l0,0c0.2,0,0.3,0.1,0.3,0.3l0,0c0,0.2-0.2,0.3-0.3,0.3l0,0C308.4,174.2,308.2,174.1,308.2,173.9z M304.2,173.9
				c0-0.2,0.1-0.3,0.3-0.3l0,0c0.2,0,0.3,0.1,0.3,0.3l0,0c0,0.2-0.1,0.3-0.3,0.3l0,0C304.3,174.2,304.2,174.1,304.2,173.9z
				 M300.2,173.9c0-0.2,0.1-0.3,0.3-0.3l0,0c0.2,0,0.3,0.1,0.3,0.3l0,0c0,0.2-0.2,0.3-0.3,0.3l0,0
				C300.3,174.2,300.2,174.1,300.2,173.9z M296.2,173.9c0-0.2,0.1-0.3,0.3-0.3l0,0c0.2,0,0.3,0.1,0.3,0.3l0,0c0,0.2-0.1,0.3-0.3,0.3
				l0,0C296.3,174.2,296.2,174.1,296.2,173.9z M292.1,173.9c0-0.2,0.2-0.3,0.3-0.3l0,0c0.2,0,0.3,0.1,0.3,0.3l0,0
				c0,0.2-0.1,0.3-0.3,0.3l0,0C292.3,174.2,292.1,174.1,292.1,173.9z M288.1,173.9c0-0.2,0.1-0.3,0.3-0.3l0,0c0.2,0,0.3,0.1,0.3,0.3
				l0,0c0,0.2-0.1,0.3-0.3,0.3l0,0C288.3,174.2,288.1,174.1,288.1,173.9z M284.1,173.9c0-0.2,0.1-0.3,0.3-0.3l0,0
				c0.2,0,0.3,0.1,0.3,0.3l0,0c0,0.2-0.1,0.3-0.3,0.3l0,0C284.2,174.2,284.1,174.1,284.1,173.9z M280.1,173.9c0-0.2,0.1-0.3,0.3-0.3
				l0,0c0.2,0,0.3,0.1,0.3,0.3l0,0c0,0.2-0.2,0.3-0.3,0.3l0,0C280.2,174.2,280.1,174.1,280.1,173.9z M276.1,173.9
				c0-0.2,0.1-0.3,0.3-0.3l0,0c0.2,0,0.3,0.1,0.3,0.3l0,0c0,0.2-0.1,0.3-0.3,0.3l0,0C276.2,174.2,276.1,174.1,276.1,173.9z
				 M272,173.9c0-0.2,0.1-0.3,0.3-0.3l0,0c0.2,0,0.3,0.1,0.3,0.3l0,0c0,0.2-0.1,0.3-0.3,0.3l0,0C272.2,174.2,272,174.1,272,173.9z
				 M268,173.9c0-0.2,0.1-0.3,0.3-0.3l0,0c0.2,0,0.3,0.1,0.3,0.3l0,0c0,0.2-0.1,0.3-0.3,0.3l0,0C268.2,174.2,268,174.1,268,173.9z
				 M264,173.9c0-0.2,0.1-0.3,0.3-0.3l0,0c0.2,0,0.3,0.1,0.3,0.3l0,0c0,0.2-0.2,0.3-0.3,0.3l0,0C264.2,174.2,264,174.1,264,173.9z
				 M260,173.9c0-0.2,0.1-0.3,0.3-0.3l0,0c0.2,0,0.3,0.1,0.3,0.3l0,0c0,0.2-0.1,0.3-0.3,0.3l0,0C260.1,174.2,260,174.1,260,173.9z
				 M256,173.9c0-0.2,0.1-0.3,0.3-0.3l0,0c0.2,0,0.3,0.1,0.3,0.3l0,0c0,0.2-0.2,0.3-0.3,0.3l0,0C256.1,174.2,256,174.1,256,173.9z
				 M251.9,173.9c0-0.2,0.1-0.3,0.3-0.3l0,0c0.2,0,0.3,0.1,0.3,0.3l0,0c0,0.2-0.1,0.3-0.3,0.3l0,0
				C252.1,174.2,251.9,174.1,251.9,173.9z M247.9,173.9c0-0.2,0.2-0.3,0.3-0.3l0,0c0.2,0,0.3,0.1,0.3,0.3l0,0c0,0.2-0.1,0.3-0.3,0.3
				l0,0C248.1,174.2,247.9,174.1,247.9,173.9z M243.9,173.9c0-0.2,0.1-0.3,0.3-0.3l0,0c0.2,0,0.3,0.1,0.3,0.3l0,0
				c0,0.2-0.1,0.3-0.3,0.3l0,0C244.1,174.2,243.9,174.1,243.9,173.9z M239.9,173.9c0-0.2,0.1-0.3,0.3-0.3l0,0c0.2,0,0.3,0.1,0.3,0.3
				l0,0c0,0.2-0.1,0.3-0.3,0.3l0,0C240,174.2,239.9,174.1,239.9,173.9z M235.9,173.9c0-0.2,0.1-0.3,0.3-0.3l0,0
				c0.2,0,0.3,0.1,0.3,0.3l0,0c0,0.2-0.1,0.3-0.3,0.3l0,0C236,174.2,235.9,174.1,235.9,173.9z M231.8,173.9c0-0.2,0.1-0.3,0.3-0.3
				l0,0c0.2,0,0.3,0.1,0.3,0.3l0,0c0,0.2-0.1,0.3-0.3,0.3l0,0C232,174.2,231.8,174.1,231.8,173.9z M227.8,173.9
				c0-0.2,0.1-0.3,0.3-0.3l0,0c0.2,0,0.3,0.1,0.3,0.3l0,0c0,0.2-0.1,0.3-0.3,0.3l0,0C228,174.2,227.8,174.1,227.8,173.9z
				 M223.8,173.9c0-0.2,0.1-0.3,0.3-0.3l0,0c0.2,0,0.3,0.1,0.3,0.3l0,0c0,0.2-0.1,0.3-0.3,0.3l0,0
				C224,174.2,223.8,174.1,223.8,173.9z M219.8,173.9c0-0.2,0.1-0.3,0.3-0.3l0,0c0.2,0,0.3,0.1,0.3,0.3l0,0c0,0.2-0.1,0.3-0.3,0.3
				l0,0C219.9,174.2,219.8,174.1,219.8,173.9z M215.8,173.9c0-0.2,0.1-0.3,0.3-0.3l0,0c0.2,0,0.3,0.1,0.3,0.3l0,0
				c0,0.2-0.1,0.3-0.3,0.3l0,0C215.9,174.2,215.8,174.1,215.8,173.9z M211.8,173.9c0-0.2,0.1-0.3,0.3-0.3l0,0c0.2,0,0.3,0.1,0.3,0.3
				l0,0c0,0.2-0.2,0.3-0.3,0.3l0,0C211.9,174.2,211.8,174.1,211.8,173.9z M207.7,173.9c0-0.2,0.1-0.3,0.3-0.3l0,0
				c0.2,0,0.3,0.1,0.3,0.3l0,0c0,0.2-0.1,0.3-0.3,0.3l0,0C207.9,174.2,207.7,174.1,207.7,173.9z M203.7,173.9c0-0.2,0.1-0.3,0.3-0.3
				l0,0c0.2,0,0.3,0.1,0.3,0.3l0,0c0,0.2-0.2,0.3-0.3,0.3l0,0C203.9,174.2,203.7,174.1,203.7,173.9z M199.7,173.9
				c0-0.2,0.1-0.3,0.3-0.3l0,0c0.2,0,0.3,0.1,0.3,0.3l0,0c0,0.2-0.1,0.3-0.3,0.3l0,0C199.8,174.2,199.7,174.1,199.7,173.9z
				 M195.7,173.9c0-0.2,0.2-0.3,0.3-0.3l0,0c0.2,0,0.3,0.1,0.3,0.3l0,0c0,0.2-0.1,0.3-0.3,0.3l0,0
				C195.8,174.2,195.7,174.1,195.7,173.9z M191.7,173.9c0-0.2,0.1-0.3,0.3-0.3l0,0c0.2,0,0.3,0.1,0.3,0.3l0,0c0,0.2-0.1,0.3-0.3,0.3
				l0,0C191.8,174.2,191.7,174.1,191.7,173.9z"/>
			<path class="st18" d="M417.1,174.2c-0.1,0-0.2,0-0.2-0.1c-0.1-0.1-0.1-0.1-0.1-0.2c0-0.1,0-0.2,0.1-0.2c0.1-0.1,0.3-0.1,0.5,0
				c0.1,0.1,0.1,0.1,0.1,0.2c0,0.1,0,0.2-0.1,0.2C417.2,174.2,417.2,174.2,417.1,174.2z"/>
		</g>
		<g>
			<text transform="matrix(1 0 0 1 171.8433 175.271)" class="st18 st4 st19">6000</text>
		</g>
	</g>
	<g>
		<g>
			<path class="st18" d="M188,191.6c-0.1,0-0.2,0-0.2-0.1c-0.1-0.1-0.1-0.1-0.1-0.2c0-0.1,0-0.2,0.1-0.2c0.1-0.1,0.3-0.1,0.5,0
				c0.1,0.1,0.1,0.1,0.1,0.2c0,0.1,0,0.1,0,0.1l-0.1,0.1C188.1,191.6,188.1,191.6,188,191.6z"/>
			<path class="st18" d="M412.7,191.3c0-0.2,0.1-0.3,0.3-0.3l0,0c0.2,0,0.3,0.1,0.3,0.3l0,0c0,0.2-0.1,0.3-0.3,0.3l0,0
				C412.9,191.6,412.7,191.5,412.7,191.3z M408.7,191.3c0-0.2,0.1-0.3,0.3-0.3l0,0c0.2,0,0.3,0.1,0.3,0.3l0,0c0,0.2-0.1,0.3-0.3,0.3
				l0,0C408.8,191.6,408.7,191.5,408.7,191.3z M404.7,191.3c0-0.2,0.1-0.3,0.3-0.3l0,0c0.2,0,0.3,0.1,0.3,0.3l0,0
				c0,0.2-0.2,0.3-0.3,0.3l0,0C404.8,191.6,404.7,191.5,404.7,191.3z M400.6,191.3c0-0.2,0.1-0.3,0.3-0.3l0,0c0.2,0,0.3,0.1,0.3,0.3
				l0,0c0,0.2-0.1,0.3-0.3,0.3l0,0C400.8,191.6,400.6,191.5,400.6,191.3z M396.6,191.3c0-0.2,0.2-0.3,0.3-0.3l0,0
				c0.2,0,0.3,0.1,0.3,0.3l0,0c0,0.2-0.1,0.3-0.3,0.3l0,0C396.8,191.6,396.6,191.5,396.6,191.3z M392.6,191.3c0-0.2,0.1-0.3,0.3-0.3
				l0,0c0.2,0,0.3,0.1,0.3,0.3l0,0c0,0.2-0.1,0.3-0.3,0.3l0,0C392.8,191.6,392.6,191.5,392.6,191.3z M388.6,191.3
				c0-0.2,0.1-0.3,0.3-0.3l0,0c0.2,0,0.3,0.1,0.3,0.3l0,0c0,0.2-0.1,0.3-0.3,0.3l0,0C388.7,191.6,388.6,191.5,388.6,191.3z
				 M384.6,191.3c0-0.2,0.1-0.3,0.3-0.3l0,0c0.2,0,0.3,0.1,0.3,0.3l0,0c0,0.2-0.1,0.3-0.3,0.3l0,0
				C384.7,191.6,384.6,191.5,384.6,191.3z M380.6,191.3c0-0.2,0.1-0.3,0.3-0.3l0,0c0.2,0,0.3,0.1,0.3,0.3l0,0c0,0.2-0.1,0.3-0.3,0.3
				l0,0C380.7,191.6,380.6,191.5,380.6,191.3z M376.5,191.3c0-0.2,0.1-0.3,0.3-0.3l0,0c0.2,0,0.3,0.1,0.3,0.3l0,0
				c0,0.2-0.1,0.3-0.3,0.3l0,0C376.7,191.6,376.5,191.5,376.5,191.3z M372.5,191.3c0-0.2,0.1-0.3,0.3-0.3l0,0c0.2,0,0.3,0.1,0.3,0.3
				l0,0c0,0.2-0.1,0.3-0.3,0.3l0,0C372.7,191.6,372.5,191.5,372.5,191.3z M368.5,191.3c0-0.2,0.1-0.3,0.3-0.3l0,0
				c0.2,0,0.3,0.1,0.3,0.3l0,0c0,0.2-0.2,0.3-0.3,0.3l0,0C368.6,191.6,368.5,191.5,368.5,191.3z M364.5,191.3c0-0.2,0.1-0.3,0.3-0.3
				l0,0c0.2,0,0.3,0.1,0.3,0.3l0,0c0,0.2-0.1,0.3-0.3,0.3l0,0C364.6,191.6,364.5,191.5,364.5,191.3z M360.5,191.3
				c0-0.2,0.1-0.3,0.3-0.3l0,0c0.2,0,0.3,0.1,0.3,0.3l0,0c0,0.2-0.2,0.3-0.3,0.3l0,0C360.6,191.6,360.5,191.5,360.5,191.3z
				 M356.4,191.3c0-0.2,0.1-0.3,0.3-0.3l0,0c0.2,0,0.3,0.1,0.3,0.3l0,0c0,0.2-0.1,0.3-0.3,0.3l0,0
				C356.6,191.6,356.4,191.5,356.4,191.3z M352.4,191.3c0-0.2,0.1-0.3,0.3-0.3l0,0c0.2,0,0.3,0.1,0.3,0.3l0,0c0,0.2-0.2,0.3-0.3,0.3
				l0,0C352.6,191.6,352.4,191.5,352.4,191.3z M348.4,191.3c0-0.2,0.1-0.3,0.3-0.3l0,0c0.2,0,0.3,0.1,0.3,0.3l0,0
				c0,0.2-0.1,0.3-0.3,0.3l0,0C348.5,191.6,348.4,191.5,348.4,191.3z M344.4,191.3c0-0.2,0.2-0.3,0.3-0.3l0,0c0.2,0,0.3,0.1,0.3,0.3
				l0,0c0,0.2-0.1,0.3-0.3,0.3l0,0C344.5,191.6,344.4,191.5,344.4,191.3z M340.4,191.3c0-0.2,0.1-0.3,0.3-0.3l0,0
				c0.2,0,0.3,0.1,0.3,0.3l0,0c0,0.2-0.1,0.3-0.3,0.3l0,0C340.5,191.6,340.4,191.5,340.4,191.3z M336.3,191.3c0-0.2,0.1-0.3,0.3-0.3
				l0,0c0.2,0,0.3,0.1,0.3,0.3l0,0c0,0.2-0.1,0.3-0.3,0.3l0,0C336.5,191.6,336.3,191.5,336.3,191.3z M332.3,191.3
				c0-0.2,0.1-0.3,0.3-0.3l0,0c0.2,0,0.3,0.1,0.3,0.3l0,0c0,0.2-0.1,0.3-0.3,0.3l0,0C332.5,191.6,332.3,191.5,332.3,191.3z
				 M328.3,191.3c0-0.2,0.1-0.3,0.3-0.3l0,0c0.2,0,0.3,0.1,0.3,0.3l0,0c0,0.2-0.1,0.3-0.3,0.3l0,0
				C328.4,191.6,328.3,191.5,328.3,191.3z M324.3,191.3c0-0.2,0.1-0.3,0.3-0.3l0,0c0.2,0,0.3,0.1,0.3,0.3l0,0c0,0.2-0.1,0.3-0.3,0.3
				l0,0C324.4,191.6,324.3,191.5,324.3,191.3z M320.3,191.3c0-0.2,0.1-0.3,0.3-0.3l0,0c0.2,0,0.3,0.1,0.3,0.3l0,0
				c0,0.2-0.1,0.3-0.3,0.3l0,0C320.4,191.6,320.3,191.5,320.3,191.3z M316.3,191.3c0-0.2,0.1-0.3,0.3-0.3l0,0c0.2,0,0.3,0.1,0.3,0.3
				l0,0c0,0.2-0.2,0.3-0.3,0.3l0,0C316.4,191.6,316.3,191.5,316.3,191.3z M312.2,191.3c0-0.2,0.1-0.3,0.3-0.3l0,0
				c0.2,0,0.3,0.1,0.3,0.3l0,0c0,0.2-0.1,0.3-0.3,0.3l0,0C312.4,191.6,312.2,191.5,312.2,191.3z M308.2,191.3c0-0.2,0.1-0.3,0.3-0.3
				l0,0c0.2,0,0.3,0.1,0.3,0.3l0,0c0,0.2-0.2,0.3-0.3,0.3l0,0C308.4,191.6,308.2,191.5,308.2,191.3z M304.2,191.3
				c0-0.2,0.1-0.3,0.3-0.3l0,0c0.2,0,0.3,0.1,0.3,0.3l0,0c0,0.2-0.1,0.3-0.3,0.3l0,0C304.3,191.6,304.2,191.5,304.2,191.3z
				 M300.2,191.3c0-0.2,0.1-0.3,0.3-0.3l0,0c0.2,0,0.3,0.1,0.3,0.3l0,0c0,0.2-0.2,0.3-0.3,0.3l0,0
				C300.3,191.6,300.2,191.5,300.2,191.3z M296.2,191.3c0-0.2,0.1-0.3,0.3-0.3l0,0c0.2,0,0.3,0.1,0.3,0.3l0,0c0,0.2-0.1,0.3-0.3,0.3
				l0,0C296.3,191.6,296.2,191.5,296.2,191.3z M292.1,191.3c0-0.2,0.2-0.3,0.3-0.3l0,0c0.2,0,0.3,0.1,0.3,0.3l0,0
				c0,0.2-0.1,0.3-0.3,0.3l0,0C292.3,191.6,292.1,191.5,292.1,191.3z M288.1,191.3c0-0.2,0.1-0.3,0.3-0.3l0,0c0.2,0,0.3,0.1,0.3,0.3
				l0,0c0,0.2-0.1,0.3-0.3,0.3l0,0C288.3,191.6,288.1,191.5,288.1,191.3z M284.1,191.3c0-0.2,0.1-0.3,0.3-0.3l0,0
				c0.2,0,0.3,0.1,0.3,0.3l0,0c0,0.2-0.1,0.3-0.3,0.3l0,0C284.2,191.6,284.1,191.5,284.1,191.3z M280.1,191.3c0-0.2,0.1-0.3,0.3-0.3
				l0,0c0.2,0,0.3,0.1,0.3,0.3l0,0c0,0.2-0.2,0.3-0.3,0.3l0,0C280.2,191.6,280.1,191.5,280.1,191.3z M276.1,191.3
				c0-0.2,0.1-0.3,0.3-0.3l0,0c0.2,0,0.3,0.1,0.3,0.3l0,0c0,0.2-0.1,0.3-0.3,0.3l0,0C276.2,191.6,276.1,191.5,276.1,191.3z
				 M272,191.3c0-0.2,0.1-0.3,0.3-0.3l0,0c0.2,0,0.3,0.1,0.3,0.3l0,0c0,0.2-0.1,0.3-0.3,0.3l0,0C272.2,191.6,272,191.5,272,191.3z
				 M268,191.3c0-0.2,0.1-0.3,0.3-0.3l0,0c0.2,0,0.3,0.1,0.3,0.3l0,0c0,0.2-0.1,0.3-0.3,0.3l0,0C268.2,191.6,268,191.5,268,191.3z
				 M264,191.3c0-0.2,0.1-0.3,0.3-0.3l0,0c0.2,0,0.3,0.1,0.3,0.3l0,0c0,0.2-0.2,0.3-0.3,0.3l0,0C264.2,191.6,264,191.5,264,191.3z
				 M260,191.3c0-0.2,0.1-0.3,0.3-0.3l0,0c0.2,0,0.3,0.1,0.3,0.3l0,0c0,0.2-0.1,0.3-0.3,0.3l0,0C260.1,191.6,260,191.5,260,191.3z
				 M256,191.3c0-0.2,0.1-0.3,0.3-0.3l0,0c0.2,0,0.3,0.1,0.3,0.3l0,0c0,0.2-0.2,0.3-0.3,0.3l0,0C256.1,191.6,256,191.5,256,191.3z
				 M251.9,191.3c0-0.2,0.1-0.3,0.3-0.3l0,0c0.2,0,0.3,0.1,0.3,0.3l0,0c0,0.2-0.1,0.3-0.3,0.3l0,0
				C252.1,191.6,251.9,191.5,251.9,191.3z M247.9,191.3c0-0.2,0.2-0.3,0.3-0.3l0,0c0.2,0,0.3,0.1,0.3,0.3l0,0c0,0.2-0.1,0.3-0.3,0.3
				l0,0C248.1,191.6,247.9,191.5,247.9,191.3z M243.9,191.3c0-0.2,0.1-0.3,0.3-0.3l0,0c0.2,0,0.3,0.1,0.3,0.3l0,0
				c0,0.2-0.1,0.3-0.3,0.3l0,0C244.1,191.6,243.9,191.5,243.9,191.3z M239.9,191.3c0-0.2,0.1-0.3,0.3-0.3l0,0c0.2,0,0.3,0.1,0.3,0.3
				l0,0c0,0.2-0.1,0.3-0.3,0.3l0,0C240,191.6,239.9,191.5,239.9,191.3z M235.9,191.3c0-0.2,0.1-0.3,0.3-0.3l0,0
				c0.2,0,0.3,0.1,0.3,0.3l0,0c0,0.2-0.1,0.3-0.3,0.3l0,0C236,191.6,235.9,191.5,235.9,191.3z M231.8,191.3c0-0.2,0.1-0.3,0.3-0.3
				l0,0c0.2,0,0.3,0.1,0.3,0.3l0,0c0,0.2-0.1,0.3-0.3,0.3l0,0C232,191.6,231.8,191.5,231.8,191.3z M227.8,191.3
				c0-0.2,0.1-0.3,0.3-0.3l0,0c0.2,0,0.3,0.1,0.3,0.3l0,0c0,0.2-0.1,0.3-0.3,0.3l0,0C228,191.6,227.8,191.5,227.8,191.3z
				 M223.8,191.3c0-0.2,0.1-0.3,0.3-0.3l0,0c0.2,0,0.3,0.1,0.3,0.3l0,0c0,0.2-0.1,0.3-0.3,0.3l0,0
				C224,191.6,223.8,191.5,223.8,191.3z M219.8,191.3c0-0.2,0.1-0.3,0.3-0.3l0,0c0.2,0,0.3,0.1,0.3,0.3l0,0c0,0.2-0.1,0.3-0.3,0.3
				l0,0C219.9,191.6,219.8,191.5,219.8,191.3z M215.8,191.3c0-0.2,0.1-0.3,0.3-0.3l0,0c0.2,0,0.3,0.1,0.3,0.3l0,0
				c0,0.2-0.1,0.3-0.3,0.3l0,0C215.9,191.6,215.8,191.5,215.8,191.3z M211.8,191.3c0-0.2,0.1-0.3,0.3-0.3l0,0c0.2,0,0.3,0.1,0.3,0.3
				l0,0c0,0.2-0.2,0.3-0.3,0.3l0,0C211.9,191.6,211.8,191.5,211.8,191.3z M207.7,191.3c0-0.2,0.1-0.3,0.3-0.3l0,0
				c0.2,0,0.3,0.1,0.3,0.3l0,0c0,0.2-0.1,0.3-0.3,0.3l0,0C207.9,191.6,207.7,191.5,207.7,191.3z M203.7,191.3c0-0.2,0.1-0.3,0.3-0.3
				l0,0c0.2,0,0.3,0.1,0.3,0.3l0,0c0,0.2-0.2,0.3-0.3,0.3l0,0C203.9,191.6,203.7,191.5,203.7,191.3z M199.7,191.3
				c0-0.2,0.1-0.3,0.3-0.3l0,0c0.2,0,0.3,0.1,0.3,0.3l0,0c0,0.2-0.1,0.3-0.3,0.3l0,0C199.8,191.6,199.7,191.5,199.7,191.3z
				 M195.7,191.3c0-0.2,0.2-0.3,0.3-0.3l0,0c0.2,0,0.3,0.1,0.3,0.3l0,0c0,0.2-0.1,0.3-0.3,0.3l0,0
				C195.8,191.6,195.7,191.5,195.7,191.3z M191.7,191.3c0-0.2,0.1-0.3,0.3-0.3l0,0c0.2,0,0.3,0.1,0.3,0.3l0,0c0,0.2-0.1,0.3-0.3,0.3
				l0,0C191.8,191.6,191.7,191.5,191.7,191.3z"/>
			<path class="st18" d="M417.1,191.6c-0.1,0-0.2,0-0.2-0.1c-0.1-0.1-0.1-0.1-0.1-0.2v-0.1c0,0,0-0.1,0.1-0.1c0.1-0.1,0.3-0.1,0.5,0
				c0.1,0.1,0.1,0.1,0.1,0.2c0,0.1,0,0.2-0.1,0.2C417.2,191.6,417.2,191.6,417.1,191.6z"/>
		</g>
		<g>
			<text transform="matrix(1 0 0 1 171.8433 192.6421)" class="st18 st4 st19">5000</text>
		</g>
	</g>
	<g>
		<g>
			<path class="st18" d="M188,209c-0.1,0-0.2,0-0.2-0.1c-0.1-0.1-0.1-0.1-0.1-0.2c0-0.1,0-0.2,0.1-0.2l0.1-0.1
				c0.1-0.1,0.3,0,0.4,0.1c0.1,0.1,0.1,0.1,0.1,0.2c0,0.1,0,0.2-0.1,0.2C188.1,208.9,188.1,209,188,209z"/>
			<path class="st18" d="M412.7,208.6c0-0.2,0.1-0.3,0.3-0.3l0,0c0.2,0,0.3,0.1,0.3,0.3l0,0c0,0.2-0.1,0.3-0.3,0.3l0,0
				C412.9,209,412.7,208.8,412.7,208.6z M408.7,208.6c0-0.2,0.1-0.3,0.3-0.3l0,0c0.2,0,0.3,0.1,0.3,0.3l0,0c0,0.2-0.1,0.3-0.3,0.3
				l0,0C408.8,209,408.7,208.8,408.7,208.6z M404.7,208.6c0-0.2,0.1-0.3,0.3-0.3l0,0c0.2,0,0.3,0.1,0.3,0.3l0,0
				c0,0.2-0.2,0.3-0.3,0.3l0,0C404.8,209,404.7,208.8,404.7,208.6z M400.6,208.6c0-0.2,0.1-0.3,0.3-0.3l0,0c0.2,0,0.3,0.1,0.3,0.3
				l0,0c0,0.2-0.1,0.3-0.3,0.3l0,0C400.8,209,400.6,208.8,400.6,208.6z M396.6,208.6c0-0.2,0.2-0.3,0.3-0.3l0,0
				c0.2,0,0.3,0.1,0.3,0.3l0,0c0,0.2-0.1,0.3-0.3,0.3l0,0C396.8,209,396.6,208.8,396.6,208.6z M392.6,208.6c0-0.2,0.1-0.3,0.3-0.3
				l0,0c0.2,0,0.3,0.1,0.3,0.3l0,0c0,0.2-0.1,0.3-0.3,0.3l0,0C392.8,209,392.6,208.8,392.6,208.6z M388.6,208.6
				c0-0.2,0.1-0.3,0.3-0.3l0,0c0.2,0,0.3,0.1,0.3,0.3l0,0c0,0.2-0.1,0.3-0.3,0.3l0,0C388.7,209,388.6,208.8,388.6,208.6z
				 M384.6,208.6c0-0.2,0.1-0.3,0.3-0.3l0,0c0.2,0,0.3,0.1,0.3,0.3l0,0c0,0.2-0.1,0.3-0.3,0.3l0,0
				C384.7,209,384.6,208.8,384.6,208.6z M380.6,208.6c0-0.2,0.1-0.3,0.3-0.3l0,0c0.2,0,0.3,0.1,0.3,0.3l0,0c0,0.2-0.1,0.3-0.3,0.3
				l0,0C380.7,209,380.6,208.8,380.6,208.6z M376.5,208.6c0-0.2,0.1-0.3,0.3-0.3l0,0c0.2,0,0.3,0.1,0.3,0.3l0,0
				c0,0.2-0.1,0.3-0.3,0.3l0,0C376.7,209,376.5,208.8,376.5,208.6z M372.5,208.6c0-0.2,0.1-0.3,0.3-0.3l0,0c0.2,0,0.3,0.1,0.3,0.3
				l0,0c0,0.2-0.1,0.3-0.3,0.3l0,0C372.7,209,372.5,208.8,372.5,208.6z M368.5,208.6c0-0.2,0.1-0.3,0.3-0.3l0,0
				c0.2,0,0.3,0.1,0.3,0.3l0,0c0,0.2-0.2,0.3-0.3,0.3l0,0C368.6,209,368.5,208.8,368.5,208.6z M364.5,208.6c0-0.2,0.1-0.3,0.3-0.3
				l0,0c0.2,0,0.3,0.1,0.3,0.3l0,0c0,0.2-0.1,0.3-0.3,0.3l0,0C364.6,209,364.5,208.8,364.5,208.6z M360.5,208.6
				c0-0.2,0.1-0.3,0.3-0.3l0,0c0.2,0,0.3,0.1,0.3,0.3l0,0c0,0.2-0.2,0.3-0.3,0.3l0,0C360.6,209,360.5,208.8,360.5,208.6z
				 M356.4,208.6c0-0.2,0.1-0.3,0.3-0.3l0,0c0.2,0,0.3,0.1,0.3,0.3l0,0c0,0.2-0.1,0.3-0.3,0.3l0,0
				C356.6,209,356.4,208.8,356.4,208.6z M352.4,208.6c0-0.2,0.1-0.3,0.3-0.3l0,0c0.2,0,0.3,0.1,0.3,0.3l0,0c0,0.2-0.2,0.3-0.3,0.3
				l0,0C352.6,209,352.4,208.8,352.4,208.6z M348.4,208.6c0-0.2,0.1-0.3,0.3-0.3l0,0c0.2,0,0.3,0.1,0.3,0.3l0,0
				c0,0.2-0.1,0.3-0.3,0.3l0,0C348.5,209,348.4,208.8,348.4,208.6z M344.4,208.6c0-0.2,0.2-0.3,0.3-0.3l0,0c0.2,0,0.3,0.1,0.3,0.3
				l0,0c0,0.2-0.1,0.3-0.3,0.3l0,0C344.5,209,344.4,208.8,344.4,208.6z M340.4,208.6c0-0.2,0.1-0.3,0.3-0.3l0,0
				c0.2,0,0.3,0.1,0.3,0.3l0,0c0,0.2-0.1,0.3-0.3,0.3l0,0C340.5,209,340.4,208.8,340.4,208.6z M336.3,208.6c0-0.2,0.1-0.3,0.3-0.3
				l0,0c0.2,0,0.3,0.1,0.3,0.3l0,0c0,0.2-0.1,0.3-0.3,0.3l0,0C336.5,209,336.3,208.8,336.3,208.6z M332.3,208.6
				c0-0.2,0.1-0.3,0.3-0.3l0,0c0.2,0,0.3,0.1,0.3,0.3l0,0c0,0.2-0.1,0.3-0.3,0.3l0,0C332.5,209,332.3,208.8,332.3,208.6z
				 M328.3,208.6c0-0.2,0.1-0.3,0.3-0.3l0,0c0.2,0,0.3,0.1,0.3,0.3l0,0c0,0.2-0.1,0.3-0.3,0.3l0,0
				C328.4,209,328.3,208.8,328.3,208.6z M324.3,208.6c0-0.2,0.1-0.3,0.3-0.3l0,0c0.2,0,0.3,0.1,0.3,0.3l0,0c0,0.2-0.1,0.3-0.3,0.3
				l0,0C324.4,209,324.3,208.8,324.3,208.6z M320.3,208.6c0-0.2,0.1-0.3,0.3-0.3l0,0c0.2,0,0.3,0.1,0.3,0.3l0,0
				c0,0.2-0.1,0.3-0.3,0.3l0,0C320.4,209,320.3,208.8,320.3,208.6z M316.3,208.6c0-0.2,0.1-0.3,0.3-0.3l0,0c0.2,0,0.3,0.1,0.3,0.3
				l0,0c0,0.2-0.2,0.3-0.3,0.3l0,0C316.4,209,316.3,208.8,316.3,208.6z M312.2,208.6c0-0.2,0.1-0.3,0.3-0.3l0,0
				c0.2,0,0.3,0.1,0.3,0.3l0,0c0,0.2-0.1,0.3-0.3,0.3l0,0C312.4,209,312.2,208.8,312.2,208.6z M308.2,208.6c0-0.2,0.1-0.3,0.3-0.3
				l0,0c0.2,0,0.3,0.1,0.3,0.3l0,0c0,0.2-0.2,0.3-0.3,0.3l0,0C308.4,209,308.2,208.8,308.2,208.6z M304.2,208.6
				c0-0.2,0.1-0.3,0.3-0.3l0,0c0.2,0,0.3,0.1,0.3,0.3l0,0c0,0.2-0.1,0.3-0.3,0.3l0,0C304.3,209,304.2,208.8,304.2,208.6z
				 M300.2,208.6c0-0.2,0.1-0.3,0.3-0.3l0,0c0.2,0,0.3,0.1,0.3,0.3l0,0c0,0.2-0.2,0.3-0.3,0.3l0,0
				C300.3,209,300.2,208.8,300.2,208.6z M296.2,208.6c0-0.2,0.1-0.3,0.3-0.3l0,0c0.2,0,0.3,0.1,0.3,0.3l0,0c0,0.2-0.1,0.3-0.3,0.3
				l0,0C296.3,209,296.2,208.8,296.2,208.6z M292.1,208.6c0-0.2,0.2-0.3,0.3-0.3l0,0c0.2,0,0.3,0.1,0.3,0.3l0,0
				c0,0.2-0.1,0.3-0.3,0.3l0,0C292.3,209,292.1,208.8,292.1,208.6z M288.1,208.6c0-0.2,0.1-0.3,0.3-0.3l0,0c0.2,0,0.3,0.1,0.3,0.3
				l0,0c0,0.2-0.1,0.3-0.3,0.3l0,0C288.3,209,288.1,208.8,288.1,208.6z M284.1,208.6c0-0.2,0.1-0.3,0.3-0.3l0,0
				c0.2,0,0.3,0.1,0.3,0.3l0,0c0,0.2-0.1,0.3-0.3,0.3l0,0C284.2,209,284.1,208.8,284.1,208.6z M280.1,208.6c0-0.2,0.1-0.3,0.3-0.3
				l0,0c0.2,0,0.3,0.1,0.3,0.3l0,0c0,0.2-0.2,0.3-0.3,0.3l0,0C280.2,209,280.1,208.8,280.1,208.6z M276.1,208.6
				c0-0.2,0.1-0.3,0.3-0.3l0,0c0.2,0,0.3,0.1,0.3,0.3l0,0c0,0.2-0.1,0.3-0.3,0.3l0,0C276.2,209,276.1,208.8,276.1,208.6z M272,208.6
				c0-0.2,0.1-0.3,0.3-0.3l0,0c0.2,0,0.3,0.1,0.3,0.3l0,0c0,0.2-0.1,0.3-0.3,0.3l0,0C272.2,209,272,208.8,272,208.6z M268,208.6
				c0-0.2,0.1-0.3,0.3-0.3l0,0c0.2,0,0.3,0.1,0.3,0.3l0,0c0,0.2-0.1,0.3-0.3,0.3l0,0C268.2,209,268,208.8,268,208.6z M264,208.6
				c0-0.2,0.1-0.3,0.3-0.3l0,0c0.2,0,0.3,0.1,0.3,0.3l0,0c0,0.2-0.2,0.3-0.3,0.3l0,0C264.2,209,264,208.8,264,208.6z M260,208.6
				c0-0.2,0.1-0.3,0.3-0.3l0,0c0.2,0,0.3,0.1,0.3,0.3l0,0c0,0.2-0.1,0.3-0.3,0.3l0,0C260.1,209,260,208.8,260,208.6z M256,208.6
				c0-0.2,0.1-0.3,0.3-0.3l0,0c0.2,0,0.3,0.1,0.3,0.3l0,0c0,0.2-0.2,0.3-0.3,0.3l0,0C256.1,209,256,208.8,256,208.6z M251.9,208.6
				c0-0.2,0.1-0.3,0.3-0.3l0,0c0.2,0,0.3,0.1,0.3,0.3l0,0c0,0.2-0.1,0.3-0.3,0.3l0,0C252.1,209,251.9,208.8,251.9,208.6z
				 M247.9,208.6c0-0.2,0.2-0.3,0.3-0.3l0,0c0.2,0,0.3,0.1,0.3,0.3l0,0c0,0.2-0.1,0.3-0.3,0.3l0,0
				C248.1,209,247.9,208.8,247.9,208.6z M243.9,208.6c0-0.2,0.1-0.3,0.3-0.3l0,0c0.2,0,0.3,0.1,0.3,0.3l0,0c0,0.2-0.1,0.3-0.3,0.3
				l0,0C244.1,209,243.9,208.8,243.9,208.6z M239.9,208.6c0-0.2,0.1-0.3,0.3-0.3l0,0c0.2,0,0.3,0.1,0.3,0.3l0,0
				c0,0.2-0.1,0.3-0.3,0.3l0,0C240,209,239.9,208.8,239.9,208.6z M235.9,208.6c0-0.2,0.1-0.3,0.3-0.3l0,0c0.2,0,0.3,0.1,0.3,0.3l0,0
				c0,0.2-0.1,0.3-0.3,0.3l0,0C236,209,235.9,208.8,235.9,208.6z M231.8,208.6c0-0.2,0.1-0.3,0.3-0.3l0,0c0.2,0,0.3,0.1,0.3,0.3l0,0
				c0,0.2-0.1,0.3-0.3,0.3l0,0C232,209,231.8,208.8,231.8,208.6z M227.8,208.6c0-0.2,0.1-0.3,0.3-0.3l0,0c0.2,0,0.3,0.1,0.3,0.3l0,0
				c0,0.2-0.1,0.3-0.3,0.3l0,0C228,209,227.8,208.8,227.8,208.6z M223.8,208.6c0-0.2,0.1-0.3,0.3-0.3l0,0c0.2,0,0.3,0.1,0.3,0.3l0,0
				c0,0.2-0.1,0.3-0.3,0.3l0,0C224,209,223.8,208.8,223.8,208.6z M219.8,208.6c0-0.2,0.1-0.3,0.3-0.3l0,0c0.2,0,0.3,0.1,0.3,0.3l0,0
				c0,0.2-0.1,0.3-0.3,0.3l0,0C219.9,209,219.8,208.8,219.8,208.6z M215.8,208.6c0-0.2,0.1-0.3,0.3-0.3l0,0c0.2,0,0.3,0.1,0.3,0.3
				l0,0c0,0.2-0.1,0.3-0.3,0.3l0,0C215.9,209,215.8,208.8,215.8,208.6z M211.8,208.6c0-0.2,0.1-0.3,0.3-0.3l0,0
				c0.2,0,0.3,0.1,0.3,0.3l0,0c0,0.2-0.2,0.3-0.3,0.3l0,0C211.9,209,211.8,208.8,211.8,208.6z M207.7,208.6c0-0.2,0.1-0.3,0.3-0.3
				l0,0c0.2,0,0.3,0.1,0.3,0.3l0,0c0,0.2-0.1,0.3-0.3,0.3l0,0C207.9,209,207.7,208.8,207.7,208.6z M203.7,208.6
				c0-0.2,0.1-0.3,0.3-0.3l0,0c0.2,0,0.3,0.1,0.3,0.3l0,0c0,0.2-0.2,0.3-0.3,0.3l0,0C203.9,209,203.7,208.8,203.7,208.6z
				 M199.7,208.6c0-0.2,0.1-0.3,0.3-0.3l0,0c0.2,0,0.3,0.1,0.3,0.3l0,0c0,0.2-0.1,0.3-0.3,0.3l0,0
				C199.8,209,199.7,208.8,199.7,208.6z M195.7,208.6c0-0.2,0.2-0.3,0.3-0.3l0,0c0.2,0,0.3,0.1,0.3,0.3l0,0c0,0.2-0.1,0.3-0.3,0.3
				l0,0C195.8,209,195.7,208.8,195.7,208.6z M191.7,208.6c0-0.2,0.1-0.3,0.3-0.3l0,0c0.2,0,0.3,0.1,0.3,0.3l0,0
				c0,0.2-0.1,0.3-0.3,0.3l0,0C191.8,209,191.7,208.8,191.7,208.6z"/>
			<path class="st18" d="M417.1,209c-0.1,0-0.2,0-0.2-0.1c-0.1-0.1-0.1-0.1-0.1-0.2c0-0.1,0-0.2,0.1-0.2c0.1-0.1,0.3-0.1,0.5,0
				c0.1,0.1,0.1,0.1,0.1,0.2c0,0.1,0,0.2-0.1,0.2C417.2,208.9,417.2,209,417.1,209z"/>
		</g>
		<g>
			<text transform="matrix(1 0 0 1 171.8433 210.0141)" class="st18 st4 st19">4000</text>
		</g>
	</g>
	<g>
		<g>
			<path class="st18" d="M188,226.3c-0.1,0-0.2,0-0.2-0.1c-0.1-0.1-0.1-0.1-0.1-0.2c0-0.1,0-0.2,0.1-0.2c0.1-0.1,0.3-0.1,0.5,0
				c0.1,0.1,0.1,0.1,0.1,0.2c0,0.1,0,0.2-0.1,0.2C188.1,226.3,188.1,226.3,188,226.3z"/>
			<path class="st18" d="M412.7,226c0-0.2,0.1-0.3,0.3-0.3l0,0c0.2,0,0.3,0.1,0.3,0.3l0,0c0,0.2-0.1,0.3-0.3,0.3l0,0
				C412.9,226.3,412.7,226.2,412.7,226z M408.7,226c0-0.2,0.1-0.3,0.3-0.3l0,0c0.2,0,0.3,0.1,0.3,0.3l0,0c0,0.2-0.1,0.3-0.3,0.3l0,0
				C408.8,226.3,408.7,226.2,408.7,226z M404.7,226c0-0.2,0.1-0.3,0.3-0.3l0,0c0.2,0,0.3,0.1,0.3,0.3l0,0c0,0.2-0.2,0.3-0.3,0.3l0,0
				C404.8,226.3,404.7,226.2,404.7,226z M400.6,226c0-0.2,0.1-0.3,0.3-0.3l0,0c0.2,0,0.3,0.1,0.3,0.3l0,0c0,0.2-0.1,0.3-0.3,0.3l0,0
				C400.8,226.3,400.6,226.2,400.6,226z M396.6,226c0-0.2,0.2-0.3,0.3-0.3l0,0c0.2,0,0.3,0.1,0.3,0.3l0,0c0,0.2-0.1,0.3-0.3,0.3l0,0
				C396.8,226.3,396.6,226.2,396.6,226z M392.6,226c0-0.2,0.1-0.3,0.3-0.3l0,0c0.2,0,0.3,0.1,0.3,0.3l0,0c0,0.2-0.1,0.3-0.3,0.3l0,0
				C392.8,226.3,392.6,226.2,392.6,226z M388.6,226c0-0.2,0.1-0.3,0.3-0.3l0,0c0.2,0,0.3,0.1,0.3,0.3l0,0c0,0.2-0.1,0.3-0.3,0.3l0,0
				C388.7,226.3,388.6,226.2,388.6,226z M384.6,226c0-0.2,0.1-0.3,0.3-0.3l0,0c0.2,0,0.3,0.1,0.3,0.3l0,0c0,0.2-0.1,0.3-0.3,0.3l0,0
				C384.7,226.3,384.6,226.2,384.6,226z M380.6,226c0-0.2,0.1-0.3,0.3-0.3l0,0c0.2,0,0.3,0.1,0.3,0.3l0,0c0,0.2-0.1,0.3-0.3,0.3l0,0
				C380.7,226.3,380.6,226.2,380.6,226z M376.5,226c0-0.2,0.1-0.3,0.3-0.3l0,0c0.2,0,0.3,0.1,0.3,0.3l0,0c0,0.2-0.1,0.3-0.3,0.3l0,0
				C376.7,226.3,376.5,226.2,376.5,226z M372.5,226c0-0.2,0.1-0.3,0.3-0.3l0,0c0.2,0,0.3,0.1,0.3,0.3l0,0c0,0.2-0.1,0.3-0.3,0.3l0,0
				C372.7,226.3,372.5,226.2,372.5,226z M368.5,226c0-0.2,0.1-0.3,0.3-0.3l0,0c0.2,0,0.3,0.1,0.3,0.3l0,0c0,0.2-0.2,0.3-0.3,0.3l0,0
				C368.6,226.3,368.5,226.2,368.5,226z M364.5,226c0-0.2,0.1-0.3,0.3-0.3l0,0c0.2,0,0.3,0.1,0.3,0.3l0,0c0,0.2-0.1,0.3-0.3,0.3l0,0
				C364.6,226.3,364.5,226.2,364.5,226z M360.5,226c0-0.2,0.1-0.3,0.3-0.3l0,0c0.2,0,0.3,0.1,0.3,0.3l0,0c0,0.2-0.2,0.3-0.3,0.3l0,0
				C360.6,226.3,360.5,226.2,360.5,226z M356.4,226c0-0.2,0.1-0.3,0.3-0.3l0,0c0.2,0,0.3,0.1,0.3,0.3l0,0c0,0.2-0.1,0.3-0.3,0.3l0,0
				C356.6,226.3,356.4,226.2,356.4,226z M352.4,226c0-0.2,0.1-0.3,0.3-0.3l0,0c0.2,0,0.3,0.1,0.3,0.3l0,0c0,0.2-0.2,0.3-0.3,0.3l0,0
				C352.6,226.3,352.4,226.2,352.4,226z M348.4,226c0-0.2,0.1-0.3,0.3-0.3l0,0c0.2,0,0.3,0.1,0.3,0.3l0,0c0,0.2-0.1,0.3-0.3,0.3l0,0
				C348.5,226.3,348.4,226.2,348.4,226z M344.4,226c0-0.2,0.2-0.3,0.3-0.3l0,0c0.2,0,0.3,0.1,0.3,0.3l0,0c0,0.2-0.1,0.3-0.3,0.3l0,0
				C344.5,226.3,344.4,226.2,344.4,226z M340.4,226c0-0.2,0.1-0.3,0.3-0.3l0,0c0.2,0,0.3,0.1,0.3,0.3l0,0c0,0.2-0.1,0.3-0.3,0.3l0,0
				C340.5,226.3,340.4,226.2,340.4,226z M336.3,226c0-0.2,0.1-0.3,0.3-0.3l0,0c0.2,0,0.3,0.1,0.3,0.3l0,0c0,0.2-0.1,0.3-0.3,0.3l0,0
				C336.5,226.3,336.3,226.2,336.3,226z M332.3,226c0-0.2,0.1-0.3,0.3-0.3l0,0c0.2,0,0.3,0.1,0.3,0.3l0,0c0,0.2-0.1,0.3-0.3,0.3l0,0
				C332.5,226.3,332.3,226.2,332.3,226z M328.3,226c0-0.2,0.1-0.3,0.3-0.3l0,0c0.2,0,0.3,0.1,0.3,0.3l0,0c0,0.2-0.1,0.3-0.3,0.3l0,0
				C328.4,226.3,328.3,226.2,328.3,226z M324.3,226c0-0.2,0.1-0.3,0.3-0.3l0,0c0.2,0,0.3,0.1,0.3,0.3l0,0c0,0.2-0.1,0.3-0.3,0.3l0,0
				C324.4,226.3,324.3,226.2,324.3,226z M320.3,226c0-0.2,0.1-0.3,0.3-0.3l0,0c0.2,0,0.3,0.1,0.3,0.3l0,0c0,0.2-0.1,0.3-0.3,0.3l0,0
				C320.4,226.3,320.3,226.2,320.3,226z M316.3,226c0-0.2,0.1-0.3,0.3-0.3l0,0c0.2,0,0.3,0.1,0.3,0.3l0,0c0,0.2-0.2,0.3-0.3,0.3l0,0
				C316.4,226.3,316.3,226.2,316.3,226z M312.2,226c0-0.2,0.1-0.3,0.3-0.3l0,0c0.2,0,0.3,0.1,0.3,0.3l0,0c0,0.2-0.1,0.3-0.3,0.3l0,0
				C312.4,226.3,312.2,226.2,312.2,226z M308.2,226c0-0.2,0.1-0.3,0.3-0.3l0,0c0.2,0,0.3,0.1,0.3,0.3l0,0c0,0.2-0.2,0.3-0.3,0.3l0,0
				C308.4,226.3,308.2,226.2,308.2,226z M304.2,226c0-0.2,0.1-0.3,0.3-0.3l0,0c0.2,0,0.3,0.1,0.3,0.3l0,0c0,0.2-0.1,0.3-0.3,0.3l0,0
				C304.3,226.3,304.2,226.2,304.2,226z M300.2,226c0-0.2,0.1-0.3,0.3-0.3l0,0c0.2,0,0.3,0.1,0.3,0.3l0,0c0,0.2-0.2,0.3-0.3,0.3l0,0
				C300.3,226.3,300.2,226.2,300.2,226z M296.2,226c0-0.2,0.1-0.3,0.3-0.3l0,0c0.2,0,0.3,0.1,0.3,0.3l0,0c0,0.2-0.1,0.3-0.3,0.3l0,0
				C296.3,226.3,296.2,226.2,296.2,226z M292.1,226c0-0.2,0.2-0.3,0.3-0.3l0,0c0.2,0,0.3,0.1,0.3,0.3l0,0c0,0.2-0.1,0.3-0.3,0.3l0,0
				C292.3,226.3,292.1,226.2,292.1,226z M288.1,226c0-0.2,0.1-0.3,0.3-0.3l0,0c0.2,0,0.3,0.1,0.3,0.3l0,0c0,0.2-0.1,0.3-0.3,0.3l0,0
				C288.3,226.3,288.1,226.2,288.1,226z M284.1,226c0-0.2,0.1-0.3,0.3-0.3l0,0c0.2,0,0.3,0.1,0.3,0.3l0,0c0,0.2-0.1,0.3-0.3,0.3l0,0
				C284.2,226.3,284.1,226.2,284.1,226z M280.1,226c0-0.2,0.1-0.3,0.3-0.3l0,0c0.2,0,0.3,0.1,0.3,0.3l0,0c0,0.2-0.2,0.3-0.3,0.3l0,0
				C280.2,226.3,280.1,226.2,280.1,226z M276.1,226c0-0.2,0.1-0.3,0.3-0.3l0,0c0.2,0,0.3,0.1,0.3,0.3l0,0c0,0.2-0.1,0.3-0.3,0.3l0,0
				C276.2,226.3,276.1,226.2,276.1,226z M272,226c0-0.2,0.1-0.3,0.3-0.3l0,0c0.2,0,0.3,0.1,0.3,0.3l0,0c0,0.2-0.1,0.3-0.3,0.3l0,0
				C272.2,226.3,272,226.2,272,226z M268,226c0-0.2,0.1-0.3,0.3-0.3l0,0c0.2,0,0.3,0.1,0.3,0.3l0,0c0,0.2-0.1,0.3-0.3,0.3l0,0
				C268.2,226.3,268,226.2,268,226z M264,226c0-0.2,0.1-0.3,0.3-0.3l0,0c0.2,0,0.3,0.1,0.3,0.3l0,0c0,0.2-0.2,0.3-0.3,0.3l0,0
				C264.2,226.3,264,226.2,264,226z M260,226c0-0.2,0.1-0.3,0.3-0.3l0,0c0.2,0,0.3,0.1,0.3,0.3l0,0c0,0.2-0.1,0.3-0.3,0.3l0,0
				C260.1,226.3,260,226.2,260,226z M256,226c0-0.2,0.1-0.3,0.3-0.3l0,0c0.2,0,0.3,0.1,0.3,0.3l0,0c0,0.2-0.2,0.3-0.3,0.3l0,0
				C256.1,226.3,256,226.2,256,226z M251.9,226c0-0.2,0.1-0.3,0.3-0.3l0,0c0.2,0,0.3,0.1,0.3,0.3l0,0c0,0.2-0.1,0.3-0.3,0.3l0,0
				C252.1,226.3,251.9,226.2,251.9,226z M247.9,226c0-0.2,0.2-0.3,0.3-0.3l0,0c0.2,0,0.3,0.1,0.3,0.3l0,0c0,0.2-0.1,0.3-0.3,0.3l0,0
				C248.1,226.3,247.9,226.2,247.9,226z M243.9,226c0-0.2,0.1-0.3,0.3-0.3l0,0c0.2,0,0.3,0.1,0.3,0.3l0,0c0,0.2-0.1,0.3-0.3,0.3l0,0
				C244.1,226.3,243.9,226.2,243.9,226z M239.9,226c0-0.2,0.1-0.3,0.3-0.3l0,0c0.2,0,0.3,0.1,0.3,0.3l0,0c0,0.2-0.1,0.3-0.3,0.3l0,0
				C240,226.3,239.9,226.2,239.9,226z M235.9,226c0-0.2,0.1-0.3,0.3-0.3l0,0c0.2,0,0.3,0.1,0.3,0.3l0,0c0,0.2-0.1,0.3-0.3,0.3l0,0
				C236,226.3,235.9,226.2,235.9,226z M231.8,226c0-0.2,0.1-0.3,0.3-0.3l0,0c0.2,0,0.3,0.1,0.3,0.3l0,0c0,0.2-0.1,0.3-0.3,0.3l0,0
				C232,226.3,231.8,226.2,231.8,226z M227.8,226c0-0.2,0.1-0.3,0.3-0.3l0,0c0.2,0,0.3,0.1,0.3,0.3l0,0c0,0.2-0.1,0.3-0.3,0.3l0,0
				C228,226.3,227.8,226.2,227.8,226z M223.8,226c0-0.2,0.1-0.3,0.3-0.3l0,0c0.2,0,0.3,0.1,0.3,0.3l0,0c0,0.2-0.1,0.3-0.3,0.3l0,0
				C224,226.3,223.8,226.2,223.8,226z M219.8,226c0-0.2,0.1-0.3,0.3-0.3l0,0c0.2,0,0.3,0.1,0.3,0.3l0,0c0,0.2-0.1,0.3-0.3,0.3l0,0
				C219.9,226.3,219.8,226.2,219.8,226z M215.8,226c0-0.2,0.1-0.3,0.3-0.3l0,0c0.2,0,0.3,0.1,0.3,0.3l0,0c0,0.2-0.1,0.3-0.3,0.3l0,0
				C215.9,226.3,215.8,226.2,215.8,226z M211.8,226c0-0.2,0.1-0.3,0.3-0.3l0,0c0.2,0,0.3,0.1,0.3,0.3l0,0c0,0.2-0.2,0.3-0.3,0.3l0,0
				C211.9,226.3,211.8,226.2,211.8,226z M207.7,226c0-0.2,0.1-0.3,0.3-0.3l0,0c0.2,0,0.3,0.1,0.3,0.3l0,0c0,0.2-0.1,0.3-0.3,0.3l0,0
				C207.9,226.3,207.7,226.2,207.7,226z M203.7,226c0-0.2,0.1-0.3,0.3-0.3l0,0c0.2,0,0.3,0.1,0.3,0.3l0,0c0,0.2-0.2,0.3-0.3,0.3l0,0
				C203.9,226.3,203.7,226.2,203.7,226z M199.7,226c0-0.2,0.1-0.3,0.3-0.3l0,0c0.2,0,0.3,0.1,0.3,0.3l0,0c0,0.2-0.1,0.3-0.3,0.3l0,0
				C199.8,226.3,199.7,226.2,199.7,226z M195.7,226c0-0.2,0.2-0.3,0.3-0.3l0,0c0.2,0,0.3,0.1,0.3,0.3l0,0c0,0.2-0.1,0.3-0.3,0.3l0,0
				C195.8,226.3,195.7,226.2,195.7,226z M191.7,226c0-0.2,0.1-0.3,0.3-0.3l0,0c0.2,0,0.3,0.1,0.3,0.3l0,0c0,0.2-0.1,0.3-0.3,0.3l0,0
				C191.8,226.3,191.7,226.2,191.7,226z"/>
			<path class="st18" d="M417.1,226.3c-0.1,0-0.2,0-0.2-0.1c-0.1-0.1-0.1-0.1-0.1-0.2c0-0.1,0-0.2,0.1-0.2c0.1-0.1,0.3-0.1,0.5,0
				l0.1,0.1v0.1c0,0.1,0,0.2-0.1,0.2C417.2,226.3,417.2,226.3,417.1,226.3z"/>
		</g>
		<g>
			<text transform="matrix(1 0 0 1 171.8433 227.3852)" class="st18 st4 st19">3000</text>
		</g>
	</g>
	<g>
		<g>
			<path class="st18" d="M188,243.7c-0.1,0-0.2,0-0.2-0.1c-0.1-0.1-0.1-0.1-0.1-0.2c0-0.1,0-0.2,0.1-0.2l0.1-0.1
				c0.1-0.1,0.3,0,0.4,0.1c0.1,0.1,0.1,0.1,0.1,0.2c0,0.1,0,0.2-0.1,0.2C188.1,243.7,188.1,243.7,188,243.7z"/>
			<path class="st18" d="M412.7,243.4c0-0.2,0.1-0.3,0.3-0.3l0,0c0.2,0,0.3,0.1,0.3,0.3l0,0c0,0.2-0.1,0.3-0.3,0.3l0,0
				C412.9,243.7,412.7,243.6,412.7,243.4z M408.7,243.4c0-0.2,0.1-0.3,0.3-0.3l0,0c0.2,0,0.3,0.1,0.3,0.3l0,0c0,0.2-0.1,0.3-0.3,0.3
				l0,0C408.8,243.7,408.7,243.6,408.7,243.4z M404.7,243.4c0-0.2,0.1-0.3,0.3-0.3l0,0c0.2,0,0.3,0.1,0.3,0.3l0,0
				c0,0.2-0.2,0.3-0.3,0.3l0,0C404.8,243.7,404.7,243.6,404.7,243.4z M400.6,243.4c0-0.2,0.1-0.3,0.3-0.3l0,0c0.2,0,0.3,0.1,0.3,0.3
				l0,0c0,0.2-0.1,0.3-0.3,0.3l0,0C400.8,243.7,400.6,243.6,400.6,243.4z M396.6,243.4c0-0.2,0.2-0.3,0.3-0.3l0,0
				c0.2,0,0.3,0.1,0.3,0.3l0,0c0,0.2-0.1,0.3-0.3,0.3l0,0C396.8,243.7,396.6,243.6,396.6,243.4z M392.6,243.4c0-0.2,0.1-0.3,0.3-0.3
				l0,0c0.2,0,0.3,0.1,0.3,0.3l0,0c0,0.2-0.1,0.3-0.3,0.3l0,0C392.8,243.7,392.6,243.6,392.6,243.4z M388.6,243.4
				c0-0.2,0.1-0.3,0.3-0.3l0,0c0.2,0,0.3,0.1,0.3,0.3l0,0c0,0.2-0.1,0.3-0.3,0.3l0,0C388.7,243.7,388.6,243.6,388.6,243.4z
				 M384.6,243.4c0-0.2,0.1-0.3,0.3-0.3l0,0c0.2,0,0.3,0.1,0.3,0.3l0,0c0,0.2-0.1,0.3-0.3,0.3l0,0
				C384.7,243.7,384.6,243.6,384.6,243.4z M380.6,243.4c0-0.2,0.1-0.3,0.3-0.3l0,0c0.2,0,0.3,0.1,0.3,0.3l0,0c0,0.2-0.1,0.3-0.3,0.3
				l0,0C380.7,243.7,380.6,243.6,380.6,243.4z M376.5,243.4c0-0.2,0.1-0.3,0.3-0.3l0,0c0.2,0,0.3,0.1,0.3,0.3l0,0
				c0,0.2-0.1,0.3-0.3,0.3l0,0C376.7,243.7,376.5,243.6,376.5,243.4z M372.5,243.4c0-0.2,0.1-0.3,0.3-0.3l0,0c0.2,0,0.3,0.1,0.3,0.3
				l0,0c0,0.2-0.1,0.3-0.3,0.3l0,0C372.7,243.7,372.5,243.6,372.5,243.4z M368.5,243.4c0-0.2,0.1-0.3,0.3-0.3l0,0
				c0.2,0,0.3,0.1,0.3,0.3l0,0c0,0.2-0.2,0.3-0.3,0.3l0,0C368.6,243.7,368.5,243.6,368.5,243.4z M364.5,243.4c0-0.2,0.1-0.3,0.3-0.3
				l0,0c0.2,0,0.3,0.1,0.3,0.3l0,0c0,0.2-0.1,0.3-0.3,0.3l0,0C364.6,243.7,364.5,243.6,364.5,243.4z M360.5,243.4
				c0-0.2,0.1-0.3,0.3-0.3l0,0c0.2,0,0.3,0.1,0.3,0.3l0,0c0,0.2-0.2,0.3-0.3,0.3l0,0C360.6,243.7,360.5,243.6,360.5,243.4z
				 M356.4,243.4c0-0.2,0.1-0.3,0.3-0.3l0,0c0.2,0,0.3,0.1,0.3,0.3l0,0c0,0.2-0.1,0.3-0.3,0.3l0,0
				C356.6,243.7,356.4,243.6,356.4,243.4z M352.4,243.4c0-0.2,0.1-0.3,0.3-0.3l0,0c0.2,0,0.3,0.1,0.3,0.3l0,0c0,0.2-0.2,0.3-0.3,0.3
				l0,0C352.6,243.7,352.4,243.6,352.4,243.4z M348.4,243.4c0-0.2,0.1-0.3,0.3-0.3l0,0c0.2,0,0.3,0.1,0.3,0.3l0,0
				c0,0.2-0.1,0.3-0.3,0.3l0,0C348.5,243.7,348.4,243.6,348.4,243.4z M344.4,243.4c0-0.2,0.2-0.3,0.3-0.3l0,0c0.2,0,0.3,0.1,0.3,0.3
				l0,0c0,0.2-0.1,0.3-0.3,0.3l0,0C344.5,243.7,344.4,243.6,344.4,243.4z M340.4,243.4c0-0.2,0.1-0.3,0.3-0.3l0,0
				c0.2,0,0.3,0.1,0.3,0.3l0,0c0,0.2-0.1,0.3-0.3,0.3l0,0C340.5,243.7,340.4,243.6,340.4,243.4z M336.3,243.4c0-0.2,0.1-0.3,0.3-0.3
				l0,0c0.2,0,0.3,0.1,0.3,0.3l0,0c0,0.2-0.1,0.3-0.3,0.3l0,0C336.5,243.7,336.3,243.6,336.3,243.4z M332.3,243.4
				c0-0.2,0.1-0.3,0.3-0.3l0,0c0.2,0,0.3,0.1,0.3,0.3l0,0c0,0.2-0.1,0.3-0.3,0.3l0,0C332.5,243.7,332.3,243.6,332.3,243.4z
				 M328.3,243.4c0-0.2,0.1-0.3,0.3-0.3l0,0c0.2,0,0.3,0.1,0.3,0.3l0,0c0,0.2-0.1,0.3-0.3,0.3l0,0
				C328.4,243.7,328.3,243.6,328.3,243.4z M324.3,243.4c0-0.2,0.1-0.3,0.3-0.3l0,0c0.2,0,0.3,0.1,0.3,0.3l0,0c0,0.2-0.1,0.3-0.3,0.3
				l0,0C324.4,243.7,324.3,243.6,324.3,243.4z M320.3,243.4c0-0.2,0.1-0.3,0.3-0.3l0,0c0.2,0,0.3,0.1,0.3,0.3l0,0
				c0,0.2-0.1,0.3-0.3,0.3l0,0C320.4,243.7,320.3,243.6,320.3,243.4z M316.3,243.4c0-0.2,0.1-0.3,0.3-0.3l0,0c0.2,0,0.3,0.1,0.3,0.3
				l0,0c0,0.2-0.2,0.3-0.3,0.3l0,0C316.4,243.7,316.3,243.6,316.3,243.4z M312.2,243.4c0-0.2,0.1-0.3,0.3-0.3l0,0
				c0.2,0,0.3,0.1,0.3,0.3l0,0c0,0.2-0.1,0.3-0.3,0.3l0,0C312.4,243.7,312.2,243.6,312.2,243.4z M308.2,243.4c0-0.2,0.1-0.3,0.3-0.3
				l0,0c0.2,0,0.3,0.1,0.3,0.3l0,0c0,0.2-0.2,0.3-0.3,0.3l0,0C308.4,243.7,308.2,243.6,308.2,243.4z M304.2,243.4
				c0-0.2,0.1-0.3,0.3-0.3l0,0c0.2,0,0.3,0.1,0.3,0.3l0,0c0,0.2-0.1,0.3-0.3,0.3l0,0C304.3,243.7,304.2,243.6,304.2,243.4z
				 M300.2,243.4c0-0.2,0.1-0.3,0.3-0.3l0,0c0.2,0,0.3,0.1,0.3,0.3l0,0c0,0.2-0.2,0.3-0.3,0.3l0,0
				C300.3,243.7,300.2,243.6,300.2,243.4z M296.2,243.4c0-0.2,0.1-0.3,0.3-0.3l0,0c0.2,0,0.3,0.1,0.3,0.3l0,0c0,0.2-0.1,0.3-0.3,0.3
				l0,0C296.3,243.7,296.2,243.6,296.2,243.4z M292.1,243.4c0-0.2,0.2-0.3,0.3-0.3l0,0c0.2,0,0.3,0.1,0.3,0.3l0,0
				c0,0.2-0.1,0.3-0.3,0.3l0,0C292.3,243.7,292.1,243.6,292.1,243.4z M288.1,243.4c0-0.2,0.1-0.3,0.3-0.3l0,0c0.2,0,0.3,0.1,0.3,0.3
				l0,0c0,0.2-0.1,0.3-0.3,0.3l0,0C288.3,243.7,288.1,243.6,288.1,243.4z M284.1,243.4c0-0.2,0.1-0.3,0.3-0.3l0,0
				c0.2,0,0.3,0.1,0.3,0.3l0,0c0,0.2-0.1,0.3-0.3,0.3l0,0C284.2,243.7,284.1,243.6,284.1,243.4z M280.1,243.4c0-0.2,0.1-0.3,0.3-0.3
				l0,0c0.2,0,0.3,0.1,0.3,0.3l0,0c0,0.2-0.2,0.3-0.3,0.3l0,0C280.2,243.7,280.1,243.6,280.1,243.4z M276.1,243.4
				c0-0.2,0.1-0.3,0.3-0.3l0,0c0.2,0,0.3,0.1,0.3,0.3l0,0c0,0.2-0.1,0.3-0.3,0.3l0,0C276.2,243.7,276.1,243.6,276.1,243.4z
				 M272,243.4c0-0.2,0.1-0.3,0.3-0.3l0,0c0.2,0,0.3,0.1,0.3,0.3l0,0c0,0.2-0.1,0.3-0.3,0.3l0,0C272.2,243.7,272,243.6,272,243.4z
				 M268,243.4c0-0.2,0.1-0.3,0.3-0.3l0,0c0.2,0,0.3,0.1,0.3,0.3l0,0c0,0.2-0.1,0.3-0.3,0.3l0,0C268.2,243.7,268,243.6,268,243.4z
				 M264,243.4c0-0.2,0.1-0.3,0.3-0.3l0,0c0.2,0,0.3,0.1,0.3,0.3l0,0c0,0.2-0.2,0.3-0.3,0.3l0,0C264.2,243.7,264,243.6,264,243.4z
				 M260,243.4c0-0.2,0.1-0.3,0.3-0.3l0,0c0.2,0,0.3,0.1,0.3,0.3l0,0c0,0.2-0.1,0.3-0.3,0.3l0,0C260.1,243.7,260,243.6,260,243.4z
				 M256,243.4c0-0.2,0.1-0.3,0.3-0.3l0,0c0.2,0,0.3,0.1,0.3,0.3l0,0c0,0.2-0.2,0.3-0.3,0.3l0,0C256.1,243.7,256,243.6,256,243.4z
				 M251.9,243.4c0-0.2,0.1-0.3,0.3-0.3l0,0c0.2,0,0.3,0.1,0.3,0.3l0,0c0,0.2-0.1,0.3-0.3,0.3l0,0
				C252.1,243.7,251.9,243.6,251.9,243.4z M247.9,243.4c0-0.2,0.2-0.3,0.3-0.3l0,0c0.2,0,0.3,0.1,0.3,0.3l0,0c0,0.2-0.1,0.3-0.3,0.3
				l0,0C248.1,243.7,247.9,243.6,247.9,243.4z M243.9,243.4c0-0.2,0.1-0.3,0.3-0.3l0,0c0.2,0,0.3,0.1,0.3,0.3l0,0
				c0,0.2-0.1,0.3-0.3,0.3l0,0C244.1,243.7,243.9,243.6,243.9,243.4z M239.9,243.4c0-0.2,0.1-0.3,0.3-0.3l0,0c0.2,0,0.3,0.1,0.3,0.3
				l0,0c0,0.2-0.1,0.3-0.3,0.3l0,0C240,243.7,239.9,243.6,239.9,243.4z M235.9,243.4c0-0.2,0.1-0.3,0.3-0.3l0,0
				c0.2,0,0.3,0.1,0.3,0.3l0,0c0,0.2-0.1,0.3-0.3,0.3l0,0C236,243.7,235.9,243.6,235.9,243.4z M231.8,243.4c0-0.2,0.1-0.3,0.3-0.3
				l0,0c0.2,0,0.3,0.1,0.3,0.3l0,0c0,0.2-0.1,0.3-0.3,0.3l0,0C232,243.7,231.8,243.6,231.8,243.4z M227.8,243.4
				c0-0.2,0.1-0.3,0.3-0.3l0,0c0.2,0,0.3,0.1,0.3,0.3l0,0c0,0.2-0.1,0.3-0.3,0.3l0,0C228,243.7,227.8,243.6,227.8,243.4z
				 M223.8,243.4c0-0.2,0.1-0.3,0.3-0.3l0,0c0.2,0,0.3,0.1,0.3,0.3l0,0c0,0.2-0.1,0.3-0.3,0.3l0,0
				C224,243.7,223.8,243.6,223.8,243.4z M219.8,243.4c0-0.2,0.1-0.3,0.3-0.3l0,0c0.2,0,0.3,0.1,0.3,0.3l0,0c0,0.2-0.1,0.3-0.3,0.3
				l0,0C219.9,243.7,219.8,243.6,219.8,243.4z M215.8,243.4c0-0.2,0.1-0.3,0.3-0.3l0,0c0.2,0,0.3,0.1,0.3,0.3l0,0
				c0,0.2-0.1,0.3-0.3,0.3l0,0C215.9,243.7,215.8,243.6,215.8,243.4z M211.8,243.4c0-0.2,0.1-0.3,0.3-0.3l0,0c0.2,0,0.3,0.1,0.3,0.3
				l0,0c0,0.2-0.2,0.3-0.3,0.3l0,0C211.9,243.7,211.8,243.6,211.8,243.4z M207.7,243.4c0-0.2,0.1-0.3,0.3-0.3l0,0
				c0.2,0,0.3,0.1,0.3,0.3l0,0c0,0.2-0.1,0.3-0.3,0.3l0,0C207.9,243.7,207.7,243.6,207.7,243.4z M203.7,243.4c0-0.2,0.1-0.3,0.3-0.3
				l0,0c0.2,0,0.3,0.1,0.3,0.3l0,0c0,0.2-0.2,0.3-0.3,0.3l0,0C203.9,243.7,203.7,243.6,203.7,243.4z M199.7,243.4
				c0-0.2,0.1-0.3,0.3-0.3l0,0c0.2,0,0.3,0.1,0.3,0.3l0,0c0,0.2-0.1,0.3-0.3,0.3l0,0C199.8,243.7,199.7,243.6,199.7,243.4z
				 M195.7,243.4c0-0.2,0.2-0.3,0.3-0.3l0,0c0.2,0,0.3,0.1,0.3,0.3l0,0c0,0.2-0.1,0.3-0.3,0.3l0,0
				C195.8,243.7,195.7,243.6,195.7,243.4z M191.7,243.4c0-0.2,0.1-0.3,0.3-0.3l0,0c0.2,0,0.3,0.1,0.3,0.3l0,0c0,0.2-0.1,0.3-0.3,0.3
				l0,0C191.8,243.7,191.7,243.6,191.7,243.4z"/>
			<path class="st18" d="M417.1,243.7c-0.1,0-0.2,0-0.2-0.1c-0.1-0.1-0.1-0.1-0.1-0.2c0-0.1,0-0.2,0.1-0.2c0.1-0.1,0.3-0.1,0.5,0
				c0.1,0.1,0.1,0.1,0.1,0.2c0,0.1,0,0.2-0.1,0.2C417.2,243.7,417.2,243.7,417.1,243.7z"/>
		</g>
		<g>
			<text transform="matrix(1 0 0 1 171.8433 244.7573)" class="st18 st4 st19">2000</text>
		</g>
	</g>
	<g>
		<g>
			<path class="st18" d="M188,261.1c-0.1,0-0.2,0-0.2-0.1c-0.1-0.1-0.1-0.1-0.1-0.2s0-0.2,0.1-0.2l0.1-0.1c0.1-0.1,0.3,0,0.4,0.1
				c0.1,0.1,0.1,0.1,0.1,0.2s0,0.2-0.1,0.2C188.1,261.1,188.1,261.1,188,261.1z"/>
			<path class="st18" d="M412.7,260.8c0-0.2,0.1-0.3,0.3-0.3l0,0c0.2,0,0.3,0.1,0.3,0.3l0,0c0,0.2-0.2,0.3-0.3,0.3l0,0
				C412.9,261.1,412.7,260.9,412.7,260.8z M408.7,260.8c0-0.2,0.1-0.3,0.3-0.3l0,0c0.2,0,0.3,0.1,0.3,0.3l0,0c0,0.2-0.1,0.3-0.3,0.3
				l0,0C408.8,261.1,408.7,260.9,408.7,260.8z M404.7,260.8c0-0.2,0.1-0.3,0.3-0.3l0,0c0.2,0,0.3,0.1,0.3,0.3l0,0
				c0,0.2-0.2,0.3-0.3,0.3l0,0C404.8,261.1,404.7,260.9,404.7,260.8z M400.6,260.8c0-0.2,0.1-0.3,0.3-0.3l0,0c0.2,0,0.3,0.1,0.3,0.3
				l0,0c0,0.2-0.1,0.3-0.3,0.3l0,0C400.8,261.1,400.6,260.9,400.6,260.8z M396.6,260.8c0-0.2,0.2-0.3,0.3-0.3l0,0
				c0.2,0,0.3,0.1,0.3,0.3l0,0c0,0.2-0.2,0.3-0.3,0.3l0,0C396.8,261.1,396.6,260.9,396.6,260.8z M392.6,260.8c0-0.2,0.1-0.3,0.3-0.3
				l0,0c0.2,0,0.3,0.1,0.3,0.3l0,0c0,0.2-0.1,0.3-0.3,0.3l0,0C392.8,261.1,392.6,260.9,392.6,260.8z M388.6,260.8
				c0-0.2,0.1-0.3,0.3-0.3l0,0c0.2,0,0.3,0.1,0.3,0.3l0,0c0,0.2-0.1,0.3-0.3,0.3l0,0C388.7,261.1,388.6,260.9,388.6,260.8z
				 M384.6,260.8c0-0.2,0.1-0.3,0.3-0.3l0,0c0.2,0,0.3,0.1,0.3,0.3l0,0c0,0.2-0.1,0.3-0.3,0.3l0,0
				C384.7,261.1,384.6,260.9,384.6,260.8z M380.6,260.8c0-0.2,0.1-0.3,0.3-0.3l0,0c0.2,0,0.3,0.1,0.3,0.3l0,0c0,0.2-0.1,0.3-0.3,0.3
				l0,0C380.7,261.1,380.6,260.9,380.6,260.8z M376.5,260.8c0-0.2,0.1-0.3,0.3-0.3l0,0c0.2,0,0.3,0.1,0.3,0.3l0,0
				c0,0.2-0.1,0.3-0.3,0.3l0,0C376.7,261.1,376.5,260.9,376.5,260.8z M372.5,260.8c0-0.2,0.1-0.3,0.3-0.3l0,0c0.2,0,0.3,0.1,0.3,0.3
				l0,0c0,0.2-0.1,0.3-0.3,0.3l0,0C372.7,261.1,372.5,260.9,372.5,260.8z M368.5,260.8c0-0.2,0.1-0.3,0.3-0.3l0,0
				c0.2,0,0.3,0.1,0.3,0.3l0,0c0,0.2-0.2,0.3-0.3,0.3l0,0C368.6,261.1,368.5,260.9,368.5,260.8z M364.5,260.8c0-0.2,0.1-0.3,0.3-0.3
				l0,0c0.2,0,0.3,0.1,0.3,0.3l0,0c0,0.2-0.1,0.3-0.3,0.3l0,0C364.6,261.1,364.5,260.9,364.5,260.8z M360.5,260.8
				c0-0.2,0.1-0.3,0.3-0.3l0,0c0.2,0,0.3,0.1,0.3,0.3l0,0c0,0.2-0.2,0.3-0.3,0.3l0,0C360.6,261.1,360.5,260.9,360.5,260.8z
				 M356.4,260.8c0-0.2,0.1-0.3,0.3-0.3l0,0c0.2,0,0.3,0.1,0.3,0.3l0,0c0,0.2-0.1,0.3-0.3,0.3l0,0
				C356.6,261.1,356.4,260.9,356.4,260.8z M352.4,260.8c0-0.2,0.1-0.3,0.3-0.3l0,0c0.2,0,0.3,0.1,0.3,0.3l0,0c0,0.2-0.2,0.3-0.3,0.3
				l0,0C352.6,261.1,352.4,260.9,352.4,260.8z M348.4,260.8c0-0.2,0.1-0.3,0.3-0.3l0,0c0.2,0,0.3,0.1,0.3,0.3l0,0
				c0,0.2-0.1,0.3-0.3,0.3l0,0C348.5,261.1,348.4,260.9,348.4,260.8z M344.4,260.8c0-0.2,0.2-0.3,0.3-0.3l0,0c0.2,0,0.3,0.1,0.3,0.3
				l0,0c0,0.2-0.2,0.3-0.3,0.3l0,0C344.5,261.1,344.4,260.9,344.4,260.8z M340.4,260.8c0-0.2,0.1-0.3,0.3-0.3l0,0
				c0.2,0,0.3,0.1,0.3,0.3l0,0c0,0.2-0.1,0.3-0.3,0.3l0,0C340.5,261.1,340.4,260.9,340.4,260.8z M336.3,260.8c0-0.2,0.2-0.3,0.3-0.3
				l0,0c0.2,0,0.3,0.1,0.3,0.3l0,0c0,0.2-0.1,0.3-0.3,0.3l0,0C336.5,261.1,336.3,260.9,336.3,260.8z M332.3,260.8
				c0-0.2,0.1-0.3,0.3-0.3l0,0c0.2,0,0.3,0.1,0.3,0.3l0,0c0,0.2-0.1,0.3-0.3,0.3l0,0C332.5,261.1,332.3,260.9,332.3,260.8z
				 M328.3,260.8c0-0.2,0.1-0.3,0.3-0.3l0,0c0.2,0,0.3,0.1,0.3,0.3l0,0c0,0.2-0.1,0.3-0.3,0.3l0,0
				C328.4,261.1,328.3,260.9,328.3,260.8z M324.3,260.8c0-0.2,0.1-0.3,0.3-0.3l0,0c0.2,0,0.3,0.1,0.3,0.3l0,0c0,0.2-0.1,0.3-0.3,0.3
				l0,0C324.4,261.1,324.3,260.9,324.3,260.8z M320.3,260.8c0-0.2,0.1-0.3,0.3-0.3l0,0c0.2,0,0.3,0.1,0.3,0.3l0,0
				c0,0.2-0.1,0.3-0.3,0.3l0,0C320.4,261.1,320.3,260.9,320.3,260.8z M316.3,260.8c0-0.2,0.1-0.3,0.3-0.3l0,0c0.2,0,0.3,0.1,0.3,0.3
				l0,0c0,0.2-0.1,0.3-0.3,0.3l0,0C316.4,261.1,316.3,260.9,316.3,260.8z M312.2,260.8c0-0.2,0.1-0.3,0.3-0.3l0,0
				c0.2,0,0.3,0.1,0.3,0.3l0,0c0,0.2-0.1,0.3-0.3,0.3l0,0C312.4,261.1,312.2,260.9,312.2,260.8z M308.2,260.8c0-0.2,0.1-0.3,0.3-0.3
				l0,0c0.2,0,0.3,0.1,0.3,0.3l0,0c0,0.2-0.2,0.3-0.3,0.3l0,0C308.4,261.1,308.2,260.9,308.2,260.8z M304.2,260.8
				c0-0.2,0.1-0.3,0.3-0.3l0,0c0.2,0,0.3,0.1,0.3,0.3l0,0c0,0.2-0.1,0.3-0.3,0.3l0,0C304.3,261.1,304.2,260.9,304.2,260.8z
				 M300.2,260.8c0-0.2,0.1-0.3,0.3-0.3l0,0c0.2,0,0.3,0.1,0.3,0.3l0,0c0,0.2-0.2,0.3-0.3,0.3l0,0
				C300.3,261.1,300.2,260.9,300.2,260.8z M296.2,260.8c0-0.2,0.1-0.3,0.3-0.3l0,0c0.2,0,0.3,0.1,0.3,0.3l0,0c0,0.2-0.1,0.3-0.3,0.3
				l0,0C296.3,261.1,296.2,260.9,296.2,260.8z M292.1,260.8c0-0.2,0.2-0.3,0.3-0.3l0,0c0.2,0,0.3,0.1,0.3,0.3l0,0
				c0,0.2-0.1,0.3-0.3,0.3l0,0C292.3,261.1,292.1,260.9,292.1,260.8z M288.1,260.8c0-0.2,0.1-0.3,0.3-0.3l0,0c0.2,0,0.3,0.1,0.3,0.3
				l0,0c0,0.2-0.1,0.3-0.3,0.3l0,0C288.3,261.1,288.1,260.9,288.1,260.8z M284.1,260.8c0-0.2,0.1-0.3,0.3-0.3l0,0
				c0.2,0,0.3,0.1,0.3,0.3l0,0c0,0.2-0.1,0.3-0.3,0.3l0,0C284.2,261.1,284.1,260.9,284.1,260.8z M280.1,260.8c0-0.2,0.1-0.3,0.3-0.3
				l0,0c0.2,0,0.3,0.1,0.3,0.3l0,0c0,0.2-0.1,0.3-0.3,0.3l0,0C280.2,261.1,280.1,260.9,280.1,260.8z M276.1,260.8
				c0-0.2,0.1-0.3,0.3-0.3l0,0c0.2,0,0.3,0.1,0.3,0.3l0,0c0,0.2-0.1,0.3-0.3,0.3l0,0C276.2,261.1,276.1,260.9,276.1,260.8z
				 M272,260.8c0-0.2,0.1-0.3,0.3-0.3l0,0c0.2,0,0.3,0.1,0.3,0.3l0,0c0,0.2-0.1,0.3-0.3,0.3l0,0C272.2,261.1,272,260.9,272,260.8z
				 M268,260.8c0-0.2,0.1-0.3,0.3-0.3l0,0c0.2,0,0.3,0.1,0.3,0.3l0,0c0,0.2-0.1,0.3-0.3,0.3l0,0C268.2,261.1,268,260.9,268,260.8z
				 M264,260.8c0-0.2,0.1-0.3,0.3-0.3l0,0c0.2,0,0.3,0.1,0.3,0.3l0,0c0,0.2-0.2,0.3-0.3,0.3l0,0C264.2,261.1,264,260.9,264,260.8z
				 M260,260.8c0-0.2,0.1-0.3,0.3-0.3l0,0c0.2,0,0.3,0.1,0.3,0.3l0,0c0,0.2-0.1,0.3-0.3,0.3l0,0C260.1,261.1,260,260.9,260,260.8z
				 M256,260.8c0-0.2,0.1-0.3,0.3-0.3l0,0c0.2,0,0.3,0.1,0.3,0.3l0,0c0,0.2-0.2,0.3-0.3,0.3l0,0C256.1,261.1,256,260.9,256,260.8z
				 M251.9,260.8c0-0.2,0.1-0.3,0.3-0.3l0,0c0.2,0,0.3,0.1,0.3,0.3l0,0c0,0.2-0.1,0.3-0.3,0.3l0,0
				C252.1,261.1,251.9,260.9,251.9,260.8z M247.9,260.8c0-0.2,0.2-0.3,0.3-0.3l0,0c0.2,0,0.3,0.1,0.3,0.3l0,0c0,0.2-0.2,0.3-0.3,0.3
				l0,0C248.1,261.1,247.9,260.9,247.9,260.8z M243.9,260.8c0-0.2,0.1-0.3,0.3-0.3l0,0c0.2,0,0.3,0.1,0.3,0.3l0,0
				c0,0.2-0.1,0.3-0.3,0.3l0,0C244.1,261.1,243.9,260.9,243.9,260.8z M239.9,260.8c0-0.2,0.2-0.3,0.3-0.3l0,0c0.2,0,0.3,0.1,0.3,0.3
				l0,0c0,0.2-0.1,0.3-0.3,0.3l0,0C240,261.1,239.9,260.9,239.9,260.8z M235.9,260.8c0-0.2,0.1-0.3,0.3-0.3l0,0
				c0.2,0,0.3,0.1,0.3,0.3l0,0c0,0.2-0.1,0.3-0.3,0.3l0,0C236,261.1,235.9,260.9,235.9,260.8z M231.8,260.8c0-0.2,0.1-0.3,0.3-0.3
				l0,0c0.2,0,0.3,0.1,0.3,0.3l0,0c0,0.2-0.1,0.3-0.3,0.3l0,0C232,261.1,231.8,260.9,231.8,260.8z M227.8,260.8
				c0-0.2,0.1-0.3,0.3-0.3l0,0c0.2,0,0.3,0.1,0.3,0.3l0,0c0,0.2-0.1,0.3-0.3,0.3l0,0C228,261.1,227.8,260.9,227.8,260.8z
				 M223.8,260.8c0-0.2,0.1-0.3,0.3-0.3l0,0c0.2,0,0.3,0.1,0.3,0.3l0,0c0,0.2-0.1,0.3-0.3,0.3l0,0
				C224,261.1,223.8,260.9,223.8,260.8z M219.8,260.8c0-0.2,0.1-0.3,0.3-0.3l0,0c0.2,0,0.3,0.1,0.3,0.3l0,0c0,0.2-0.1,0.3-0.3,0.3
				l0,0C219.9,261.1,219.8,260.9,219.8,260.8z M215.8,260.8c0-0.2,0.1-0.3,0.3-0.3l0,0c0.2,0,0.3,0.1,0.3,0.3l0,0
				c0,0.2-0.1,0.3-0.3,0.3l0,0C215.9,261.1,215.8,260.9,215.8,260.8z M211.8,260.8c0-0.2,0.1-0.3,0.3-0.3l0,0c0.2,0,0.3,0.1,0.3,0.3
				l0,0c0,0.2-0.2,0.3-0.3,0.3l0,0C211.9,261.1,211.8,260.9,211.8,260.8z M207.7,260.8c0-0.2,0.1-0.3,0.3-0.3l0,0
				c0.2,0,0.3,0.1,0.3,0.3l0,0c0,0.2-0.1,0.3-0.3,0.3l0,0C207.9,261.1,207.7,260.9,207.7,260.8z M203.7,260.8c0-0.2,0.1-0.3,0.3-0.3
				l0,0c0.2,0,0.3,0.1,0.3,0.3l0,0c0,0.2-0.2,0.3-0.3,0.3l0,0C203.9,261.1,203.7,260.9,203.7,260.8z M199.7,260.8
				c0-0.2,0.1-0.3,0.3-0.3l0,0c0.2,0,0.3,0.1,0.3,0.3l0,0c0,0.2-0.1,0.3-0.3,0.3l0,0C199.8,261.1,199.7,260.9,199.7,260.8z
				 M195.7,260.8c0-0.2,0.1-0.3,0.3-0.3l0,0c0.2,0,0.3,0.1,0.3,0.3l0,0c0,0.2-0.2,0.3-0.3,0.3l0,0
				C195.8,261.1,195.7,260.9,195.7,260.8z M191.7,260.8c0-0.2,0.1-0.3,0.3-0.3l0,0c0.2,0,0.3,0.1,0.3,0.3l0,0c0,0.2-0.1,0.3-0.3,0.3
				l0,0C191.8,261.1,191.7,260.9,191.7,260.8z"/>
			<path class="st18" d="M417.1,261.1c-0.1,0-0.2,0-0.2-0.1c-0.1-0.1-0.1-0.1-0.1-0.2s0-0.2,0.1-0.2l0.1-0.1c0.1-0.1,0.3,0,0.4,0.1
				s0.1,0.1,0.1,0.2s0,0.2-0.1,0.2C417.2,261.1,417.2,261.1,417.1,261.1z"/>
		</g>
		<g>
			<text transform="matrix(1 0 0 1 171.8433 262.1284)" class="st18 st4 st19">1000</text>
		</g>
	</g>
	<g>
		<text transform="matrix(1 0 0 1 207.2955 270.9057)" class="st18 st4 st19">JAN</text>
	</g>
	<g>
		<text transform="matrix(1 0 0 1 252.5338 270.9057)" class="st18 st4 st19">FEB</text>
	</g>
	<g>
		<text transform="matrix(1 0 0 1 297.7715 270.9057)" class="st18 st4 st19">MAR</text>
	</g>
	<g>
		<text transform="matrix(1 0 0 1 343.0093 270.9057)" class="st18 st4 st19">APR</text>
	</g>
	<g>
		<text transform="matrix(1 0 0 1 388.2476 270.9057)" class="st18 st4 st19">MAY</text>
	</g>
	<rect x="206.7" y="236.9" class="st20" width="11.3" height="24"/>
	<rect x="251.4" y="197.7" class="st21" width="11.3" height="63.1"/>
	<rect x="297.6" y="202.6" class="st6" width="11.3" height="58.3"/>
	<rect x="342.2" y="183.9" class="st14" width="11.3" height="77"/>
	<rect x="387.7" y="169.4" class="st22" width="11.3" height="91.4"/>
	<g>
		<text transform="matrix(1 0 0 1 171.8428 162.5444)" class="st3 st4 st5">Net Operating Income</text>
	</g>
</g>
<g id="DESIGNED_BY_FREEPIK">
</g>
</svg>
