<?xml version="1.0" encoding="utf-8"?>
<!-- Generator: Adobe Illustrator 25.2.0, SVG Export Plug-In . SVG Version: 6.00 Build 0)  -->
<svg version="1.1" id="Capa_1" xmlns="http://www.w3.org/2000/svg" xmlns:xlink="http://www.w3.org/1999/xlink" x="0px" y="0px"
	 viewBox="0 0 130 130" style="enable-background:new 0 0 130 130;" xml:space="preserve">
<style type="text/css">
	.st0{fill:#D8AA5E;}
	.st1{fill:#C99C56;}
	.st2{fill:#FFFFFF;}
	.st3{fill:#05E39C;}
	.st4{fill:#EEF5F6;}
	.st5{fill:#EF4424;}
	.st6{fill:#D73D24;}
	.st7{fill:#FD5426;}
	.st8{fill:#FED402;}
	.st9{fill:#FAC600;}
	.st10{fill:#0ED290;}
	.st11{fill:#01D0FB;}
	.st12{fill:#01C0FA;}
	.st13{fill:#8EBAC5;}
	.st14{fill:#537983;}
	.st15{fill:#3E5959;}
	.st16{fill:#384949;}
</style>
<g>
	<g>
		<path class="st0" d="M70.4,122.8c0-2.1,1.7-3.9,3.9-3.9h1.1v-5.3c0-2.3,1.1-4.4,3-5.6l5.6-3.6l-0.6-0.1c-1.7-0.3-2.9-1.8-2.9-3.5
			v-0.7c0-2,1.6-3.6,3.6-3.6H86l0.1-0.2c1.5-5.1,2.7-10.5,3.5-16l0-0.3h-1.3c-2.4,0-4.4-2-4.4-4.4c0-2.4,2-4.4,4.4-4.4h1.2l-0.7-0.5
			c-2.9-2-4.6-5.3-4.6-8.8c0-5.9,4.8-10.8,10.8-10.8c1.3,0,2.5,0.2,3.7,0.6V16.7c0-1.7-1.4-3.1-3.1-3.1H78.2c0,0.1,0,0.2,0,0.3v13
			c0,0.6-0.5,1.1-1.1,1.1H31.7c-0.6,0-1.1-0.5-1.1-1.1v-13c0-0.1,0-0.2,0-0.3H13.2c-1.7,0-3.1,1.4-3.1,3.1v103.9
			c0,1.7,1.4,3.1,3.1,3.1h57.3L70.4,122.8z"/>
		<path class="st1" d="M23.7,120.6V116h-4.4c-0.9,0-1.5-0.7-1.5-1.5V22.9c0-0.9,0.7-1.5,1.5-1.5h4.4v-4.6c0-1.7,1.4-3.1,3.1-3.1
			H13.2c-1.7,0-3.1,1.4-3.1,3.1v103.9c0,1.7,1.4,3.1,3.1,3.1h13.6C25.1,123.7,23.7,122.3,23.7,120.6z"/>
		<path class="st2" d="M75.5,113.6c0-2.3,1.1-4.4,3-5.6l5.6-3.6l-0.6-0.1c-1.7-0.3-2.9-1.8-2.9-3.5v-0.7c0-2,1.6-3.6,3.6-3.6H86
			l0.1-0.2c1.5-5.1,2.7-10.5,3.5-16l0-0.3h-1.3c-2.4,0-4.4-2-4.4-4.4s2-4.4,4.4-4.4h1.2l-0.7-0.5c-2.9-2-4.6-5.3-4.6-8.8
			c0-4.5,2.8-8.4,6.7-10V22.9c0-0.9-0.7-1.5-1.5-1.5H78.2v5.5c0,0.6-0.5,1.1-1.1,1.1H31.7c-0.6,0-1.1-0.5-1.1-1.1v-5.5H19.3
			c-0.9,0-1.5,0.7-1.5,1.5v91.6c0,0.9,0.7,1.5,1.5,1.5h56.1V113.6z"/>
		<path class="st3" d="M73.5,74H46.7l-0.3,0.4V81l0.3,0.5h26.9c2.1,0,3.7-1.7,3.7-3.7C77.3,75.7,75.6,74,73.5,74L73.5,74z"/>
		<path class="st4" d="M31.5,114.5V28c-0.5-0.1-0.9-0.5-0.9-1.1v-5.5H19.3c-0.9,0-1.5,0.7-1.5,1.5v91.6c0,0.9,0.7,1.5,1.5,1.5h13.7
			C32.2,116,31.5,115.3,31.5,114.5L31.5,114.5z"/>
		<path class="st5" d="M67.7,12.8C67.4,5.7,61.6,0,54.4,0c-7.2,0-13,5.7-13.2,12.8H67.7z"/>
		<path class="st6" d="M52.1,12.6c0.3-5.1,3.4-9.4,7.8-11.4C58.2,0.4,56.4,0,54.4,0c-7.1,0-12.9,5.6-13.2,12.6H52.1z"/>
		<g>
			<path class="st7" d="M77.1,28.3H31.7c-0.8,0-1.4-0.6-1.4-1.4v-13c0-0.8,0.6-1.4,1.4-1.4h45.4c0.8,0,1.4,0.6,1.4,1.4v13
				C78.5,27.6,77.8,28.3,77.1,28.3z"/>
		</g>
		<g>
			<path class="st5" d="M41.2,26.9v-13c0-0.8,0.6-1.4,1.4-1.4H31.7c-0.8,0-1.4,0.6-1.4,1.4v13c0,0.8,0.6,1.4,1.4,1.4h10.9
				C41.8,28.3,41.2,27.6,41.2,26.9z"/>
		</g>
		<g>
			<path class="st6" d="M68.4,22.3H40.4c-1.1,0-1.9-0.9-1.9-1.9s0.9-1.9,1.9-1.9h28.1c1.1,0,1.9,0.9,1.9,1.9S69.5,22.3,68.4,22.3
				L68.4,22.3z"/>
		</g>
	</g>
	<g>
		<g>
			<g>
				<path class="st8" d="M37.3,64.5V51.8c0-0.5-0.4-0.8-0.8-0.8H31c-0.5,0-0.8,0.4-0.8,0.8v12.7H37.3z"/>
				<path class="st9" d="M34.1,51H31c-0.5,0-0.8,0.4-0.8,0.8v12.7h3.1V51.8C33.3,51.4,33.6,51,34.1,51L34.1,51z"/>
				<path class="st3" d="M51.1,64.5V37.1c0-0.5-0.4-0.8-0.8-0.8h-5.5c-0.5,0-0.8,0.4-0.8,0.8v27.4L51.1,64.5z"/>
				<path class="st10" d="M48,36.3h-3.2c-0.5,0-0.8,0.4-0.8,0.8v27.4h3.2V37.1C47.2,36.7,47.6,36.3,48,36.3z"/>
				<path class="st7" d="M64.9,64.5v-9.7c0-0.5-0.4-0.8-0.8-0.8h-5.5c-0.5,0-0.8,0.4-0.8,0.8v9.7H64.9z"/>
				<path class="st5" d="M61.7,54h-3.2c-0.5,0-0.8,0.4-0.8,0.8v9.7h3.2v-9.7C60.9,54.4,61.3,54,61.7,54z"/>
				<path class="st11" d="M78.6,64.5V42.7c0-0.5-0.4-0.8-0.8-0.8h-5.5c-0.5,0-0.8,0.4-0.8,0.8v21.9H78.6z"/>
				<path class="st12" d="M75.4,41.9h-3.1c-0.5,0-0.8,0.4-0.8,0.8v21.9h3.1V42.7C74.6,42.2,75,41.9,75.4,41.9L75.4,41.9z"/>
			</g>
			<path class="st13" d="M84.5,64.3H25.3c-1.1,0-1.9,0.9-1.9,1.9s0.9,1.9,1.9,1.9h60.8C85.4,67,84.8,65.7,84.5,64.3L84.5,64.3z"/>
		</g>
	</g>
	<g>
		<g>
			<g>
				<path class="st14" d="M114.9,119v-5.3c0-2.3-1.2-4.5-3.2-5.8l-5.4-3.5c-0.1,0-0.3,0-0.4,0H84.2c-0.1,0-0.3,0-0.4,0l-5.4,3.5
					c-2,1.3-3.2,3.5-3.2,5.8v5.3H114.9z"/>
			</g>
			<g>
				<g>
					<path class="st15" d="M106.3,104.3c-0.1,0-0.3,0-0.4,0L106.3,104.3L106.3,104.3z"/>
				</g>
				<g>
					<path class="st15" d="M89.3,107.8l5.4-3.5H84.2c-0.1,0-0.3,0-0.4,0l-5.4,3.5c-2,1.3-3.2,3.5-3.2,5.8v5.3h11v-5.3
						C86.2,111.3,87.4,109.1,89.3,107.8L89.3,107.8z"/>
				</g>
			</g>
			<g>
				<path class="st15" d="M115.8,130H74.3c-2.3,0-4.1-1.9-4.1-4.1v-3c0-2.3,1.9-4.1,4.1-4.1h41.4c2.3,0,4.1,1.9,4.1,4.1v3
					C119.9,128.1,118.1,130,115.8,130z"/>
			</g>
			<g>
				<path class="st16" d="M82.2,125.9v-3c0-2.3,1.9-4.1,4.1-4.1H74.3c-2.3,0-4.1,1.9-4.1,4.1v3c0,2.3,1.9,4.1,4.1,4.1h12.1
					C84.1,130,82.2,128.1,82.2,125.9L82.2,125.9z"/>
			</g>
			<path class="st14" d="M89.4,80.1c-0.8,5.6-1.9,11.1-3.6,16.5h18.5c-1.6-5.4-2.8-10.9-3.6-16.5H89.4z"/>
			<path class="st15" d="M89.4,80.1c-0.8,5.6-1.9,11.1-3.6,16.5h8.1c1.6-5.4,2.8-10.9,3.6-16.5H89.4z"/>
			<path class="st14" d="M89.1,71.4H101c3.1-2,5.1-5.4,5.1-9.3c0-6.1-4.9-11-11-11c-6.1,0-11,4.9-11,11C84,66,86.1,69.4,89.1,71.4z"
				/>
			<path class="st15" d="M89.1,71.4h8.1c-3.1-2-5.1-5.4-5.1-9.3c0-4.7,2.9-8.6,7-10.2c-1.3-0.5-2.6-0.8-4.1-0.8c-6.1,0-11,4.9-11,11
				C84,66,86.1,69.4,89.1,71.4L89.1,71.4z"/>
			<g>
				<path class="st15" d="M101.8,80.3H88.3c-2.6,0-4.6-2.1-4.6-4.6c0-2.6,2.1-4.6,4.6-4.6h13.4c2.6,0,4.6,2.1,4.6,4.6
					C106.4,78.3,104.3,80.3,101.8,80.3z"/>
			</g>
			<g>
				<path class="st16" d="M91.9,75.7c0-2.6,2.1-4.6,4.6-4.6h-8.2c-2.6,0-4.6,2.1-4.6,4.6c0,2.6,2.1,4.6,4.6,4.6h8.2
					C94,80.3,91.9,78.3,91.9,75.7z"/>
			</g>
			<g>
				<path class="st15" d="M105.9,104.6H84.2c-2.1,0-3.8-1.7-3.8-3.8v-0.7c0-2.1,1.7-3.8,3.8-3.8h21.7c2.1,0,3.8,1.7,3.8,3.8v0.7
					C109.7,102.9,108,104.6,105.9,104.6L105.9,104.6z"/>
			</g>
			<g>
				<path class="st16" d="M91.2,100.8v-0.7c0-2.1,1.7-3.8,3.8-3.8H84.2c-2.1,0-3.8,1.7-3.8,3.8v0.7c0,2.1,1.7,3.8,3.8,3.8H95
					C92.9,104.6,91.2,102.9,91.2,100.8z"/>
			</g>
		</g>
	</g>
	<g>
		<g>
			<path class="st7" d="M27.1,74c-2.1,0-3.7,1.7-3.7,3.7c0,2.1,1.7,3.7,3.7,3.7h19.5V74L27.1,74z"/>
		</g>
	</g>
	<g>
		<g>
			<path class="st13" d="M77.3,92H37.6c-1.1,0-1.9-0.9-1.9-1.9s0.9-1.9,1.9-1.9h39.6c1.1,0,1.9,0.9,1.9,1.9S78.3,92,77.3,92z"/>
		</g>
		<g>
			<path class="st13" d="M73.8,99.4H37.6c-1.1,0-1.9-0.9-1.9-1.9c0-1.1,0.9-1.9,1.9-1.9h36.2c1.1,0,1.9,0.9,1.9,1.9
				C75.8,98.6,74.9,99.4,73.8,99.4z"/>
		</g>
		<g>
			<path class="st13" d="M71.2,106.8H37.6c-1.1,0-1.9-0.9-1.9-1.9s0.9-1.9,1.9-1.9h33.6c1.1,0,1.9,0.9,1.9,1.9
				S72.3,106.8,71.2,106.8z"/>
		</g>
	</g>
	<g>
		<g>
			<path class="st13" d="M31.1,92h-5.8c-1.1,0-1.9-0.9-1.9-1.9s0.9-1.9,1.9-1.9h5.8c1.1,0,1.9,0.9,1.9,1.9S32.1,92,31.1,92z"/>
		</g>
		<g>
			<path class="st13" d="M31.1,99.4h-5.8c-1.1,0-1.9-0.9-1.9-1.9c0-1.1,0.9-1.9,1.9-1.9h5.8c1.1,0,1.9,0.9,1.9,1.9
				C33,98.6,32.1,99.4,31.1,99.4z"/>
		</g>
		<g>
			<path class="st13" d="M31.1,106.8h-5.8c-1.1,0-1.9-0.9-1.9-1.9s0.9-1.9,1.9-1.9h5.8c1.1,0,1.9,0.9,1.9,1.9S32.1,106.8,31.1,106.8
				z"/>
		</g>
	</g>
</g>
</svg>
