<?xml version="1.0" encoding="utf-8"?>
<!-- Generator: Adobe Illustrator 25.2.0, SVG Export Plug-In . SVG Version: 6.00 Build 0)  -->
<svg version="1.1" id="Capa_1" xmlns="http://www.w3.org/2000/svg" xmlns:xlink="http://www.w3.org/1999/xlink" x="0px" y="0px"
	 viewBox="0 0 130 130" style="enable-background:new 0 0 130 130;" xml:space="preserve">
<style type="text/css">
	.st0{fill:#C8EFFE;}
	.st1{fill:#99E6FC;}
	.st2{fill:#7CA1B1;}
	.st3{fill:#678D98;}
	.st4{fill:#537983;}
	.st5{fill:#01D0FB;}
	.st6{fill:#01C0FA;}
	.st7{fill:#08A9F1;}
	.st8{fill:#FD5426;}
	.st9{fill:#EF4424;}
	.st10{fill:#FFFFFF;}
	.st11{fill:#EEF5F6;}
	.st12{fill:#E8B800;}
	.st13{fill:#FED402;}
	.st14{fill:#FAC600;}
	.st15{fill:#C99C56;}
	.st16{fill:#FEF1DA;}
	.st17{fill:#FAE2C0;}
	.st18{fill:#D8AA5E;}
</style>
<g>
	<g>
		<g>
			<path class="st0" d="M127.1,12.4H56.6l-0.3,0.3v56.1c11.6,4.7,19.8,16.1,19.8,29.3c0,5.1-1.2,10-3.4,14.3h53.4
				c0.7,0,1.3-0.6,1.3-1.3V12.7L127.1,12.4z"/>
			<path class="st1" d="M64.1,73.3V12.7l0.3-0.3h-7.8l-0.3,0.3v56.1C59.1,69.9,61.8,71.4,64.1,73.3L64.1,73.3z"/>
			<g>
				<path class="st2" d="M127.3,12.7h-71V2.6c0-1.4,1.2-2.6,2.6-2.6h65.8c1.4,0,2.6,1.2,2.6,2.6V12.7z"/>
			</g>
			<g>
				<path class="st3" d="M58.9,0c-1.4,0-2.6,1.2-2.6,2.6v10.1H72V0H58.9z"/>
			</g>
			<g>
				<path class="st4" d="M66.7,0h-7.8c-1.4,0-2.6,1.2-2.6,2.6v10.1h7.8V2.6C64.1,1.2,65.3,0,66.7,0z"/>
			</g>
			<g>
				<g>
					<path class="st5" d="M77.3,31.2h-8.3c-0.4,0-0.8-0.4-0.8-0.8v-8.3c0-0.4,0.4-0.8,0.8-0.8h8.3c0.4,0,0.8,0.4,0.8,0.8v8.3
						C78,30.8,77.7,31.2,77.3,31.2z"/>
				</g>
				<g>
					<path class="st6" d="M72.5,30.4v-8.3c0-0.4,0.4-0.8,0.8-0.8h-4.4c-0.4,0-0.8,0.4-0.8,0.8v8.3c0,0.4,0.4,0.8,0.8,0.8h4.4
						C72.9,31.2,72.5,30.8,72.5,30.4z"/>
				</g>
				<g>
					<g>
						<path class="st2" d="M115.5,24.7H84.9c-1.1,0-1.9-0.9-1.9-1.9c0-1.1,0.9-1.9,1.9-1.9h30.6c1.1,0,1.9,0.9,1.9,1.9
							C117.4,23.8,116.5,24.7,115.5,24.7L115.5,24.7z"/>
					</g>
					<g>
						<path class="st2" d="M103,31.6H84.9c-1.1,0-1.9-0.9-1.9-1.9s0.9-1.9,1.9-1.9H103c1.1,0,1.9,0.9,1.9,1.9S104.1,31.6,103,31.6z"
							/>
					</g>
				</g>
			</g>
			<g>
				<g>
					<path class="st5" d="M77.3,48.7h-8.3c-0.4,0-0.8-0.4-0.8-0.8v-8.3c0-0.4,0.4-0.8,0.8-0.8h8.3c0.4,0,0.8,0.4,0.8,0.8V48
						C78,48.4,77.7,48.7,77.3,48.7L77.3,48.7z"/>
				</g>
				<g>
					<path class="st6" d="M72.5,48v-8.3c0-0.4,0.4-0.8,0.8-0.8h-4.4c-0.4,0-0.8,0.4-0.8,0.8V48c0,0.4,0.4,0.8,0.8,0.8h4.4
						C72.9,48.7,72.5,48.4,72.5,48z"/>
				</g>
				<g>
					<g>
						<path class="st2" d="M115.5,42.2H84.9c-1.1,0-1.9-0.9-1.9-1.9c0-1.1,0.9-1.9,1.9-1.9h30.6c1.1,0,1.9,0.9,1.9,1.9
							C117.4,41.4,116.5,42.2,115.5,42.2L115.5,42.2z"/>
					</g>
					<g>
						<path class="st2" d="M103,49.1H84.9c-1.1,0-1.9-0.9-1.9-1.9c0-1.1,0.9-1.9,1.9-1.9H103c1.1,0,1.9,0.9,1.9,1.9
							C104.9,48.3,104.1,49.1,103,49.1z"/>
					</g>
				</g>
			</g>
			<g>
				<g>
					<path class="st5" d="M77.3,66.3h-8.3c-0.4,0-0.8-0.4-0.8-0.8v-8.3c0-0.4,0.4-0.8,0.8-0.8h8.3c0.4,0,0.8,0.4,0.8,0.8v8.3
						C78,65.9,77.7,66.3,77.3,66.3z"/>
				</g>
				<g>
					<path class="st6" d="M72.5,65.5v-8.3c0-0.4,0.4-0.8,0.8-0.8h-4.4c-0.4,0-0.8,0.4-0.8,0.8v8.3c0,0.4,0.4,0.8,0.8,0.8h4.4
						C72.9,66.3,72.5,65.9,72.5,65.5z"/>
				</g>
				<g>
					<g>
						<path class="st2" d="M115.5,59.8H84.9c-1.1,0-1.9-0.9-1.9-1.9c0-1.1,0.9-1.9,1.9-1.9h30.6c1.1,0,1.9,0.9,1.9,1.9
							C117.4,58.9,116.5,59.8,115.5,59.8L115.5,59.8z"/>
					</g>
					<g>
						<path class="st2" d="M103,66.7H84.9c-1.1,0-1.9-0.9-1.9-1.9c0-1.1,0.9-1.9,1.9-1.9H103c1.1,0,1.9,0.9,1.9,1.9
							C104.9,65.8,104.1,66.7,103,66.7z"/>
					</g>
				</g>
			</g>
			<g>
				<path class="st5" d="M77.3,73.9h-8.3c-0.4,0-0.8,0.4-0.8,0.8v2.4c1.8,2,3.3,4.3,4.6,6.7h4.6c0.4,0,0.8-0.4,0.8-0.8v-8.3
					C78,74.3,77.7,73.9,77.3,73.9z"/>
				<path class="st6" d="M72.7,83.8h0.6c-0.4,0-0.8-0.4-0.8-0.8v-8.3c0-0.4,0.4-0.8,0.8-0.8h-4.4c-0.4,0-0.8,0.4-0.8,0.8v2.4
					C69.9,79.2,71.5,81.4,72.7,83.8L72.7,83.8z"/>
				<g>
					<path class="st7" d="M77.3,33.1h-8.3c-1.5,0-2.7-1.2-2.7-2.7v-8.3c0-1.5,1.2-2.7,2.7-2.7h8.3c1.5,0,2.7,1.2,2.7,2.7v8.3
						C79.9,31.9,78.7,33.1,77.3,33.1z M70,29.3h6.1v-6.1H70V29.3z"/>
				</g>
				<g>
					<path class="st7" d="M77.3,50.6h-8.3c-1.5,0-2.7-1.2-2.7-2.7v-8.3c0-1.5,1.2-2.7,2.7-2.7h8.3c1.5,0,2.7,1.2,2.7,2.7V48
						C79.9,49.4,78.7,50.6,77.3,50.6L77.3,50.6z M70,46.8h6.1v-6.1H70V46.8z"/>
				</g>
				<g>
					<path class="st7" d="M77.3,68.2h-8.3c-1.5,0-2.7-1.2-2.7-2.7v-8.3c0-1.5,1.2-2.7,2.7-2.7h8.3c1.5,0,2.7,1.2,2.7,2.7v8.3
						C79.9,67,78.7,68.2,77.3,68.2z M70,64.4h6.1v-6.1H70V64.4z"/>
				</g>
				<path class="st7" d="M77.3,72h-8.3c-1.5,0-2.7,1.2-2.7,2.7v0.4c1.4,1.3,2.7,2.8,3.8,4.3v-3.7h6.1v6.1h-4.5
					c0.7,1.2,1.4,2.5,1.9,3.8h3.7c1.5,0,2.7-1.2,2.7-2.7v-8.3C79.9,73.2,78.7,72,77.3,72L77.3,72z"/>
				<g>
					<g>
						<path class="st2" d="M115.5,77.4H84.9c-1.1,0-1.9-0.9-1.9-1.9c0-1.1,0.9-1.9,1.9-1.9h30.6c1.1,0,1.9,0.9,1.9,1.9
							C117.4,76.5,116.5,77.4,115.5,77.4L115.5,77.4z"/>
					</g>
					<g>
						<path class="st2" d="M103,84.2H84.9c-1.1,0-1.9-0.9-1.9-1.9c0-1.1,0.9-1.9,1.9-1.9H103c1.1,0,1.9,0.9,1.9,1.9
							C104.9,83.4,104.1,84.2,103,84.2z"/>
					</g>
				</g>
			</g>
		</g>
		<g>
			<g>
				<path class="st8" d="M44.4,66.2c-1.7,0-3.4,0.1-5.1,0.4c0.4,1.6,0.7,3.3,0.7,5c0,10.2-8.3,18.5-18.5,18.5
					c-2.7,0-5.2-0.6-7.5-1.6c-0.9,3-1.5,6.2-1.5,9.6c0,17.6,14.3,31.9,31.9,31.9s31.9-14.3,31.9-31.9S62,66.2,44.4,66.2L44.4,66.2z"
					/>
			</g>
			<g>
				<path class="st9" d="M39.7,68.2c2.5-1,5.2-1.6,8-1.9c-1.1-0.1-2.2-0.2-3.3-0.2c-1.7,0-3.4,0.1-5.1,0.4
					C39.5,67.1,39.6,67.7,39.7,68.2L39.7,68.2z"/>
				<path class="st9" d="M19.1,98.1c0-2.8,0.4-5.5,1-8c-2.2-0.2-4.3-0.7-6.2-1.5c-0.9,3-1.5,6.2-1.5,9.6c0,17.6,14.3,31.9,31.9,31.9
					c1.1,0,2.2-0.1,3.3-0.2C31.7,128.2,19.1,114.6,19.1,98.1z"/>
			</g>
			<g>
				<path class="st10" d="M44.4,76.5c-1.8,0-3.6,0.2-5.3,0.7c-2.1,6.5-7.7,11.5-14.6,12.7c-1.1,2.5-1.6,5.3-1.6,8.2
					c0,11.9,9.7,21.6,21.6,21.6S66,110,66,98.1S56.3,76.5,44.4,76.5z"/>
			</g>
			<g>
				<path class="st11" d="M36.7,82.1c3-2.8,6.9-4.7,11.1-5.3c-1.1-0.2-2.2-0.3-3.4-0.3c-1.8,0-3.6,0.2-5.3,0.7
					C38.6,79,37.7,80.6,36.7,82.1z"/>
				<path class="st11" d="M29.6,98.1c0-4.7,1.5-9,4.1-12.6c-2.5,2.2-5.7,3.8-9.1,4.3c-1.1,2.5-1.6,5.3-1.6,8.2
					c0,11.9,9.7,21.6,21.6,21.6c1.1,0,2.3-0.1,3.4-0.3C37.5,117.8,29.6,108.8,29.6,98.1L29.6,98.1z"/>
			</g>
			<g>
				<path class="st10" d="M103.4,96.4l3.7-5.3c0.4-0.6,0-1.4-0.7-1.4H89.3c-0.3,0-0.6,0.1-0.7,0.4l-4.3,6.2H103.4z"/>
				<path class="st10" d="M103.4,99.7H84.3l4.3,6.2c0.2,0.2,0.4,0.4,0.7,0.4h17.1c0.7,0,1.1-0.8,0.7-1.4L103.4,99.7z"/>
			</g>
			<g>
				<path class="st11" d="M91.7,96.4l4.3-6.2c0.2-0.2,0.4-0.4,0.7-0.4h-7.4c-0.3,0-0.6,0.1-0.7,0.4l-4.3,6.2H91.7z"/>
				<path class="st11" d="M95.9,106l-4.3-6.2h-7.4l4.3,6.2c0.2,0.2,0.4,0.4,0.7,0.4h7.4C96.4,106.4,96.1,106.2,95.9,106z"/>
			</g>
			<g>
				<circle class="st8" cx="44.4" cy="98.1" r="11.2"/>
			</g>
			<g>
				<path class="st9" d="M39.8,98.1c0-5,3.3-9.3,7.9-10.7c-1-0.3-2.1-0.5-3.3-0.5c-6.2,0-11.2,5-11.2,11.2s5,11.2,11.2,11.2
					c1.1,0,2.2-0.2,3.3-0.5C43.1,107.4,39.8,103.1,39.8,98.1L39.8,98.1z"/>
			</g>
			<g>
				<path class="st12" d="M105.5,100h-61c-1.1,0-1.9-0.9-1.9-1.9c0-1.1,0.9-1.9,1.9-1.9h61c1.1,0,1.9,0.9,1.9,1.9
					C107.4,99.1,106.5,100,105.5,100z"/>
			</g>
		</g>
		<g>
			<g>
				<circle class="st13" cx="21.5" cy="71.6" r="16.9"/>
			</g>
			<g>
				<path class="st14" d="M13.4,71.6c0-7.8,5.3-14.4,12.5-16.3c-1.4-0.4-2.9-0.6-4.4-0.6c-9.3,0-16.9,7.6-16.9,16.9
					s7.6,16.9,16.9,16.9c1.5,0,3-0.2,4.4-0.6C18.7,85.9,13.4,79.4,13.4,71.6z"/>
			</g>
			<g>
				<path class="st12" d="M21.5,90.4c-10.4,0-18.8-8.4-18.8-18.8s8.4-18.8,18.8-18.8s18.8,8.4,18.8,18.8S31.8,90.4,21.5,90.4z
					 M21.5,56.6c-8.3,0-15,6.7-15,15c0,8.3,6.7,15,15,15s15-6.7,15-15C36.4,63.3,29.7,56.6,21.5,56.6L21.5,56.6z"/>
			</g>
			<g>
				<g>
					<path class="st15" d="M28.5,74.8c0-2.9-2.3-5.2-5.2-5.2h-3.6c-0.8,0-1.4-0.6-1.4-1.4s0.6-1.4,1.4-1.4H26c1.1,0,1.9-0.9,1.9-1.9
						c0-1.1-0.9-1.9-1.9-1.9h-2.7v-1.5c0-1.1-0.9-1.9-1.9-1.9s-1.9,0.9-1.9,1.9v1.5c-2.8,0-5.1,2.4-5.1,5.2c0,2.9,2.3,5.2,5.2,5.2
						h3.6c0.8,0,1.4,0.6,1.4,1.4s-0.6,1.4-1.4,1.4h-6.4c-1.1,0-1.9,0.9-1.9,1.9c0,1.1,0.9,1.9,1.9,1.9h2.7v1.5
						c0,1.1,0.9,1.9,1.9,1.9s1.9-0.9,1.9-1.9V80C26.2,80,28.5,77.7,28.5,74.8z"/>
				</g>
			</g>
		</g>
	</g>
	<g>
		<g>
			<g>
				<path class="st16" d="M24.9,11.1l-5.5,5.5c-0.2,0.2-0.3,0.4-0.3,0.6v29.7c0,0.5,0.4,0.9,0.9,0.9h27.7c0.5,0,0.9-0.4,0.9-0.9
					V11.8c0-0.5-0.4-0.9-0.9-0.9H25.5C25.3,10.9,25,11,24.9,11.1z"/>
			</g>
		</g>
		<g>
			<path class="st17" d="M28,46.9V17.2c0-0.2,0.1-0.5,0.3-0.6l5.5-5.5c0.2-0.2,0.4-0.3,0.6-0.3h-8.9c-0.2,0-0.5,0.1-0.6,0.3
				l-5.5,5.5c-0.2,0.2-0.3,0.4-0.3,0.6v29.7c0,0.5,0.4,0.9,0.9,0.9h8.9C28.4,47.9,28,47.5,28,46.9z"/>
		</g>
		<g>
			<g>
				<path class="st18" d="M40.1,21.3H27.7c-1.1,0-1.9-0.9-1.9-1.9c0-1.1,0.9-1.9,1.9-1.9h12.4c1.1,0,1.9,0.9,1.9,1.9
					C42,20.5,41.1,21.3,40.1,21.3z"/>
			</g>
			<g>
				<path class="st18" d="M40.1,27.9H27.7c-1.1,0-1.9-0.9-1.9-1.9c0-1.1,0.9-1.9,1.9-1.9h12.4c1.1,0,1.9,0.9,1.9,1.9
					C42,27.1,41.1,27.9,40.1,27.9z"/>
			</g>
			<g>
				<path class="st18" d="M40.1,34.6H27.7c-1.1,0-1.9-0.9-1.9-1.9c0-1.1,0.9-1.9,1.9-1.9h12.4c1.1,0,1.9,0.9,1.9,1.9
					C42,33.7,41.1,34.6,40.1,34.6z"/>
			</g>
			<g>
				<path class="st18" d="M33.3,41.2h-5.5c-1.1,0-1.9-0.9-1.9-1.9c0-1.1,0.9-1.9,1.9-1.9h5.5c1.1,0,1.9,0.9,1.9,1.9
					C35.2,40.4,34.3,41.2,33.3,41.2z"/>
			</g>
		</g>
	</g>
</g>
</svg>
