<?xml version="1.0" encoding="utf-8"?>
<!-- Generator: Adobe Illustrator 25.2.0, SVG Export Plug-In . SVG Version: 6.00 Build 0)  -->
<svg version="1.1" id="Capa_1" xmlns="http://www.w3.org/2000/svg" xmlns:xlink="http://www.w3.org/1999/xlink" x="0px" y="0px"
	 viewBox="0 0 130 130" style="enable-background:new 0 0 130 130;" xml:space="preserve">
<style type="text/css">
	.st0{fill:#EEF5F6;}
	.st1{fill:#FFEAA7;}
	.st2{fill:#FD5426;}
	.st3{fill:#384949;}
	.st4{fill:#FED402;}
	.st5{fill:#FAC600;}
	.st6{fill:#E8B800;}
	.st7{fill:#FEE97D;}
	.st8{fill:#C99C56;}
	.st9{fill:#EF4424;}
	.st10{fill:#01D0FB;}
	.st11{fill:#01C0FA;}
	.st12{fill:#05E39C;}
	.st13{fill:#0ED290;}
</style>
<g>
	<g>
		<path class="st0" d="M65.3,123.7c32.2,0,58.4-26.2,58.4-58.4H65.3V123.7z"/>
		<path class="st1" d="M6.9,65.3c0,32.2,26.2,58.4,58.4,58.4V65.3H6.9z"/>
		<path class="st0" d="M65.3,6.9C33,6.9,6.9,33,6.9,65.3h58.4V6.9z"/>
		<g>
			<path class="st2" d="M123.7,65.3c0-32.2-26.2-58.4-58.4-58.4v58.4H123.7z"/>
		</g>
	</g>
	<g>
		
			<rect x="24.3" y="86.3" transform="matrix(0.7071 -0.7071 0.7071 0.7071 -50.2006 55.6987)" class="st3" width="35.7" height="4.2"/>
		<path class="st3" d="M50.5,90.6c-3.5,0-6.3,2.8-6.3,6.3s2.8,6.3,6.3,6.3s6.3-2.8,6.3-6.3S53.9,90.6,50.5,90.6z M50.5,99
			c-1.2,0-2.1-0.9-2.1-2.1s0.9-2.1,2.1-2.1c1.2,0,2.1,0.9,2.1,2.1S51.6,99,50.5,99z"/>
		<path class="st3" d="M33.7,86.4c3.5,0,6.3-2.8,6.3-6.3s-2.8-6.3-6.3-6.3s-6.3,2.8-6.3,6.3C27.4,83.6,30.2,86.4,33.7,86.4z
			 M33.7,78c1.2,0,2.1,0.9,2.1,2.1s-0.9,2.1-2.1,2.1c-1.2,0-2.1-0.9-2.1-2.1C31.6,78.9,32.5,78,33.7,78z"/>
	</g>
	<g>
		<g>
			<circle class="st4" cx="101" cy="101" r="29.4"/>
		</g>
		<g>
			<circle class="st5" cx="101" cy="101" r="20.6"/>
		</g>
		<g>
			<path class="st6" d="M91.2,101c0-9.5,6.4-17.5,15.2-19.9c-1.7-0.5-3.5-0.7-5.4-0.7c-11.4,0-20.6,9.2-20.6,20.6
				s9.2,20.6,20.6,20.6c1.9,0,3.7-0.3,5.4-0.7C97.7,118.5,91.2,110.5,91.2,101z"/>
		</g>
		<g>
			<path class="st7" d="M101,123.6c-12.5,0-22.7-10.2-22.7-22.7S88.5,78.3,101,78.3s22.7,10.2,22.7,22.7S113.5,123.6,101,123.6z
				 M101,82.4c-10.2,0-18.6,8.3-18.6,18.6s8.3,18.6,18.6,18.6s18.6-8.3,18.6-18.6S111.2,82.4,101,82.4z"/>
		</g>
		<path class="st8" d="M103.3,98.9h-4.7c-1.2,0-2.2-1-2.2-2.2s1-2.2,2.2-2.2h8.3c1.1,0,2-0.9,2-2s-0.9-2-2-2H103V88c0-1.1-0.9-2-2-2
			s-2,0.9-2,2v2.4h-0.3c-3.5,0-6.3,2.8-6.3,6.3s2.8,6.3,6.3,6.3h4.7c1.2,0,2.2,1,2.2,2.2s-1,2.2-2.2,2.2H95c-1.1,0-2,0.9-2,2
			s0.9,2,2,2h3.9v2.4c0,1.1,0.9,2,2,2s2-0.9,2-2v-2.4h0.3c3.5,0,6.3-2.8,6.3-6.3S106.8,98.9,103.3,98.9L103.3,98.9z"/>
	</g>
	<g>
		<g>
			<path class="st2" d="M55.2,60.2v-21c0-0.7-0.5-1.2-1.2-1.2h-5.7c-0.7,0-1.2,0.5-1.2,1.2v21H55.2z"/>
			<path class="st9" d="M55.2,60.2v-21c0-0.7-0.5-1.2-1.2-1.2h-3.8c0.7,0,1.2,0.5,1.2,1.2v21H55.2z"/>
		</g>
		<g>
			<path class="st4" d="M42.7,60.2V21.7c0-0.7-0.5-1.2-1.2-1.2h-5.7c-0.7,0-1.2,0.5-1.2,1.2v38.4L42.7,60.2L42.7,60.2z"/>
			<path class="st5" d="M42.7,60.2V21.7c0-0.7-0.5-1.2-1.2-1.2h-3.8c0.7,0,1.2,0.5,1.2,1.2v38.4L42.7,60.2L42.7,60.2z"/>
		</g>
		<g>
			<path class="st10" d="M30.3,60.2v-46c0-0.7-0.5-1.2-1.2-1.2h-5.7c-0.7,0-1.2,0.5-1.2,1.2v45.9L30.3,60.2L30.3,60.2z"/>
			<path class="st11" d="M30.3,60.2v-46c0-0.7-0.5-1.2-1.2-1.2h-4c0.7,0,1.2,0.5,1.2,1.2v45.9L30.3,60.2L30.3,60.2z"/>
		</g>
		<g>
			<path class="st12" d="M17.8,60.2V1.6c0-0.7-0.5-1.2-1.2-1.2h-5.7c-0.7,0-1.2,0.5-1.2,1.2v58.6C9.7,60.2,17.8,60.2,17.8,60.2z"/>
			<path class="st13" d="M17.8,60.2V1.6c0-0.7-0.5-1.2-1.2-1.2h-3.7c0.7,0,1.2,0.5,1.2,1.2v58.6C14.1,60.2,17.8,60.2,17.8,60.2z"/>
		</g>
	</g>
</g>
</svg>
