<?xml version="1.0" encoding="utf-8"?>
<!-- Generator: Adobe Illustrator 25.2.0, SVG Export Plug-In . SVG Version: 6.00 Build 0)  -->
<svg version="1.1" id="Capa_1" xmlns="http://www.w3.org/2000/svg" xmlns:xlink="http://www.w3.org/1999/xlink" x="0px" y="0px"
	 viewBox="0 0 130 130" style="enable-background:new 0 0 130 130;" xml:space="preserve">
<style type="text/css">
	.st0{fill:#05E39C;}
	.st1{fill:#0ED290;}
	.st2{fill:#01D0FB;}
	.st3{fill:#01C0FA;}
	.st4{fill:#FED402;}
	.st5{fill:#FAC600;}
	.st6{fill:#7CA1B1;}
	.st7{fill:#FD5426;}
	.st8{fill:#EF4424;}
	.st9{fill:#FFFFFF;}
	.st10{fill:#EEF5F6;}
	.st11{fill:#537983;}
	.st12{fill:#D73D24;}
	.st13{fill:#678D98;}
	.st14{fill:#3E5959;}
	.st15{fill:#384949;}
	.st16{fill:#8EBAC5;}
</style>
<g>
	<g>
		<g>
			<g>
				<path class="st0" d="M69.8,64.9V29.4c0-0.5-0.4-0.9-0.9-0.9h-9.2c-0.5,0-0.9,0.4-0.9,0.9v28.1C62.9,59.3,66.6,61.9,69.8,64.9
					L69.8,64.9z"/>
				<path class="st1" d="M63,59.7V29.4c0-0.5,0.4-0.9,0.9-0.9h-4.2c-0.5,0-0.9,0.4-0.9,0.9v28.1C60.3,58.2,61.7,58.9,63,59.7
					L63,59.7z"/>
				<path class="st2" d="M86.5,91.2V38.7c0-0.5-0.4-0.9-0.9-0.9h-9.2c-0.5,0-0.9,0.4-0.9,0.9V72c3.5,5.6,5.6,12.2,5.7,19.2H86.5z"/>
				<path class="st3" d="M79.8,81.5V38.7c0-0.5,0.4-0.9,0.9-0.9h-4.2c-0.5,0-0.9,0.4-0.9,0.9V72C77.3,75,78.8,78.2,79.8,81.5z"/>
				<path class="st4" d="M103.2,91.2V49.4c0-0.5-0.4-0.9-0.9-0.9h-9.2c-0.5,0-0.9,0.4-0.9,0.9v41.8H103.2z"/>
				<path class="st5" d="M96.5,91.2V49.4c0-0.5,0.4-0.9,0.9-0.9h-4.3c-0.5,0-0.9,0.4-0.9,0.9v41.8H96.5z"/>
				<path class="st2" d="M119.9,91.2V37.3c0-0.5-0.4-0.9-0.9-0.9h-9.2c-0.5,0-0.9,0.4-0.9,0.9v53.9H119.9z"/>
				<path class="st3" d="M113.2,91.2V37.3c0-0.5,0.4-0.9,0.9-0.9h-4.3c-0.5,0-0.9,0.4-0.9,0.9v53.9H113.2z"/>
			</g>
			<g>
				<g>
					<path class="st6" d="M59.5,7.5L47.9,18.7c1.2,0.5,2.2,1.5,2.7,2.7l11.5-11.2C60.9,9.7,60,8.7,59.5,7.5z"/>
					<path class="st6" d="M109.7,16.1l-10,10.3c1.2,0.5,2.2,1.5,2.7,2.7l10-10.3C111.2,18.3,110.2,17.3,109.7,16.1z"/>
					<path class="st6" d="M95,26.8L69.3,6.9c-0.4,1.3-1.2,2.3-2.3,3l25.7,19.8C93.1,28.5,93.9,27.4,95,26.8z"/>
				</g>
				<g>
					<circle class="st7" cx="45.8" cy="23.5" r="5.5"/>
				</g>
				<g>
					<path class="st8" d="M44.7,23.5c0-2.2,1.3-4.2,3.3-5c-0.7-0.3-1.4-0.5-2.2-0.5c-3,0-5.5,2.5-5.5,5.5s2.5,5.5,5.5,5.5
						c0.8,0,1.5-0.2,2.2-0.5C46.1,27.6,44.7,25.7,44.7,23.5L44.7,23.5z"/>
				</g>
				<g>
					<circle class="st0" cx="64.3" cy="5.5" r="5.5"/>
				</g>
				<g>
					<path class="st1" d="M63,5.5c0-2.3,1.4-4.2,3.4-5.1C65.7,0.2,65,0,64.3,0c-3,0-5.5,2.5-5.5,5.5s2.5,5.5,5.5,5.5
						c0.7,0,1.5-0.2,2.1-0.4C64.4,9.7,63,7.8,63,5.5L63,5.5z"/>
				</g>
				<g>
					<circle class="st7" cx="97.7" cy="31.2" r="5.5"/>
				</g>
				<g>
					<path class="st8" d="M96.5,31.2c0-2.3,1.4-4.2,3.3-5.1c-0.7-0.3-1.4-0.4-2.1-0.4c-3,0-5.5,2.5-5.5,5.5s2.5,5.5,5.5,5.5
						c0.8,0,1.5-0.2,2.1-0.4C97.9,35.5,96.5,33.5,96.5,31.2z"/>
				</g>
				<g>
					<circle class="st4" cx="114.4" cy="14" r="5.5"/>
				</g>
				<g>
					<path class="st5" d="M113.2,14c0-2.3,1.4-4.2,3.3-5c-0.7-0.3-1.4-0.4-2.1-0.4c-3,0-5.5,2.5-5.5,5.5s2.5,5.5,5.5,5.5
						c0.8,0,1.5-0.2,2.1-0.4C114.6,18.2,113.2,16.2,113.2,14z"/>
				</g>
			</g>
		</g>
		<path class="st6" d="M125.4,91H81.2c0,0.3,0,0.7,0,1c0,0.9,0,1.9-0.1,2.8h44.3c1.1,0,1.9-0.9,1.9-1.9
			C127.3,91.8,126.5,91,125.4,91L125.4,91z"/>
	</g>
	<g>
		<g>
			<g>
				<path class="st7" d="M52.1,55c0.1,1,0.2,1.9,0.2,2.9c0,1-0.1,2-0.2,3c-0.1,0.6-0.6,1-1.2,1h-5.1c-0.7,0-1.4,0.5-1.6,1.2
					c-0.3,1-0.7,2-1.2,2.9c-0.3,0.7-0.2,1.4,0.3,2l3.6,3.6c0.4,0.4,0.5,1.1,0.1,1.5c-1.2,1.6-2.7,3-4.2,4.2
					c-0.2,0.2-0.4,0.2-0.7,0.2c-0.3,0-0.6-0.1-0.8-0.3l-3.6-3.6c-0.3-0.3-0.7-0.5-1.2-0.5c-0.3,0-0.5,0.1-0.8,0.2
					c-0.9,0.5-1.9,0.9-2.9,1.2c-0.7,0.2-1.2,0.9-1.2,1.6v5.1c0,0.6-0.4,1.1-1,1.2c-1,0.1-2,0.2-3,0.2c-1,0-2-0.1-3-0.2
					c-0.6-0.1-1-0.6-1-1.2v-5.1c0-0.7-0.5-1.4-1.2-1.6c-1-0.3-2-0.7-2.9-1.2c-0.2-0.1-0.5-0.2-0.8-0.2c-0.4,0-0.9,0.2-1.2,0.5
					l-3.6,3.6c-0.2,0.2-0.5,0.3-0.8,0.3c-0.3,0-0.5-0.1-0.7-0.2c-1-0.8-1.9-1.6-2.8-2.5C7,80,5.5,85.8,5.5,92c0,21,17,38,38,38
					s38-17,38-38C81.5,74,68.9,58.9,52.1,55L52.1,55z"/>
				<g>
					<path class="st8" d="M11.4,92c0-5.6,1.2-10.8,3.3-15.6l-0.8,0.8c-0.2,0.2-0.5,0.3-0.8,0.3c-0.3,0-0.5-0.1-0.7-0.2
						c-1-0.8-1.9-1.6-2.8-2.5C7,80,5.5,85.8,5.5,92c0,21,17,38,38,38c1,0,2,0,2.9-0.1C26.8,128.4,11.4,112,11.4,92L11.4,92z"/>
				</g>
				<path class="st9" d="M44.5,62.6c-0.1,0.1-0.2,0.3-0.2,0.5c-0.3,1-0.7,2-1.2,2.9c-0.3,0.7-0.2,1.4,0.3,2l3.6,3.6
					c0.4,0.4,0.5,1.1,0.1,1.5c-1.2,1.6-2.7,3-4.2,4.2c-0.2,0.2-0.4,0.2-0.7,0.2c-0.3,0-0.6-0.1-0.8-0.3l-3.6-3.6
					c-0.3-0.3-0.7-0.5-1.2-0.5c-0.3,0-0.5,0.1-0.8,0.2c-0.9,0.5-1.9,0.9-2.9,1.2c-0.7,0.2-1.2,0.9-1.2,1.6v5.1c0,0.6-0.4,1.1-1,1.2
					c-1,0.1-2,0.2-3,0.2c-1,0-2-0.1-3-0.2c-0.6-0.1-1-0.6-1-1.2v-5.1c0-0.7-0.5-1.4-1.2-1.6c-0.7-0.2-1.4-0.5-2-0.8
					c-4,5-6.3,11.3-6.3,18.2c0,16.2,13.2,29.4,29.4,29.4S72.9,108.3,72.9,92C72.9,76.1,60.3,63.1,44.5,62.6L44.5,62.6z"/>
				<g>
					<path class="st10" d="M25.1,92c0-3.3,0.5-6.5,1.6-9.5c-0.7,0-1.4-0.1-2-0.2c-0.6-0.1-1-0.6-1-1.2v-5.1c0-0.7-0.5-1.4-1.2-1.6
						c-0.7-0.2-1.4-0.5-2-0.8c-4,5-6.3,11.3-6.3,18.2c0,16.2,13.2,29.4,29.4,29.4c1.9,0,3.7-0.2,5.5-0.5
						C35.4,118.3,25.1,106.4,25.1,92L25.1,92z"/>
				</g>
				<g>
					<path class="st11" d="M35.3,107.7c-0.3,0-0.7-0.1-1-0.3c-0.9-0.5-1.2-1.7-0.7-2.6L41.9,91c0.5-0.9,1.7-1.2,2.6-0.7l9.9,5.8
						c0.9,0.5,1.2,1.7,0.7,2.6c-0.5,0.9-1.7,1.2-2.6,0.7l-8.3-4.8L37,106.7C36.6,107.3,36,107.7,35.3,107.7z"/>
				</g>
				<path class="st12" d="M51.5,61.7c-0.2,0.1-0.4,0.2-0.6,0.2h-5.1c-0.7,0-1.4,0.5-1.6,1.2c-0.1,0.5-0.3,0.9-0.5,1.4
					c4.2,0,8.2,1,11.8,2.8l-0.1,0.2c-0.5,0.9-0.2,2.1,0.7,2.6c0.3,0.2,0.6,0.3,1,0.3c0.7,0,1.3-0.3,1.7-1l0.1-0.2
					c2.9,2,5.5,4.5,7.4,7.4l-0.2,0.1c-0.9,0.5-1.2,1.7-0.7,2.6c0.4,0.6,1,1,1.7,1c0.3,0,0.7-0.1,1-0.3l0.2-0.1
					c1.5,3.1,2.5,6.5,2.7,10.2h-5.3c-1.1,0-1.9,0.9-1.9,1.9s0.9,1.9,1.9,1.9h5.3c-0.2,3.6-1.2,7.1-2.7,10.2l-0.2-0.1
					c-0.9-0.5-2.1-0.2-2.6,0.7c-0.5,0.9-0.2,2.1,0.7,2.6l0.2,0.1c-2,2.9-4.5,5.5-7.4,7.4l-0.1-0.2c-0.5-0.9-1.7-1.2-2.6-0.7
					c-0.9,0.5-1.2,1.7-0.7,2.6l0.1,0.2c-3.1,1.5-6.5,2.5-10.2,2.7v-5.3c0-1.1-0.9-1.9-1.9-1.9c-1.1,0-1.9,0.9-1.9,1.9v5.3
					c-3.6-0.2-7.1-1.2-10.2-2.7l0.1-0.2c0.5-0.9,0.2-2.1-0.7-2.6c-0.9-0.5-2.1-0.2-2.6,0.7l-0.1,0.2c-2.9-2-5.5-4.5-7.4-7.4l0.2-0.1
					c0.9-0.5,1.2-1.7,0.7-2.6c-0.5-0.9-1.7-1.2-2.6-0.7l-0.2,0.1c-1.5-3.1-2.5-6.5-2.7-10.2h5.3c1.1,0,1.9-0.9,1.9-1.9
					c0-1.1-0.9-1.9-1.9-1.9h-5.3c0.4-5.9,2.7-11.3,6.2-15.6c-1-0.3-1.9-0.7-2.8-1.2c-0.2-0.1-0.5-0.2-0.8-0.2c-0.1,0-0.1,0-0.2,0
					c-4,5.2-6.3,11.8-6.3,18.8c0,17.3,14,31.3,31.3,31.3s31.3-14,31.3-31.3C74.8,77.5,64.9,65.3,51.5,61.7L51.5,61.7z"/>
			</g>
			<g>
				<g>
					<path class="st6" d="M43.5,48l3.6-3.6c0.5-0.5,0.6-1.3,0.1-1.9c-1.2-1.6-2.7-3-4.3-4.3c-0.6-0.4-1.4-0.4-1.9,0.1L37.5,42
						c-0.4,0.4-1.1,0.5-1.7,0.2c-0.9-0.5-1.9-0.9-3-1.2c-0.6-0.2-1-0.7-1-1.4v-5.1c0-0.7-0.5-1.3-1.2-1.4c-1-0.1-2-0.2-3-0.2
						s-2,0.1-3,0.2c-0.7,0.1-1.2,0.7-1.2,1.4v5.1c0,0.6-0.4,1.2-1,1.4c-1,0.3-2,0.7-3,1.2c-0.6,0.3-1.2,0.2-1.7-0.2l-3.6-3.6
						c-0.5-0.5-1.3-0.6-1.9-0.1c-1.6,1.2-3,2.7-4.3,4.3c-0.4,0.6-0.4,1.4,0.1,1.9l3.6,3.6c0.4,0.4,0.5,1.1,0.2,1.7
						c-0.5,0.9-0.9,1.9-1.2,3c-0.2,0.6-0.7,1-1.4,1H4.3c-0.7,0-1.3,0.5-1.4,1.2c-0.1,1-0.2,2-0.2,3s0.1,2,0.2,3
						c0.1,0.7,0.7,1.2,1.4,1.2h5.1c0.6,0,1.2,0.4,1.4,1c0.3,1,0.7,2,1.2,3c0.3,0.6,0.2,1.2-0.2,1.7l-3.6,3.6
						c-0.5,0.5-0.6,1.3-0.1,1.9c1.2,1.6,2.7,3,4.3,4.3c0.6,0.4,1.4,0.4,1.9-0.1l3.6-3.6c0.4-0.4,1.1-0.5,1.7-0.2
						c0.9,0.5,1.9,0.9,3,1.2c0.6,0.2,1,0.7,1,1.4v5.1c0,0.7,0.5,1.3,1.2,1.4c1,0.1,2,0.2,3,0.2s2-0.1,3-0.2c0.7-0.1,1.2-0.7,1.2-1.4
						v-5.1c0-0.6,0.4-1.2,1-1.4c1-0.3,2-0.7,3-1.2c0.6-0.3,1.2-0.2,1.7,0.2l3.6,3.6c0.5,0.5,1.3,0.6,1.9,0.1c1.6-1.2,3-2.7,4.3-4.3
						c0.4-0.6,0.4-1.4-0.1-1.9l-3.6-3.6c-0.4-0.4-0.5-1.1-0.2-1.7c0.5-0.9,0.9-1.9,1.2-3c0.2-0.6,0.7-1,1.4-1h5.1
						c0.7,0,1.3-0.5,1.4-1.2c0.1-1,0.2-2,0.2-3s-0.1-2-0.2-3c-0.1-0.7-0.7-1.2-1.4-1.2h-5.1c-0.6,0-1.2-0.4-1.4-1
						c-0.3-1-0.7-2-1.2-3C43,49.1,43.1,48.5,43.5,48L43.5,48z"/>
				</g>
				<path class="st13" d="M16.8,65.2c-1.4-2.1-2.2-4.6-2.2-7.3s0.8-5.2,2.2-7.3C19.2,44,24.9,39,31.9,37.5v-2.9
					c0-0.7-0.5-1.3-1.2-1.4c-1-0.1-2-0.2-3-0.2c-1,0-2,0.1-3,0.2c-0.7,0.1-1.2,0.7-1.2,1.4v5.1c0,0.6-0.4,1.2-1,1.4
					c-1,0.3-2,0.7-3,1.2c-0.6,0.3-1.2,0.2-1.7-0.2l-3.6-3.6c-0.5-0.5-1.3-0.6-1.9-0.1c-1.6,1.2-3,2.7-4.3,4.3
					c-0.4,0.6-0.4,1.4,0.1,1.9l3.6,3.6c0.4,0.4,0.5,1.1,0.2,1.7c-0.5,0.9-0.9,1.9-1.2,3c-0.2,0.6-0.7,1-1.4,1H4.3
					c-0.7,0-1.3,0.5-1.4,1.2c-0.1,1-0.2,2-0.2,3s0.1,2,0.2,3c0.1,0.7,0.7,1.2,1.4,1.2h5.1c0.6,0,1.2,0.4,1.4,1c0.3,1,0.7,2,1.2,3
					c0.3,0.6,0.2,1.2-0.2,1.7l-3.6,3.6c-0.5,0.5-0.6,1.3-0.1,1.9c1.2,1.6,2.7,3,4.3,4.3c0.6,0.4,1.4,0.4,1.9-0.1l3.6-3.6
					c0.4-0.4,1.1-0.5,1.7-0.2c0.9,0.5,1.9,0.9,3,1.2c0.6,0.2,1,0.7,1,1.4v5.1c0,0.7,0.5,1.3,1.2,1.4c1,0.1,2,0.2,3,0.2
					c1,0,2-0.1,3-0.2c0.7-0.1,1.2-0.7,1.2-1.4v-2.9C24.9,76.8,19.2,71.8,16.8,65.2L16.8,65.2z"/>
				<g>
					<circle class="st14" cx="27.6" cy="57.9" r="11.2"/>
				</g>
				<g>
					<path class="st15" d="M23,57.9c0-5,3.3-9.3,7.9-10.7c-1-0.3-2.1-0.5-3.3-0.5c-6.2,0-11.2,5-11.2,11.2c0,6.2,5,11.2,11.2,11.2
						c1.1,0,2.2-0.2,3.3-0.5C26.3,67.2,23,62.9,23,57.9z"/>
				</g>
				<g>
					<path class="st16" d="M27.6,71c-7.2,0-13.1-5.9-13.1-13.1s5.9-13.1,13.1-13.1s13.1,5.9,13.1,13.1C40.7,65.1,34.8,71,27.6,71z
						 M27.6,48.6c-5.1,0-9.3,4.2-9.3,9.3c0,5.1,4.2,9.3,9.3,9.3s9.3-4.2,9.3-9.3C36.9,52.8,32.7,48.6,27.6,48.6z"/>
				</g>
				<g>
					<circle class="st9" cx="27.6" cy="57.9" r="3.9"/>
				</g>
			</g>
		</g>
	</g>
	<g>
		<g>
			<path class="st12" d="M90.3,115.5c-0.5,0-1-0.2-1.3-0.6c-0.7-0.7-0.7-1.9,0-2.7l5.1-5.1l-5.1-5.1c-0.7-0.7-0.7-1.9,0-2.7
				c0.7-0.7,1.9-0.7,2.7,0l6.4,6.4c0.7,0.7,0.7,1.9,0,2.7l-6.4,6.4C91.3,115.3,90.8,115.5,90.3,115.5L90.3,115.5z"/>
		</g>
		<g>
			<path class="st8" d="M104,115.5c-0.5,0-1-0.2-1.3-0.6c-0.7-0.7-0.7-1.9,0-2.7l5.1-5.1l-5.1-5.1c-0.7-0.7-0.7-1.9,0-2.7
				c0.7-0.7,1.9-0.7,2.7,0l6.4,6.4c0.4,0.4,0.6,0.8,0.6,1.3c0,0.5-0.2,1-0.6,1.3l-6.4,6.4C104.9,115.3,104.5,115.5,104,115.5
				L104,115.5z"/>
		</g>
		<g>
			<path class="st7" d="M117.6,115.5c-0.5,0-1-0.2-1.3-0.6c-0.7-0.7-0.7-1.9,0-2.7l5.1-5.1l-5.1-5.1c-0.7-0.7-0.7-1.9,0-2.7
				c0.7-0.7,1.9-0.7,2.7,0l6.4,6.4c0.7,0.7,0.7,1.9,0,2.7l-6.4,6.4C118.6,115.3,118.1,115.5,117.6,115.5L117.6,115.5z"/>
		</g>
	</g>
</g>
</svg>
