<?xml version="1.0" encoding="utf-8"?>
<!-- Generator: Adobe Illustrator 25.2.0, SVG Export Plug-In . SVG Version: 6.00 Build 0)  -->
<svg version="1.1" id="color" xmlns="http://www.w3.org/2000/svg" xmlns:xlink="http://www.w3.org/1999/xlink" x="0px" y="0px"
	 viewBox="0 0 130 130" style="enable-background:new 0 0 130 130;" xml:space="preserve">
<style type="text/css">
	.st0{fill:#CFD8DC;}
	.st1{fill:#607D8B;}
	.st2{fill:#546D79;}
	.st3{fill:#FED402;}
	.st4{fill:#FAC600;}
	.st5{fill:#E8B800;}
	.st6{fill:#C99C56;}
	.st7{fill:#C8EFFE;}
	.st8{fill:#FFFFFF;}
	.st9{fill:#EEF5F6;}
	.st10{fill:#01D0FB;}
	.st11{fill:#01C0FA;}
	.st12{fill:#3E5959;}
	.st13{fill:#384949;}
	.st14{fill:#99E6FC;}
	.st15{fill:#FD5426;}
</style>
<g>
	<path class="st0" d="M88.1,1.6c14.9,0,27,12.1,27,27v55.6c0,2.2-1.8,4.1-4.1,4.1c-2.2,0-4.1-1.8-4.1-4.1V28.6
		c0-10.4-8.5-18.9-18.9-18.9s-18.9,8.5-18.9,18.9v83.7c0,9.7-7.9,17.6-17.6,17.6s-17.6-7.9-17.6-17.6V56.9c0-2.2,1.8-4.1,4.1-4.1
		c2.2,0,4.1,1.8,4.1,4.1v55.4c0,5.2,4.2,9.5,9.5,9.5s9.5-4.2,9.5-9.5V28.6C61.1,13.7,73.2,1.6,88.1,1.6z"/>
	<path class="st1" d="M120.5,81.3h-19c-5.2,0-9.5,4.3-9.5,9.5V111c0,10.5,8.5,19,19,19s19-8.5,19-19V90.7
		C130,85.5,125.7,81.3,120.5,81.3z"/>
	<path class="st2" d="M111,81.3h-9.5c-5.2,0-9.5,4.3-9.5,9.5V111c0,10.5,8.5,19,19,19V81.3z"/>
	<g>
		<g>
			<circle class="st3" cx="37.9" cy="37.9" r="34.1"/>
		</g>
		<g>
			<path class="st4" d="M21.6,37.9c0-15.7,10.7-29,25.2-32.9C44,4.3,41,3.8,37.9,3.8C19.1,3.8,3.8,19.1,3.8,37.9S19.1,72,37.9,72
				c3.1,0,6-0.4,8.9-1.2C32.3,66.9,21.6,53.7,21.6,37.9z"/>
		</g>
		<g>
			<path class="st5" d="M37.9,75.8C17,75.8,0,58.8,0,37.9S17,0,37.9,0s37.9,17,37.9,37.9S58.8,75.8,37.9,75.8z M37.9,7.7
				C21.2,7.7,7.7,21.2,7.7,37.9c0,16.7,13.6,30.2,30.2,30.2s30.2-13.6,30.2-30.2C68.2,21.2,54.6,7.7,37.9,7.7L37.9,7.7z"/>
		</g>
		<g>
			<g>
				<path class="st6" d="M52,44.5c0-5.8-4.7-10.5-10.5-10.5h-7.3c-1.5,0-2.8-1.2-2.8-2.8c0-1.5,1.2-2.8,2.8-2.8h12.9
					c2.1,0,3.8-1.7,3.8-3.8s-1.7-3.8-3.8-3.8h-5.4v-3c0-2.1-1.7-3.8-3.8-3.8c-2.1,0-3.8,1.7-3.8,3.8v3c-5.7,0.1-10.3,4.7-10.3,10.5
					c0,5.8,4.7,10.5,10.5,10.5h7.3c1.5,0,2.8,1.2,2.8,2.8c0,1.5-1.2,2.8-2.8,2.8H28.7c-2.1,0-3.8,1.7-3.8,3.8c0,2.1,1.7,3.8,3.8,3.8
					h5.4v3c0,2.1,1.7,3.8,3.8,3.8c2.1,0,3.8-1.7,3.8-3.8v-3C47.4,54.9,52,50.3,52,44.5z"/>
			</g>
		</g>
	</g>
	<g>
		<g>
			<path class="st7" d="M94.1,35.5c-14.5,0-27.4,7-35.4,17.9c-0.7,0.9-0.7,2.2,0,3.2c8,10.8,20.9,17.9,35.4,17.9
				c14.5,0,27.4-7,35.4-17.9c0.7-0.9,0.7-2.2,0-3.2C121.5,42.5,108.6,35.5,94.1,35.5L94.1,35.5z"/>
		</g>
		<g>
			<ellipse class="st8" cx="94.1" cy="55" rx="24.1" ry="19.5"/>
		</g>
		<g>
			<path class="st9" d="M76.6,55c4.6-10.4,12.1-17.7,20.8-19.2c-1.1-0.2-2.2-0.3-3.3-0.3c-10,0-18.9,7.7-24.1,19.5
				C75.2,66.7,84,74.4,94.1,74.4c1.1,0,2.2-0.1,3.3-0.3C88.7,72.6,81.2,65.4,76.6,55L76.6,55z"/>
		</g>
		<g>
			<circle class="st10" cx="94.1" cy="55" r="11.4"/>
		</g>
		<path class="st11" d="M87.8,55c0-5.4,3.8-10,8.8-11.1c-0.8-0.2-1.7-0.3-2.6-0.3c-6.3,0-11.4,5.1-11.4,11.4s5.1,11.4,11.4,11.4
			c0.9,0,1.8-0.1,2.6-0.3C91.6,64.9,87.8,60.4,87.8,55L87.8,55z"/>
		<g>
			<circle class="st12" cx="94.1" cy="55" r="5.2"/>
		</g>
		<path class="st13" d="M92.9,55c0-2.2,1.3-4,3.2-4.8c-0.6-0.3-1.3-0.4-2-0.4c-2.9,0-5.2,2.3-5.2,5.2s2.3,5.2,5.2,5.2
			c0.7,0,1.4-0.1,2-0.4C94.2,58.9,92.9,57.1,92.9,55L92.9,55z"/>
	</g>
	<path class="st0" d="M111,100.7L111,100.7c2.2,0,4.1-1.8,4.1-4.1v-8.4c0-2.2-1.8-4.1-4.1-4.1h0c-2.2,0-4.1,1.8-4.1,4.1v8.4
		C107,98.9,108.8,100.7,111,100.7z"/>
	<g>
		<g>
			<path class="st14" d="M20.1,90.4L8.7,101.4c1.6,0.6,2.9,1.9,3.5,3.6L23.6,94C22,93.4,20.7,92,20.1,90.4z"/>
			<path class="st14" d="M77.8,100.3l-11.7,12.1c1.7,0.6,3,1.9,3.6,3.5l11.7-12.1C79.7,103.2,78.4,102,77.8,100.3L77.8,100.3z"/>
			<path class="st14" d="M61.4,112.7l-29.8-23c-0.4,1.7-1.5,3.2-3.1,4l29.8,23C58.7,115,59.9,113.5,61.4,112.7L61.4,112.7z"/>
		</g>
		<g>
			<circle class="st15" cx="6.5" cy="107" r="6.3"/>
		</g>
		<g>
			<circle class="st3" cx="25.7" cy="88.4" r="6.3"/>
		</g>
		<g>
			<circle class="st15" cx="64.1" cy="118" r="6.3"/>
		</g>
		<g>
			<circle class="st3" cx="83.3" cy="98.2" r="6.3"/>
		</g>
	</g>
</g>
</svg>
