<?xml version="1.0" encoding="utf-8"?>
<!-- Generator: Adobe Illustrator 25.2.0, SVG Export Plug-In . SVG Version: 6.00 Build 0)  -->
<svg version="1.1" id="Capa_1" xmlns="http://www.w3.org/2000/svg" xmlns:xlink="http://www.w3.org/1999/xlink" x="0px" y="0px"
	 viewBox="0 0 130 130" style="enable-background:new 0 0 130 130;" xml:space="preserve">
<style type="text/css">
	.st0{fill:#99E6FC;}
	.st1{fill:#FEF1DA;}
	.st2{fill:#FAE2C0;}
	.st3{fill:#D8AA5E;}
	.st4{fill:#05E39C;}
	.st5{fill:#0ED290;}
	.st6{fill:#FFFFFF;}
	.st7{fill:#7CA1B1;}
	.st8{fill:#678D98;}
	.st9{fill:#3E5959;}
	.st10{fill:#384949;}
	.st11{fill:#8EBAC5;}
	.st12{fill:#01D0FB;}
	.st13{fill:#01C0FA;}
	.st14{fill:#FED402;}
	.st15{fill:#FAC600;}
	.st16{fill:#C99C56;}
	.st17{fill:#FD5426;}
	.st18{fill:#EF4424;}
	.st19{fill:#D73D24;}
</style>
<g>
	<g>
		<path class="st0" d="M104.4,79.9h3.8v8.4h-3.8V79.9z"/>
		<path class="st0" d="M104.4,104.6h3.8v8.4h-3.8V104.6z"/>
	</g>
	<g>
		<path class="st0" d="M106.3,34.5c-1.1,0-1.9,0.9-1.9,1.9v3c0,1.1,0.9,1.9,1.9,1.9c1.1,0,1.9-0.9,1.9-1.9v-3
			C108.2,35.4,107.4,34.5,106.3,34.5z"/>
		<path class="st0" d="M98.6,24.8h-3.8c0.1,0.7,0.1,1.4,0.1,2.1c0,0.6,0,1.2-0.1,1.8h3.8c1.1,0,1.9-0.9,1.9-1.9S99.7,24.8,98.6,24.8
			L98.6,24.8z"/>
		<path class="st0" d="M106.3,32c0.1,0,0.2,0,0.3,0c1-0.1,1.8-1.1,1.6-2.1c-0.2-1.5-1-2.9-2.2-3.8c-0.8-0.6-2-0.5-2.7,0.3
			c-0.6,0.8-0.5,2,0.3,2.7c0.4,0.3,0.7,0.8,0.8,1.3C104.5,31.3,105.3,32,106.3,32z"/>
		<path class="st0" d="M106.3,53.3c-1.1,0-1.9,0.9-1.9,1.9v3c0,1.1,0.9,1.9,1.9,1.9c1.1,0,1.9-0.9,1.9-1.9v-3
			C108.2,54.2,107.4,53.3,106.3,53.3z"/>
		<path class="st0" d="M106.3,43.9c-1.1,0-1.9,0.9-1.9,1.9v3c0,1.1,0.9,1.9,1.9,1.9c1.1,0,1.9-0.9,1.9-1.9v-3
			C108.2,44.8,107.4,43.9,106.3,43.9z"/>
		<path class="st0" d="M46.8,119.3h-3c-1.1,0-1.9,0.9-1.9,1.9s0.9,1.9,1.9,1.9h3c1.1,0,1.9-0.9,1.9-1.9S47.9,119.3,46.8,119.3z"/>
		<path class="st0" d="M37.4,119.3h-0.1c-0.5,0-1-0.2-1.4-0.5c-0.8-0.7-2-0.7-2.7,0.1c-0.7,0.8-0.7,2,0.1,2.7c1.1,1,2.5,1.5,4,1.5
			h0.1c1.1,0,1.9-0.9,1.9-1.9S38.5,119.3,37.4,119.3z"/>
		<path class="st0" d="M35.3,114.2v-3c0-1.1-0.9-1.9-1.9-1.9s-1.9,0.9-1.9,1.9v3c0,1.1,0.9,1.9,1.9,1.9S35.3,115.2,35.3,114.2z"/>
		<path class="st0" d="M33.4,106.7c1.1,0,1.9-0.9,1.9-1.9v-3c0-1.1-0.9-1.9-1.9-1.9s-1.9,0.9-1.9,1.9v3
			C31.5,105.8,32.3,106.7,33.4,106.7z"/>
		<path class="st0" d="M65.6,119.3h-3c-1.1,0-1.9,0.9-1.9,1.9s0.9,1.9,1.9,1.9h3c1.1,0,1.9-0.9,1.9-1.9S66.6,119.3,65.6,119.3z"/>
		<path class="st0" d="M82.9,119.3h-1.5c-1.1,0-1.9,0.9-1.9,1.9s0.9,1.9,1.9,1.9h1.5V119.3z"/>
		<path class="st0" d="M75,119.3h-3c-1.1,0-1.9,0.9-1.9,1.9s0.9,1.9,1.9,1.9h3c1.1,0,1.9-0.9,1.9-1.9S76,119.3,75,119.3z"/>
		<path class="st0" d="M56.2,119.3h-3c-1.1,0-1.9,0.9-1.9,1.9s0.9,1.9,1.9,1.9h3c1.1,0,1.9-0.9,1.9-1.9S57.2,119.3,56.2,119.3z"/>
	</g>
	<g>
		<path class="st1" d="M42.2,95.8c0-8.3,6.8-15.1,15.1-15.1c0,0,0,0,0.1,0V44.2l-3.3,3.3c-0.2,0.2-0.6,0.4-0.9,0.4
			c-0.3,0-0.5-0.1-0.8-0.3c-1.7-1.3-3.2-2.8-4.5-4.5c-0.4-0.5-0.3-1.2,0.1-1.6l3.8-3.8c0.5-0.5,0.7-1.4,0.3-2.1c-0.5-1-1-2-1.3-3.1
			c-0.2-0.7-0.9-1.2-1.7-1.2h-5.4c-0.6,0-1.2-0.5-1.2-1.1c-0.1-1.1-0.2-2.1-0.2-3.2c0,0,0-0.1,0-0.1H12.7c-0.7,0-1.4,0.3-1.8,0.8
			L0.8,37.6C0.3,38.1,0,38.7,0,39.4V96c0,1.4,1.2,2.6,2.6,2.6h39.9C42.3,97.7,42.2,96.8,42.2,95.8L42.2,95.8z"/>
		<g>
			<path class="st2" d="M10.9,96V39.4c0-0.7,0.3-1.4,0.8-1.8l10.1-10.1c0.5-0.5,1.2-0.8,1.8-0.8H12.7c-0.7,0-1.4,0.3-1.8,0.8
				L0.8,37.6C0.3,38.1,0,38.7,0,39.4V96c0,1.4,1.2,2.6,2.6,2.6h10.9C12,98.6,10.9,97.4,10.9,96z"/>
		</g>
		<g>
			<g>
				<path class="st3" d="M42.3,47H15.1c-1.1,0-1.9-0.9-1.9-1.9s0.9-1.9,1.9-1.9h27.2c1.1,0,1.9,0.9,1.9,1.9S43.4,47,42.3,47z"/>
			</g>
			<g>
				<path class="st3" d="M42.3,56.5H15.1c-1.1,0-1.9-0.9-1.9-1.9c0-1.1,0.9-1.9,1.9-1.9h27.2c1.1,0,1.9,0.9,1.9,1.9
					C44.2,55.6,43.4,56.5,42.3,56.5z"/>
			</g>
			<g>
				<path class="st3" d="M42.3,65.9H15.1c-1.1,0-1.9-0.9-1.9-1.9c0-1.1,0.9-1.9,1.9-1.9h27.2c1.1,0,1.9,0.9,1.9,1.9
					C44.2,65.1,43.4,65.9,42.3,65.9z"/>
			</g>
			<g>
				<path class="st3" d="M42.3,75.5H15.1c-1.1,0-1.9-0.9-1.9-1.9s0.9-1.9,1.9-1.9h27.2c1.1,0,1.9,0.9,1.9,1.9S43.4,75.5,42.3,75.5z"
					/>
			</g>
			<g>
				<path class="st3" d="M27.3,85H15.1c-1.1,0-1.9-0.9-1.9-1.9c0-1.1,0.9-1.9,1.9-1.9h12.2c1.1,0,1.9,0.9,1.9,1.9
					C29.2,84.1,28.3,85,27.3,85z"/>
			</g>
		</g>
	</g>
	<g>
		<g>
			<circle class="st4" cx="57.3" cy="95.8" r="15.4"/>
		</g>
		<g>
			<path class="st5" d="M50.8,95.8c0-7,4.6-12.8,11-14.7c-1.4-0.4-2.9-0.6-4.4-0.6c-8.5,0-15.4,6.9-15.4,15.4s6.9,15.4,15.4,15.4
				c1.5,0,3-0.2,4.4-0.6C55.4,108.7,50.8,102.8,50.8,95.8L50.8,95.8z"/>
		</g>
		<g>
			<path class="st6" d="M56.4,102.1c-0.5,0-1-0.2-1.3-0.6l-6-6c-0.7-0.7-0.7-1.9,0-2.7c0.7-0.7,1.9-0.7,2.7,0l4.6,4.6l6.6-6.6
				c0.7-0.7,1.9-0.7,2.7,0c0.7,0.7,0.7,1.9,0,2.7l-7.9,7.9C57.3,101.9,56.9,102.1,56.4,102.1L56.4,102.1z"/>
		</g>
	</g>
	<g>
		<g>
			<path class="st7" d="M85.6,16.3l3.8-3.8c0.5-0.5,0.6-1.4,0.1-2C88.2,8.8,86.7,7.3,85,6c-0.6-0.5-1.4-0.4-2,0.1l-3.8,3.8
				c-0.5,0.5-1.2,0.6-1.8,0.3c-1-0.5-2.1-1-3.1-1.3c-0.6-0.2-1.1-0.8-1.1-1.4V2c0-0.8-0.6-1.4-1.3-1.5c-1.1-0.1-2.1-0.2-3.2-0.2
				s-2.2,0.1-3.2,0.2c-0.8,0.1-1.3,0.7-1.3,1.5v5.4c0,0.7-0.4,1.2-1.1,1.4c-1.1,0.3-2.1,0.8-3.1,1.3c-0.6,0.3-1.3,0.2-1.8-0.3
				l-3.8-3.8c-0.5-0.5-1.4-0.6-2-0.1c-1.7,1.3-3.2,2.9-4.6,4.6c-0.5,0.6-0.4,1.4,0.1,2l3.8,3.8c0.5,0.5,0.6,1.2,0.3,1.8
				c-0.5,1-1,2.1-1.3,3.1c-0.2,0.6-0.8,1.1-1.4,1.1h-5.4c-0.8,0-1.4,0.6-1.5,1.3c-0.1,1.1-0.2,2.1-0.2,3.2c0,1.1,0.1,2.2,0.2,3.2
				c0.1,0.8,0.7,1.3,1.5,1.3h5.4c0.7,0,1.2,0.4,1.4,1.1c0.3,1.1,0.8,2.1,1.3,3.1c0.3,0.6,0.2,1.3-0.3,1.8l-3.8,3.8
				c-0.5,0.5-0.6,1.4-0.1,2c1.3,1.7,2.9,3.2,4.6,4.6c0.6,0.5,1.4,0.4,2-0.1l3.8-3.8c0.5-0.5,1.2-0.6,1.8-0.3c1,0.5,2.1,1,3.1,1.3
				c0.6,0.2,1.1,0.8,1.1,1.4v5.4c0,0.8,0.6,1.4,1.3,1.5c1.1,0.1,2.1,0.2,3.2,0.2c1.1,0,2.2-0.1,3.2-0.2c0.8-0.1,1.3-0.7,1.3-1.5
				v-5.4c0-0.7,0.4-1.2,1.1-1.4c1.1-0.3,2.1-0.8,3.1-1.3c0.6-0.3,1.3-0.2,1.8,0.3l3.8,3.8c0.5,0.5,1.4,0.6,2,0.1
				c1.7-1.3,3.2-2.9,4.6-4.6c0.5-0.6,0.4-1.4-0.1-2l-3.8-3.8c-0.5-0.5-0.6-1.2-0.3-1.8c0.5-1,1-2.1,1.3-3.1c0.2-0.6,0.8-1.1,1.4-1.1
				h5.4c0.8,0,1.4-0.6,1.5-1.3c0.1-1.1,0.2-2.1,0.2-3.2c0-1.1-0.1-2.2-0.2-3.2c-0.1-0.8-0.7-1.3-1.5-1.3h-5.4
				c-0.7,0-1.2-0.4-1.4-1.1c-0.3-1.1-0.8-2.1-1.3-3.1C85,17.5,85.1,16.8,85.6,16.3z"/>
		</g>
		<g>
			<path class="st8" d="M64.3,40c-5.5-1.8-9.5-7-9.5-13.1s4-11.3,9.5-13.1c2.3-2.7,5.4-4.8,8.9-6c0-0.1,0-0.2,0-0.3V2
				c0-0.8-0.6-1.4-1.3-1.5c-1.1-0.1-2.1-0.2-3.2-0.2s-2.2,0.1-3.2,0.2c-0.8,0.1-1.3,0.7-1.3,1.5v5.4c0,0.7-0.4,1.2-1.1,1.4
				c-1.1,0.3-2.1,0.8-3.1,1.3c-0.6,0.3-1.3,0.2-1.8-0.3l-3.8-3.8c-0.5-0.5-1.4-0.6-2-0.1c-1.7,1.3-3.2,2.9-4.6,4.6
				c-0.5,0.6-0.4,1.4,0.1,2l3.8,3.8c0.5,0.5,0.6,1.2,0.3,1.8c-0.5,1-1,2.1-1.3,3.1c-0.2,0.6-0.8,1.1-1.4,1.1h-5.4
				c-0.8,0-1.4,0.6-1.5,1.3c-0.1,1.1-0.2,2.1-0.2,3.2c0,1.1,0.1,2.2,0.2,3.2c0.1,0.8,0.7,1.3,1.5,1.3h5.4c0.7,0,1.2,0.4,1.4,1.1
				c0.3,1.1,0.8,2.1,1.3,3.1c0.3,0.6,0.2,1.3-0.3,1.8l-3.8,3.8c-0.5,0.5-0.6,1.4-0.1,2c1.3,1.7,2.9,3.2,4.6,4.6
				c0.6,0.5,1.4,0.4,2-0.1l3.8-3.8c0.5-0.5,1.2-0.6,1.8-0.3c1,0.5,2.1,1,3.1,1.3c0.6,0.2,1.1,0.8,1.1,1.4v5.4c0,0.8,0.6,1.4,1.3,1.5
				c1.1,0.1,2.1,0.2,3.2,0.2c1.1,0,2.2-0.1,3.2-0.2c0.8-0.1,1.3-0.7,1.3-1.5v-5.4c0-0.1,0-0.2,0-0.3C69.7,44.8,66.7,42.7,64.3,40z"
				/>
		</g>
		<g>
			<circle class="st9" cx="68.6" cy="26.8" r="11.9"/>
		</g>
		<g>
			<path class="st10" d="M63.4,26.8c0-5.4,3.6-10,8.6-11.4c-1.1-0.3-2.2-0.5-3.3-0.5c-6.6,0-11.9,5.3-11.9,11.9s5.3,11.9,11.9,11.9
				c1.2,0,2.3-0.2,3.3-0.5C67,36.8,63.4,32.3,63.4,26.8L63.4,26.8z"/>
		</g>
		<g>
			<path class="st11" d="M68.6,40.6c-7.6,0-13.8-6.2-13.8-13.8S61,13.1,68.6,13.1c7.6,0,13.8,6.2,13.8,13.8S76.3,40.6,68.6,40.6z
				 M68.6,16.9c-5.5,0-10,4.5-10,10s4.5,10,10,10c5.5,0,10-4.5,10-10S74.2,16.9,68.6,16.9z"/>
		</g>
		<g>
			<circle class="st6" cx="68.6" cy="26.8" r="4.1"/>
		</g>
	</g>
	<g>
		<path class="st12" d="M128.7,80.1H83.9c-0.7,0-1.3-0.6-1.3-1.3V64.5c0-0.7,0.6-1.3,1.3-1.3h44.8c0.7,0,1.3,0.6,1.3,1.3v14.3
			C130,79.5,129.4,80.1,128.7,80.1z"/>
	</g>
	<g>
		<path class="st13" d="M91.4,78.8V64.5c0-0.7,0.6-1.3,1.3-1.3h-8.8c-0.7,0-1.3,0.6-1.3,1.3v14.3c0,0.7,0.6,1.3,1.3,1.3h8.8
			C92,80.1,91.4,79.5,91.4,78.8z"/>
	</g>
	<g>
		<path class="st0" d="M120.7,73.6H91.9c-1.1,0-1.9-0.9-1.9-1.9s0.9-1.9,1.9-1.9h28.8c1.1,0,1.9,0.9,1.9,1.9S121.7,73.6,120.7,73.6z
			"/>
	</g>
	<g>
		<path class="st14" d="M128.7,104.9H83.9c-0.7,0-1.3-0.6-1.3-1.3V89.3c0-0.7,0.6-1.3,1.3-1.3h44.8c0.7,0,1.3,0.6,1.3,1.3v14.3
			C130,104.3,129.4,104.9,128.7,104.9z"/>
	</g>
	<g>
		<path class="st15" d="M91.4,103.6V89.3c0-0.7,0.6-1.3,1.3-1.3h-8.8c-0.7,0-1.3,0.6-1.3,1.3v14.3c0,0.7,0.6,1.3,1.3,1.3h8.8
			C92,104.9,91.4,104.3,91.4,103.6z"/>
	</g>
	<g>
		<path class="st16" d="M120.7,98.3H91.9c-1.1,0-1.9-0.9-1.9-1.9c0-1.1,0.9-1.9,1.9-1.9h28.8c1.1,0,1.9,0.9,1.9,1.9
			C122.6,97.5,121.7,98.3,120.7,98.3z"/>
	</g>
	<g>
		<path class="st17" d="M128.7,129.7H83.9c-0.7,0-1.3-0.6-1.3-1.3v-14.3c0-0.7,0.6-1.3,1.3-1.3h44.8c0.7,0,1.3,0.6,1.3,1.3v14.3
			C130,129.1,129.4,129.7,128.7,129.7z"/>
	</g>
	<g>
		<path class="st18" d="M91.4,128.4v-14.3c0-0.7,0.6-1.3,1.3-1.3h-8.8c-0.7,0-1.3,0.6-1.3,1.3v14.3c0,0.7,0.6,1.3,1.3,1.3h8.8
			C92,129.7,91.4,129.1,91.4,128.4z"/>
	</g>
	<g>
		<path class="st19" d="M120.7,123.1H91.9c-1.1,0-1.9-0.9-1.9-1.9s0.9-1.9,1.9-1.9h28.8c1.1,0,1.9,0.9,1.9,1.9
			S121.7,123.1,120.7,123.1z"/>
	</g>
</g>
</svg>
