<?xml version="1.0" encoding="utf-8"?>
<!-- Generator: Adobe Illustrator 25.2.0, SVG Export Plug-In . SVG Version: 6.00 Build 0)  -->
<svg version="1.1" id="Capa_1" xmlns="http://www.w3.org/2000/svg" xmlns:xlink="http://www.w3.org/1999/xlink" x="0px" y="0px"
	 viewBox="0 0 155.2 130" style="enable-background:new 0 0 155.2 130;" xml:space="preserve">
<style type="text/css">
	.st0{fill:#05E39C;}
	.st1{fill:#0ED290;}
	.st2{fill:#E8B800;}
	.st3{fill:#E9B665;}
	.st4{fill:#D8AA5E;}
	.st5{fill:#C99C56;}
	.st6{fill:#FAC600;}
	.st7{fill:#D7AA02;}
	.st8{fill:#FED402;}
	.st9{fill:#FEE97D;}
	.st10{fill:#A8D3D8;}
	.st11{fill:#8EBAC5;}
	.st12{fill:#678D98;}
	.st13{fill:#537983;}
	.st14{fill:#DFF6FD;}
	.st15{fill:#C8EFFE;}
	.st16{fill:#3E5959;}
	.st17{fill:#FD5426;}
	.st18{fill:#EF4424;}
	.st19{fill:#01D0FB;}
	.st20{fill:#01C0FA;}
</style>
<g>
	<g>
		<g>
			<path class="st0" d="M49.8,22.9l-4.2-21h-9.3c-1,0-1.6,1-1.2,1.9l10,19H49.8z"/>
			<path class="st0" d="M68.9,1.9h-9.3l-4.2,21H60l10-19C70.5,3,69.9,1.9,68.9,1.9z"/>
		</g>
		<g>
			<g>
				<path class="st1" d="M49.5,22.9h6.1l4.3-21.3C60.1,0.8,59.5,0,58.7,0H46.5c-0.8,0-1.4,0.8-1.3,1.6L49.5,22.9z"/>
			</g>
		</g>
		<g>
			<path class="st0" d="M89.4,91.5l-0.2,0.1c-4.3,3.1-9.3,4.7-14.6,4.7c-13.8,0-25-11.2-25-25c0-12.7,9.6-23.3,21.9-24.8l-9.4-6.9
				H43L22.1,55h8.5c1.3,0,2.3,1,2.3,2.3v4c0,1.3-1,2.3-2.3,2.3v0.6c1.3,0,2.3,1,2.3,2.3v4c0,1.3-1,2.3-2.3,2.3v0.6
				c1.3,0,2.3,1,2.3,2.3v4c0,1.3-1,2.3-2.3,2.3v0.6c1.3,0,2.3,1,2.3,2.3V86c11.6,0.5,20.8,10.1,20.8,21.8c0,4.1-1.1,7.9-3.1,11.2
				h28.2c10.7,0,19.1-8.4,19.7-18.5L89.4,91.5z"/>
		</g>
		<g>
			<path class="st1" d="M30.6,55c1.3,0,2.3,1,2.3,2.3v2.1c0.6-0.7,1.3-1.3,2.1-1.9l24.4-18H43L22.1,55L30.6,55L30.6,55z"/>
		</g>
		<g>
			<path class="st2" d="M10,107.8C10,95.8,19.8,86,31.8,86c0.4,0,0.9,0,1.3,0v-1.1c0-1.4-1.2-2.6-2.6-2.6c1.4,0,2.6-1.2,2.6-2.6v-4
				c0-1.4-1.2-2.6-2.6-2.6c1.4,0,2.6-1.2,2.6-2.6v-4c0-1.4-1.2-2.6-2.6-2.6c1.4,0,2.6-1.2,2.6-2.6v-4c0-1.4-1.2-2.6-2.6-2.6H3.2
				c-1.4,0-2.6,1.2-2.6,2.6v4c0,1.4,1.2,2.6,2.6,2.6c-1.4,0-2.6,1.2-2.6,2.6v4c0,1.4,1.2,2.6,2.6,2.6c-1.4,0-2.6,1.2-2.6,2.6v4
				c0,1.4,1.2,2.6,2.6,2.6c-1.4,0-2.6,1.2-2.6,2.6v4c0,1.4,1.2,2.6,2.6,2.6c-1.4,0-2.6,1.2-2.6,2.6v4c0,1.4,1.2,2.6,2.6,2.6
				c-1.4,0-2.6,1.2-2.6,2.6v4c0,1.4,1.2,2.6,2.6,2.6c-1.4,0-2.6,1.2-2.6,2.6v4c0,1.4,1.2,2.6,2.6,2.6h9.9
				C11.1,115.8,10,111.9,10,107.8L10,107.8z"/>
		</g>
		<g>
			<g>
				<path class="st3" d="M62.4,40H42.8c-2.4,0-4.3-1.9-4.3-4.3s1.9-4.3,4.3-4.3h19.7c2.4,0,4.3,1.9,4.3,4.3S64.8,40,62.4,40z"/>
			</g>
			<g>
				<path class="st4" d="M48,35.6c0-2.4,1.9-4.3,4.3-4.3h-9.6c-2.4,0-4.3,1.9-4.3,4.3s1.9,4.3,4.3,4.3h9.6C50,40,48,38,48,35.6
					L48,35.6z"/>
			</g>
			<g>
				<path class="st4" d="M62.4,31.3H42.8c-2.4,0-4.3-1.9-4.3-4.3c0-2.4,1.9-4.3,4.3-4.3h19.7c2.4,0,4.3,1.9,4.3,4.3
					C66.8,29.3,64.8,31.3,62.4,31.3z"/>
			</g>
			<g>
				<path class="st5" d="M48,26.9c0-2.4,1.9-4.3,4.3-4.3h-9.6c-2.4,0-4.3,1.9-4.3,4.3s1.9,4.3,4.3,4.3h9.6C50,31.3,48,29.3,48,26.9
					L48,26.9z"/>
			</g>
		</g>
	</g>
	<g>
		<g>
			<path class="st6" d="M10.1,109.9H3.2c-1.4,0-2.6,1.2-2.6,2.6v4c0,1.4,1.2,2.6,2.6,2.6h9.9C11.4,116.3,10.4,113.2,10.1,109.9z"/>
		</g>
		<g>
			<path class="st7" d="M10,107.8c0-2.5,0.4-4.9,1.2-7.1h-8c-1.4,0-2.6,1.2-2.6,2.6v4c0,1.4,1.2,2.6,2.6,2.6h6.9
				C10,109.2,10,108.5,10,107.8L10,107.8z"/>
		</g>
		<g>
			<path class="st8" d="M17.3,91.5H3.2c-1.4,0-2.6,1.2-2.6,2.6v4c0,1.4,1.2,2.6,2.6,2.6h8C12.4,97.1,14.6,94,17.3,91.5L17.3,91.5z"
				/>
		</g>
		<g>
			<path class="st7" d="M10.3,88.9v-4c0-1.4,1.2-2.6,2.6-2.6H3.2c-1.4,0-2.6,1.2-2.6,2.6v4c0,1.4,1.2,2.6,2.6,2.6h9.8
				C11.5,91.5,10.3,90.3,10.3,88.9z"/>
		</g>
		<g>
			<path class="st8" d="M30.6,82.3H3.2c-1.4,0-2.6-1.2-2.6-2.6v-4c0-1.4,1.2-2.6,2.6-2.6h27.4c1.4,0,2.6,1.2,2.6,2.6v4
				C33.1,81.2,32,82.3,30.6,82.3z"/>
		</g>
		<g>
			<path class="st6" d="M10.3,79.7v-4c0-1.4,1.2-2.6,2.6-2.6H3.2c-1.4,0-2.6,1.2-2.6,2.6v4c0,1.4,1.2,2.6,2.6,2.6h9.8
				C11.5,82.3,10.3,81.2,10.3,79.7z"/>
		</g>
		<path class="st6" d="M11.4,100.2c-0.6-0.5-1-1.2-1-2v-4c0-1.4,1.2-2.6,2.6-2.6H3.2c-1.4,0-2.6,1.2-2.6,2.6v4
			c0,1.4,1.2,2.6,2.6,2.6h8C11.2,100.5,11.3,100.3,11.4,100.2z"/>
		<g>
			<path class="st7" d="M10.3,70.5v-4c0-1.4,1.2-2.6,2.6-2.6H3.2c-1.4,0-2.6,1.2-2.6,2.6v4c0,1.4,1.2,2.6,2.6,2.6h9.8
				C11.5,73.1,10.3,72,10.3,70.5z"/>
		</g>
		<g>
			<path class="st8" d="M30.6,63.9H3.2c-1.4,0-2.6-1.2-2.6-2.6v-4c0-1.4,1.2-2.6,2.6-2.6h27.4c1.4,0,2.6,1.2,2.6,2.6v4
				C33.1,62.8,32,63.9,30.6,63.9z"/>
		</g>
		<g>
			<path class="st6" d="M10.3,61.3v-4c0-1.4,1.2-2.6,2.6-2.6H3.2c-1.4,0-2.6,1.2-2.6,2.6v4c0,1.4,1.2,2.6,2.6,2.6h9.8
				C11.5,63.9,10.3,62.8,10.3,61.3z"/>
		</g>
	</g>
	<g>
		<path class="st8" d="M31.8,89.9c-9.9,0-17.9,8.1-17.9,17.9s8.1,17.9,17.9,17.9s17.9-8.1,17.9-17.9S41.7,89.9,31.8,89.9z"/>
		<path class="st6" d="M32.9,89.9c-0.4,0-0.7,0-1.1,0c-9.9,0-17.9,8.1-17.9,17.9s8.1,17.9,17.9,17.9c0.4,0,0.7,0,1.1,0
			c-6.6-3.2-11.2-10-11.2-17.9C21.7,100,26.3,93.2,32.9,89.9z"/>
		<g>
			<g>
				<path class="st9" d="M31.8,130c-12.2,0-22.2-9.9-22.2-22.2s9.9-22.2,22.2-22.2S54,95.6,54,107.8S44,130,31.8,130z M31.8,90.2
					c-9.7,0-17.6,7.9-17.6,17.6s7.9,17.6,17.6,17.6c9.7,0,17.6-7.9,17.6-17.6S41.6,90.2,31.8,90.2z"/>
			</g>
		</g>
		<path class="st5" d="M34.1,105.6h-4.5c-1,0-1.9-0.8-1.9-1.9s0.8-1.9,1.9-1.9h8c1.2,0,2.3-1,2.3-2.3s-1-2.3-2.3-2.3h-3.5v-2
			c0-1.2-1-2.3-2.3-2.3c-1.2,0-2.3,1-2.3,2.3v2h0c-3.5,0-6.4,2.9-6.4,6.4s2.9,6.4,6.4,6.4h4.5c1,0,1.9,0.8,1.9,1.9
			c0,1-0.8,1.9-1.9,1.9h-8c-1.2,0-2.3,1-2.3,2.3s1,2.3,2.3,2.3h3.5v2c0,1.2,1,2.3,2.3,2.3c1.2,0,2.3-1,2.3-2.3v-2h0
			c3.5,0,6.4-2.9,6.4-6.4C40.5,108.4,37.6,105.6,34.1,105.6L34.1,105.6z"/>
	</g>
	<g>
		<g>
			<g>
				<path class="st10" d="M106.5,97.4L94.9,85.9c-1.6,2.2-3.6,4.2-5.8,5.8l11.6,11.6L106.5,97.4z"/>
			</g>
			<g>
				<path class="st11" d="M91.9,89.3c-0.9,0.8-1.8,1.6-2.8,2.3l11.6,11.6l2.5-2.5L91.9,89.3z"/>
			</g>
			<g>
				<path class="st12" d="M125,121.6c-2.5,2.5-6.5,2.5-9,0l-15.9-15.9c-0.6-0.6-0.6-1.7,0-2.3l6.7-6.7c0.6-0.6,1.7-0.6,2.3,0
					l15.9,15.9C127.5,115,127.5,119.1,125,121.6z"/>
			</g>
			<g>
				<path class="st13" d="M123.8,121.6l-15.9-15.9c-0.6-0.6-0.6-1.7,0-2.3l4-4l-2.8-2.8c-0.6-0.6-1.7-0.6-2.3,0l-6.7,6.7
					c-0.6,0.6-0.6,1.7,0,2.3l15.9,15.9c2.3,2.3,5.9,2.5,8.4,0.5C124.2,121.9,124,121.7,123.8,121.6L123.8,121.6z"/>
			</g>
			<g>
				<circle class="st12" cx="74.6" cy="71.3" r="25.3"/>
			</g>
			<g>
				<path class="st13" d="M54.6,71.3c0-8.4,5.2-15.6,12.5-18.6c3.4-3.1,7.6-5.3,12.3-6.3c-1.6-0.3-3.2-0.5-4.8-0.5
					c-14,0-25.3,11.3-25.3,25.3s11.3,25.3,25.3,25.3c1.7,0,3.3-0.2,4.8-0.5c-4.7-0.9-8.9-3.1-12.3-6.3
					C59.8,86.9,54.6,79.7,54.6,71.3L54.6,71.3z"/>
			</g>
			<path class="st14" d="M74.6,55.2c-8.9,0-16.1,7.2-16.1,16.1c0,8.9,7.2,16.1,16.1,16.1c8.9,0,16.1-7.2,16.1-16.1
				C90.7,62.5,83.5,55.2,74.6,55.2L74.6,55.2z"/>
			<path class="st15" d="M74.5,55.2c-8.8,0.1-16,7.3-16,16.1c0,8.8,7.2,16.1,16,16.1c-5.9-3-9.9-9.1-9.9-16.1
				C64.6,64.3,68.6,58.2,74.5,55.2z"/>
			<g>
				<path class="st16" d="M74.6,91.7c-11.2,0-20.3-9.1-20.3-20.3c0-11.2,9.1-20.3,20.3-20.3c11.2,0,20.3,9.1,20.3,20.3
					C94.9,82.5,85.8,91.7,74.6,91.7L74.6,91.7z M74.6,55.5c-8.7,0-15.8,7.1-15.8,15.8s7.1,15.8,15.8,15.8s15.8-7.1,15.8-15.8
					C90.4,62.6,83.3,55.5,74.6,55.5L74.6,55.5z"/>
			</g>
		</g>
		<g>
			<g>
				<path class="st11" d="M125.4,66.2l-17.6-12.6c-0.5,1.5-1.6,2.7-3,3.4l18.7,13.5C123.5,68.8,124.2,67.3,125.4,66.2L125.4,66.2z"
					/>
				<path class="st11" d="M96.2,52.2L77.7,66.4c1.3,0.8,2.3,2.1,2.7,3.7l17.9-13.8C97.1,55.2,96.3,53.8,96.2,52.2L96.2,52.2z"/>
				<path class="st11" d="M143.2,54.6l-10.7,10.7c1.3,0.8,2.4,2.1,2.8,3.6l11.6-11.6C145.3,57,144,55.9,143.2,54.6z"/>
			</g>
			<g>
				<circle class="st17" cx="129.5" cy="70.5" r="6.3"/>
			</g>
			<g>
				<path class="st18" d="M129.5,70.5c0-2.3,1.3-4.3,3.1-5.4c-0.9-0.5-2-0.9-3.2-0.9c-3.5,0-6.3,2.8-6.3,6.3s2.8,6.3,6.3,6.3
					c1.2,0,2.2-0.3,3.2-0.9C130.8,74.8,129.5,72.8,129.5,70.5L129.5,70.5z"/>
			</g>
			<g>
				<circle class="st19" cx="102.1" cy="51.6" r="6.3"/>
			</g>
			<g>
				<path class="st20" d="M102.3,51.6c0-2.3,1.2-4.3,3.1-5.4c-0.9-0.6-2-0.9-3.2-0.9c-3.5,0-6.3,2.8-6.3,6.3s2.8,6.3,6.3,6.3
					c1.2,0,2.3-0.3,3.2-0.9C103.5,55.9,102.3,53.9,102.3,51.6z"/>
			</g>
			<g>
				<circle class="st19" cx="148.4" cy="51.6" r="6.3"/>
			</g>
			<g>
				<path class="st20" d="M148.5,51.6c0-2.3,1.2-4.3,3.1-5.4c-0.9-0.5-2-0.9-3.2-0.9c-3.5,0-6.3,2.8-6.3,6.3s2.8,6.3,6.3,6.3
					c1.2,0,2.2-0.3,3.2-0.9C149.7,55.9,148.5,53.9,148.5,51.6z"/>
			</g>
		</g>
		<g>
			<g>
				<circle class="st8" cx="74.6" cy="71.4" r="6.3"/>
			</g>
		</g>
		<g>
			<path class="st6" d="M73.9,71.4c0-2.5,1.4-4.6,3.5-5.6c-0.8-0.4-1.8-0.7-2.8-0.7c-3.5,0-6.3,2.8-6.3,6.3c0,3.5,2.8,6.3,6.3,6.3
				c1,0,2-0.2,2.8-0.7C75.3,76,73.9,73.9,73.9,71.4z"/>
		</g>
	</g>
</g>
</svg>
