<?xml version="1.0" encoding="utf-8"?>
<!-- Generator: Adobe Illustrator 25.2.0, SVG Export Plug-In . SVG Version: 6.00 Build 0)  -->
<svg version="1.1" id="Capa_1" xmlns="http://www.w3.org/2000/svg" xmlns:xlink="http://www.w3.org/1999/xlink" x="0px" y="0px"
	 viewBox="0 0 154.1 130.1" style="enable-background:new 0 0 154.1 130.1;" xml:space="preserve">
<style type="text/css">
	.st0{fill:#FDF6EC;}
	.st1{fill:#FEF1DA;}
	.st2{fill:#05E39C;}
	.st3{fill:#0ED290;}
	.st4{fill:#7CA1B1;}
	.st5{fill:#FD5426;}
	.st6{fill:#EF4424;}
	.st7{fill:#FEE97D;}
	.st8{fill:#FEDF30;}
	.st9{fill:#01C0FA;}
	.st10{fill:#FB8801;}
	.st11{fill:#D8AA5E;}
	.st12{fill:#C99C56;}
	.st13{fill:#01D0FB;}
</style>
<g>
	<g>
		<g>
			<g>
				<path class="st0" d="M45.9,32.6v24.2c0,0.5-0.4,0.7-0.7,0.7H15.9v71c0,0.8,0.7,1.4,1.4,1.4h135.3c0.8,0,1.4-0.7,1.4-1.4v-96
					L45.9,32.6z"/>
				<path class="st1" d="M29,128.6v-71H15.9v71c0,0.8,0.7,1.4,1.4,1.4h13.2C29.6,130,29,129.4,29,128.6z"/>
				<g>
					<path class="st2" d="M34,121.5h-7.6c-0.7,0-1.2-0.6-1.2-1.2v-7.6c0-0.7,0.6-1.2,1.2-1.2H34c0.7,0,1.2,0.6,1.2,1.2v7.6
						C35.2,121,34.7,121.5,34,121.5z"/>
				</g>
				<path class="st3" d="M30.3,120.3v-7.6c0-0.7,0.6-1.2,1.2-1.2h-5.1c-0.7,0-1.2,0.6-1.2,1.2v7.6c0,0.7,0.6,1.2,1.2,1.2h5.1
					C30.9,121.5,30.3,121,30.3,120.3z"/>
				<g>
					<path class="st4" d="M151.1,19.6H45.9v13h108.2V22.5C154.1,20.9,152.8,19.6,151.1,19.6z"/>
				</g>
			</g>
		</g>
		<g>
			<g>
				<g>
					<g>
						<path class="st2" d="M77.4,118.7H41.6c-1.3,0-2.3-1.1-2.3-2.3c0-1.3,1.1-2.3,2.3-2.3h35.8c1.3,0,2.3,1.1,2.3,2.3
							C79.6,117.8,78.6,118.7,77.4,118.7z"/>
					</g>
				</g>
				<g>
					<g>
						<path class="st5" d="M100.6,121.5H93c-0.7,0-1.2-0.6-1.2-1.2v-7.6c0-0.7,0.6-1.2,1.2-1.2h7.6c0.7,0,1.2,0.6,1.2,1.2v7.6
							C101.8,121,101.2,121.5,100.6,121.5z"/>
					</g>
					<path class="st6" d="M96.9,120.3v-7.6c0-0.7,0.6-1.2,1.2-1.2H93c-0.7,0-1.2,0.6-1.2,1.2v7.6c0,0.7,0.6,1.2,1.2,1.2h5.1
						C97.4,121.5,96.9,121,96.9,120.3z"/>
					<g>
						<path class="st5" d="M143.9,118.7h-35.8c-1.3,0-2.3-1.1-2.3-2.3c0-1.3,1.1-2.3,2.3-2.3h35.8c1.3,0,2.3,1.1,2.3,2.3
							C146.1,117.8,145.2,118.7,143.9,118.7z"/>
					</g>
				</g>
			</g>
			<g>
				<path class="st2" d="M51.5,44.6c-1.9,0-3.8,0.2-5.7,0.6v11.6c0,0.5-0.4,0.7-0.7,0.7H28.6c-2.4,4-3.8,8.7-3.8,13.6
					c0,14.7,12.1,26.7,26.7,26.7c2.6,0,5.1-0.4,7.6-1.1c0.5-0.1,0.7-0.7,0.6-1.2l-7.8-23.2c-0.2-0.6,0.2-1.2,0.8-1.2h24.5
					c0.5,0,0.9-0.5,0.9-0.9C77.7,56.1,65.9,44.6,51.5,44.6z"/>
				<g>
					<path class="st3" d="M45.9,49.9c3.2-2.4,6.9-4.1,10.8-4.9c-1.7-0.4-3.4-0.5-5.2-0.5c-1.9,0-3.8,0.2-5.7,0.6L45.9,49.9z"/>
					<path class="st3" d="M35.2,71.2c0-5,1.4-9.6,3.8-13.6H28.6c-2.4,4-3.8,8.7-3.8,13.6c0,14.7,12.1,26.7,26.7,26.7
						c1.8,0,3.4-0.1,5.2-0.5C44.6,94.9,35.2,84.1,35.2,71.2z"/>
				</g>
				<g>
					<g>
						<path class="st5" d="M63,80.1l7.8,23.2c0.1,0.5,0.7,0.7,1.2,0.6c9.8-3.7,16.9-13,17.3-24.1c0-0.5-0.4-0.9-0.9-0.9H63.9
							C63.3,78.9,62.8,79.5,63,80.1L63,80.1z"/>
					</g>
				</g>
				<g>
					<path class="st6" d="M71.3,78.9h-7.5c-0.6,0-1.1,0.6-0.8,1.2l7.8,23.2c0.1,0.5,0.7,0.7,1.2,0.6c2.4-0.8,4.5-2.1,6.5-3.6
						L71.3,78.9z"/>
				</g>
			</g>
			<g>
				<g>
					<g>
						<path class="st4" d="M143.9,65.7h-37.4c-1.3,0-2.3-1.1-2.3-2.3c0-1.2,1.1-2.3,2.3-2.3h37.4c1.3,0,2.3,1.1,2.3,2.3
							C146.1,64.6,145.2,65.7,143.9,65.7z"/>
					</g>
					<g>
						<path class="st4" d="M143.9,74.4h-37.4c-1.3,0-2.3-1.1-2.3-2.3c0-1.3,1.1-2.3,2.3-2.3h37.4c1.3,0,2.3,1.1,2.3,2.3
							C146.1,73.4,145.2,74.4,143.9,74.4z"/>
					</g>
					<g>
						<path class="st4" d="M143.9,83.2h-37.4c-1.3,0-2.3-1.1-2.3-2.3c0-1.3,1.1-2.3,2.3-2.3h37.4c1.3,0,2.3,1.1,2.3,2.3
							S145.2,83.2,143.9,83.2z"/>
					</g>
					<g>
						<path class="st4" d="M143.9,92h-37.4c-1.3,0-2.3-1.1-2.3-2.3c0-1.3,1.1-2.3,2.3-2.3h37.4c1.3,0,2.3,1.1,2.3,2.3
							C146.1,90.9,145.2,92,143.9,92z"/>
					</g>
					<g>
						<path class="st4" d="M143.9,100.7h-37.4c-1.3,0-2.3-1.1-2.3-2.3c0-1.3,1.1-2.3,2.3-2.3h37.4c1.3,0,2.3,1.1,2.3,2.3
							S145.2,100.7,143.9,100.7z"/>
					</g>
				</g>
				<g>
					<g>
						<path class="st4" d="M99,65.7h-1.2c-1.3,0-2.3-1.1-2.3-2.3c0-1.2,1.1-2.3,2.3-2.3H99c1.3,0,2.3,1.1,2.3,2.3
							C101.2,64.6,100.1,65.7,99,65.7z"/>
					</g>
					<g>
						<path class="st4" d="M99,74.4h-1.2c-1.3,0-2.3-1.1-2.3-2.3c0-1.3,1.1-2.3,2.3-2.3H99c1.3,0,2.3,1.1,2.3,2.3
							C101.2,73.4,100.1,74.4,99,74.4z"/>
					</g>
					<g>
						<path class="st4" d="M99,83.2h-1.2c-1.3,0-2.3-1.1-2.3-2.3c0-1.3,1.1-2.3,2.3-2.3H99c1.3,0,2.3,1.1,2.3,2.3
							S100.1,83.2,99,83.2z"/>
					</g>
					<g>
						<path class="st4" d="M99,92h-1.2c-1.3,0-2.3-1.1-2.3-2.3c0-1.3,1.1-2.3,2.3-2.3H99c1.3,0,2.3,1.1,2.3,2.3
							C101.2,90.9,100.1,92,99,92z"/>
					</g>
					<g>
						<path class="st4" d="M99,100.7h-1.2c-1.3,0-2.3-1.1-2.3-2.3c0-1.3,1.1-2.3,2.3-2.3H99c1.3,0,2.3,1.1,2.3,2.3
							S100.1,100.7,99,100.7z"/>
					</g>
				</g>
			</g>
		</g>
	</g>
	<g>
		<g>
			<path class="st7" d="M9,0.4L0.2,9.1C0.1,9.4,0,9.6,0,9.8v46.9c0,0.6,0.5,1.1,1.1,1.1h44.1c0.6,0,1.1-0.5,1.1-1.1V1.1
				c0-0.6-0.5-1.1-1.1-1.1H9.8C9.5,0.1,9.2,0.1,9,0.4z"/>
		</g>
		<g>
			<path class="st8" d="M10.4,56.8V9.8c0-0.2,0.1-0.6,0.4-0.7l8.8-8.8C19.8,0.1,20,0,20.3,0H9.8C9.6,0,9.2,0.1,9.1,0.4L0.4,9.1
				C0.1,9.4,0,9.6,0,9.8v46.9c0,0.6,0.5,1.1,1.1,1.1h10.4C10.9,57.8,10.4,57.4,10.4,56.8z"/>
		</g>
		<g>
			<g>
				<g>
					<path class="st5" d="M15.2,21.7v-5.9c0-1.3-1.1-2.3-2.3-2.3s-2.3,0.9-2.3,2.3v5.9H15.2z"/>
				</g>
				<g>
					<path class="st9" d="M21.9,21.7V10.2c0-1.3-1.1-2.3-2.3-2.3c-1.3,0-2.3,1.1-2.3,2.3v11.5C17.4,21.7,21.9,21.7,21.9,21.7z"/>
				</g>
				<g>
					<path class="st10" d="M28.7,21.7v-8.8c0-1.3-1.1-2.3-2.3-2.3c-1.3,0-2.3,1.1-2.3,2.3v8.8H28.7z"/>
				</g>
				<g>
					<path class="st3" d="M35.4,21.7V8.4c0-1.3-1.1-2.3-2.3-2.3c-1.2,0-2.3,1.1-2.3,2.3v13.3C30.9,21.7,35.4,21.7,35.4,21.7z"/>
				</g>
				<g>
					<path class="st11" d="M36.6,26h-27c-1.3,0-2.3-1.1-2.3-2.3c0-1.2,1.1-2.3,2.3-2.3h27c1.3,0,2.3,1.1,2.3,2.3
						C38.9,24.9,37.8,26,36.6,26z"/>
				</g>
			</g>
			<g>
				<g>
					<path class="st12" d="M11,34.8H9.6c-1.3,0-2.3-1.1-2.3-2.3c0-1.2,1.1-2.3,2.3-2.3H11c1.3,0,2.3,1.1,2.3,2.3
						C13.3,33.8,12.3,34.8,11,34.8z"/>
				</g>
				<g>
					<path class="st12" d="M11,42.4H9.6c-1.3,0-2.3-1.1-2.3-2.3s1.1-2.3,2.3-2.3H11c1.3,0,2.3,1.1,2.3,2.3S12.3,42.4,11,42.4z"/>
				</g>
				<g>
					<path class="st12" d="M11,50.1H9.6c-1.3,0-2.3-1.1-2.3-2.3c0-1.2,1.1-2.3,2.3-2.3H11c1.3,0,2.3,1.1,2.3,2.3
						C13.3,49.1,12.3,50.1,11,50.1z"/>
				</g>
			</g>
			<g>
				<g>
					<path class="st12" d="M36.6,34.8H17.5c-1.3,0-2.3-1.1-2.3-2.3c0-1.2,1.1-2.3,2.3-2.3h19.1c1.3,0,2.3,1.1,2.3,2.3
						C38.9,33.8,37.8,34.8,36.6,34.8z"/>
				</g>
				<g>
					<path class="st12" d="M36.6,42.4H17.5c-1.3,0-2.3-1.1-2.3-2.3s1.1-2.3,2.3-2.3h19.1c1.3,0,2.3,1.1,2.3,2.3S37.8,42.4,36.6,42.4
						z"/>
				</g>
				<g>
					<path class="st12" d="M36.6,50.1H17.5c-1.3,0-2.3-1.1-2.3-2.3c0-1.2,1.1-2.3,2.3-2.3h19.1c1.3,0,2.3,1.1,2.3,2.3
						C38.9,49.1,37.8,50.1,36.6,50.1z"/>
				</g>
			</g>
		</g>
	</g>
	<g>
		<path class="st5" d="M142,44.6h-19l-0.4,0.5v7.5l0.4,0.6h19c2.4,0,4.3-1.9,4.3-4.3C146.2,46.5,144.2,44.6,142,44.6L142,44.6z"/>
		<g>
			<g>
				<path class="st13" d="M89.1,44.6c-2.4,0-4.3,1.9-4.3,4.3c0,2.4,1.9,4.3,4.3,4.3H123v-8.4L89.1,44.6z"/>
			</g>
		</g>
		<path class="st9" d="M92.4,48.7c0-2.4,1.9-4.3,4.3-4.3h-7.6c-2.4,0-4.3,1.9-4.3,4.3c0,2.4,1.9,4.3,4.3,4.3h7.6
			C94.3,53,92.4,51.1,92.4,48.7L92.4,48.7z"/>
	</g>
</g>
</svg>
