<?xml version="1.0" encoding="utf-8"?>
<!-- Generator: Adobe Illustrator 25.2.0, SVG Export Plug-In . SVG Version: 6.00 Build 0)  -->
<svg version="1.1" id="圖層_1" xmlns="http://www.w3.org/2000/svg" xmlns:xlink="http://www.w3.org/1999/xlink" x="0px" y="0px"
	 viewBox="0 0 510 510" style="enable-background:new 0 0 510 510;" xml:space="preserve">
<path d="M264.8,390.6h-19.5c-5.4,0-9.8-4.4-9.8-9.8c0-5.4,4.4-9.8,9.8-9.8h39.1v-19.5h-19.5V332h-19.5v19.5
	c-16.2,0-29.3,13.1-29.3,29.3s13.1,29.3,29.3,29.3h19.5c5.4,0,9.8,4.4,9.8,9.8c0,5.4-4.4,9.8-9.8,9.8h-39.1v19.5h19.5v19.5h19.5
	v-19.5c16.2,0,29.3-13.1,29.3-29.3C294.1,403.8,280.9,390.6,264.8,390.6z M291.2,124.1l-13.8-13.8l-12.6,12.6V58.6h-19.5v64.3
	l-12.6-12.6l-13.8,13.8l36.2,36.2L291.2,124.1z M255,293c-59.3,0-107.4,48.1-107.4,107.4S195.7,507.8,255,507.8
	s107.4-48.1,107.4-107.4S314.3,293,255,293z M255,488.3c-48.5,0-87.9-39.3-87.9-87.9c0-48.6,39.3-87.9,87.9-87.9
	s87.9,39.3,87.9,87.9C342.8,448.9,303.5,488.2,255,488.3z M206.2,276.2l97.7-24.4v-62.2l127-127V0H79.2v62.6l127,127V276.2z
	 M98.7,54.6v-35h312.5v35l-127,127v55l-58.6,14.6v-69.7L98.7,54.6z M469.9,507.8h19.5V273.4h-19.5V507.8z M430.8,507.8h19.5V312.5
	h-19.5V507.8z M20.6,507.8h19.5V273.4H20.6V507.8z M59.7,507.8h19.5V312.5H59.7V507.8z M391.7,507.9h19.5V351.6h-19.5V507.9z
	 M98.7,507.9h19.5V351.6H98.7V507.9z M98.7,332h19.5v-19.5H98.7V332z M59.7,293h19.5v-19.6H59.7V293z M20.6,253.9h19.5v-19.5H20.6
	V253.9z M391.7,332h19.5v-19.5h-19.5V332z M430.8,293h19.5v-19.6h-19.5V293z M469.9,234.4v19.5h19.5v-19.5H469.9z"/>
<g>
	<text transform="matrix(1 0 0 1 209.6709 960)" style="font-family:'AdobeMingStd-Light-B5pc-H'; font-size:12px;">invest-icon-3.svg</text>
</g>
</svg>
