<?xml version="1.0" encoding="utf-8"?>
<!-- Generator: Adobe Illustrator 25.2.0, SVG Export Plug-In . SVG Version: 6.00 Build 0)  -->
<svg version="1.1" id="圖層_1" xmlns="http://www.w3.org/2000/svg" xmlns:xlink="http://www.w3.org/1999/xlink" x="0px" y="0px"
	 viewBox="0 0 512 512" style="enable-background:new 0 0 512 512;" xml:space="preserve">
<path d="M474,355c-2.6,0-5.2,1.1-7.1,2.9s-2.9,4.4-2.9,7.1s1.1,5.2,2.9,7.1s4.4,2.9,7.1,2.9s5.2-1.1,7.1-2.9s2.9-4.4,2.9-7.1
	s-1.1-5.2-2.9-7.1S476.6,355,474,355z M474,395c-5.5,0-10,4.5-10,10v59h-63.4c-4.3-13.9-17.2-24-32.5-24c-18.7,0-34,15.3-34,34
	s15.3,34,34,34c15.3,0,28.2-10.1,32.5-24H474c5.5,0,10-4.5,10-10v-69C484,399.5,479.5,395,474,395z M368.1,488c-7.7,0-14-6.3-14-14
	s6.3-14,14-14s14,6.3,14,14S375.8,488,368.1,488z M248.1,436c-17.5,0-32.3,11.9-36.7,28H48v-42.1c0-0.1,0-0.3,0-0.4
	c13.9-4.3,24-17.2,24-32.5c0-18.7-15.3-34-34-34S4,370.3,4,389c0,15.3,10.1,28.2,24,32.5c0,0.1,0,0.3,0,0.4V474c0,5.5,4.5,10,10,10
	h173.5c4.4,16.1,19.2,28,36.7,28c21,0,38-17,38-38S269.1,436,248.1,436z M38,402.9c-7.7,0-14-6.3-14-14s6.3-14,14-14s14,6.3,14,14
	C52,396.7,45.7,402.9,38,402.9z M248.1,492c-9.9,0-18-8.1-18-18s8.1-18,18-18s18,8.1,18,18S258.1,492,248.1,492z M38,310
	c21,0,38-17,38-38c0-17.5-11.9-32.3-28-36.7v-54l56.3-37.7c4.6-3.1,5.8-9.3,2.7-13.9s-9.3-5.8-13.9-2.7l-60.8,40.7
	c-2.8,1.9-4.4,5-4.4,8.3v59.3C11.9,239.7,0,254.5,0,272C0,293,17,310,38,310z M38,254c9.9,0,18,8.1,18,18s-8.1,18-18,18
	s-18-8.1-18-18S28.1,254,38,254z M474,138c-9.5,0-18.2,3.5-24.9,9.3L285.8,37.9c-0.2-0.2-0.5-0.3-0.8-0.5c0.6-2.4,0.9-4.9,0.9-7.5
	c0-16.5-13.5-30-30-30s-30,13.5-30,30c0,2.6,0.3,5.1,0.9,7.5c-0.3,0.1-0.5,0.3-0.8,0.5l-66.5,44.6c-4.6,3.1-5.8,9.3-2.7,13.9
	c1.9,2.9,5.1,4.4,8.3,4.4c1.9,0,3.8-0.6,5.6-1.7l66.5-44.5c0.2-0.2,0.5-0.4,0.7-0.5c5,3.8,11.2,6,18,6c6.8,0,13-2.2,18-6
	c0.2,0.2,0.5,0.4,0.7,0.5L438,163.9c-1.3,3.8-2,7.9-2,12.1c0,17.5,11.9,32.3,28,36.7V325c0,5.5,4.5,10,10,10s10-4.5,10-10V212.7
	c16.1-4.4,28-19.2,28-36.7C512,155,495,138,474,138z M256,40c-5.5,0-10-4.5-10-10s4.5-10,10-10s10,4.5,10,10S261.5,40,256,40z
	 M474,194c-9.9,0-18-8.1-18-18s8.1-18,18-18s18,8.1,18,18S483.9,194,474,194z M132.2,122.8c2.6,0,5.2-1.1,7.1-2.9
	c1.9-1.9,2.9-4.4,2.9-7.1c0-2.6-1.1-5.2-2.9-7.1c-1.9-1.9-4.4-2.9-7.1-2.9c-2.6,0-5.2,1.1-7.1,2.9c-1.9,1.9-2.9,4.4-2.9,7.1
	c0,2.6,1.1,5.2,2.9,7.1C127,121.8,129.5,122.8,132.2,122.8z M259,221.8c12.7,0,23.1,9,23.1,20c0,5.8,4.7,10.5,10.5,10.5
	s10.5-4.7,10.5-10.5c0-19.3-14.4-35.5-33.6-39.8v-5.5c0-5.8-4.7-10.5-10.5-10.5c-5.8,0-10.5,4.7-10.5,10.5v5.5
	c-19.3,4.4-33.6,20.6-33.6,39.8c0,22.6,19.8,41,44.1,41c12.7,0,23.1,9,23.1,20s-10.4,20-23.1,20s-23.1-9-23.1-20
	c0-5.8-4.7-10.5-10.5-10.5s-10.5,4.7-10.5,10.5c0,19.3,14.4,35.5,33.6,39.8v4.5c0,5.8,4.7,10.5,10.5,10.5c5.8,0,10.5-4.7,10.5-10.5
	v-4.5c19.3-4.4,33.6-20.6,33.6-39.8c0-22.6-19.8-41-44.1-41c-12.7,0-23.1-9-23.1-20C235.8,230.8,246.2,221.8,259,221.8z M374.6,273
	c0,18.9-4.7,37.7-13.5,54.2c-2.7,5.1-0.8,11.5,4.3,14.2c1.6,0.8,3.3,1.2,4.9,1.2c3.8,0,7.4-2,9.3-5.6c10.4-19.6,15.9-41.8,15.9-64.1
	c0-26.2-7.5-51.7-21.6-73.7c-13.7-21.4-33.1-38.5-55.9-49.5c-5.2-2.5-11.5-0.3-14,4.9s-0.3,11.5,4.9,14
	C348.9,187.9,374.6,228.8,374.6,273z M274.8,157.4h0.6h0.1c5.8,0,10.5-4.7,10.5-10.5s-4.7-10.5-10.5-10.6h-0.7
	c-5.8,0-10.5,4.7-10.5,10.5C264.3,152.7,269,157.4,274.8,157.4z M138.3,208.9c-10.4,19.6-15.9,41.8-15.9,64.1
	c0,26.2,7.5,51.7,21.6,73.7c13.7,21.4,33.1,38.5,55.9,49.5c1.5,0.7,3,1,4.5,1c3.9,0,7.7-2.2,9.5-6c2.5-5.2,0.3-11.5-4.9-14
	c-39.8-19.2-65.6-60.1-65.6-104.3c0-18.9,4.7-37.7,13.5-54.2c2.7-5.1,0.8-11.5-4.3-14.2C147.4,201.8,141,203.8,138.3,208.9z
	 M243.2,409.6c5.8,0,10.5-4.7,10.5-10.5s-4.7-10.5-10.5-10.5h-0.6c-5.8,0-10.5,4.7-10.6,10.5c0,5.8,4.7,10.5,10.5,10.6L243.2,409.6z
	"/>
</svg>
