<?xml version="1.0" encoding="utf-8"?>
<!-- Generator: Adobe Illustrator 25.2.0, SVG Export Plug-In . SVG Version: 6.00 Build 0)  -->
<svg version="1.1" id="Capa_1" xmlns="http://www.w3.org/2000/svg" xmlns:xlink="http://www.w3.org/1999/xlink" x="0px" y="0px"
	 viewBox="0 0 512 512" style="enable-background:new 0 0 512 512;" xml:space="preserve">
<path d="M271.9,370.9c0-53.5-43.5-97-97-97c-53.5,0-97,43.5-97,97c0,53.5,43.5,97,97,97C228.4,467.9,271.9,424.4,271.9,370.9z
	 M97.9,370.9c0-42.5,34.5-77,77-77s77,34.5,77,77c0,42.5-34.5,77-77,77C132.5,447.9,97.9,413.3,97.9,370.9z M252.4,234.9l20.1,34.8
	c2.5,4.3,7.8,6.2,12.5,4.3l17.1-7c3.1,2.1,6.4,4,9.8,5.6l2.5,18.4c0.7,5,4.9,8.7,9.9,8.7h40.2c5,0,9.2-3.7,9.9-8.7l2.5-18.4
	c3.4-1.6,6.7-3.5,9.8-5.6l17.1,7c4.6,1.9,10,0.1,12.5-4.3l20.1-34.8c2.5-4.3,1.4-9.9-2.5-12.9l-14.7-11.3c0.3-3.8,0.3-7.5,0-11.3
	l14.7-11.3c4-3.1,5.1-8.6,2.5-12.9l-20.1-34.8c-2.5-4.3-7.8-6.2-12.5-4.3l-17.1,7c-3.1-2.1-6.4-4-9.8-5.6l-2.5-18.4
	c-0.7-5-4.9-8.7-9.9-8.7h-40.2c-5,0-9.2,3.7-9.9,8.7l-2.5,18.4c-3.4,1.6-6.7,3.5-9.8,5.6l-17.1-7c-4.6-1.9-10-0.1-12.5,4.3
	l-20.1,34.8c-2.5,4.3-1.4,9.9,2.5,12.9l14.7,11.3c-0.3,3.8-0.3,7.5,0,11.3L254.9,222C251,225.1,249.9,230.6,252.4,234.9z
	 M285.4,157.9l14.3,5.9c3.4,1.4,7.2,0.8,10.1-1.5c4.5-3.6,9.4-6.5,14.8-8.6c3.4-1.3,5.8-4.4,6.3-8l2.1-15.3h22.8l2.1,15.3
	c0.5,3.6,2.9,6.7,6.3,8c5.4,2.1,10.3,4.9,14.8,8.6c2.8,2.3,6.7,2.9,10.1,1.5l14.3-5.9l11.4,19.7l-12.2,9.4c-2.9,2.2-4.3,5.9-3.8,9.5
	c0.9,5.7,0.9,11.5,0,17.1c-0.6,3.6,0.9,7.2,3.8,9.5l12.2,9.4l-11.4,19.7l-14.3-5.9c-3.4-1.4-7.2-0.8-10.1,1.5
	c-4.5,3.6-9.4,6.5-14.8,8.6c-3.4,1.3-5.8,4.4-6.3,8l-2.1,15.3H333l-2.1-15.3c-0.5-3.6-2.9-6.7-6.3-8c-5.4-2.1-10.3-4.9-14.8-8.6
	c-2.8-2.3-6.7-2.9-10.1-1.5l-14.3,5.9l-11.4-19.7l12.2-9.4c2.9-2.2,4.3-5.9,3.8-9.5c-0.9-5.7-0.9-11.5,0-17.1
	c0.6-3.6-0.9-7.2-3.8-9.5l-12.2-9.4L285.4,157.9z M344.4,241.5c20.1,0,36.5-16.4,36.5-36.5c0-20.1-16.4-36.5-36.5-36.5
	s-36.5,16.4-36.5,36.5C307.9,225.2,324.2,241.5,344.4,241.5z M344.4,188.5c9.1,0,16.5,7.4,16.5,16.5s-7.4,16.5-16.5,16.5
	c-9.1,0-16.5-7.4-16.5-16.5S335.3,188.5,344.4,188.5z M114,241.8c-1.5,5.3,1.5,10.9,6.8,12.4c5.2,1.5,10.9-1.6,12.4-6.8
	c10.5-36.2,36.8-65.4,70.8-79.8l-5,11.3c-2.2,5.1,0.1,11,5.1,13.2c1.3,0.6,2.7,0.8,4,0.8c3.8,0,7.5-2.2,9.2-6l14-31.8
	c2-4.5,0.3-10-4-12.6l-29.1-17.7c-4.7-2.9-10.9-1.4-13.7,3.3s-1.4,10.9,3.3,13.7l10.4,6.3C157.8,164.8,126.4,199,114,241.8z
	 M403.9,316.6c-5.3-1.5-10.9,1.5-12.4,6.8c-10.5,36.2-36.8,65.4-70.8,79.8l5-11.3c2.2-5.1-0.1-11-5.1-13.2c-5.1-2.2-11,0.1-13.2,5.1
	l-14,31.8c-2,4.5-0.3,10,4,12.6l29.1,17.7c1.6,1,3.4,1.5,5.2,1.5c3.4,0,6.7-1.7,8.6-4.8c2.9-4.7,1.4-10.9-3.3-13.7l-10.4-6.3
	c40.5-16.5,71.9-50.7,84.2-93.5h0C412.3,323.6,409.2,318.1,403.9,316.6z M512,43.2c0,0,0-0.1,0-0.1c-1.1-21.1-18.8-38-40.5-38H40.1
	C18.2,5.1,0,23.2,0,45.1V467c0,22,18.3,40,40.7,40h0.2c5.5,0,10-4.5,10-10s-4.5-10-10-10h-0.2c-11.2,0-20.6-9.2-20.7-20V92.2h472
	v374.7c0,10.9-9.1,20.1-20,20.1c-115.4,0.1-334.5,0.1-342.8,0c-0.3,0-0.6,0-0.9,0c-5.5,0.2-9.8,4.9-9.6,10.4c0,0.4,0.5,9.5,10.9,9.6
	c0.7,0,342.4,0,342.4,0c21.8,0,40.1-18.2,40-40.1V45C512,44.4,512,43.8,512,43.2z M492,72.2H20V45.1C20,34.2,29.2,25,40.1,25h431.3
	c11.2,0,20.6,9.2,20.6,20.1V72.2z M54.3,37.3c-4.2,0.3-7.8,3.3-8.9,7.3c-2.5,9,8.1,16.2,15.6,10.7c3.6-2.7,5-7.7,3.3-11.8
	C62.7,39.5,58.6,37,54.3,37.3z M87.3,38c-5,2.1-7.5,8-5.4,13c2.1,5,8,7.5,13,5.4c5.1-2.1,7.5-8,5.4-13.1
	C98.3,38.4,92.3,35.9,87.3,38z M123.4,38c-5,2.1-7.5,8-5.4,13c2.1,5,8,7.5,13,5.4c5.1-2.1,7.5-8,5.4-13.1
	C134.3,38.4,128.4,35.9,123.4,38z M89.9,488.6c-3.8-2.6-9.1-2.1-12.4,1.1c-2.9,2.8-3.9,7.1-2.4,10.9c3.2,8.2,15.2,8.4,18.5,0.2
	C95.3,496.4,93.8,491.2,89.9,488.6z M185.4,365c-1.1-0.4-2.2-0.8-3.4-1.2v-21.2c1.9,0.8,3.1,1.8,3.2,1.9l-0.1-0.1
	c0,0,6.5,4.5,10.7-0.9c4.6-5.8-0.5-10.2-0.5-10.2c-2.5-2.3-7.2-5.1-13.2-6.4v-3.5c0-4.1-3.4-7.5-7.5-7.5c-4.1,0-7.5,3.4-7.5,7.5v4
	c-0.3,0.1-0.6,0.2-1,0.3c-8.5,2.6-14.8,9.8-16.5,18.9c-1.6,8.4,1.1,16.5,7.1,21.1c2.7,2.1,6,4.1,10.4,6.1v28.7
	c-2.8-0.5-5.1-1.6-8.6-3.8c-3.5-2.3-8.1-1.3-10.4,2.2c-2.3,3.5-1.3,8.1,2.2,10.4c6.4,4.2,11,5.8,16.8,6.4v3.9c0,4.1,3.4,7.5,7.5,7.5
	c4.1,0,7.5-3.4,7.5-7.5v-4.6c11.6-3.1,19.1-13.1,20.7-23C204.9,381.1,198,369.5,185.4,365z M167,356.8c-0.4-0.3-0.8-0.5-1.1-0.8v0
	c-1.5-1.2-2.2-3.8-1.6-6.5c0.3-1.8,1.2-3.8,2.7-5.3V356.8z M188,391.4c-0.6,3.4-2.6,7-6,9.3v-20.9C188.6,383,188.4,388.9,188,391.4z
	"/>
</svg>
