<?xml version="1.0" encoding="utf-8"?>
<!-- Generator: Adobe Illustrator 25.2.0, SVG Export Plug-In . SVG Version: 6.00 Build 0)  -->
<svg version="1.1" id="Capa_1" xmlns="http://www.w3.org/2000/svg" xmlns:xlink="http://www.w3.org/1999/xlink" x="0px" y="0px"
	 viewBox="0 0 512 512" style="enable-background:new 0 0 512 512;" xml:space="preserve">
<path d="M363.9,360c-1.5-3.8-5.2-6.4-9.3-6.4c-4.1,0-7.8,2.5-9.3,6.4l-33.2,84.7c-2,5.1,0.5,10.9,5.7,13c5.1,2,10.9-0.5,13-5.7
	l5.9-15.2h35.8l5.9,15.2c1.5,3.9,5.3,6.4,9.3,6.4c1.2,0,2.4-0.2,3.6-0.7c5.1-2,7.7-7.8,5.7-13L363.9,360z M344.5,416.9l10.1-25.8
	l10.1,25.8H344.5z M427.4,353.7c-5.5,0-10,4.5-10,10v84.7c0,5.5,4.5,10,10,10s10-4.5,10-10v-84.7
	C437.4,358.2,432.9,353.7,427.4,353.7z M470.9,300.4V200.2c0-25-19.7-45.4-44.3-46.6V85.2c0-2.7-1.1-5.2-2.9-7.1L348.3,2.9
	c-1.9-1.9-4.4-2.9-7.1-2.9H140.4c-8.3,0-15,6.7-15,15v102.6H51.3c-15.6,0-28.3,12.7-28.3,28.4v259.4c0,25.8,21,46.7,46.7,46.7h190.1
	v38.4c0,11.9,9.7,21.6,21.6,21.6h186.1c11.9,0,21.6-9.7,21.6-21.6V321.7C489,311,481.1,302.1,470.9,300.4z M351.3,34.1l41.1,41.1
	h-41.1V34.1z M145.4,20h185.8v60.2c0,8.3,6.7,15,15,15h60.3v58.2H221.9l-34-33.1c-1.9-1.8-4.4-2.8-7-2.8h-35.5V20z M259.8,321.7V432
	H69.7C55,432,43,420,43,405.3V236.6h209c5.5,0,10-4.5,10-10s-4.5-10-10-10H43v-70.6c0-4.6,3.7-8.4,8.3-8.4h125.5l34,33.1
	c1.9,1.8,4.4,2.8,7,2.8h206.3c14.7,0,26.7,12,26.7,26.7v16.4h-109c-5.5,0-10,4.5-10,10c0,5.5,4.5,10,10,10h109v63.6H281.4
	C269.5,300.1,259.8,309.8,259.8,321.7z M467.4,492H281.4c-0.8,0-1.6-0.7-1.6-1.6V321.7c0-0.8,0.7-1.5,1.6-1.5h186.1
	c0.8,0,1.6,0.7,1.6,1.5v168.8h0C469,491.3,468.3,492,467.4,492z M211.9,313.6h-121c-10.3,0-18.8,8.4-18.8,18.8v48.8
	c0,10.4,8.4,18.8,18.8,18.8h121c10.3,0,18.8-8.4,18.8-18.8v-48.8C230.7,322.1,222.2,313.6,211.9,313.6z M210.7,380H92.1v-46.3h118.5
	V380z M297,236.6L297,236.6c5.6,0,10-4.5,10-10s-4.5-10-10-10s-10,4.5-10,10S291.4,236.6,297,236.6z"/>
</svg>
