<?xml version="1.0" encoding="utf-8"?>
<!-- Generator: Adobe Illustrator 25.2.0, SVG Export Plug-In . SVG Version: 6.00 Build 0)  -->
<svg version="1.1" id="Capa_1" xmlns="http://www.w3.org/2000/svg" xmlns:xlink="http://www.w3.org/1999/xlink" x="0px" y="0px"
	 viewBox="0 0 512 512" style="enable-background:new 0 0 512 512;" xml:space="preserve">
<path d="M104,235.9c-57.3,0-104,46.7-104,104V408c0,57.3,46.7,104,104,104s104-46.7,104-104v-68.1C208,282.5,161.3,235.9,104,235.9z
	 M188,408c0,46.3-37.7,84-84,84s-84-37.7-84-84v-34.4h168V408z M188,353.6H20v-13.8c0-42.9,32.4-78.4,74-83.4v69.9
	c0,5.5,4.5,10,10,10s10-4.5,10-10v-69.9c41.6,5,74,40.5,74,83.4V353.6z M459.7,62.3c2.6,0,5.1-1,7.1-2.9l42.3-42.3
	c3.9-3.9,3.9-10.2,0-14.1c-3.9-3.9-10.2-3.9-14.1,0l-42.3,42.3c-3.9,3.9-3.9,10.2,0,14.1C454.6,61.3,457.2,62.3,459.7,62.3z
	 M419.8,47.9c5.5,0,10-4.5,10-10V10c0-5.5-4.5-10-10-10s-10,4.5-10,10v27.9C409.8,43.5,414.3,47.9,419.8,47.9z M502,82.2H474
	c-5.5,0-10,4.5-10,10c0,5.5,4.5,10,10,10H502c5.5,0,10-4.5,10-10C512,86.7,507.5,82.2,502,82.2z M393.5,272.7
	c-2.4-5-8.4-7.1-13.3-4.7c-38.9,18.6-85.6,10.6-116.1-19.9c-39.8-39.8-39.8-104.5,0-144.2c39.8-39.8,104.5-39.8,144.2,0
	c30.9,30.9,38.7,77.9,19.5,117c-2.4,5-0.4,10.9,4.6,13.4c5,2.4,11,0.4,13.4-4.6c23-46.8,13.6-103.1-23.3-140
	c-47.6-47.6-125-47.6-172.5,0c-21.2,21.2-33,48.4-35.3,76.3h-7.9c-12.8,0-23.3-10.4-23.3-23.3v-98c0-24.7-20.1-44.7-44.7-44.7
	C114.1,0,94,20.1,94,44.7v50.8c0,5.5,4.5,10,10,10s10-4.5,10-10V44.7c0-13.6,11.1-24.7,24.7-24.7c13.6,0,24.7,11.1,24.7,24.7v98
	c0,23.9,19.4,43.3,43.3,43.3h7.9c2.3,27.8,14,55,35.3,76.3c23.4,23.4,54.7,35.7,86.4,35.7c17.8,0,35.8-3.9,52.5-11.9
	C393.7,283.7,395.8,277.7,393.5,272.7z M408.3,262.3c2,2,4.5,3,7.1,3c2.5,0,5.1-1,7-2.9c3.9-3.9,3.9-10.2,0-14.1l-0.1-0.1
	c-3.9-3.9-10.2-3.9-14.1,0C404.3,252,404.3,258.3,408.3,262.3L408.3,262.3z M336.1,149.8c5.5,0,10,3.6,10,8.1c0,5.5,4.5,10,10,10
	s10-4.5,10-10c0-12.2-8.4-22.7-20-26.5c-0.4-5.1-4.7-9.1-10-9.1c-5.2,0-9.5,4-10,9.1c-11.6,3.9-20,14.3-20,26.5
	c0,15.5,13.4,28.1,30,28.1c5.5,0,10,3.6,10,8.1s-4.5,8.1-10,8.1c-5.5,0-10-3.6-10-8.1c0-5.5-4.5-10-10-10s-10,4.5-10,10
	c0,12.2,8.3,22.6,20,26.5v0.6c0,5.5,4.5,10,10,10s10-4.5,10-10v-0.6c11.6-3.9,20-14.3,20-26.5c0-15.5-13.4-28.1-30-28.1
	c-5.5,0-10-3.6-10-8.1S330.6,149.8,336.1,149.8z M336.1,91.8c-46.3,0-84,37.7-84,84s37.7,84,84,84c46.3,0,84-37.7,84-84
	C420.1,129.5,382.4,91.8,336.1,91.8z M336.1,239.8c-35.3,0-64-28.7-64-64c0-35.3,28.7-64,64-64c35.3,0,64,28.7,64,64
	S371.4,239.8,336.1,239.8z M104,145.3c2.6,0,5.2-1.1,7.1-2.9c1.9-1.9,2.9-4.4,2.9-7.1c0-2.6-1.1-5.2-2.9-7.1
	c-1.9-1.9-4.4-2.9-7.1-2.9s-5.2,1.1-7.1,2.9c-1.9,1.9-2.9,4.4-2.9,7.1c0,2.6,1.1,5.2,2.9,7.1C98.8,144.2,101.4,145.3,104,145.3z
	 M104,215c5.5,0,10-4.5,10-10v-28.9c0-5.5-4.5-10-10-10s-10,4.5-10,10V205C94,210.5,98.5,215,104,215z M471.5,364.3h-15.7
	c-5.5,0-10,4.5-10,10s4.5,10,10,10h15.7c5.5,0,10-4.5,10-10S477.1,364.3,471.5,364.3z M437.1,329.9c-5.5,0-10,4.5-10,10v15.7
	c0,5.5,4.5,10,10,10s10-4.5,10-10v-15.7C447.1,334.3,442.6,329.9,437.1,329.9z M418.3,364.3h-15.7c-5.5,0-10,4.5-10,10s4.5,10,10,10
	h15.7c5.5,0,10-4.5,10-10S423.8,364.3,418.3,364.3z M437.1,383.1c-5.5,0-10,4.5-10,10v15.7c0,5.5,4.5,10,10,10s10-4.5,10-10v-15.7
	C447.1,387.6,442.6,383.1,437.1,383.1z M104,469.6c34,0,61.6-27.6,61.6-61.6c0-5.5-4.5-10-10-10s-10,4.5-10,10
	c0,22.9-18.7,41.6-41.6,41.6c-5.5,0-10,4.5-10,10S98.5,469.6,104,469.6z"/>
</svg>
