<?xml version="1.0" encoding="utf-8"?>
<!-- Generator: Adobe Illustrator 25.2.0, SVG Export Plug-In . SVG Version: 6.00 Build 0)  -->
<svg version="1.1" id="Capa_1" xmlns="http://www.w3.org/2000/svg" xmlns:xlink="http://www.w3.org/1999/xlink" x="0px" y="0px"
	 viewBox="0 0 512 512" style="enable-background:new 0 0 512 512;" xml:space="preserve">
<path d="M206.2,337.4v-41.1c0-5.5-4.5-10-10-10H70.7c-5.5,0-10,4.5-10,10v31.1H38.6c-5.5,0-10,4.5-10,10v72.3H16.9
	c-5.5,0-10,4.5-10,10v41.1c0,5.5,4.5,10,10,10h11.7V502c0,5.5,4.5,10,10,10h125.5c5.5,0,10-4.5,10-10v-41.1c0-5.5-4.5-10-10-10
	h-11.7v-21.1h11.7c5.5,0,10-4.5,10-10v-72.3h22.1C201.7,347.4,206.2,342.9,206.2,337.4z M26.9,450.9v-21.1h105.5v21.1H26.9z
	 M154.1,470.9V492H48.6v-21.1H154.1z M154.1,409.7H48.6v-21.2h105.5V409.7z M154.1,368.6H48.6v-21.1h105.5V368.6z M186.2,327.4H80.7
	v-21.1h105.5V327.4z M485.4,450.9h-19.1v-31.1c0-5.5-4.5-10-10-10h-4.5c18.8-15.8,30.8-39.4,30.8-65.8c0-47.3-38.5-85.8-85.8-85.8
	c-47.3,0-85.8,38.5-85.8,85.8c0,26.4,12,50.1,30.8,65.8h-11c-5.5,0-10,4.5-10,10v41.1c0,5.5,4.5,10,10,10h19.1V502
	c0,5.5,4.5,10,10,10h125.5c5.5,0,10-4.5,10-10v-41.1C495.4,455.3,491,450.9,485.4,450.9z M331.1,343.9c0-36.3,29.5-65.8,65.8-65.8
	c36.3,0,65.8,29.5,65.8,65.8c0,36.3-29.5,65.8-65.8,65.8C360.6,409.7,331.1,380.2,331.1,343.9z M340.8,450.9v-21.1h105.5v21.1H340.8
	z M475.4,492H369.9v-21.1h105.5V492z M438.7,92.4c-4-3.9-10.3-3.8-14.1,0.2c-3.9,4-3.8,10.3,0.2,14.1c18.6,18.2,33.6,38.7,44,59.8
	c-15-11.6-33.2-18.4-52.5-18.4c-24.6,0-47.5,10.8-64.4,29.3c-5.9-47.8-21.3-97.2-53.4-134.1c19.3,2.6,38.4,8.1,57,16.3
	c5.1,2.2,11,0,13.2-5.1c2.2-5.1-0.1-11-5.1-13.2c-26.5-11.7-54-18.3-81.8-19.5V10c0-5.5-4.5-10-10-10s-10,4.5-10,10v11.8
	c-55.2,2.5-109.1,25.9-152.6,66.5C66.7,127.9,40.3,179,38.5,225.2c-0.5,11.7,16.9,14.1,19.7,2.8c8.6-35.2,37.1-59.8,69.1-59.8
	c26.4,0,50.6,16.5,63.2,43.1c3.5,7.4,14.5,7.5,18.1,0c11-23.2,30.8-38.7,53.2-42.3V470c0,12.1-9.9,22-22,22c-12.1,0-22-9.9-22-22
	v-12.8c0-5.5-4.5-10-10-10c-5.5,0-10,4.5-10,10V470c0,23.1,18.8,42,42,42c23.1,0,42-18.8,42-42V169c22.4,3.6,42.2,19.1,53.2,42.3
	c3.5,7.5,14.6,7.5,18.1,0c12.6-26.6,36.8-43.1,63.2-43.1c32.1,0,60.5,24.6,69.1,59.8c2.8,11.3,20.2,8.9,19.7-2.8
	C503.3,181,478.5,131.3,438.7,92.4z M191.7,177.4c-16.9-18.5-39.9-29.3-64.4-29.3c-19.3,0-37.5,6.7-52.6,18.4
	c11.1-22.5,27.5-44.5,48.1-63.7c35.4-33,78-53.6,122.3-59.6C212.9,80.2,197.5,129.6,191.7,177.4z M271.7,148.2
	c-22.1,0-42.9,8.7-59.1,23.9c3.8-26,10.7-52,22-75.9c5.3-11.2,11.7-21.8,19-31.7c6.9-9.3,18.2-19.8,18.2-19.8
	c35.6,32.1,52.1,81.1,59,127.3C314.6,156.9,293.8,148.2,271.7,148.2z M391.9,79.9c3.7,2.4,8.7,2.2,12.1-0.8c3-2.6,4.2-6.9,3-10.7
	c-2.9-8.6-15.3-9.1-18.7-0.7C386.5,72.2,388.1,77.3,391.9,79.9z M374.1,382.9c6.6,4.3,11.2,5.8,16.8,6.3v4.2c0,3.9,3.1,7,7,7
	c3.9,0,7-3.1,7-7v-4.9c11.5-2.9,18.9-12.8,20.5-22.5c2.1-12.5-4.7-23.8-16.9-28.2c-1.2-0.4-2.4-0.9-3.6-1.3v-21.9
	c2.4,0.9,3.7,2.1,3.8,2.2c0.1,0.1,6.2,4.4,10.2-1.3c4-5.7-0.7-9.1-0.7-9.1c-0.3-0.3-5.2-4.7-13.3-6.3v-3.8c0-3.9-3.1-7-7-7
	c-3.9,0-7,3.1-7,7v4.3c-0.4,0.1-0.8,0.2-1.2,0.3c-8.2,2.5-14.4,9.5-16.1,18.4c-1.5,8.1,1.1,16,6.9,20.5c2.7,2.1,6,4.1,10.4,6.1v29.2
	c-3.1-0.4-5.4-1.5-9.1-3.9c-3.2-2.1-7.6-1.2-9.7,2C369.9,376.5,370.8,380.8,374.1,382.9z M404.9,351.5c7.4,3.2,7.2,9.5,6.7,12.2
	c-0.6,3.7-2.9,7.6-6.7,9.9V351.5z M390.9,330.1c-0.6-0.4-1.2-0.8-1.8-1.3c-1.6-1.3-2.3-4-1.8-6.9c0.4-2.1,1.5-4.5,3.6-6.1V330.1z"/>
</svg>
