<?xml version="1.0" encoding="utf-8"?>
<!-- Generator: Adobe Illustrator 25.2.0, SVG Export Plug-In . SVG Version: 6.00 Build 0)  -->
<svg version="1.1" id="Capa_1" xmlns="http://www.w3.org/2000/svg" xmlns:xlink="http://www.w3.org/1999/xlink" x="0px" y="0px"
	 viewBox="0 0 512 512" style="enable-background:new 0 0 512 512;" xml:space="preserve">
<path d="M354.7,345.6c4.6,1.8,9.8-0.1,12.3-4.3l22.3-38.7c2.5-4.3,1.5-9.7-2.4-12.8l-24.3-19.6c0.9-5.5,1.3-11,1.3-16.6
	c0-5.5-0.4-11.1-1.3-16.6l24.3-19.6c3.8-3.1,4.8-8.5,2.4-12.8L367,166c-2.5-4.3-7.7-6.1-12.3-4.3l-29.2,11.3
	c-8.6-7-18.4-12.6-28.7-16.6l-4.8-30.9c-0.8-4.9-5-8.5-9.9-8.5h-44.6c-4.9,0-9.1,3.6-9.9,8.5l-4.8,30.9
	c-10.3,3.9-20.1,9.6-28.7,16.6L165,161.7c-4.6-1.8-9.8,0.1-12.3,4.3l-22.3,38.7c-2.5,4.3-1.5,9.7,2.4,12.8l24.3,19.6
	c-0.9,5.5-1.3,11-1.3,16.6c0,5.5,0.4,11.1,1.3,16.6l-24.3,19.6c-3.8,3.1-4.8,8.5-2.4,12.8l22.3,38.7c2.5,4.3,7.7,6.1,12.3,4.3
	l29.2-11.3c8.6,7,18.4,12.6,28.7,16.6l4.8,30.9c0.8,4.9,5,8.5,9.9,8.5h44.6c4.9,0,9.1-3.6,9.9-8.5l4.8-30.9
	c10.3-3.9,20.1-9.6,28.7-16.6L354.7,345.6z M316.8,315.4c-9.1,8.4-20.1,14.7-31.8,18.4c-3.6,1.1-6.3,4.2-6.9,8l-4.4,28.3h-27.5
	l-4.4-28.3c-0.6-3.8-3.3-6.9-6.9-8c-11.7-3.7-22.7-10-31.8-18.4c-2.8-2.6-6.8-3.3-10.4-2l-26.8,10.3L152,300l22.3-18
	c3-2.4,4.3-6.3,3.5-10c-1.3-6-2-12.2-2-18.4s0.7-12.4,2-18.4c0.8-3.7-0.5-7.6-3.5-10l-22.3-18l13.8-23.8l26.8,10.3
	c3.6,1.4,7.6,0.6,10.4-2c9.1-8.4,20.1-14.7,31.8-18.4c3.6-1.1,6.3-4.2,6.9-8l4.4-28.3h27.5l4.4,28.3c0.6,3.8,3.3,6.9,6.9,8
	c11.7,3.7,22.7,10,31.8,18.4c2.8,2.6,6.8,3.3,10.4,2l26.8-10.3l13.8,23.8l-22.3,18c-3,2.4-4.3,6.3-3.5,10c1.3,6,2,12.2,2,18.4
	s-0.7,12.4-2,18.4c-0.8,3.7,0.5,7.6,3.5,10l22.3,18L354,323.8l-26.8-10.3C323.6,312.1,319.6,312.9,316.8,315.4z M39.8,262.6h40.8
	c5.5,0,10-4.5,10-10V89c0-0.6,0.5-1.1,1.1-1.1h45v17.7c0,8.4,10.1,13,16.5,7.6l57.2-48.9c4.7-4,4.6-11.5-0.2-15.3L153.1,2.2
	c-6.4-5.3-16.3-0.5-16.3,7.7v17.2h-46c-33.6,0-60.9,27.3-60.9,60.9v164.5C29.8,258.1,34.3,262.6,39.8,262.6z M49.8,88
	c0-22.6,18.4-40.9,40.9-40.9h56c5.5,0,10-4.5,10-10v-6L188.3,57l-31.6,27v-6c0-5.5-4.5-10-10-10h-55c-11.6,0-21.1,9.5-21.1,21.1
	v153.6H49.8V88z M472.1,242.6h-40.8c-5.5,0-10,4.5-10,10V423c0,0.6-0.5,1.1-1.1,1.1h-45v-17.7c0-8.4-10.1-13-16.5-7.6l-57.2,48.9
	c-4.7,4-4.6,11.5,0.2,15.3l57.2,46.8c6.4,5.3,16.3,0.5,16.3-7.7v-17.2h46c33.6,0,60.9-27.3,60.9-60.9V252.6
	C482.1,247,477.7,242.6,472.1,242.6z M462.1,424L462.1,424c0,22.6-18.4,40.9-40.9,40.9h-56c-5.5,0-10,4.5-10,10v6L323.7,455l31.6-27
	v6c0,5.5,4.5,10,10,10h55c11.6,0,21.1-9.5,21.1-21.1V262.6h20.8V424z M505.7,137.1c-1.7-3.5-5.2-5.7-9-5.7h-17.2v-46
	c0-33.6-27.3-60.9-60.9-60.9h-9.9c-5.5,0-10,4.5-10,10s4.5,10,10,10h9.9c22.6,0,40.9,18.4,40.9,40.9v56c0,5.5,4.5,10,10,10h6
	L449.6,183l-27-31.6h6c5.5,0,10-4.5,10-10v-55c0-11.6-9.5-21.1-21.1-21.1H271.5V44.5h49.2c5.5,0,10-4.5,10-10c0-5.5-4.5-10-10-10
	h-59.2c-5.5,0-10,4.5-10,10v40.8c0,5.5,4.5,10,10,10h156.1c0.6,0,1.1,0.5,1.1,1.1v45h-17.7c-8.4,0-13,10.1-7.6,16.5l48.9,57.2
	c4,4.7,11.5,4.6,15.3-0.2l46.8-57.2C506.8,144.7,507.3,140.6,505.7,137.1z M261.5,426.7h-44.7c-5.5,0-10,4.5-10,10
	c0,5.5,4.5,10,10,10h34.7v20.8H93.4c-22.6,0-40.9-18.4-40.9-40.9v-56c0-5.5-4.5-10-10-10h-6L62.3,329l27,31.6h-6
	c-5.5,0-10,4.5-10,10v55c0,11.6,9.5,21.1,21.1,21.1h34.4c5.5,0,10-4.5,10-10c0-5.5-4.5-10-10-10H94.4c-0.6,0-1.1-0.5-1.1-1.1v-45
	H111c8.4,0,13-10.1,7.6-16.5l-48.9-57.2c-4-4.7-11.5-4.6-15.3,0.2L7.6,364.3c-5.3,6.4-0.5,16.3,7.7,16.3h17.2v46
	c0,33.6,27.3,60.9,60.9,60.9h168.1c5.5,0,10-4.5,10-10v-40.8C271.5,431.2,267,426.7,261.5,426.7z M365.7,44.5
	c4.2-0.3,7.8-3.3,8.9-7.3c2.4-9-8.1-16.3-15.6-10.7c-3.6,2.7-5,7.7-3.3,11.9C357.4,42.2,361.5,44.8,365.7,44.5z M179.2,445
	c4.5-3,5.8-9.4,2.8-13.9c-3-4.5-9.3-5.8-13.9-2.8c-4.6,3-5.7,9.3-2.8,13.9C168.3,446.8,174.6,448,179.2,445z M272.9,244
	c-1.5-0.5-3-1.1-4.6-1.7v-27.8c2.9,1.1,4.6,2.6,4.8,2.7l-0.1-0.1l0.1-0.1v0.2c0,0,7.7,6.4,13.3-0.4c5.5-6.7-1.2-12.9-1.2-12.9
	c-0.4-0.4-6.6-6-16.9-8.1v-4.8c0-5-4-9-9-9c-5,0-9,4-9,9v5.4c-0.5,0.1-1,0.3-1.5,0.4c-10.5,3.2-18.4,12.2-20.6,23.5
	c-2,10.4,1.4,20.4,8.8,26.2c3.5,2.7,7.7,5.2,13.3,7.8v37.1c-3.9-0.6-6.9-1.9-11.5-5c-4.2-2.7-9.7-1.6-12.5,2.6
	c-2.7,4.2-1.6,9.7,2.6,12.5c8.1,5.3,14,7.3,21.4,8v5.4c0,5,4,9,9,9s9-4,9-9v-6.2c14.7-3.8,24.1-16.4,26.2-28.8
	C297.2,263.9,288.5,249.5,272.9,244z M250.3,234c-0.8-0.5-1.5-1-2.2-1.5h0c-2-1.6-2.9-5-2.2-8.7c0.5-2.6,1.9-5.6,4.4-7.6V234z
	 M276.7,277c-0.8,4.7-3.7,9.6-8.5,12.4v-27.9C277.5,265.5,277.3,273.6,276.7,277z"/>
</svg>
