<?xml version="1.0" encoding="utf-8"?>
<!-- Generator: Adobe Illustrator 25.2.0, SVG Export Plug-In . SVG Version: 6.00 Build 0)  -->
<svg version="1.1" id="Capa_1" xmlns="http://www.w3.org/2000/svg" xmlns:xlink="http://www.w3.org/1999/xlink" x="0px" y="0px"
	 viewBox="0 0 512 512" style="enable-background:new 0 0 512 512;" xml:space="preserve">
<path d="M502,0H10C4.5,0,0,4.5,0,10v438c0,5.5,4.5,10,10,10h207.5c5.5,0,10-4.5,10-10c0-5.5-4.5-10-10-10H20V91.9
	c0.3,0,0.7,0.1,1,0.1h471v346h-19.5c-5.5,0-10,4.5-10,10c0,5.5,4.5,10,10,10H502c5.5,0,10-4.5,10-10V10C512,4.5,507.5,0,502,0z
	 M492,72H21c-0.3,0-0.7,0-1,0.1V20h472V72z M260,438c-2.6,0-5.2,1.1-7.1,2.9c-1.9,1.9-2.9,4.4-2.9,7.1s1.1,5.2,2.9,7.1
	c1.9,1.9,4.4,2.9,7.1,2.9s5.2-1.1,7.1-2.9c1.9-1.9,2.9-4.4,2.9-7.1s-1.1-5.2-2.9-7.1C265.2,439.1,262.6,438,260,438z M222.1,56H448
	c5.5,0,10-4.5,10-10s-4.5-10-10-10H222.1c-5.5,0-10,4.5-10,10S216.5,56,222.1,56z M104,56c2.6,0,5.2-1.1,7.1-2.9
	c1.9-1.9,2.9-4.4,2.9-7.1s-1.1-5.2-2.9-7.1c-1.9-1.9-4.4-2.9-7.1-2.9s-5.2,1.1-7.1,2.9C95.1,40.8,94,43.4,94,46s1.1,5.2,2.9,7.1
	C98.8,54.9,101.4,56,104,56z M64,56c2.6,0,5.2-1.1,7.1-2.9c1.9-1.9,2.9-4.4,2.9-7.1s-1.1-5.2-2.9-7.1C69.2,37.1,66.6,36,64,36
	s-5.2,1.1-7.1,2.9C55.1,40.8,54,43.4,54,46s1.1,5.2,2.9,7.1C58.8,54.9,61.4,56,64,56z M144,56c2.6,0,5.2-1.1,7.1-2.9
	c1.9-1.9,2.9-4.4,2.9-7.1s-1.1-5.2-2.9-7.1c-1.9-1.9-4.4-2.9-7.1-2.9s-5.2,1.1-7.1,2.9S134,43.4,134,46s1.1,5.2,2.9,7.1
	C138.8,54.9,141.4,56,144,56z M296.4,364.1l-4.4-25.6l18.6-18.1c3.3-3.2,4.5-7.9,3-12.3c-1.4-4.4-5.1-7.5-9.7-8.2l-25.7-3.7
	L266.8,273c0,0,0,0,0,0c-2-4.1-6.2-6.7-10.8-6.7h0c-4.6,0-8.7,2.6-10.8,6.7l-11.5,23.3l-25.7,3.7c-4.6,0.7-8.3,3.8-9.7,8.2
	c-1.4,4.4-0.3,9.1,3,12.3l18.6,18.1l-4.4,25.6c-0.8,4.5,1.1,9,4.8,11.7c2.1,1.5,4.6,2.3,7,2.3c1.9,0,3.8-0.5,5.6-1.4l22.9-12.1
	l23,12.1c4.1,2.1,8.9,1.8,12.6-0.9C295.3,373.1,297.2,368.6,296.4,364.1z M275,327.2c-2.8,2.8-4.1,6.7-3.4,10.6l2.4,13.7l-12.3-6.5
	c-3.5-1.8-7.7-1.8-11.2,0l-12.3,6.5l2.3-13.7c0.7-3.9-0.6-7.9-3.5-10.6l-10-9.7l13.8-2c3.9-0.6,7.3-3,9-6.6l6.2-12.5l6.2,12.5
	c1.7,3.5,5.1,6,9,6.6l13.8,2L275,327.2z M172,308.1c-1.4-4.4-5.1-7.5-9.7-8.2l-25.7-3.7L125.2,273c0,0,0,0,0,0
	c-2-4.1-6.2-6.7-10.8-6.7h0c-4.6,0-8.7,2.6-10.8,6.7l-11.5,23.3L66.6,300c-4.6,0.7-8.3,3.8-9.7,8.2c-1.4,4.4-0.3,9.1,3,12.3
	l18.6,18.1l-4.4,25.6c-0.8,4.5,1.1,9,4.8,11.7c2.1,1.5,4.6,2.3,7,2.3c1.9,0,3.8-0.5,5.6-1.4l22.9-12.1l23,12.1
	c4.1,2.1,8.9,1.8,12.6-0.9c3.7-2.7,5.5-7.2,4.8-11.7l-4.4-25.6l18.6-18.1C172.3,317.2,173.5,312.5,172,308.1z M133.5,327.2
	c-2.8,2.8-4.1,6.7-3.4,10.6l2.4,13.7l-12.3-6.5c-3.5-1.8-7.7-1.8-11.2,0l-12.3,6.5l2.4-13.7c0.7-3.9-0.6-7.9-3.5-10.6l-10-9.7
	l13.8-2c3.9-0.6,7.3-3,9-6.6l6.2-12.5l6.2,12.5c1.7,3.5,5.1,6,9,6.6l13.8,2L133.5,327.2z M455.1,308.2c-1.4-4.4-5.1-7.5-9.7-8.2
	l-25.7-3.7L408.3,273c-2-4.1-6.2-6.7-10.8-6.7h0c-4.6,0-8.7,2.6-10.8,6.7c0,0,0,0,0,0l-11.5,23.2l-25.7,3.7
	c-4.6,0.7-8.3,3.8-9.7,8.2c-1.4,4.4-0.3,9.1,3,12.3l18.6,18.1l-4.4,25.6c-0.8,4.5,1.1,9,4.8,11.7c3.7,2.7,8.6,3.1,12.6,0.9l23-12.1
	l22.9,12.1c1.8,0.9,3.7,1.4,5.6,1.4c2.5,0,4.9-0.8,7-2.3c3.7-2.7,5.6-7.2,4.8-11.7l-4.4-25.6l18.6-18.1
	C455.4,317.3,456.5,312.6,455.1,308.2z M416.5,327.2c-2.8,2.8-4.1,6.7-3.5,10.6l2.3,13.7l-12.3-6.5c-1.7-0.9-3.7-1.4-5.6-1.4
	c-1.9,0-3.8,0.5-5.6,1.4l-12.3,6.5l2.4-13.7c0.7-3.9-0.6-7.9-3.4-10.6l-10-9.7l13.8-2c3.9-0.6,7.3-3,9-6.6l6.2-12.5l6.2,12.5
	c1.7,3.5,5.1,6,9,6.6l13.8,2L416.5,327.2z M458,236V128c0-5.5-4.5-10-10-10H64c-5.5,0-10,4.5-10,10v108c0,5.5,4.5,10,10,10h384
	C453.5,246,458,241.5,458,236z M438,226H74v-44h148.1c5.5,0,10-4.5,10-10s-4.5-10-10-10H74v-24h364V226z M472.5,465.9
	c-5.9,0-11.5,1.5-16.3,4.2c-4.9-12.8-17.3-21.9-31.8-21.9c-9.4,0-17.9,3.8-24,10c-6.2-6.2-14.7-10-24-10c-5,0-9.8,1.1-14,3v-59
	c0-18.8-15.3-34-34-34c-18.8,0-34,15.3-34,34V502c0,5.5,4.5,10,10,10c5.5,0,10-4.5,10-10V392.2c0-7.7,6.3-14,14-14
	c7.7,0,14,6.3,14,14V502c0,5.5,4.5,10,10,10c5.5,0,10-4.5,10-10v-19.8c0-7.7,6.3-14,14-14s14,6.3,14,14V502c0,5.5,4.5,10,10,10
	c5.5,0,10-4.5,10-10v-19.8c0-7.7,6.3-14,14-14s14,6.3,14,14V502c0,5.5,4.5,10,10,10c5.5,0,10-4.5,10-10v-2.1c0-7.7,6.3-14,14-14
	c7.7,0,14,6.3,14,14c0,5.5,4.5,10,10,10c5.5,0,10-4.5,10-10C506.6,481.1,491.3,465.9,472.5,465.9z M267,182c2.6,0,5.2-1.1,7.1-2.9
	c1.9-1.9,2.9-4.4,2.9-7.1s-1.1-5.2-2.9-7.1c-1.9-1.9-4.4-2.9-7.1-2.9s-5.2,1.1-7.1,2.9c-1.9,1.9-2.9,4.4-2.9,7.1s1.1,5.2,2.9,7.1
	C261.8,180.9,264.4,182,267,182z"/>
</svg>
