<?xml version="1.0" encoding="utf-8"?>
<!-- Generator: Adobe Illustrator 25.2.0, SVG Export Plug-In . SVG Version: 6.00 Build 0)  -->
<svg version="1.1" id="Capa_1" xmlns="http://www.w3.org/2000/svg" xmlns:xlink="http://www.w3.org/1999/xlink" x="0px" y="0px"
	 viewBox="0 0 512 512" style="enable-background:new 0 0 512 512;" xml:space="preserve">
<path d="M256,150c37.6,0,68.3-30.6,68.3-68.3S293.6,13.5,256,13.5s-68.3,30.6-68.3,68.3S218.4,150,256,150z M256,33.5
	c26.6,0,48.3,21.7,48.3,48.3c0,26.6-21.7,48.3-48.3,48.3c-26.6,0-48.3-21.7-48.3-48.3C207.7,55.1,229.4,33.5,256,33.5z M169.8,221.3
	c-4.6-3.1-10.8-2-13.9,2.6c-14,20.4-21.4,44.4-21.4,69.2c0,67.5,55,122.5,122.5,122.5s122.5-55,122.5-122.5s-55-122.5-122.5-122.5
	c-7.8,0-15.7,0.8-23.3,2.2c-5.4,1-9,6.3-7.9,11.7c1,5.4,6.3,9,11.7,7.9c6.4-1.2,13-1.9,19.5-1.9c56.5,0,102.5,46,102.5,102.5
	c0,56.5-46,102.5-102.5,102.5c-56.5,0-102.5-46-102.5-102.5c0-20.8,6.2-40.8,17.9-57.9C175.5,230.7,174.4,224.5,169.8,221.3z
	 M288.6,344.1c-4.7,2.9-6.1,9.1-3.2,13.8c2.9,4.6,9.1,6.1,13.8,3.2c23.7-14.7,37.8-40.1,37.8-68c0-27.8-14.1-53.2-37.8-68
	c-4.7-2.9-10.9-1.5-13.8,3.2c-2.9,4.7-1.5,10.9,3.2,13.8c17.8,11,28.4,30.1,28.4,51C317,314,306.4,333.1,288.6,344.1z M213.9,360.5
	c4.6,2.9,10.9,1.6,13.8-3c3-4.7,1.6-10.8-3-13.8c-17.3-11.1-27.7-30-27.7-50.5c0-20.5,10.3-39.4,27.7-50.5c4.7-3,6-9.2,3-13.8
	c-3-4.7-9.2-6-13.8-3c-23.1,14.8-36.9,40-36.9,67.4S190.8,345.7,213.9,360.5z M68.3,338.6C30.6,338.6,0,369.3,0,406.9
	s30.6,68.3,68.3,68.3s68.3-30.6,68.3-68.3S105.9,338.6,68.3,338.6z M68.3,455.2c-26.6,0-48.3-21.7-48.3-48.3
	c0-26.6,21.7-48.3,48.3-48.3s48.3,21.7,48.3,48.3C116.5,433.5,94.9,455.2,68.3,455.2z M443.7,338.6c-37.6,0-68.3,30.6-68.3,68.3
	s30.6,68.3,68.3,68.3c37.6,0,68.3-30.6,68.3-68.3S481.4,338.6,443.7,338.6z M443.7,455.2c-26.6,0-48.3-21.7-48.3-48.3
	c0-26.6,21.7-48.3,48.3-48.3c26.6,0,48.3,21.7,48.3,48.3C492,433.5,470.3,455.2,443.7,455.2z M67.3,306c3.6,4.9,11,5.4,15.2,1
	l29.8-30.7c3.8-4,3.8-10.3-0.2-14.1s-10.3-3.8-14.1,0.2l-12.6,13c2.2-35.6,15.8-69,40.7-99.6c20.3-24.9,40.8-38.4,41.2-38.7
	c4.6-3,6-9.2,3-13.8c-3-4.6-9.2-6-13.8-3c-0.9,0.6-23.1,15-45.4,42.3C84.5,195,69,232,65.7,270.2L57.4,259c-3.3-4.4-9.6-5.4-14-2.1
	c-4.4,3.3-5.4,9.6-2.1,14L67.3,306z M356,439.8L356,439.8l-41-12.4c-5.3-1.6-10.9,1.4-12.5,6.7c-1.6,5.3,1.4,10.9,6.7,12.5l17.3,5.3
	c-32.6,14.4-68.6,17.6-107.1,9.5c-31.6-6.6-53.1-18.7-53.3-18.9c-4.8-2.7-10.9-1.1-13.6,3.7c-2.7,4.8-1.1,10.9,3.7,13.6
	c1,0.6,24,13.6,58.4,20.9c15.1,3.2,30.1,4.8,44.7,4.8c25.1,0,49.3-4.7,71.7-14l-6.2,12.6c-2.4,5-0.4,11,4.6,13.4
	c4.9,2.4,11,0.3,13.4-4.6l19.2-39.2C364.8,448.3,361.8,441.5,356,439.8z M351.7,174.7c0.9,4.8,5.1,8.2,9.8,8.2
	c0.6,0,1.2-0.1,1.8-0.2c5.4-1,9.1-6.2,8.1-11.6l-3.2-17.8c27.6,22.5,46.9,53.1,57.2,91.1c8.4,31.1,7.4,55.8,7.4,56
	c-0.3,5.5,4,10.2,9.5,10.5c0.2,0,0.3,0,0.5,0c5.3,0,9.7-4.2,10-9.5c0.1-1.1,1.2-27.5-7.9-61.5c-10.9-40.5-31.8-74.6-61.1-99.6
	l14-0.2c5.5-0.1,9.9-4.6,9.8-10.2c-0.1-5.5-4.6-9.9-10.2-9.8l-43.6,0.7c-6.1,0.1-10.8,5.8-9.7,11.8L351.7,174.7z M83,388.3
	l-23.4,21.5l-5.2-6c-3.6-4.2-9.9-4.7-14.1-1.1s-4.7,9.9-1.1,14.1l11.9,13.8c1.8,2,4.3,3.3,7,3.5c0.2,0,0.4,0,0.6,0
	c2.5,0,4.9-0.9,6.8-2.6l31-28.4c4.1-3.7,4.4-10.1,0.6-14.1C93.4,384.9,87,384.6,83,388.3z M241.4,103.5c1.8,2,4.3,3.3,7,3.5
	c0.2,0,0.4,0,0.6,0c2.5,0,4.9-0.9,6.8-2.6l31-28.4c4.1-3.7,4.3-10.1,0.6-14.1c-3.7-4.1-10.1-4.4-14.1-0.6l-23.4,21.5l-5.2-6
	c-3.6-4.2-9.9-4.7-14.1-1.1c-4.2,3.6-4.7,9.9-1.1,14.1L241.4,103.5z M458.7,385.2l-23.4,21.5l-5.1-6c-3.6-4.2-9.9-4.7-14.1-1.1
	c-4.2,3.6-4.7,9.9-1.1,14.1l11.9,13.8c1.8,2,4.3,3.3,7,3.5c0.2,0,0.4,0,0.6,0c2.5,0,4.9-0.9,6.8-2.6l31-28.4
	c4.1-3.7,4.4-10.1,0.6-14.1C469.1,381.7,462.7,381.5,458.7,385.2z M204.6,202.4c2.9-8.6-6.8-16.5-14.6-11.8c-4.2,2.5-6,7.9-4.1,12.4
	C189.4,211.4,201.7,210.9,204.6,202.4z M232.5,323.6c-2.1,3.2-1.2,7.6,2,9.7c6.8,4.4,11.6,6,17.4,6.5v4.5c0,3.9,3.1,7,7,7s7-3.1,7-7
	v-5.2c11.9-3,19.4-13.1,21.1-23c2.2-13-4.6-24.3-17.3-28.7c-1.3-0.4-2.6-0.9-3.9-1.4V263c2.4,0.9,4.2,2.8,6.8,3.3
	c2.4,0.5,4.8-0.2,6.5-2c3.8-4.1,0.5-9.2,0.5-9.2c-0.3-0.3-5.4-4.9-13.7-6.5v-4.1c0-3.9-3.1-7-7-7c-3.9,0-7,3.1-7,7v4.5
	c-0.5,0.1-0.9,0.2-1.4,0.4c-8.4,2.5-14.7,9.7-16.4,18.7c-1.6,8.3,1.1,16.3,7,20.9c2.8,2.2,6.2,4.2,10.8,6.3v30.3
	c-3.3-0.5-5.8-1.6-9.7-4.1h0C239,319.5,234.7,320.4,232.5,323.6z M265.9,300.9c8,3.3,7.8,10,7.3,12.9c-0.7,4-3.1,8.1-7.3,10.4V300.9
	z M249.8,278c-1.7-1.4-2.5-4.2-1.9-7.3c0.4-2.3,1.7-4.9,4-6.6v15.4C251.1,279,250.4,278.5,249.8,278z"/>
</svg>
