<?xml version="1.0" encoding="utf-8"?>
<!-- Generator: Adobe Illustrator 25.2.0, SVG Export Plug-In . SVG Version: 6.00 Build 0)  -->
<svg version="1.1" id="Layer_1" xmlns="http://www.w3.org/2000/svg" xmlns:xlink="http://www.w3.org/1999/xlink" x="0px" y="0px"
	 viewBox="0 0 512 512" style="enable-background:new 0 0 512 512;" xml:space="preserve">
<path d="M502,412h-10V174c0-32-26-58-58-58h-71.4c0.2-3,0.4-6,0.4-9C363,48,315,0,256,0S149,48,149,107c0,3,0.1,6,0.4,9H78
	c-32,0-58,26-58,58v238H10c-5.5,0-10,4.5-10,10v32c0,32,26,58,58,58h396c32,0,58-26,58-58v-32C512,416.5,507.5,412,502,412z M256,20
	c48,0,87,39,87,87s-39,87-87,87s-87-39-87-87S208,20,256,20z M40,174c0-21,17-38,38-38h75c12.7,45,54.1,78,103,78s90.3-33,103-78h75
	c21,0,38,17,38,38v58l-69.5,69.5H301.1c-5.5,0-10,4.5-10,10c0,5.5,4.5,10,10,10h20.2V412H266v-55.6c0-5.5-4.5-10-10-10
	c-5.5,0-10,4.5-10,10V412h-55.3v-90.6h20.5c5.5,0,10-4.5,10-10c0-5.5-4.5-10-10-10h-70.6c-2.7,0-5.2,1.1-7.1,2.9L40,397.9V174z
	 M472,260.3V412h-55.3v-96.4L472,260.3z M396.7,321.4V412h-55.3v-90.6H396.7z M170.7,321.5V412h-55.3v-61.2l29.4-29.4H170.7z
	 M95.3,370.8V412H54.1L95.3,370.8z M492,454c0,21-17,38-38,38H58c-21,0-38-17-38-38v-22h472V454z M219.3,472h73.3
	c5.5,0,10-4.5,10-10c0-5.5-4.5-10-10-10h-73.3c-5.5,0-10,4.5-10,10C209.3,467.5,213.8,472,219.3,472z M256,139.1
	c-7.3,0-13.2-4.9-13.2-11c0-5.5-4.5-10-10-10c-5.5,0-10,4.5-10,10c0,13.8,9.8,25.6,23.2,29.6v1.4c0,5.5,4.5,10,10,10
	c5.5,0,10-4.5,10-10v-1.4c13.4-4,23.2-15.7,23.2-29.6c0-17.1-14.9-31-33.2-31c-7.3,0-13.2-4.9-13.2-11c0-6.1,5.9-11,13.2-11
	s13.2,4.9,13.2,11c0,5.5,4.5,10,10,10c5.5,0,10-4.5,10-10c0-13.8-9.8-25.6-23.2-29.6V55c0-5.5-4.5-10-10-10c-5.5,0-10,4.5-10,10v1.4
	c-13.4,4-23.2,15.7-23.2,29.6c0,17.1,14.9,31,33.2,31c7.3,0,13.2,4.9,13.2,11C269.2,134.1,263.3,139.1,256,139.1z M256,323.1
	c2.6,0,5.2-1.1,7.1-2.9c1.9-1.9,2.9-4.4,2.9-7.1c0-2.6-1.1-5.2-2.9-7.1c-1.9-1.9-4.4-2.9-7.1-2.9s-5.2,1.1-7.1,2.9
	c-1.9,1.9-2.9,4.4-2.9,7.1c0,2.6,1.1,5.2,2.9,7.1C250.8,322,253.4,323.1,256,323.1z M133.7,176.9c-4.9-2.5-10.9-0.5-13.4,4.5
	l-35.1,70.2c-2.5,4.9-0.5,10.9,4.5,13.4c1.4,0.7,3,1.1,4.5,1.1c3.7,0,7.2-2,9-5.5l35.1-70.2C140.7,185.3,138.7,179.3,133.7,176.9z
	 M88.5,185.8c0-2.6-1.1-5.2-2.9-7.1c-1.9-1.9-4.4-2.9-7.1-2.9s-5.2,1.1-7.1,2.9c-1.9,1.9-2.9,4.4-2.9,7.1c0,2.6,1.1,5.2,2.9,7.1
	c1.9,1.9,4.4,2.9,7.1,2.9s5.2-1.1,7.1-2.9C87.4,191,88.5,188.5,88.5,185.8z M134.9,256c0,2.6,1.1,5.2,2.9,7.1
	c1.9,1.9,4.4,2.9,7.1,2.9c2.6,0,5.2-1.1,7.1-2.9c1.9-1.9,2.9-4.4,2.9-7.1s-1.1-5.2-2.9-7.1c-1.9-1.9-4.4-2.9-7.1-2.9
	c-2.6,0-5.2,1.1-7.1,2.9C136,250.8,134.9,253.4,134.9,256z"/>
</svg>
