<?xml version="1.0" encoding="utf-8"?>
<!-- Generator: Adobe Illustrator 25.2.0, SVG Export Plug-In . SVG Version: 6.00 Build 0)  -->
<svg version="1.1" id="Layer_1" xmlns="http://www.w3.org/2000/svg" xmlns:xlink="http://www.w3.org/1999/xlink" x="0px" y="0px"
	 viewBox="0 0 512 512" style="enable-background:new 0 0 512 512;" xml:space="preserve">
<path d="M460,273.3V118c0-27.6-22.4-50-50-50h-6V50c0-5.5-4.5-10-10-10s-10,4.5-10,10v18h-90V50c0-5.5-4.5-10-10-10s-10,4.5-10,10
	v18h-90V50c0-5.5-4.5-10-10-10s-10,4.5-10,10v18H74V50c0-5.5-4.5-10-10-10s-10,4.5-10,10v18h-4C22.4,68,0,90.4,0,118v284
	c0,27.6,22.4,50,50,50h292.8c17.5,12.6,39,20,62.2,20c59,0,107-48,107-107C512,326.1,491.1,292,460,273.3z M50,432
	c-16.5,0-30-13.5-30-30V168h165c5.5,0,10-4.5,10-10s-4.5-10-10-10H20v-30c0-16.5,13.5-30,30-30h4v18c0,5.5,4.5,10,10,10
	s10-4.5,10-10V88h90v18c0,5.5,4.5,10,10,10s10-4.5,10-10V88h90v18c0,5.5,4.5,10,10,10s10-4.5,10-10V88h90v18c0,5.5,4.5,10,10,10
	s10-4.5,10-10V88h6c16.5,0,30,13.5,30,30v30H275c-5.5,0-10,4.5-10,10s4.5,10,10,10h165v95.9c-11-3.8-22.7-5.9-35-5.9
	c-3,0-6,0.1-9,0.4V214c0-5.5-4.5-10-10-10h-56c-5.5,0-10,4.5-10,10v56c0,5.5,4.5,10,10,10h10.1c-25.6,19.6-42.1,50.4-42.1,85
	c0,25.3,8.9,48.6,23.6,67H50z M376,224v36h-36v-36H376z M405,452c-48,0-87-39-87-87s39-87,87-87s87,39,87,87S453,452,405,452z
	 M405,332.9c7.3,0,13.2,4.9,13.2,11c0,5.5,4.5,10,10,10s10-4.5,10-10c0-13.8-9.8-25.6-23.2-29.6V313c0-5.5-4.5-10-10-10
	s-10,4.5-10,10v1.4c-13.4,4-23.2,15.7-23.2,29.6c0,17.1,14.9,31,33.2,31c7.3,0,13.2,4.9,13.2,11s-5.9,11-13.2,11
	c-7.3,0-13.2-4.9-13.2-11c0-5.5-4.5-10-10-10s-10,4.5-10,10c0,13.8,9.8,25.6,23.2,29.6v1.4c0,5.5,4.5,10,10,10s10-4.5,10-10v-1.4
	c13.4-4,23.2-15.7,23.2-29.6c0-17.1-14.9-31-33.2-31c-7.3,0-13.2-4.9-13.2-11S397.7,332.9,405,332.9z M130,204H74
	c-5.5,0-10,4.5-10,10v56c0,5.5,4.5,10,10,10h56c5.5,0,10-4.5,10-10v-56C140,208.5,135.5,204,130,204z M120,260H84v-36h36V260z
	 M258,204h-56c-5.5,0-10,4.5-10,10v56c0,5.5,4.5,10,10,10h56c5.5,0,10-4.5,10-10v-56C268,208.5,263.5,204,258,204z M248,260h-36v-36
	h36V260z M130,316H74c-5.5,0-10,4.5-10,10v56c0,5.5,4.5,10,10,10h56c5.5,0,10-4.5,10-10v-56C140,320.5,135.5,316,130,316z M120,372
	H84v-36h36V372z M258,316h-56c-5.5,0-10,4.5-10,10v56c0,5.5,4.5,10,10,10h56c5.5,0,10-4.5,10-10v-56C268,320.5,263.5,316,258,316z
	 M248,372h-36v-36h36V372z M230,168c2.6,0,5.2-1.1,7.1-2.9s2.9-4.4,2.9-7.1s-1.1-5.2-2.9-7.1s-4.4-2.9-7.1-2.9s-5.2,1.1-7.1,2.9
	s-2.9,4.4-2.9,7.1s1.1,5.2,2.9,7.1S227.4,168,230,168z"/>
</svg>
