<?xml version="1.0" encoding="utf-8"?>
<!-- Generator: Adobe Illustrator 25.2.0, SVG Export Plug-In . SVG Version: 6.00 Build 0)  -->
<svg version="1.1" id="圖層_1" xmlns="http://www.w3.org/2000/svg" xmlns:xlink="http://www.w3.org/1999/xlink" x="0px" y="0px"
	 viewBox="0 0 1080 1020.1" style="enable-background:new 0 0 1080 1020.1;" xml:space="preserve">
<style type="text/css">
	.st0{fill:#26264F;}
	.st1{fill:url(#SVGID_1_);}
	.st2{fill:url(#SVGID_2_);}
	.st3{fill:#FFFFFF;}
	.st4{opacity:0.48;fill:#FFFFFF;enable-background:new    ;}
	.st5{fill:url(#SVGID_3_);}
	.st6{opacity:0.67;}
	.st7{fill:url(#SVGID_4_);}
	.st8{fill:#EBEFF2;}
	.st9{fill:#D8DEE8;}
	.st10{fill:url(#SVGID_5_);}
	.st11{fill:url(#SVGID_6_);}
	.st12{fill:url(#SVGID_7_);}
	.st13{fill:url(#SVGID_8_);}
	.st14{fill:url(#SVGID_9_);}
	.st15{fill:url(#SVGID_10_);}
	.st16{opacity:0.3;fill:#FFFFFF;enable-background:new    ;}
	.st17{fill:url(#SVGID_11_);}
	.st18{fill:url(#SVGID_12_);}
	.st19{opacity:0.4;fill:url(#SVGID_13_);enable-background:new    ;}
	.st20{fill:url(#SVGID_14_);}
	.st21{fill:url(#SVGID_15_);}
	.st22{fill:url(#SVGID_16_);}
	.st23{fill:url(#SVGID_17_);}
	.st24{fill:url(#SVGID_18_);}
	.st25{fill:url(#SVGID_19_);}
	.st26{opacity:0.3;fill:url(#SVGID_20_);enable-background:new    ;}
	.st27{opacity:0.68;fill:#FFFFFF;enable-background:new    ;}
	.st28{fill:url(#SVGID_21_);}
	.st29{fill:url(#SVGID_22_);}
	.st30{fill:url(#SVGID_23_);}
	.st31{fill:url(#SVGID_24_);}
	.st32{fill:url(#SVGID_25_);}
	.st33{fill:url(#SVGID_26_);}
	.st34{fill:url(#SVGID_27_);}
	.st35{fill:url(#SVGID_28_);}
	.st36{fill:url(#SVGID_29_);}
</style>
<g id="Illustration">
	<g>
		<g>
			<g>
				<g>
					<path class="st0" d="M1079.9,945.2c0,7.5-5.1,13.7-11.6,14.3L334.7,1020c-3.6,0.3-7.2,0.1-10.8-0.5l-302.3-53
						c-6.3-1.2-11-7.4-11-14.7v-27l1069.3,9.1V945.2z"/>
					<g>
						<path class="st0" d="M709.8,869l0-451.2c0-11.3-8-20.4-17.9-20.4H21.7C9.8,397.4,0,407.5,0,420l0,499c0,12.5,9.7,21.9,21.7,21
							l670.2-49.3C701.7,889.9,709.7,880.2,709.8,869z"/>
						
							<linearGradient id="SVGID_1_" gradientUnits="userSpaceOnUse" x1="-65.2999" y1="1566.7297" x2="644.5" y2="1566.7297" gradientTransform="matrix(1 0 0 1 75.8999 -898)">
							<stop  offset="0" style="stop-color:#444B8C"/>
							<stop  offset="0.9964" style="stop-color:#26264F"/>
						</linearGradient>
						<path class="st1" d="M720.4,869V417.8c0-11.3-8-20.4-17.9-20.4H32.3c-11.9,0-21.7,10.1-21.7,22.6v499c0,12.5,9.7,21.9,21.7,21
							l670.2-49.3C712.4,889.9,720.4,880.2,720.4,869z"/>
						
							<linearGradient id="SVGID_2_" gradientUnits="userSpaceOnUse" x1="-36.1" y1="1562.1221" x2="620.5001" y2="1562.1221" gradientTransform="matrix(1 0 0 1 75.8999 -898)">
							<stop  offset="0" style="stop-color:#AA80F9"/>
							<stop  offset="0.9964" style="stop-color:#6165D7"/>
						</linearGradient>
						<path class="st2" d="M696.4,841.1v-398c0-9.3-6.5-16.7-14.7-16.7l-624.2,2.7c-9.8,0.1-17.7,8.3-17.7,18.5v437
							c0,10.2,7.9,17.9,17.7,17.2l624.2-42.9C689.8,858.3,696.4,850.3,696.4,841.1z"/>
						<path class="st3" d="M383.4,402.7c-4.2,0-7.7,3.8-7.7,8.4c0,4.7,3.4,8.4,7.7,8.4s7.7-3.8,7.7-8.4
							C391.1,406.4,387.7,402.7,383.4,402.7z"/>
						<path class="st4" d="M10.6,919.1V420c0-12.5,9.7-22.6,21.7-22.6h31.3c5.1,23,14.8,44.7,32.6,59.6c41.1,34.5,87.8,1.2,131,37.2
							c35.6,29.7,14.9,61.9,56.3,103.3c32.7,32.8,53.9,20.5,86.5,56.9c29.4,32.9,17.7,49.2,41.6,71.2c39.4,36.2,80.3-0.5,132.2,28.5
							c41.6,23.2,34.9,58.1,73.5,93.4c19.2,17.5,49,34.6,97,37.2c-3.1,3.4-7.3,5.7-11.8,6l-3.4,0.2L32.3,940
							C20.3,940.9,10.6,931.5,10.6,919.1z"/>
					</g>
					
						<linearGradient id="SVGID_3_" gradientUnits="userSpaceOnUse" x1="-65.4" y1="1839.6206" x2="1004" y2="1839.6206" gradientTransform="matrix(1 0 0 1 75.8999 -898)">
						<stop  offset="0" style="stop-color:#444B8C"/>
						<stop  offset="0.9964" style="stop-color:#26264F"/>
					</linearGradient>
					<path class="st5" d="M740.7,888.3l339.2,45.6l-745.2,61.4c-3.6,0.3-7.2,0.1-10.8-0.5l-313.4-55l718.7-51.9
						C733.1,887.7,736.9,887.8,740.7,888.3z"/>
					<polygon class="st0" points="305.8,968 898.9,921.1 713.8,896.4 115.5,940.3 					"/>
				</g>
			</g>
			<g>
				<g class="st6">
					<path class="st3" d="M158.7,577.8c31.1-72.4,100.2-123.9,179.7-127.9L336.5,570c-27.8,4.1-51.6,22.1-64.4,46.9L158.7,577.8z"/>
					<path class="st3" d="M539.7,666.4c-9.2,101.7-91.1,186.3-193.4,192.9c-34.7,2.2-67.6-4.7-96.5-18.9L312.2,734
						c10.4,4.3,21.9,6.4,34,5.8c40.8-2,74.3-33.8,81-73.7L539.7,666.4z"/>
					<path class="st3" d="M141.3,662.3c0-21.6,3.3-42.5,9.3-62.3l113.6,38.7c-1.3,6.2-2,12.5-2,19c0,26.9,12,50.4,30.9,65.3
						l-62.7,106.5C176.8,794.8,141.3,733.7,141.3,662.3z"/>
				</g>
				<g>
					
						<linearGradient id="SVGID_4_" gradientUnits="userSpaceOnUse" x1="389.9332" y1="1426.9869" x2="685.0984" y2="1136.2943" gradientTransform="matrix(1 0 0 1 75.8999 -898)">
						<stop  offset="3.597120e-03" style="stop-color:#E38DDD"/>
						<stop  offset="1" style="stop-color:#9571F6"/>
					</linearGradient>
					<path class="st7" d="M361.8,370.4c142.4,8.1,251.6,127.6,251.6,274c0,0.1,0,0.2,0,0.3L428,643.6c-3.4-38.6-32.2-69-69.4-73.8
						L361.8,370.4z"/>
				</g>
			</g>
		</g>
		<g>
			<path class="st8" d="M657.9,44.4v295.7c0,9.8-8,17.8-17.8,17.8H19.4c-10.2,0-18.5-8.1-18.5-18.1V38.1L657.9,44.4z"/>
			<path class="st9" d="M657.9,24.6v30.2l-657.1-6V17.9c0-10,8.3-18,18.5-17.9l620.8,6.6C649.9,6.7,657.9,14.8,657.9,24.6z"/>
			<g>
				<g>
					<g>
						<path class="st9" d="M276.2,203.2c-0.3-56.3-37.7-104.3-89.5-121.2l-34.2,117.3L276.2,203.2z"/>
					</g>
					<g>
						<path class="st3" d="M155.8,207.6l53.7,69.7c19.7-16.2,32.8-40,34.7-66.8L155.8,207.6z"/>
						<path class="st3" d="M169.8,109.8c-7.4-1.9-15.1-2.8-23-2.9c-26.2-0.2-50,9.7-67.6,26.1c19.9,18.9,44.9,42.7,65.6,62.3
							L169.8,109.8z"/>
						<path class="st3" d="M91.8,156.3c-6.7-6.3-12.8-12.2-18.3-17.4c-15.4,17-24.7,39.3-24.7,63.9c0,19.9,6.1,38.4,16.6,53.8
							l75.1-54C132.4,195,112,175.6,91.8,156.3z"/>
						<path class="st3" d="M70.3,263.3c16.9,20.7,42.3,34.4,70.9,36.1l1.5-88.1L70.3,263.3z"/>
						<path class="st3" d="M149.6,299.5c19.8-0.5,38.1-6.8,53.2-17.2L151,215.1L149.6,299.5z"/>
					</g>
				</g>
				<polygon class="st3" points="611.8,110.5 293.7,108.1 293.7,138 611.8,140.1 				"/>
				<polygon class="st3" points="611.8,164 293.7,162.1 293.7,192 611.8,193.6 				"/>
				<polygon class="st3" points="611.8,217.5 293.7,216.1 293.7,246 611.8,247 				"/>
				<polygon class="st3" points="611.8,271 293.7,270.1 293.7,299.9 611.8,300.5 				"/>
			</g>
			<path class="st3" d="M35.1,16.3c-4.5,0-8.2,3.6-8.2,8s3.7,8.1,8.2,8.1s8.2-3.6,8.2-8S39.6,16.3,35.1,16.3z"/>
		</g>
		<g>
			<g>
				
					<rect x="845.9" y="417.9" transform="matrix(0.5473 -0.8369 0.8369 0.5473 -15.1203 946.1082)" class="st3" width="42.3" height="138.2"/>
				
					<linearGradient id="SVGID_5_" gradientUnits="userSpaceOnUse" x1="698.5" y1="1343.9" x2="785.9" y2="1343.9" gradientTransform="matrix(1 0 0 1 75.8999 -898)">
					<stop  offset="0" style="stop-color:#40447E"/>
					<stop  offset="0.9964" style="stop-color:#3C3B6B"/>
				</linearGradient>
				<circle class="st10" cx="818.1" cy="445.9" r="43.7"/>
				
					<linearGradient id="SVGID_6_" gradientUnits="userSpaceOnUse" x1="785.8" y1="1410.6" x2="857.6" y2="1410.6" gradientTransform="matrix(1 0 0 1 75.8999 -898)">
					<stop  offset="0" style="stop-color:#40447E"/>
					<stop  offset="0.9964" style="stop-color:#3C3B6B"/>
				</linearGradient>
				<circle class="st11" cx="897.6" cy="512.6" r="35.9"/>
			</g>
			<g>
				
					<linearGradient id="SVGID_7_" gradientUnits="userSpaceOnUse" x1="764.9" y1="1161" x2="874.9" y2="1161" gradientTransform="matrix(1 0 0 1 75.8999 -898)">
					<stop  offset="0" style="stop-color:#FFC444"/>
					<stop  offset="0.9964" style="stop-color:#F36F56"/>
				</linearGradient>
				<ellipse class="st12" cx="895.8" cy="263" rx="55" ry="77.4"/>
				
					<linearGradient id="SVGID_8_" gradientUnits="userSpaceOnUse" x1="355.7" y1="1121" x2="843.9003" y2="1121" gradientTransform="matrix(1 0 0 1 75.8999 -898)">
					<stop  offset="0" style="stop-color:#FCB148"/>
					<stop  offset="5.207239e-02" style="stop-color:#FDBA46"/>
					<stop  offset="0.1424" style="stop-color:#FFC244"/>
					<stop  offset="0.3183" style="stop-color:#FFC444"/>
					<stop  offset="0.4849" style="stop-color:#FDB946"/>
					<stop  offset="0.7754" style="stop-color:#F99C4D"/>
					<stop  offset="0.8658" style="stop-color:#F8924F"/>
					<stop  offset="1" style="stop-color:#F8924F"/>
				</linearGradient>
				<path class="st13" d="M919.8,267.9L919.8,267.9c0,56.6-45.9,102.6-102.6,102.6h-283c-56.6,0-102.6-45.9-102.6-102.6l0,0
					c0-106.3,86.2-192.4,192.4-192.4h103.6C833.8,75.5,920,161.7,919.8,267.9z"/>
				
					<linearGradient id="SVGID_9_" gradientUnits="userSpaceOnUse" x1="441.5" y1="1383.2001" x2="758.3" y2="1383.2001" gradientTransform="matrix(1 0 0 1 75.8999 -898)">
					<stop  offset="0" style="stop-color:#FCB148"/>
					<stop  offset="5.207239e-02" style="stop-color:#FDBA46"/>
					<stop  offset="0.1424" style="stop-color:#FFC244"/>
					<stop  offset="0.3183" style="stop-color:#FFC444"/>
					<stop  offset="0.4849" style="stop-color:#FDB946"/>
					<stop  offset="0.7754" style="stop-color:#F99C4D"/>
					<stop  offset="0.8658" style="stop-color:#F8924F"/>
					<stop  offset="1" style="stop-color:#F8924F"/>
				</linearGradient>
				<path class="st14" d="M834.2,456.1L834.2,456.1c0-36.8-29.8-66.6-66.6-66.6H584c-36.8,0-66.6,29.8-66.6,66.6l0,0
					c0,68.9,55.9,124.8,124.8,124.8h67.2C778.3,580.9,834.2,525,834.2,456.1z"/>
				<g>
					
						<linearGradient id="SVGID_10_" gradientUnits="userSpaceOnUse" x1="500.1" y1="1162.8352" x2="788.6004" y2="1162.8352" gradientTransform="matrix(1 0 0 1 75.8999 -898)">
						<stop  offset="0" style="stop-color:#444B8C"/>
						<stop  offset="0.9964" style="stop-color:#26264F"/>
					</linearGradient>
					<path class="st15" d="M864.5,286.7v-36c0-23.4-19.1-43-42.9-43.8l-197-6.3c-26.7-0.9-48.6,18.9-48.6,44.1v38.7
						c0,25.2,21.9,45.7,48.6,45.7h197C845.5,329.1,864.6,310,864.5,286.7z"/>
					<g>
						<g>
							<path class="st3" d="M655.6,230.6c-18-0.5-32.7,13-32.7,30.1s14.7,31.2,32.7,31.4c17.9,0.2,32.2-13.2,32.2-30.1
								S673.4,231,655.6,230.6z"/>
							<path class="st3" d="M790.8,234.4c-16.8-0.5-30.5,12.6-30.5,29.1s13.7,30.1,30.5,30.3c16.7,0.2,30.1-12.8,30.1-29.1
								C820.9,248.4,807.5,234.8,790.8,234.4z"/>
						</g>
					</g>
				</g>
				<path class="st16" d="M780.9,370.5H534.2c-56.6,0-102.6-45.9-102.6-102.6l0,0c0-87.7,58.7-161.7,139-184.8
					c-10.4,22.9-10,39.4-6.1,51.5c14,43.5,75.5,36.2,128.2,100.4c38.3,46.7,25.3,74.2,54.6,108.6
					C755.4,353.1,766.2,362.5,780.9,370.5z"/>
				
					<linearGradient id="SVGID_11_" gradientUnits="userSpaceOnUse" x1="328.4" y1="1160.5" x2="438.4" y2="1160.5" gradientTransform="matrix(1 0 0 1 75.8999 -898)">
					<stop  offset="0" style="stop-color:#FFC444"/>
					<stop  offset="0.9964" style="stop-color:#F36F56"/>
				</linearGradient>
				<ellipse class="st17" cx="459.3" cy="262.5" rx="55" ry="77.4"/>
				
					<linearGradient id="SVGID_12_" gradientUnits="userSpaceOnUse" x1="315.8" y1="1160.5" x2="363.9449" y2="1160.5" gradientTransform="matrix(1 0 0 1 75.8999 -898)">
					<stop  offset="0" style="stop-color:#FFC444"/>
					<stop  offset="0.9964" style="stop-color:#F36F56"/>
				</linearGradient>
				<ellipse class="st18" cx="415.8" cy="262.5" rx="24.1" ry="33.8"/>
				
					<linearGradient id="SVGID_13_" gradientUnits="userSpaceOnUse" x1="441.5" y1="1383.2001" x2="652.5" y2="1383.2001" gradientTransform="matrix(1 0 0 1 75.8999 -898)">
					<stop  offset="0" style="stop-color:#FCB148"/>
					<stop  offset="5.207239e-02" style="stop-color:#FDBA46"/>
					<stop  offset="0.1424" style="stop-color:#FFC244"/>
					<stop  offset="0.3183" style="stop-color:#FFC444"/>
					<stop  offset="0.4849" style="stop-color:#FDB946"/>
					<stop  offset="0.7754" style="stop-color:#F99C4D"/>
					<stop  offset="0.8658" style="stop-color:#F8924F"/>
					<stop  offset="1" style="stop-color:#F8924F"/>
				</linearGradient>
				<path class="st19" d="M717.8,555.7c0.9,8.6,4.8,16.5,10.6,23.8c-6.2,0.9-12.5,1.4-19,1.4h-67.2c-68.9,0-124.8-55.9-124.8-124.8
					l0,0c0-36.8,29.8-66.6,66.6-66.6h110.5c-6.2,1.7-12.4,3.7-18.7,6c-7.4,2.7-65.9,24.3-63.8,46.1c2.8,28.3,104.8,27.3,114,70.6
					C729.5,529,715.8,536.4,717.8,555.7z"/>
				
					<linearGradient id="SVGID_14_" gradientUnits="userSpaceOnUse" x1="553.9962" y1="1658.7321" x2="584.5231" y2="1422.5481" gradientTransform="matrix(1 0 0 1 75.8999 -898)">
					<stop  offset="0" style="stop-color:#FCB148"/>
					<stop  offset="5.207239e-02" style="stop-color:#FDBA46"/>
					<stop  offset="0.1424" style="stop-color:#FFC244"/>
					<stop  offset="0.3183" style="stop-color:#FFC444"/>
					<stop  offset="0.3975" style="stop-color:#FEC045"/>
					<stop  offset="0.7095" style="stop-color:#FAA34B"/>
					<stop  offset="0.8658" style="stop-color:#F8924F"/>
					<stop  offset="1" style="stop-color:#F8924F"/>
				</linearGradient>
				<ellipse class="st20" cx="677.4" cy="393.2" rx="106.2" ry="12.9"/>
			</g>
			<g>
				
					<rect x="566.3" y="417.9" transform="matrix(0.5473 -0.8369 0.8369 0.5473 -141.688 712.1082)" class="st3" width="42.3" height="138.2"/>
				
					<linearGradient id="SVGID_15_" gradientUnits="userSpaceOnUse" x1="419" y1="1343.9" x2="506.4" y2="1343.9" gradientTransform="matrix(1 0 0 1 75.8999 -898)">
					<stop  offset="0" style="stop-color:#40447E"/>
					<stop  offset="0.9964" style="stop-color:#3C3B6B"/>
				</linearGradient>
				<circle class="st21" cx="538.6" cy="445.9" r="43.7"/>
				<polygon class="st3" points="636.4,539.2 735.6,542.6 739.6,500.7 638.4,500.7 				"/>
				
					<linearGradient id="SVGID_16_" gradientUnits="userSpaceOnUse" x1="506.2" y1="1410.6" x2="578" y2="1410.6" gradientTransform="matrix(1 0 0 1 75.8999 -898)">
					<stop  offset="0" style="stop-color:#40447E"/>
					<stop  offset="0.9964" style="stop-color:#3C3B6B"/>
				</linearGradient>
				<circle class="st22" cx="618" cy="512.6" r="35.9"/>
				
					<linearGradient id="SVGID_17_" gradientUnits="userSpaceOnUse" x1="630.7765" y1="1412.2181" x2="685.3837" y2="1412.2181" gradientTransform="matrix(1 0 0 1 75.8999 -898)">
					<stop  offset="0" style="stop-color:#40447E"/>
					<stop  offset="0.9964" style="stop-color:#3C3B6B"/>
				</linearGradient>
				<path class="st23" d="M760.6,527.2l-1.7,7.2h-52.3l3.5-29.9c0.7-5.8,5.5-10.2,11.3-10.4c12.2-0.5,20.9,2,27,5.4
					C758.2,505,763.2,516.3,760.6,527.2z"/>
			</g>
			<g>
				
					<linearGradient id="SVGID_18_" gradientUnits="userSpaceOnUse" x1="562.8256" y1="1443.05" x2="768.2" y2="1443.05" gradientTransform="matrix(1 0 0 1 75.8999 -898)">
					<stop  offset="0" style="stop-color:#AA80F9"/>
					<stop  offset="0.9964" style="stop-color:#6165D7"/>
				</linearGradient>
				<path class="st24" d="M844.1,558.3l-199.4-5.5c-4.9-0.2-7.7-5.7-4.8-9.7l5.7-8c1.6-2.1,4-3.3,6.6-3.3l188.4,3.3L844.1,558.3z"/>
				
					<linearGradient id="SVGID_19_" gradientUnits="userSpaceOnUse" x1="683.3" y1="1395.6404" x2="973.2114" y2="1395.6404" gradientTransform="matrix(1 0 0 1 75.8999 -898)">
					<stop  offset="0" style="stop-color:#AA80F9"/>
					<stop  offset="0.9964" style="stop-color:#6165D7"/>
				</linearGradient>
				<path class="st25" d="M1047.9,453.8l-69.1,99.9c-3.2,4.6-8.6,7.3-14.2,7.2l-205.4-5.4l75-113.8c3.2-4.8,8.7-7.6,14.4-7.3
					l194.2,9C1048,443.7,1050.9,449.5,1047.9,453.8z"/>
				
					<linearGradient id="SVGID_20_" gradientUnits="userSpaceOnUse" x1="683.3" y1="1395.5905" x2="907.5" y2="1395.5905" gradientTransform="matrix(1 0 0 1 75.8999 -898)">
					<stop  offset="0" style="stop-color:#AA80F9"/>
					<stop  offset="0.9964" style="stop-color:#6165D7"/>
				</linearGradient>
				<path class="st26" d="M759.2,555.4l205.4,5.4c5.7,0.1,11-2.6,14.2-7.2l4.6-6.6c-27.7-12.4-53.4-0.6-67.6-18.1
					c-13.5-16.6,2.9-35.5-12.3-53.4c-13.8-16.3-34.3-8.7-45.3-23.9c-3.5-4.8-5.1-10.7-5.3-17l-4.3-0.2c-5.8-0.3-11.2,2.5-14.4,7.3
					L759.2,555.4z"/>
			</g>
		</g>
		<g>
			<g>
				<path class="st27" d="M1055.7,680v233c0,7.7-5.4,14.3-12,14.6l-442.4,23.1c-7.7,0.4-13.9-6-13.9-14.4V684.7L1055.7,680z"/>
				
					<linearGradient id="SVGID_21_" gradientUnits="userSpaceOnUse" x1="784.1711" y1="1510.7611" x2="575.2303" y2="1852.3341" gradientTransform="matrix(1 0 0 1 75.8999 -898)">
					<stop  offset="0" style="stop-color:#FF9085"/>
					<stop  offset="1" style="stop-color:#FB6FBB"/>
				</linearGradient>
				<path class="st28" d="M1055.7,664.3v23.9l-468.3,5.5v-25.8c0-8.4,6.2-15.2,13.9-15.2l442.4-2.3
					C1050.4,650.4,1055.7,656.7,1055.7,664.3z"/>
				<path class="st3" d="M613.1,666.1c-3.4,0-6.2,3-6.2,6.7c0,3.7,2.8,6.6,6.2,6.6c3.4,0,6.2-3,6.2-6.7S616.6,666,613.1,666.1z"/>
			</g>
			<g>
				<polygon class="st3" points="682.9,727.9 648.1,728.5 648.1,915.6 682.9,913.9 				"/>
				
					<linearGradient id="SVGID_22_" gradientUnits="userSpaceOnUse" x1="609.9173" y1="1704.9459" x2="561.6147" y2="1855.6836" gradientTransform="matrix(1 0 0 1 75.8999 -898)">
					<stop  offset="0" style="stop-color:#FF9085"/>
					<stop  offset="1" style="stop-color:#FB6FBB"/>
				</linearGradient>
				<polygon class="st29" points="682.9,825.6 648.1,826.8 648.1,915.6 682.9,913.9 				"/>
				<polygon class="st3" points="730.7,727.1 696.4,727.7 696.4,913.3 730.7,911.7 				"/>
				
					<linearGradient id="SVGID_23_" gradientUnits="userSpaceOnUse" x1="648.9924" y1="1753.0536" x2="622.0399" y2="1837.1647" gradientTransform="matrix(1 0 0 1 75.8999 -898)">
					<stop  offset="0" style="stop-color:#FF9085"/>
					<stop  offset="1" style="stop-color:#FB6FBB"/>
				</linearGradient>
				<polygon class="st30" points="730.7,867.9 696.4,869.2 696.4,913.3 730.7,911.7 				"/>
				<polygon class="st3" points="777.8,726.3 744,726.9 744,911 777.8,909.5 				"/>
				
					<linearGradient id="SVGID_24_" gradientUnits="userSpaceOnUse" x1="692.0961" y1="1774.6553" x2="675.2618" y2="1827.1899" gradientTransform="matrix(1 0 0 1 75.8999 -898)">
					<stop  offset="0" style="stop-color:#FF9085"/>
					<stop  offset="1" style="stop-color:#FB6FBB"/>
				</linearGradient>
				<polygon class="st31" points="777.8,886.6 744,888.1 744,911 777.8,909.5 				"/>
				<polygon class="st3" points="824.1,725.5 790.9,726.1 790.9,908.8 824.1,907.3 				"/>
				
					<linearGradient id="SVGID_25_" gradientUnits="userSpaceOnUse" x1="762.666" y1="1637.5024" x2="688.7985" y2="1868.0204" gradientTransform="matrix(1 0 0 1 75.8999 -898)">
					<stop  offset="0" style="stop-color:#FF9085"/>
					<stop  offset="1" style="stop-color:#FB6FBB"/>
				</linearGradient>
				<polygon class="st32" points="824.1,764.9 790.9,765.6 790.9,908.8 824.1,907.3 				"/>
				<polygon class="st3" points="869.8,724.7 837,725.3 837,906.7 869.8,905.1 				"/>
				
					<linearGradient id="SVGID_26_" gradientUnits="userSpaceOnUse" x1="805.0907" y1="1654.7977" x2="739.4946" y2="1859.5032" gradientTransform="matrix(1 0 0 1 75.8999 -898)">
					<stop  offset="0" style="stop-color:#FF9085"/>
					<stop  offset="1" style="stop-color:#FB6FBB"/>
				</linearGradient>
				<polygon class="st33" points="869.8,779.8 837,780.7 837,906.7 869.8,905.1 				"/>
				<polygon class="st3" points="914.8,723.9 882.5,724.5 882.5,904.5 914.8,903 				"/>
				
					<linearGradient id="SVGID_27_" gradientUnits="userSpaceOnUse" x1="855.8745" y1="1621.4283" x2="777.1035" y2="1867.2488" gradientTransform="matrix(1 0 0 1 75.8999 -898)">
					<stop  offset="0" style="stop-color:#FF9085"/>
					<stop  offset="1" style="stop-color:#FB6FBB"/>
				</linearGradient>
				<polygon class="st34" points="914.8,749.9 882.5,750.6 882.5,904.5 914.8,903 				"/>
				<polygon class="st3" points="959.1,723.1 927.3,723.7 927.3,902.4 959.1,900.9 				"/>
				
					<linearGradient id="SVGID_28_" gradientUnits="userSpaceOnUse" x1="891.5829" y1="1668.9703" x2="833.8458" y2="1849.1506" gradientTransform="matrix(1 0 0 1 75.8999 -898)">
					<stop  offset="0" style="stop-color:#FF9085"/>
					<stop  offset="1" style="stop-color:#FB6FBB"/>
				</linearGradient>
				<polygon class="st35" points="959.1,791.7 927.3,792.6 927.3,902.4 959.1,900.9 				"/>
				<polygon class="st3" points="1002.7,722.4 971.4,722.9 971.4,900.3 1002.7,898.8 				"/>
				
					<linearGradient id="SVGID_29_" gradientUnits="userSpaceOnUse" x1="925.7719" y1="1721.1196" x2="891.0094" y2="1829.6025" gradientTransform="matrix(1 0 0 1 75.8999 -898)">
					<stop  offset="0" style="stop-color:#FF9085"/>
					<stop  offset="1" style="stop-color:#FB6FBB"/>
				</linearGradient>
				<polygon class="st36" points="1002.7,837.6 971.4,838.7 971.4,900.3 1002.7,898.8 				"/>
			</g>
		</g>
	</g>
</g>
</svg>
