<?xml version="1.0" encoding="utf-8"?>
<!-- Generator: Adobe Illustrator 25.2.0, SVG Export Plug-In . SVG Version: 6.00 Build 0)  -->
<svg version="1.1" xmlns="http://www.w3.org/2000/svg" xmlns:xlink="http://www.w3.org/1999/xlink" x="0px" y="0px"
	 viewBox="0 0 2725.3 2724.9" style="enable-background:new 0 0 2725.3 2724.9;" xml:space="preserve">
<style type="text/css">
	.st0{clip-path:url(#SVGID_3_);}
	.st1{fill:#FCFDFE;}
	.st2{clip-path:url(#SVGID_6_);}
	.st3{fill:url(#SVGID_7_);}
	.st4{fill:url(#SVGID_8_);}
	.st5{fill:url(#SVGID_9_);}
	.st6{fill:url(#SVGID_10_);}
	.st7{fill:url(#SVGID_11_);}
	.st8{fill:url(#SVGID_12_);}
	.st9{fill:url(#SVGID_13_);}
	.st10{opacity:0.6;fill:#FFFFFF;}
	.st11{fill:#FFFFFF;}
	.st12{filter:url(#Adobe_OpacityMaskFilter);}
	.st13{fill:url(#SVGID_15_);}
	.st14{opacity:0.56;mask:url(#SVGID_14_);fill:#FFFFFF;}
	.st15{fill:#97A6B7;}
	.st16{fill:#D8DEE8;}
	.st17{fill:url(#SVGID_16_);}
	.st18{opacity:0.3;fill:#FFFFFF;}
	.st19{fill:#BFC8D6;}
	.st20{opacity:0.4;fill:#D8DEE8;}
	.st21{fill:url(#SVGID_17_);}
	.st22{fill:url(#SVGID_18_);}
	.st23{fill:url(#SVGID_19_);}
	.st24{fill:url(#SVGID_20_);}
</style>
<g id="Background">
</g>
<g id="Illustration">
	<g>
		<g>
			<g>
				<g>
					<g>
						<g>
							<defs>
								<path id="SVGID_1_" d="M1836.9,2397c20.8,49.4,59.6,117.9,100.9,196.8h-880.2c134.4-248.6,310.3-504.6,173.3-989.9
									c-64.3-227.7-263.1-640.5-122.5-876.2c160.1-268.6,377.2-111.2,468.9-323.8c143.2-332.3,472.4-530.2,763.7-312.6
									c287.5,214.8,187.3,833-322.1,1451.4C1703.7,2027.8,1728.2,2139.3,1836.9,2397z"/>
							</defs>
							
								<linearGradient id="SVGID_2_" gradientUnits="userSpaceOnUse" x1="1141.6622" y1="132.4097" x2="792.0377" y2="2596.0579" gradientTransform="matrix(-1 0 0 1 2725.2805 0)">
								<stop  offset="0" style="stop-color:#FFC444"/>
								<stop  offset="0.9964" style="stop-color:#F36F56"/>
							</linearGradient>
							<use xlink:href="#SVGID_1_"  style="overflow:visible;fill:url(#SVGID_2_);"/>
							<clipPath id="SVGID_3_">
								<use xlink:href="#SVGID_1_"  style="overflow:visible;"/>
							</clipPath>
							<g class="st0">
								<g>
									<path class="st1" d="M1482.7,2542.8c10.2-114.1,25.5-221.2,41.8-334.7l5.4-37.8c11.2-54.1,20.8-107.8,30-159.7
										c20.9-117.2,40.7-227.9,77.7-343.1c1.4-6.8,2.4-13.5,3.5-20.6c3.8-25.3,7.7-51.5,26.1-74.4l0.5-1
										c149.7-616,429-1211.5,830-1769.8l-4.1-3c-401.4,558.7-680.9,1154.6-830.7,1771.1c-18.9,23.9-23.1,51.8-26.8,76.4
										c-1.1,7-2.1,13.7-3.3,20.1c-37.1,115.3-56.8,226.1-77.8,343.5c-9.3,51.9-18.8,105.5-30,159.7l-5.4,38
										c-16.3,113.5-31.7,220.7-41.9,334.9L1482.7,2542.8z"/>
									<path class="st1" d="M1568.7,1989.8c48.3-294.6-56.7-668-153.3-929.4c-104.6-283.1-222.1-499.4-223.3-501.6l-4.5,2.4
										c1.2,2.2,118.6,218.2,223,501c96.4,260.8,201.1,633.3,153,926.8L1568.7,1989.8z"/>
									<path class="st1" d="M1953,734.7C2021.7,425,2022,84,2022.1-28c0-21.4,0-35.6,0.5-38.3l-5-0.9c-0.5,3-0.6,14.2-0.6,39.2
										c-0.1,111.9-0.5,452.5-69,761.7L1953,734.7z"/>
									<path class="st1" d="M1767.9,1219.1c144.7-254.5,731.8-413.7,737.7-415.2l-1.3-4.9c-5.9,1.6-595,161.4-740.8,417.7
										L1767.9,1219.1z"/>
								</g>
							</g>
						</g>
					</g>
					<g>
						<g>
							<defs>
								<path id="SVGID_4_" d="M1988.1,1414.5c-4.7,404.4-199.8,271.1-379.6,311c-207.6,300.3-227.1,579,82.8,819.6l345.3-51.7
									c128.1-5.9,278.5-45.1,270-215.7c-9.6-193-55.2-315.5,162.6-410.3c217.8-94.8,311.3-267.7,223.2-464.3
									c-92.8-207,124.9-486-34.2-624.6C2380.9,536.8,1993.1,993.4,1988.1,1414.5z"/>
							</defs>
							
								<linearGradient id="SVGID_5_" gradientUnits="userSpaceOnUse" x1="165.4718" y1="1043.6178" x2="1475.4954" y2="3200.2539" gradientTransform="matrix(-1 0 0 1 2725.2805 0)">
								<stop  offset="3.597120e-03" style="stop-color:#E38DDD"/>
								<stop  offset="1" style="stop-color:#9571F6"/>
							</linearGradient>
							<use xlink:href="#SVGID_4_"  style="overflow:visible;fill:url(#SVGID_5_);"/>
							<clipPath id="SVGID_6_">
								<use xlink:href="#SVGID_4_"  style="overflow:visible;"/>
							</clipPath>
							<g class="st2">
								<g>
									<path class="st1" d="M1902.4,2138.1c144.2-157.7,269.1-333,371.3-520.9c103.1-189.6,181.6-389.5,233.5-594.3
										c29.7-117.4,50.7-237.1,62.4-355.6l-5.2-0.5c-11.6,118.3-32.6,237.6-62.3,354.8c-51.8,204.4-130.2,403.9-233,593.1
										c-102,187.6-226.6,362.5-370.5,519.9L1902.4,2138.1z"/>
									<path class="st1" d="M2274.1,2360.2l2.4-4.7c-64.1-32.7-139.8-58.1-224.9-75.7c-40.5-8.4-80.8-13.9-119.7-16.4l-0.3,5.2
										c38.6,2.5,78.7,8,119,16.3C2135.1,2302.4,2210.4,2327.8,2274.1,2360.2z"/>
									<path class="st1" d="M2206.4,1732.6c178.3-172.5,557.9-156.7,561.7-156.5l0.2-5.2c-3.8-0.2-385.6-16.1-565.6,158
										L2206.4,1732.6z"/>
									<path class="st1" d="M2426.3,1282.4c53.4-275.2-152.9-593.2-155-596.4l-4.4,2.9c2.1,3.2,207.2,319.4,154.2,592.5
										L2426.3,1282.4z"/>
								</g>
							</g>
						</g>
					</g>
				</g>
			</g>
		</g>
		<g>
			<g>
				
					<linearGradient id="SVGID_7_" gradientUnits="userSpaceOnUse" x1="1900.3918" y1="2389.4758" x2="1902.2308" y2="2509.0081" gradientTransform="matrix(1 0 0 1 -664.4853 0)">
					<stop  offset="0" style="stop-color:#444B8C"/>
					<stop  offset="0.9964" style="stop-color:#26264F"/>
				</linearGradient>
				<path class="st3" d="M266.2,2574.2l1213.2-83.8c1.5-0.1,2.9-0.1,4.4,0l722.5,32.7c17.3,1.6,16.5,46.8-3.1,49.3l-1135.3,152
					c-4.6,0.6-9.3,0.6-14,0l-785.5-110.4C257.9,2612.2,254.1,2575.1,266.2,2574.2z"/>
				
					<linearGradient id="SVGID_8_" gradientUnits="userSpaceOnUse" x1="1879.6389" y1="2626.6846" x2="2070.5334" y2="2048.6982" gradientTransform="matrix(1 0 0 1 -664.4853 0)">
					<stop  offset="0" style="stop-color:#444B8C"/>
					<stop  offset="0.9964" style="stop-color:#26264F"/>
				</linearGradient>
				<path class="st4" d="M268.5,2572.9l1210.9-114.3c1.5-0.1,2.9-0.1,4.4,0l719,63.1c13.2,1.2,13.5,20.3,0.4,22l-1135.3,140.1
					c-4.6,0.6-9.3,0.6-14,0l-785.5-101.5C262.8,2581.5,263,2573.4,268.5,2572.9z"/>
				
					<linearGradient id="SVGID_9_" gradientUnits="userSpaceOnUse" x1="1033.4115" y1="2571.3821" x2="2807.6753" y2="2571.3821" gradientTransform="matrix(1 0 0 1 -664.4853 0)">
					<stop  offset="0" style="stop-color:#FF9085"/>
					<stop  offset="1" style="stop-color:#FB6FBB"/>
				</linearGradient>
				<path class="st5" d="M1079.9,2670.1c-1.7,0-3.4-0.1-5-0.3l-704.1-91c-2.6-0.3-2.5-4.1,0.1-4.3l1081.2-101.8c0.2,0,0.5,0,0.7,0
					c0.2,0,0.4,0,0.7,0l687.3,60.3c3.2,0.3,3.3,4.9,0.1,5.3l-1056.1,131.5C1083.1,2670,1081.5,2670.1,1079.9,2670.1z"/>
				
					<linearGradient id="SVGID_10_" gradientUnits="userSpaceOnUse" x1="1761.1882" y1="2341.8413" x2="1790.0591" y2="2341.8413" gradientTransform="matrix(0.9927 0.1207 -0.1207 0.9927 -814.9531 85.5422)">
					<stop  offset="0" style="stop-color:#FF9085"/>
					<stop  offset="1" style="stop-color:#FB6FBB"/>
				</linearGradient>
				<path class="st6" d="M679.4,2626.3c-0.3,2.1-6.9,3-14.8,2.1c-7.9-1-14.1-3.4-13.9-5.5c0.3-2.1,6.9-3,14.8-2.1
					C673.4,2621.8,679.6,2624.2,679.4,2626.3z"/>
				<g>
					
						<linearGradient id="SVGID_11_" gradientUnits="userSpaceOnUse" x1="1860.5446" y1="2683.0864" x2="1862.5087" y2="2733.7585" gradientTransform="matrix(1 0 0 1 -664.4853 0)">
						<stop  offset="0" style="stop-color:#444B8C"/>
						<stop  offset="0.9964" style="stop-color:#26264F"/>
					</linearGradient>
					<path class="st7" d="M1251.9,2691.2l-109,14.3c-8,1-14.5-2.8-14.5-8.7l0,0c0-5.9,6.5-11.4,14.5-12.3l109-12.7
						c6.7-0.8,12.1,2.9,12.1,8.2l0,0C1264.1,2685.3,1258.7,2690.3,1251.9,2691.2z"/>
					
						<linearGradient id="SVGID_12_" gradientUnits="userSpaceOnUse" x1="1989.9247" y1="2678.0715" x2="1991.8887" y2="2728.7432" gradientTransform="matrix(1 0 0 1 -664.4853 0)">
						<stop  offset="0" style="stop-color:#444B8C"/>
						<stop  offset="0.9964" style="stop-color:#26264F"/>
					</linearGradient>
					<path class="st8" d="M1371,2675.5l-89.7,11.8c-6.5,0.9-11.8-2.7-11.8-8l0,0c0-5.3,5.3-10.2,11.8-11l89.7-10.5
						c5.6-0.7,10.1,2.7,10.1,7.6l0,0C1381,2670.3,1376.6,2674.8,1371,2675.5z"/>
					
						<linearGradient id="SVGID_13_" gradientUnits="userSpaceOnUse" x1="2151.8999" y1="2671.7937" x2="2153.8638" y2="2722.4661" gradientTransform="matrix(1 0 0 1 -664.4853 0)">
						<stop  offset="0" style="stop-color:#444B8C"/>
						<stop  offset="0.9964" style="stop-color:#26264F"/>
					</linearGradient>
					<path class="st9" d="M1521.4,2655.8l-68.3,9c-4.9,0.6-8.9-2.6-8.9-7.1l0,0c0-4.6,4-8.8,8.9-9.3l68.3-8c4.3-0.5,7.7,2.5,7.7,6.8
						l0,0C1529.1,2651.3,1525.7,2655.2,1521.4,2655.8z"/>
				</g>
				<path class="st10" d="M1647.7,2529.1c-105.5,18.8-175.6,57-327,60.1c-131.2,2.7-132.1-27.6-284.6-37.1
					c-199.7-12.5-251.8,36-456,31.8c-53.3-1.1-123-5.9-205.5-21l-106.1,10c-5.6,0.5-5.7,8.6-0.2,9.4l785.5,101.5
					c4.6,0.6,9.3,0.6,14,0l960.9-118.6C1864,2510.2,1737.7,2513.1,1647.7,2529.1z"/>
			</g>
			<g>
				<path class="st11" d="M1257.8,2548.1c0-26.8,83.6-36.5,139.9-36.5c56.2,0,139.9,9.7,139.9,36.5c0,26.8-83.6,36.5-139.9,36.5
					C1341.4,2584.6,1257.8,2574.9,1257.8,2548.1z M1268.5,2548.1c0,9,44.4,25.9,129.2,25.9c84.8,0,129.2-16.8,129.2-25.9
					c0-9-44.4-25.9-129.2-25.9C1312.8,2522.3,1268.5,2539.1,1268.5,2548.1z"/>
				<ellipse class="st10" cx="1397.7" cy="2548.1" rx="61.2" ry="14.2"/>
				<defs>
					<filter id="Adobe_OpacityMaskFilter" filterUnits="userSpaceOnUse" x="534.3" y="1052.9" width="1627.7" height="1517.9">
						<feColorMatrix  type="matrix" values="1 0 0 0 0  0 1 0 0 0  0 0 1 0 0  0 0 0 1 0"/>
					</filter>
				</defs>
				<mask maskUnits="userSpaceOnUse" x="534.3" y="1052.9" width="1627.7" height="1517.9" id="SVGID_14_">
					<g class="st12">
						
							<linearGradient id="SVGID_15_" gradientUnits="userSpaceOnUse" x1="1426.2262" y1="2479.7686" x2="1375.2749" y2="1273.918" gradientTransform="matrix(-1 0 0 1 2725.2805 0)">
							<stop  offset="0" style="stop-color:#FFFFFF"/>
							<stop  offset="1" style="stop-color:#000000"/>
						</linearGradient>
						<path class="st13" d="M534.3,1296.5l723.6,1183l6.6,10.8l8.8,14.4l15.4,25.2l11.2,18.3c0,12.2,41.1,22.1,92.8,22.7
							c1.7,0,3.3,0,5,0c54.1,0,97.8-10.2,97.8-22.7l10.2-18.6l20.5-37.2l7-12.7l8.8-15.9l43.1-78.1l74.2-134.5l83.6-151.6l8.3-15.2
							l92.3-167.5l58.7-106.5L2162,1339c-60.1-46.1-200.5-145.8-405.1-214.4c-30.4-10.2-62.2-19.7-95.4-28.3
							c-7.7-2-15.4-3.9-23.3-5.8c-5.9-1.4-11.8-2.8-17.7-4.1c-4.7-1.1-9.4-2.1-14.2-3.1c0,0,0,0-0.1,0
							c-70.8-15.2-147.1-25.7-228.6-29.1c-9.8-0.4-19.7-0.8-29.7-1c-155.6-3.3-294.1,20-411.9,54.1c-4,1.1-7.9,2.3-11.8,3.5
							c-1.1,0.3-2.3,0.7-3.4,1c-12.5,3.8-24.9,7.7-36.9,11.7c-33,10.9-64.1,22.6-93.2,34.6C668,1208.7,580,1265.1,534.3,1296.5z"/>
					</g>
				</mask>
				<path class="st14" d="M534.3,1296.5l723.6,1183l6.6,10.8l8.8,14.4l15.4,25.2l11.2,18.3c0,12.2,41.1,22.1,92.8,22.7
					c1.7,0,3.3,0,5,0c54.1,0,97.8-10.2,97.8-22.7l10.2-18.6l20.5-37.2l7-12.7l8.8-15.9l43.1-78.1l74.2-134.5l83.6-151.6l8.3-15.2
					l92.3-167.5l58.7-106.5L2162,1339c-60.1-46.1-200.5-145.8-405.1-214.4c-30.4-10.2-62.2-19.7-95.4-28.3c-7.7-2-15.4-3.9-23.3-5.8
					c-5.9-1.4-11.8-2.8-17.7-4.1c-4.7-1.1-9.4-2.1-14.2-3.1c0,0,0,0-0.1,0c-70.8-15.2-147.1-25.7-228.6-29.1
					c-9.8-0.4-19.7-0.8-29.7-1c-155.6-3.3-294.1,20-411.9,54.1c-4,1.1-7.9,2.3-11.8,3.5c-1.1,0.3-2.3,0.7-3.4,1
					c-12.5,3.8-24.9,7.7-36.9,11.7c-33,10.9-64.1,22.6-93.2,34.6C668,1208.7,580,1265.1,534.3,1296.5z"/>
			</g>
		</g>
		<g>
			<g>
				<g>
					<path class="st15" d="M57.5,913.7l9.7,51.5c3.6,19.4,21.8,32.4,40.7,29.1l73.2-12.8c14.9,44.9,35.6,86.8,61.1,125.1l-58.5,49.3
						c-14.7,12.4-16.3,34.9-3.6,50.2l33.9,41.1c12.8,15.5,35.2,18.1,50.1,5.8l60.6-50.1c34.4,31.6,73,58.8,114.7,80.7l-27.6,76.7
						c-6.7,18.5,3.3,39.7,22.3,47.3l50.9,20.3c19.2,7.7,40.4-1.2,47.2-19.9l28.6-78.1c45.5,11.4,93.1,17.1,141.9,16.3l16,85.3
						c3.8,20.3,23.8,34.6,44.7,32l56-7.1c21.2-2.7,35.3-21.5,31.4-42l-16.2-86.2c48.1-12.6,93.3-31.4,134.8-55.4l59.6,68.9
						c14.4,16.6,39.9,19.6,57,6.6l45.9-34.7c17.3-13.1,19.6-37.4,5-54.1l-59.9-68.5c35.5-34.8,66-74.4,90.4-117.5l87.3,30.9
						c21.8,7.7,45.9-2.4,53.9-22.7l21.4-54c8.1-20.4-3.3-43.1-25.2-50.6l-86.2-29.6c12.6-48.2,18.4-98.6,16.4-150.1l88.4-15.5
						c23.2-4.1,38.8-24.8,34.7-46.4l-10.8-57.4c-4.1-21.6-26.2-35.6-49.3-31.3l-86,16c-15.5-50.2-38.1-96.7-66.5-138.7l64.2-53.1
						c17.8-14.7,20.1-39.9,5.2-56.1l-39.6-43c-14.8-16.1-41.1-17.2-58.7-2.4l-61.9,52.2c-39.3-34.2-83.4-62.7-130.8-84.4l26.2-71.6
						c7.6-20.7-3.3-42.6-24.3-48.8l-55.5-16.5c-20.7-6.2-43.5,5.5-50.9,26.1l-25.1,69.9c-50.2-9.2-102.2-11.4-154.7-6.1l-13.1-69.6
						c-3.9-20.5-23.9-33.2-44.6-28.3l-54.9,12.9c-20.5,4.8-34,25.2-30.2,45.5l12.9,68.9c-48.6,17.3-93.4,41-133.5,69.8l-45.1-51.6
						c-13.2-15.1-36.2-16-51.3-2.1l-40.2,36.7c-15,13.7-16.7,37-3.7,52l45.2,52.3c-31.7,37-58.1,78.2-78.5,122.1l-65.7-22.6
						c-18.4-6.3-38.4,4-44.7,22.9l-16.7,50.2c-6.3,18.8,3.4,39.3,21.6,45.7l66.7,23.6c-8.9,45.5-11.7,92.7-7.8,140.6l-71.1,13.2
						C66.1,875.8,53.8,894.4,57.5,913.7z M307.8,886.9C270.9,690.1,400,496.7,602.3,453.6c209.5-44.6,416.6,87.9,456,297.4
						c39.3,209.5-106.1,405.9-318,437.6C535.6,1219.2,344.8,1083.7,307.8,886.9z"/>
					<polygon class="st15" points="800.5,210.6 850.8,199.4 876.8,241.5 					"/>
					<polygon class="st15" points="302.2,325.9 243.9,337.4 252,380.5 					"/>
					<polygon class="st15" points="118.6,575.5 60.8,588.8 81.5,618.6 					"/>
					<polygon class="st15" points="80,873.9 22.1,889.6 46.6,914.5 					"/>
					<polygon class="st15" points="253.6,1259 198,1277.8 182.3,1232.5 					"/>
					<polygon class="st15" points="511.3,1428.1 461.8,1447.1 450.7,1410 					"/>
					<polygon class="st15" points="784.5,1470.9 829,1454.1 778.4,1402.7 					"/>
					<polygon class="st15" points="1024.4,1374.6 1075.9,1353.5 1025.2,1311.2 					"/>
					<polygon class="st15" points="1145.3,358.7 1089.7,370.9 1119.5,407.5 					"/>
					<polygon class="st15" points="1338.8,776.2 1289,793.4 1285.2,750.7 					"/>
					<polygon class="st15" points="1286.3,1103.6 1237.8,1121.2 1227.5,1088.8 					"/>
				</g>
				<path class="st16" d="M0.6,929.5l9.8,52c3.7,19.5,22,32.7,41,29.4l73.8-12.9c15,45.3,35.9,87.5,61.6,126.1l-59,49.7
					c-14.8,12.5-16.4,35.1-3.6,50.6l34.1,41.4c12.9,15.6,35.5,18.2,50.5,5.8L270,1221c34.7,31.9,73.6,59.2,115.6,81.3l-27.8,77.3
					c-6.7,18.7,3.3,40,22.5,47.7l51.3,20.5c19.4,7.7,40.7-1.2,47.6-20l28.8-78.8c45.8,11.5,93.9,17.2,143.1,16.4l16.1,86
					c3.8,20.5,24,34.9,45.1,32.3l56.4-7.1c21.4-2.7,35.6-21.7,31.7-42.4l-16.3-86.9c48.5-12.7,94-31.6,135.9-55.9l60,69.5
					c14.5,16.7,40.2,19.8,57.5,6.7l46.3-35c17.5-13.2,19.8-37.7,5-54.5l-60.4-69.1c35.8-35.1,66.5-75,91.2-118.5l88.1,31.1
					c21.9,7.8,46.3-2.5,54.4-22.9l21.5-54.5c8.1-20.6-3.3-43.4-25.4-51l-86.9-29.8c12.7-48.6,18.5-99.4,16.5-151.3l89.2-15.6
					c23.4-4.1,39.1-25.1,35-46.8l-10.9-57.9c-4.1-21.8-26.4-35.9-49.7-31.5l-86.7,16.1c-15.6-50.6-38.4-97.5-67.1-139.8l64.7-53.5
					c17.9-14.8,20.3-40.2,5.2-56.6l-39.9-43.4c-15-16.3-41.4-17.3-59.1-2.4l-62.4,52.6c-39.6-34.5-84.1-63.2-131.9-85.1l26.4-72.2
					c7.6-20.9-3.4-42.9-24.5-49.2l-55.9-16.6c-20.9-6.2-43.9,5.6-51.3,26.3L743.7,307c-50.6-9.3-103-11.5-156-6.1l-13.2-70.2
					c-3.9-20.7-24.1-33.5-45-28.6l-55.3,13c-20.7,4.9-34.3,25.4-30.4,45.9l13,69.4c-49,17.5-94.2,41.4-134.6,70.4l-45.5-52.1
					c-13.3-15.2-36.5-16.1-51.8-2.1l-40.5,37c-15.1,13.9-16.8,37.3-3.7,52.4l45.5,52.7c-32,37.3-58.6,78.8-79.2,123.1l-66.3-22.7
					c-18.5-6.4-38.7,4-45,23.1l-16.9,50.6c-6.3,19,3.4,39.6,21.8,46.1l67.2,23.8c-8.9,45.9-11.8,93.5-7.8,141.8l-71.7,13.3
					C9.3,891.2-3,909.9,0.6,929.5z M253.1,902.5C215.8,704.1,346,509,550,465.6c211.2-45,420.1,88.6,459.7,299.8
					c39.7,211.2-107,409.2-320.6,441.2C482.8,1237.4,290.3,1100.9,253.1,902.5z"/>
			</g>
		</g>
		<g>
			<g>
				<g>
					<path class="st15" d="M264.9,2115.1l5.2,27.5c1.9,10.3,11.6,17.3,21.7,15.5l39-6.8c7.9,23.9,19,46.3,32.6,66.7l-31.2,26.3
						c-7.8,6.6-8.7,18.6-1.9,26.8l18.1,21.9c6.8,8.3,18.8,9.7,26.7,3.1l32.3-26.7c18.3,16.8,38.9,31.3,61.1,43l-14.7,40.9
						c-3.6,9.9,1.8,21.2,11.9,25.2l27.1,10.8c10.3,4.1,21.5-0.6,25.2-10.6l15.2-41.7c24.2,6.1,49.6,9.1,75.6,8.7l8.5,45.5
						c2,10.8,12.7,18.5,23.8,17.1l29.8-3.8c11.3-1.4,18.8-11.5,16.8-22.4l-8.6-46c25.6-6.7,49.7-16.7,71.9-29.5l31.8,36.7
						c7.7,8.9,21.3,10.4,30.4,3.5l24.5-18.5c9.2-7,10.4-19.9,2.7-28.8l-31.9-36.5c18.9-18.6,35.2-39.7,48.2-62.7l46.6,16.5
						c11.6,4.1,24.5-1.3,28.8-12.1l11.4-28.8c4.3-10.9-1.7-23-13.4-27L884,2133c6.7-25.7,9.8-52.6,8.7-80l47.1-8.2
						c12.4-2.2,20.7-13.2,18.5-24.8l-5.7-30.6c-2.2-11.5-13.9-19-26.3-16.7l-45.8,8.5c-8.2-26.8-20.3-51.6-35.5-74l34.2-28.3
						c9.5-7.8,10.7-21.3,2.8-29.9l-21.1-22.9c-7.9-8.6-21.9-9.1-31.3-1.3l-33,27.8c-20.9-18.3-44.5-33.4-69.8-45l14-38.2
						c4-11-1.8-22.7-13-26l-29.6-8.8c-11.1-3.3-23.2,3-27.1,13.9l-13.4,37.3c-26.8-4.9-54.5-6.1-82.5-3.2l-7-37.1
						c-2.1-10.9-12.7-17.7-23.8-15.1l-29.3,6.9c-10.9,2.6-18.1,13.4-16.1,24.3l6.9,36.7c-25.9,9.2-49.8,21.9-71.2,37.2l-24.1-27.5
						c-7-8-19.3-8.5-27.4-1.1l-21.4,19.6c-8,7.3-8.9,19.7-2,27.7l24.1,27.9c-16.9,19.8-31,41.7-41.9,65.1l-35-12
						c-9.8-3.4-20.4,2.1-23.8,12.2l-8.9,26.8c-3.3,10,1.8,20.9,11.5,24.4l35.5,12.6c-4.7,24.3-6.2,49.4-4.1,75l-37.9,7.1
						C269.5,2094.9,263,2104.7,264.9,2115.1z M398.4,2100.8c-19.7-104.9,49.1-208,157-231c111.7-23.8,222.1,46.9,243.1,158.6
						c21,111.7-56.6,216.4-169.5,233.3C519.9,2277.9,418.1,2205.7,398.4,2100.8z"/>
					<polygon class="st15" points="661.1,1740.2 687.9,1734.2 701.7,1756.7 					"/>
					<polygon class="st15" points="395.4,1801.7 364.3,1807.8 368.6,1830.8 					"/>
					<polygon class="st15" points="297.5,1934.7 266.7,1941.8 277.8,1957.8 					"/>
					<polygon class="st15" points="276.9,2093.8 246.1,2102.2 259.2,2115.5 					"/>
					<polygon class="st15" points="369.5,2299.1 339.9,2309.2 331.5,2285.1 					"/>
					<polygon class="st15" points="506.9,2389.3 480.5,2399.4 474.6,2379.7 					"/>
					<polygon class="st15" points="652.6,2412.1 676.3,2403.2 649.3,2375.8 					"/>
					<polygon class="st15" points="780.4,2360.8 807.9,2349.5 780.8,2327 					"/>
					<polygon class="st15" points="844.9,1819.1 815.3,1825.7 831.1,1845.2 					"/>
					<polygon class="st15" points="948,2041.7 921.5,2050.9 919.5,2028.1 					"/>
					<polygon class="st15" points="920.1,2216.3 894.2,2225.7 888.7,2208.4 					"/>
				</g>
				<path class="st16" d="M234.6,2123.5l5.2,27.7c2,10.4,11.7,17.4,21.9,15.7l39.3-6.9c8,24.1,19.1,46.7,32.9,67.2l-31.4,26.5
					c-7.9,6.7-8.8,18.7-1.9,27l18.2,22.1c6.9,8.3,18.9,9.7,26.9,3.1l32.6-26.9c18.5,17,39.2,31.6,61.6,43.4l-14.8,41.2
					c-3.6,10,1.8,21.3,12,25.4l27.3,10.9c10.3,4.1,21.7-0.6,25.4-10.7l15.4-42c24.4,6.1,50,9.2,76.3,8.8l8.6,45.8
					c2,10.9,12.8,18.6,24,17.2l30.1-3.8c11.4-1.4,19-11.6,16.9-22.6l-8.7-46.3c25.8-6.8,50.1-16.9,72.4-29.8l32,37
					c7.7,8.9,21.4,10.5,30.7,3.5l24.7-18.7c9.3-7.1,10.5-20.1,2.7-29.1l-32.2-36.8c19.1-18.7,35.5-40,48.6-63.2l46.9,16.6
					c11.7,4.1,24.7-1.3,29-12.2l11.5-29c4.3-11-1.7-23.1-13.6-27.2l-46.3-15.9c6.8-25.9,9.9-53,8.8-80.7l47.5-8.3
					c12.5-2.2,20.8-13.4,18.7-25l-5.8-30.9c-2.2-11.6-14.1-19.1-26.5-16.8l-46.2,8.6c-8.3-27-20.5-52-35.8-74.6l34.5-28.5
					c9.6-7.9,10.8-21.4,2.8-30.2l-21.3-23.1c-8-8.7-22.1-9.2-31.5-1.3l-33.3,28c-21.1-18.4-44.8-33.7-70.3-45.4l14.1-38.5
					c4.1-11.1-1.8-22.9-13.1-26.2l-29.8-8.8c-11.2-3.3-23.4,3-27.4,14l-13.5,37.6c-27-4.9-54.9-6.2-83.2-3.3l-7-37.4
					c-2.1-11-12.8-17.8-24-15.2l-29.5,6.9c-11,2.6-18.3,13.5-16.2,24.5l6.9,37c-26.1,9.3-50.2,22.1-71.8,37.5l-24.3-27.8
					c-7.1-8.1-19.4-8.6-27.6-1.1l-21.6,19.7c-8.1,7.4-9,19.9-2,27.9l24.3,28.1c-17.1,19.9-31.3,42-42.2,65.6l-35.3-12.1
					c-9.9-3.4-20.6,2.1-24,12.3l-9,27c-3.4,10.1,1.8,21.1,11.6,24.6l35.8,12.7c-4.8,24.5-6.3,49.8-4.2,75.6l-38.2,7.1
					C239.3,2103.1,232.7,2113.1,234.6,2123.5z M369.2,2109.1c-19.9-105.8,49.5-209.7,158.3-232.9c112.6-24,224,47.2,245.1,159.8
					c21.1,112.6-57,218.2-170.9,235.2C491.7,2287.7,389.1,2214.8,369.2,2109.1z"/>
			</g>
		</g>
		<g>
			<ellipse class="st16" cx="679.1" cy="1085.7" rx="175.3" ry="246.4"/>
			<path class="st11" d="M1215,488.7h330c338.4,0,612.7,274.3,612.7,612.7v0c0,180.6-146.4,326.9-326.9,326.9H929.2
				c-180.6,0-326.9-146.4-326.9-326.9v0C602.3,763,876.6,488.7,1215,488.7z"/>
			<path class="st11" d="M1273,2098.3h214.1c219.5,0,397.5-178,397.5-397.5v0c0-117.1-95-212.1-212.1-212.1h-584.9
				c-117.1,0-212.1,95-212.1,212.1v0C875.4,1920.3,1053.4,2098.3,1273,2098.3z"/>
			<g>
				
					<linearGradient id="SVGID_16_" gradientUnits="userSpaceOnUse" x1="1027.7657" y1="1091.4062" x2="1946.6208" y2="1091.4062" gradientTransform="matrix(-1 0 0 1 2725.2805 0)">
					<stop  offset="0" style="stop-color:#444B8C"/>
					<stop  offset="0.9964" style="stop-color:#26264F"/>
				</linearGradient>
				<path class="st17" d="M915.4,1296.2h627.3c85,0,154.8-65.2,154.8-145.5v-123.3c0-80.4-69.7-143.3-154.8-140.6l-627.3,20
					c-75.9,2.4-136.8,64.9-136.8,139.6v114.5C778.7,1235.6,839.5,1296.2,915.4,1296.2z"/>
				<g>
					<g>
						<path class="st11" d="M1341.8,1082.4c0,53.7,45.7,96.6,102.5,95.9c57.3-0.7,104.2-45.5,104.2-100.1
							c0-54.6-46.9-97.5-104.2-95.9C1387.5,984,1341.8,1028.8,1341.8,1082.4z"/>
						<path class="st11" d="M917.8,1091.1c0,51.9,42.7,93.4,95.7,92.7c53.5-0.7,97.2-44,97.2-96.7s-43.7-94.2-97.2-92.7
							C960.5,995.9,917.8,1039.2,917.8,1091.1z"/>
					</g>
				</g>
			</g>
			<path class="st18" d="M1152.4,1342.4c93.3-109.6,51.8-197.3,173.8-345.8c167.8-204.4,363.6-181.3,408.4-319.9
				c12.4-38.4,13.9-91.1-19.5-164c255.6,73.7,442.6,309.4,442.6,588.7v0c0,180.6-146.4,326.9-326.9,326.9h-785.7
				C1092.2,1402.7,1126.5,1372.7,1152.4,1342.4z"/>
			<ellipse class="st16" cx="2069.5" cy="1084" rx="175.3" ry="246.4"/>
			<ellipse class="st19" cx="2208.2" cy="1084" rx="76.7" ry="107.7"/>
			<path class="st20" d="M1220.2,1879.5c29.4-138,354.3-134.6,363.1-224.8c6.8-69.5-179.7-138.3-203.2-147
				c-20-7.4-39.9-13.7-59.6-19h351.9c117.1,0,212.1,95,212.1,212.1v0c0,219.5-178,397.5-397.5,397.5h-214.1
				c-20.6,0-40.8-1.6-60.5-4.6c18.6-23.1,30.8-48.4,33.7-75.9C1252.7,1956.7,1208.8,1932.9,1220.2,1879.5z"/>
			<ellipse class="st16" cx="1374.7" cy="1500.5" rx="338.1" ry="40.9"/>
		</g>
		<g>
			
				<linearGradient id="SVGID_17_" gradientUnits="userSpaceOnUse" x1="1504.7393" y1="1597.6918" x2="2596.1997" y2="1597.6918" gradientTransform="matrix(-1 0 0 1 2725.2805 0)">
				<stop  offset="0" style="stop-color:#40447E"/>
				<stop  offset="0.9964" style="stop-color:#3C3B6B"/>
			</linearGradient>
			<path class="st21" d="M246.4,1466.6c57.7-22.1,120.9-11,171.7,24.3c18.6-92.9,77.6-171.5,165.6-205.3
				c144.1-55.3,311.2,31,373.1,192.6c16,41.7,23.4,84.3,23.2,125.5c7.4-4.7,15.4-8.7,23.8-11.9c78.7-30.2,170,16.9,203.9,105.3
				c33.9,88.3-1.3,187.6-81.2,214.6c-42.7,14.4-110.2,14.7-110.2,14.7s-656.7-48.9-676.9-48.7c-80.9,0.7-160.6-54.7-194.5-142.9
				C102.6,1624.4,148,1504.4,246.4,1466.6z"/>
			
				<linearGradient id="SVGID_18_" gradientUnits="userSpaceOnUse" x1="2299.1211" y1="1457.9579" x2="1826.1488" y2="1991.9584" gradientTransform="matrix(-1 0 0 1 2725.2805 0)">
				<stop  offset="0" style="stop-color:#AA80F9"/>
				<stop  offset="0.9964" style="stop-color:#6165D7"/>
			</linearGradient>
			<path class="st22" d="M226.9,1466.7c57.7-22.1,120.9-11,171.7,24.3c18.6-92.9,77.6-171.5,165.6-205.3
				c144.1-55.3,311.2,31,373.1,192.6c16,41.7,23.4,84.3,23.2,125.5c7.4-4.7,15.4-8.7,23.8-11.9c78.7-30.2,170,16.9,203.9,105.3
				c33.9,88.3-2.5,184.4-81.2,214.6c-16.7,6.4-110.2,14.7-110.2,14.7s-656.7-48.9-676.9-48.7c-80.9,0.7-160.6-54.7-194.5-142.9
				C83.1,1624.5,128.5,1504.4,226.9,1466.7z"/>
		</g>
		<g>
			<path class="st11" d="M1781.7,1611.1c25.1,20.6,28.8,57.7,8.2,82.8L1620.1,1901l-91-74.6l169.7-207.1
				C1719.5,1594.1,1756.5,1590.5,1781.7,1611.1z"/>
			<path class="st11" d="M1249.6,1807c3.7-32.3,32.8-55.5,65.1-51.8l266.1,30.3l-13.3,116.9l-266.1-30.3
				C1269.2,1868.4,1246,1839.2,1249.6,1807z"/>
			
				<linearGradient id="SVGID_19_" gradientUnits="userSpaceOnUse" x1="1214.3317" y1="1766.4016" x2="1023.6544" y2="2007.257" gradientTransform="matrix(-1 0 0 1 2725.2805 0)">
				<stop  offset="0" style="stop-color:#444B8C"/>
				<stop  offset="0.9964" style="stop-color:#26264F"/>
			</linearGradient>
			<circle class="st23" cx="1580.8" cy="1854.6" r="85.4"/>
		</g>
		
			<linearGradient id="SVGID_20_" gradientUnits="userSpaceOnUse" x1="6370.8477" y1="-1054.1338" x2="6168.0889" y2="-798.0176" gradientTransform="matrix(-0.2225 0.7493 0.9777 0.2903 3583.0435 -2630.4827)">
			<stop  offset="0" style="stop-color:#444B8C"/>
			<stop  offset="0.9964" style="stop-color:#26264F"/>
		</linearGradient>
		<path class="st24" d="M1303.9,1766l-43.9,107.9c-6.5,16-31.3,20.8-50.2,9.4c-27.7-16.7-58-45.1-45.7-86.3
			c15.5-52.1,61.5-67.1,99.3-70.1C1289,1724.9,1311.7,1746.9,1303.9,1766z"/>
	</g>
</g>
</svg>
