<?xml version="1.0" encoding="utf-8"?>
<!-- Generator: Adobe Illustrator 25.2.0, SVG Export Plug-In . SVG Version: 6.00 Build 0)  -->
<svg version="1.1" id="Capa_1" xmlns="http://www.w3.org/2000/svg" xmlns:xlink="http://www.w3.org/1999/xlink" x="0px" y="0px"
	 viewBox="0 0 160 130" style="enable-background:new 0 0 160 130;" xml:space="preserve">
<style type="text/css">
	.st0{fill:#EF4424;}
	.st1{fill:#01D0FB;}
	.st2{fill:#01C0FA;}
	.st3{fill:#FD5426;}
	.st4{fill:#FEF1DA;}
	.st5{fill:#FDD79B;}
	.st6{fill:#FAC600;}
	.st7{fill:#E8B800;}
	.st8{fill:#FEDF30;}
	.st9{fill:#C99C56;}
	.st10{fill:#FED402;}
	.st11{fill:#FEE97D;}
</style>
<g>
	<g>
		<g>
			<path class="st0" d="M121.2,65l0,0.3c0,15.1-8.3,29-21.7,36.2v0.6h15.1l0.4-0.3c9.7-9.2,15.7-22.1,15.7-36.5l-0.5-0.3L121.2,65z"
				/>
		</g>
		<g>
			<path class="st1" d="M41.5,81.3l0.6,0.1l-0.2-0.5c-2.1-5-3.1-10.2-3.1-15.7c0-15,8.2-28.9,21.4-36.1v-0.6H45.7l-0.8,0.3
				C35.2,38.1,29.2,51,29.2,65.3c0,5.7,1,11.2,2.7,16.3c1.8-0.4,3.6-0.6,5.5-0.6C38.8,81,40.1,81.1,41.5,81.3z"/>
			<path class="st1" d="M159.1,107.4l-19.6-11.3c-1.1-0.6-2.5,0.2-2.5,1.4v4.3H99c-5.7,3-12.2,4.7-19,4.7c-6.3,0-12.3-1.4-17.9-4.1
				l-0.5-0.2l0.1,0.6c0.1,0.9,0.1,1.8,0.1,2.7c0,2.3-0.3,4.6-1,6.7c5.9,2.4,12.4,3.7,19.2,3.7h57v4.3c0,1.3,1.4,2.1,2.5,1.4
				l19.6-11.3C160.1,109.6,160.1,108,159.1,107.4L159.1,107.4z"/>
		</g>
		<g>
			<path class="st2" d="M34.7,65.3c0-14.3,6-27.3,15.7-36.5h-5.4C35.2,38.1,29.2,51,29.2,65.3c0,5.7,1,11.2,2.7,16.3
				c1.7-0.4,3.4-0.6,5.2-0.6C35.5,76.1,34.7,70.8,34.7,65.3L34.7,65.3z"/>
		</g>
		<g>
			<path class="st3" d="M80,24c6.6,0,12.9,1.6,18.5,4.4c-0.2-1.2-0.3-2.5-0.3-3.8c0-2.1,0.3-4.2,0.8-6.2c-5.9-2.3-12.3-3.6-19-3.6
				H23v-4.3c0-1.3-1.4-2.1-2.5-1.4L0.9,20.4c-1.1,0.6-1.1,2.2,0,2.8l19.6,11.3c1.1,0.6,2.5-0.2,2.5-1.4v-4.3h37.7
				C66.4,25.8,73,24,80,24L80,24z"/>
			<path class="st3" d="M121.2,65.3C121.2,65.3,121.2,65.3,121.2,65.3l9.5,0.1c0-5.9-1-11.6-2.9-16.9c-1.7,0.4-3.5,0.6-5.3,0.6
				c-1.7,0-3.3-0.2-4.9-0.5C119.9,53.6,121.2,59.3,121.2,65.3z"/>
		</g>
		<g>
			<g>
				<path class="st0" d="M6.2,18c-0.2-0.1-0.3-0.2-0.4-0.4l-4.9,2.8c-1.1,0.6-1.1,2.2,0,2.8l19.6,11.3c1.1,0.6,2.5-0.2,2.5-1.4v-4.3
					h2.1L6.2,18z"/>
			</g>
		</g>
		<g>
			<path class="st4" d="M99,31c-5.6-3.1-12.1-4.9-19-4.9c-21.6,0-39.2,17.5-39.2,39.2c0,6,1.4,11.7,3.8,16.8
				c8.1,2.5,14.4,9.2,16.5,17.5c5.6,3.1,12.1,4.9,18.9,4.9c21.6,0,39.2-17.5,39.2-39.2c0-6.3-1.5-12.2-4.1-17.4
				C107.3,45.3,101.2,39,99,31L99,31z"/>
		</g>
		<g>
			<path class="st5" d="M47.9,83.4c-3-5.4-4.8-11.5-4.8-18.1c0-20.3,16.5-36.8,36.8-36.8c7.5,0,14.4,2.2,20.3,6.1
				c-0.9-2-1.5-4.2-1.8-6.5c-5.6-2.8-11.8-4.3-18.4-4.3c-22.9,0-41.5,18.6-41.5,41.5c0,5.7,1.2,11.2,3.3,16.1
				C43.9,81.8,46,82.4,47.9,83.4z"/>
			<path class="st5" d="M111.7,46.4c3.3,5.5,5.2,11.9,5.2,18.8c0,20.3-16.5,36.8-36.8,36.8c-7.4,0-14.3-2.2-20-5.9
				c0.8,2,1.4,4.1,1.6,6.3c5.6,2.8,11.8,4.3,18.4,4.3c22.9,0,41.5-18.6,41.5-41.5c0-5.9-1.3-11.6-3.5-16.7
				C115.8,48.2,113.6,47.4,111.7,46.4z"/>
		</g>
		<g>
			<g>
				<circle class="st6" cx="80" cy="65.3" r="27.5"/>
			</g>
			<g>
				<path class="st7" d="M63.3,65.3c0-13.3,9.5-24.4,22.1-26.9c-1.7-0.3-3.5-0.5-5.4-0.5c-15.2,0-27.5,12.3-27.5,27.5
					S64.8,92.7,80,92.7c1.8,0,3.6-0.2,5.4-0.5C72.8,89.7,63.3,78.6,63.3,65.3z"/>
			</g>
			<g>
				<path class="st8" d="M80,95.1c-16.4,0-29.8-13.4-29.8-29.8c0-16.4,13.4-29.8,29.8-29.8c16.4,0,29.8,13.4,29.8,29.8
					C109.8,81.7,96.4,95.1,80,95.1L80,95.1z M80,40.1c-13.9,0-25.1,11.3-25.1,25.1c0,13.9,11.3,25.1,25.1,25.1s25.1-11.3,25.1-25.1
					C105.1,51.4,93.8,40.1,80,40.1L80,40.1z"/>
			</g>
			<path class="st9" d="M83.1,62.9h-6.3c-1.9,0-3.4-1.5-3.4-3.4s1.5-3.4,3.4-3.4H88c1.3,0,2.3-1,2.3-2.3s-1-2.3-2.3-2.3h-5.6V48
				c0-1.3-1-2.3-2.3-2.3c-1.3,0-2.3,1-2.3,2.3v3.5h-0.8c-4.4,0-8.1,3.6-8.1,8.1s3.6,8.1,8.1,8.1h6.3c1.9,0,3.4,1.5,3.4,3.4
				c0,1.9-1.5,3.4-3.4,3.4H72c-1.3,0-2.3,1-2.3,2.3s1,2.3,2.3,2.3h5.6v3.5c0,1.3,1,2.3,2.3,2.3c1.3,0,2.3-1,2.3-2.3V79h0.8
				c4.4,0,8.1-3.6,8.1-8.1S87.6,62.9,83.1,62.9L83.1,62.9z"/>
		</g>
		<g>
			<g>
				<circle class="st10" cx="122.5" cy="24.7" r="22.3"/>
			</g>
			<g>
				<path class="st6" d="M110.9,24.7c0-10.5,7.2-19.3,17-21.7c-1.7-0.4-3.5-0.7-5.4-0.7c-12.3,0-22.3,10-22.3,22.3
					c0,12.3,10,22.3,22.3,22.3c1.8,0,3.6-0.2,5.4-0.7C118.1,43.9,110.9,35.1,110.9,24.7z"/>
			</g>
			<g>
				<path class="st11" d="M122.5,49.3c-13.6,0-24.7-11.1-24.7-24.7S108.9,0,122.5,0c13.6,0,24.7,11.1,24.7,24.7
					S136.1,49.3,122.5,49.3z M122.5,4.7c-11,0-20,9-20,20s9,20,20,20s20-9,20-20S133.5,4.7,122.5,4.7z"/>
			</g>
			<path class="st9" d="M125.1,22.3h-5.1c-1.3,0-2.3-1-2.3-2.3s1-2.3,2.3-2.3h9c1.3,0,2.3-1,2.3-2.3s-1-2.3-2.3-2.3h-4.1v-2.4
				c0-1.3-1-2.3-2.3-2.3s-2.3,1-2.3,2.3V13h-0.2c-3.8,0-7,3.1-7,7s3.1,7,7,7h5.1c1.3,0,2.3,1,2.3,2.3s-1,2.3-2.3,2.3h-9
				c-1.3,0-2.3,1-2.3,2.3s1,2.3,2.3,2.3h4.1v2.4c0,1.3,1,2.3,2.3,2.3s2.3-1,2.3-2.3v-2.4h0.2c3.8,0,7-3.1,7-7S128.9,22.3,125.1,22.3
				L125.1,22.3z"/>
		</g>
		<g>
			<g>
				<circle class="st10" cx="37.4" cy="105.3" r="22.3"/>
			</g>
			<g>
				<path class="st6" d="M26,105.3c0-10.4,7.2-19.2,16.9-21.6c-1.7-0.4-3.6-0.7-5.4-0.7c-12.3,0-22.3,10-22.3,22.3
					c0,12.3,10,22.3,22.3,22.3c1.9,0,3.7-0.2,5.4-0.7C33.2,124.6,26,115.8,26,105.3L26,105.3z"/>
			</g>
			<g>
				<path class="st11" d="M37.4,130c-13.6,0-24.7-11.1-24.7-24.7s11.1-24.7,24.7-24.7s24.7,11.1,24.7,24.7S51,130,37.4,130z
					 M37.4,85.4c-11,0-20,9-20,20s9,20,20,20s20-9,20-20S48.4,85.4,37.4,85.4z"/>
			</g>
			<path class="st9" d="M40,103h-5.1c-1.3,0-2.3-1-2.3-2.3s1-2.3,2.3-2.3h9c1.3,0,2.3-1,2.3-2.3s-1-2.3-2.3-2.3h-4.1v-2.4
				c0-1.3-1-2.3-2.3-2.3s-2.3,1-2.3,2.3v2.4h-0.2c-3.8,0-7,3.1-7,7s3.1,7,7,7H40c1.3,0,2.3,1,2.3,2.3c0,1.3-1,2.3-2.3,2.3h-9
				c-1.3,0-2.3,1-2.3,2.3s1,2.3,2.3,2.3h4.1v2.4c0,1.3,1,2.3,2.3,2.3s2.3-1,2.3-2.3V117H40c3.8,0,7-3.1,7-7S43.8,103,40,103z"/>
		</g>
	</g>
	<g>
		<g>
			<path class="st0" d="M69.4,6.6H35.9c-1.3,0-2.3-1-2.3-2.3s1-2.3,2.3-2.3h33.4c1.3,0,2.3,1,2.3,2.3S70.7,6.6,69.4,6.6z"/>
		</g>
		<g>
			<path class="st2" d="M120.2,128.1H86.7c-1.3,0-2.3-1-2.3-2.3s1-2.3,2.3-2.3h33.4c1.3,0,2.3,1,2.3,2.3S121.5,128.1,120.2,128.1z"
				/>
		</g>
	</g>
</g>
</svg>
