<?xml version="1.0" encoding="utf-8"?>
<!-- Generator: Adobe Illustrator 25.2.0, SVG Export Plug-In . SVG Version: 6.00 Build 0)  -->
<svg version="1.1" id="Capa_1" xmlns="http://www.w3.org/2000/svg" xmlns:xlink="http://www.w3.org/1999/xlink" x="0px" y="0px"
	 viewBox="0 0 148.5 130" style="enable-background:new 0 0 148.5 130;" xml:space="preserve">
<style type="text/css">
	.st0{fill:#FDF6EC;}
	.st1{fill:#FEF1DA;}
	.st2{fill:#FD5426;}
	.st3{fill:#EF4424;}
	.st4{fill:#FED402;}
	.st5{fill:#FAC600;}
	.st6{fill:#05E39C;}
	.st7{fill:#0ED290;}
	.st8{fill:#01D0FB;}
	.st9{fill:#01C0FA;}
	.st10{fill:#E8B800;}
	.st11{fill:#7CA1B1;}
	.st12{fill:#A8D3D8;}
	.st13{fill:#678D98;}
	.st14{fill:#537983;}
	.st15{fill:#C8EFFE;}
	.st16{fill:#99E6FC;}
</style>
<g>
	<g>
		<path class="st0" d="M143,14H5.5l-0.8,0.3v90.6c0,1.8,1.4,3.2,3.2,3.2h132.8c1.8,0,3.2-1.4,3.2-3.2V14.4L143,14z"/>
	</g>
	<g>
		<path class="st1" d="M16,105V14.4H4.6V105c0,1.8,1.4,3.2,3.2,3.2h11.4C17.4,108.2,16,106.8,16,105L16,105z"/>
	</g>
	<g>
		<g>
			<g>
				<g>
					<path class="st2" d="M78.7,69.5h-7.9c-0.5,0-0.8-0.4-0.8-0.8V58.6c0-0.5,0.4-0.8,0.8-0.8h7.9c0.5,0,0.8,0.4,0.8,0.8v10.2
						C79.6,69.1,79.2,69.5,78.7,69.5z"/>
				</g>
			</g>
		</g>
		<g>
			<path class="st3" d="M74.5,68.7V58.6c0-0.5,0.4-0.8,0.8-0.8h-4.6c-0.5,0-0.8,0.4-0.8,0.8v10.2c0,0.5,0.4,0.8,0.8,0.8h4.6
				C74.9,69.5,74.5,69.1,74.5,68.7z"/>
		</g>
		<g>
			<g>
				<g>
					<path class="st4" d="M96.1,69.5h-7.9c-0.5,0-0.8-0.4-0.8-0.8v-20c0-0.5,0.4-0.8,0.8-0.8h7.9c0.5,0,0.8,0.4,0.8,0.8v20
						C97,69.1,96.6,69.5,96.1,69.5z"/>
				</g>
			</g>
		</g>
		<g>
			<path class="st5" d="M91.9,68.7v-20c0-0.5,0.4-0.8,0.8-0.8h-4.5c-0.5,0-0.8,0.4-0.8,0.8v20c0,0.5,0.4,0.8,0.8,0.8h4.5
				C92.3,69.5,91.9,69.1,91.9,68.7z"/>
		</g>
		<g>
			<g>
				<g>
					<path class="st6" d="M113.4,69.5h-7.9c-0.5,0-0.8-0.4-0.8-0.8V29.5c0-0.5,0.4-0.8,0.8-0.8h7.9c0.5,0,0.8,0.4,0.8,0.8v39.1
						C114.3,69.1,113.9,69.5,113.4,69.5z"/>
				</g>
			</g>
		</g>
		<g>
			<path class="st7" d="M109.5,68.7V29.5c0-0.5,0.4-0.8,0.8-0.8h-4.8c-0.5,0-0.8,0.4-0.8,0.8v39.1c0,0.5,0.4,0.8,0.8,0.8h4.8
				C109.8,69.5,109.5,69.1,109.5,68.7z"/>
		</g>
		<g>
			<g>
				<g>
					<path class="st8" d="M130.8,69.5h-7.9c-0.5,0-0.8-0.4-0.8-0.8V39.1c0-0.5,0.4-0.8,0.8-0.8h7.9c0.5,0,0.8,0.4,0.8,0.8v29.5
						C131.6,69.1,131.3,69.5,130.8,69.5z"/>
				</g>
			</g>
		</g>
		<g>
			<path class="st9" d="M126.9,68.7V39.1c0-0.5,0.4-0.8,0.8-0.8H123c-0.5,0-0.8,0.4-0.8,0.8v29.5c0,0.5,0.4,0.8,0.8,0.8h4.7
				C127.2,69.5,126.9,69.1,126.9,68.7z"/>
		</g>
	</g>
	<g>
		<g>
			<path class="st10" d="M34.3,74.5H14.9c-1.1,0-2.1-0.9-2.1-2.1s0.9-2.1,2.1-2.1h19.5c1.1,0,2.1,0.9,2.1,2.1
				C36.4,73.6,35.5,74.5,34.3,74.5z"/>
		</g>
		<g>
			<path class="st10" d="M34.3,83.1H14.9c-1.1,0-2.1-0.9-2.1-2.1c0-1.1,0.9-2.1,2.1-2.1h19.5c1.1,0,2.1,0.9,2.1,2.1
				C36.4,82.2,35.5,83.1,34.3,83.1z"/>
		</g>
		<g>
			<path class="st10" d="M34.3,91.8H14.9c-1.1,0-2.1-0.9-2.1-2.1c0-1.1,0.9-2.1,2.1-2.1h19.5c1.1,0,2.1,0.9,2.1,2.1
				C36.4,90.8,35.5,91.8,34.3,91.8z"/>
		</g>
		<g>
			<path class="st10" d="M26.3,100.3H14.9c-1.1,0-2.1-0.9-2.1-2.1c0-1.1,0.9-2.1,2.1-2.1h11.5c1.1,0,2.1,0.9,2.1,2.1
				C28.4,99.4,27.5,100.3,26.3,100.3z"/>
		</g>
	</g>
	<g>
		<path class="st8" d="M26.1,39.2H13.6c-0.5,0-0.8-0.4-0.8-0.8V26c0-0.5,0.4-0.8,0.8-0.8H26c0.5,0,0.8,0.4,0.8,0.8v12.5
			C26.8,38.9,26.5,39.2,26.1,39.2z"/>
	</g>
	<g>
		<path class="st9" d="M19.6,38.5V26c0-0.5,0.4-0.8,0.8-0.8h-6.7c-0.5,0-0.8,0.4-0.8,0.8v12.5c0,0.5,0.4,0.8,0.8,0.8h6.8
			C19.9,39.2,19.6,38.9,19.6,38.5z"/>
	</g>
	<g>
		<path class="st6" d="M26.1,61.9H13.6c-0.5,0-0.8-0.4-0.8-0.8V48.6c0-0.5,0.4-0.8,0.8-0.8H26c0.5,0,0.8,0.4,0.8,0.8v12.5
			C26.8,61.5,26.5,61.9,26.1,61.9z"/>
	</g>
	<g>
		<path class="st7" d="M19.6,61.1V48.6c0-0.5,0.4-0.8,0.8-0.8h-6.7c-0.5,0-0.8,0.4-0.8,0.8v12.5c0,0.5,0.4,0.8,0.8,0.8h6.8
			C19.9,61.9,19.6,61.5,19.6,61.1L19.6,61.1z"/>
	</g>
	<g>
		<path class="st11" d="M140.7,0H7.8C6.1,0,4.6,1.4,4.6,3.2v11.2h139.2V3.2C143.9,1.4,142.4,0,140.7,0L140.7,0z"/>
	</g>
	<g>
		<path class="st12" d="M131.6,8.9h-6.4c-1.1,0-2.1-0.9-2.1-2.1s0.9-2.1,2.1-2.1h6.4c1.1,0,2.1,0.9,2.1,2.1S132.8,8.9,131.6,8.9z"/>
	</g>
	<g>
		<path class="st13" d="M7.8,0C6.1,0,4.6,1.4,4.6,3.2v11.2h22.9V0H7.8z"/>
	</g>
	<g>
		<path class="st14" d="M19.5,0H7.8C6.1,0,4.6,1.4,4.6,3.2v11.2h11.7V3.2C16.3,1.4,17.7,0,19.5,0z"/>
	</g>
</g>
<g>
	<g>
		<path class="st12" d="M112,94.7l-10.4-10.4c-1.9,2.6-4.2,4.9-6.8,6.8l10.4,10.4L112,94.7z"/>
	</g>
	<g>
		<path class="st13" d="M139.8,121.8l-7.4,7.4c-1.2,1.2-3,1.2-4.2,0l-23.4-23.4c-1.2-1.2-1.2-3,0-4.2l7.4-7.4c1.2-1.2,3-1.2,4.2,0
			l23.4,23.4C140.9,118.7,140.9,120.6,139.8,121.8z"/>
	</g>
	<g>
		<path class="st14" d="M114.6,105.7c-1.2-1.2-1.2-3,0-4.2l4.6-4.6l-2.8-2.8c-1.2-1.2-3-1.2-4.2,0l-7.4,7.4c-1.2,1.2-1.2,3,0,4.2
			l23.4,23.4c1.2,1.2,3,1.2,4.2,0l2.8-2.8L114.6,105.7z"/>
	</g>
	<g>
		<circle class="st13" cx="74.8" cy="64.3" r="33.8"/>
	</g>
	<path class="st14" d="M47.1,64.3c0-17.6,13.5-32.1,30.7-33.6c-1-0.1-2-0.1-3-0.1C56.1,30.6,41,45.7,41,64.3
		C41,83,56.1,98.1,74.8,98.1c1,0,2,0,3-0.1C60.6,96.4,47.1,81.9,47.1,64.3L47.1,64.3z"/>
	<g>
		<circle class="st15" cx="74.8" cy="64.3" r="23.4"/>
	</g>
	<g>
		<path class="st16" d="M60.8,64.3c0-11.3,8-20.7,18.7-22.9c-1.5-0.3-3.1-0.5-4.7-0.5c-12.9,0-23.4,10.5-23.4,23.4
			s10.5,23.4,23.4,23.4c1.6,0,3.2-0.2,4.7-0.5C68.8,85.1,60.8,75.6,60.8,64.3L60.8,64.3z"/>
	</g>
</g>
</svg>
