<?xml version="1.0" encoding="utf-8"?>
<!-- Generator: Adobe Illustrator 25.2.0, SVG Export Plug-In . SVG Version: 6.00 Build 0)  -->
<svg version="1.1" id="Capa_1" xmlns="http://www.w3.org/2000/svg" xmlns:xlink="http://www.w3.org/1999/xlink" x="0px" y="0px"
	 viewBox="0 0 130 130" style="enable-background:new 0 0 130 130;" xml:space="preserve">
<style type="text/css">
	.st0{fill:#D8AA5E;}
	.st1{fill:#C99C56;}
	.st2{fill:#FFFFFF;}
	.st3{fill:#05E39C;}
	.st4{fill:#EEF5F6;}
	.st5{fill:#EF4424;}
	.st6{fill:#D73D24;}
	.st7{fill:#FD5426;}
	.st8{fill:#FED402;}
	.st9{fill:#FAC600;}
	.st10{fill:#0ED290;}
	.st11{fill:#01D0FB;}
	.st12{fill:#01C0FA;}
	.st13{fill:#8EBAC5;}
	.st14{fill:#99E6FC;}
	.st15{fill:#7CA1B1;}
	.st16{fill:#678D98;}
	.st17{fill:#3E5959;}
	.st18{fill:#384949;}
	.st19{fill:#DFF6FD;}
	.st20{fill:#C8EFFE;}
	.st21{fill:#FFDCCE;}
	.st22{fill:#FFD1BE;}
	.st23{fill:#FDF6EC;}
	.st24{fill:#FEF1DA;}
	.st25{fill:#E8B800;}
	.st26{fill:#FAE2C0;}
</style>
<g>
	<g>
		<g>
			<path class="st0" d="M54,52.2V30.7c0-1-0.8-1.9-1.9-1.9H41.5c0,0.1,0,0.1,0,0.2v7.9c0,0.4-0.3,0.7-0.7,0.7H13.2
				c-0.4,0-0.7-0.3-0.7-0.7V29c0-0.1,0-0.1,0-0.2H1.9c-1,0-1.9,0.8-1.9,1.9V94c0,1,0.8,1.9,1.9,1.9l34.9,0.2h15.4
				c1,0,1.9-0.8,1.9-1.9V52.2z"/>
			<path class="st1" d="M8.3,94v-2.8H5.6c-0.5,0-0.9-0.4-0.9-0.9V34.4c0-0.5,0.4-0.9,0.9-0.9h2.7v-2.8c0-1,0.8-1.9,1.9-1.9H1.9
				c-1,0-1.9,0.8-1.9,1.9V94c0,1,0.8,1.9,1.9,1.9h8.3C9.1,95.9,8.3,95.1,8.3,94z"/>
			<path class="st2" d="M49.3,52.2V34.4c0-0.5-0.4-0.9-0.9-0.9h-6.9v3.4c0,0.4-0.3,0.7-0.7,0.7H13.2c-0.4,0-0.7-0.3-0.7-0.7v-3.4
				H5.6c-0.5,0-0.9,0.4-0.9,0.9v55.8c0,0.5,0.4,0.9,0.9,0.9h34.2h9.5V52.2z"/>
			<path class="st3" d="M38.7,65.6H22.3l-0.2,0.2v4l0.2,0.3h16.4c1.3,0,2.3-1,2.3-2.3C40.9,66.6,39.9,65.6,38.7,65.6L38.7,65.6z"/>
			<path class="st4" d="M13.1,90.3V37.5c-0.3-0.1-0.5-0.3-0.5-0.7v-3.4H5.6c-0.5,0-0.9,0.4-0.9,0.9v55.8c0,0.5,0.4,0.9,0.9,0.9H14
				C13.5,91.2,13.1,90.8,13.1,90.3L13.1,90.3z"/>
			<path class="st5" d="M35.1,28.3c-0.1-4.3-3.7-7.8-8.1-7.8c-4.4,0-7.9,3.5-8.1,7.8H35.1z"/>
			<path class="st6" d="M25.6,28.1c0.2-3.1,2.1-5.7,4.7-6.9c-1-0.5-2.1-0.7-3.3-0.7c-4.3,0-7.8,3.4-8.1,7.7H25.6z"/>
			<g>
				<path class="st7" d="M40.8,37.7H13.2c-0.5,0-0.8-0.4-0.8-0.8V29c0-0.5,0.4-0.8,0.8-0.8h27.7c0.5,0,0.8,0.4,0.8,0.8v7.9
					C41.7,37.3,41.3,37.7,40.8,37.7z"/>
			</g>
			<g>
				<path class="st5" d="M19,36.9V29c0-0.5,0.4-0.8,0.8-0.8h-6.6c-0.5,0-0.8,0.4-0.8,0.8v7.9c0,0.5,0.4,0.8,0.8,0.8h6.6
					C19.4,37.7,19,37.3,19,36.9z"/>
			</g>
			<g>
				<path class="st6" d="M35.6,34.1H18.5c-0.6,0-1.2-0.5-1.2-1.2c0-0.6,0.5-1.2,1.2-1.2h17.1c0.6,0,1.2,0.5,1.2,1.2
					C36.7,33.6,36.2,34.1,35.6,34.1L35.6,34.1z"/>
			</g>
		</g>
		<g>
			<g>
				<g>
					<path class="st8" d="M16.6,59.8v-7.8c0-0.3-0.2-0.5-0.5-0.5h-3.4c-0.3,0-0.5,0.2-0.5,0.5v7.8H16.6z"/>
					<path class="st9" d="M14.6,51.6h-1.9c-0.3,0-0.5,0.2-0.5,0.5v7.8h1.9v-7.8C14.1,51.8,14.3,51.6,14.6,51.6L14.6,51.6z"/>
					<path class="st3" d="M25,59.8V43.1c0-0.3-0.2-0.5-0.5-0.5h-3.4c-0.3,0-0.5,0.2-0.5,0.5v16.7H25z"/>
					<path class="st10" d="M23.1,42.6h-2c-0.3,0-0.5,0.2-0.5,0.5v16.7h2V43.1C22.6,42.8,22.8,42.6,23.1,42.6z"/>
					<path class="st7" d="M33.4,59.8v-5.9c0-0.3-0.2-0.5-0.5-0.5h-3.4c-0.3,0-0.5,0.2-0.5,0.5v5.9H33.4z"/>
					<path class="st5" d="M31.5,53.4h-1.9c-0.3,0-0.5,0.2-0.5,0.5v5.9H31v-5.9C31,53.6,31.2,53.4,31.5,53.4z"/>
					<path class="st11" d="M41.8,59.8V46.5c0-0.3-0.2-0.5-0.5-0.5h-3.4c-0.3,0-0.5,0.2-0.5,0.5v13.3L41.8,59.8z"/>
					<path class="st12" d="M39.8,46h-1.9c-0.3,0-0.5,0.2-0.5,0.5v13.3h1.9V46.5C39.3,46.2,39.6,46,39.8,46L39.8,46z"/>
				</g>
				<path class="st13" d="M45.4,59.7H9.3c-0.6,0-1.2,0.5-1.2,1.2c0,0.6,0.5,1.2,1.2,1.2h37.1C45.9,61.3,45.5,60.5,45.4,59.7
					L45.4,59.7z"/>
			</g>
		</g>
		<g>
			<g>
				<path class="st7" d="M10.4,65.6c-1.3,0-2.3,1-2.3,2.3s1,2.3,2.3,2.3h11.9v-4.5H10.4z"/>
			</g>
		</g>
		<g>
			<g>
				<path class="st13" d="M40.9,76.6H16.8c-0.6,0-1.2-0.5-1.2-1.2c0-0.6,0.5-1.2,1.2-1.2h24.2c0.6,0,1.2,0.5,1.2,1.2
					C42.1,76.1,41.6,76.6,40.9,76.6z"/>
			</g>
			<g>
				<path class="st13" d="M38.9,81.1H16.8c-0.6,0-1.2-0.5-1.2-1.2c0-0.6,0.5-1.2,1.2-1.2h22.1c0.6,0,1.2,0.5,1.2,1.2
					C40,80.6,39.5,81.1,38.9,81.1z"/>
			</g>
			<g>
				<path class="st13" d="M37.3,85.6H16.8c-0.6,0-1.2-0.5-1.2-1.2c0-0.6,0.5-1.2,1.2-1.2h20.5c0.6,0,1.2,0.5,1.2,1.2
					C38.4,85,37.9,85.6,37.3,85.6z"/>
			</g>
		</g>
		<g>
			<g>
				<path class="st13" d="M12.8,76.6H9.3c-0.6,0-1.2-0.5-1.2-1.2c0-0.6,0.5-1.2,1.2-1.2h3.5c0.6,0,1.2,0.5,1.2,1.2
					C13.9,76.1,13.4,76.6,12.8,76.6z"/>
			</g>
			<g>
				<path class="st13" d="M12.8,81.1H9.3c-0.6,0-1.2-0.5-1.2-1.2c0-0.6,0.5-1.2,1.2-1.2h3.5c0.6,0,1.2,0.5,1.2,1.2
					C13.9,80.6,13.4,81.1,12.8,81.1z"/>
			</g>
			<g>
				<path class="st13" d="M12.8,85.6H9.3c-0.6,0-1.2-0.5-1.2-1.2c0-0.6,0.5-1.2,1.2-1.2h3.5c0.6,0,1.2,0.5,1.2,1.2
					C13.9,85,13.4,85.6,12.8,85.6z"/>
			</g>
		</g>
	</g>
	<g>
		<g>
			<path class="st14" d="M104.6,79.8h3.8v8.4h-3.8V79.8z"/>
			<path class="st14" d="M104.6,104.6h3.8v8.4h-3.8V104.6z"/>
		</g>
		<g>
			<path class="st14" d="M106.5,34.4c-1.1,0-1.9,0.9-1.9,1.9v3.1c0,1.1,0.9,1.9,1.9,1.9c1.1,0,1.9-0.9,1.9-1.9v-3.1
				C108.4,35.2,107.6,34.4,106.5,34.4z"/>
			<path class="st14" d="M98.8,24.6H95c0.1,0.7,0.1,1.4,0.1,2.1c0,0.6,0,1.2-0.1,1.8h3.8c1.1,0,1.9-0.9,1.9-1.9
				C100.7,25.5,99.9,24.6,98.8,24.6L98.8,24.6z"/>
			<path class="st14" d="M106.5,31.8c0.1,0,0.2,0,0.3,0c1-0.1,1.8-1.1,1.6-2.2c-0.2-1.5-1-2.9-2.2-3.8c-0.8-0.6-2-0.5-2.7,0.3
				s-0.5,2,0.3,2.7c0.4,0.3,0.7,0.8,0.8,1.3C104.7,31.1,105.5,31.8,106.5,31.8z"/>
			<path class="st14" d="M106.5,53.2c-1.1,0-1.9,0.9-1.9,1.9v3.1c0,1.1,0.9,1.9,1.9,1.9c1.1,0,1.9-0.9,1.9-1.9v-3.1
				C108.4,54,107.6,53.2,106.5,53.2z"/>
			<path class="st14" d="M106.5,62.4c-1.1,0-1.9,0.9-1.9,1.9v3.1c0,1.1,0.9,1.9,1.9,1.9c1.1,0,1.9-0.9,1.9-1.9v-3.1
				C108.4,63.3,107.6,62.4,106.5,62.4z"/>
			<path class="st14" d="M106.5,43.8c-1.1,0-1.9,0.9-1.9,1.9v3.1c0,1.1,0.9,1.9,1.9,1.9c1.1,0,1.9-0.9,1.9-1.9v-3.1
				C108.4,44.6,107.6,43.8,106.5,43.8z"/>
			<path class="st14" d="M46.9,119.3h-3.1c-1.1,0-1.9,0.9-1.9,1.9c0,1.1,0.9,1.9,1.9,1.9h3.1c1.1,0,1.9-0.9,1.9-1.9
				C48.8,120.2,47.9,119.3,46.9,119.3z"/>
			<path class="st14" d="M37.5,119.3h-0.1c-0.5,0-1-0.2-1.4-0.5c-0.8-0.7-2-0.7-2.7,0.1c-0.7,0.8-0.7,2,0.1,2.7c1.1,1,2.5,1.5,4,1.5
				h0.1c1.1,0,1.9-0.9,1.9-1.9C39.4,120.2,38.5,119.3,37.5,119.3z"/>
			<path class="st14" d="M35.3,114.2v-3.1c0-1.1-0.9-1.9-1.9-1.9s-1.9,0.9-1.9,1.9v3.1c0,1.1,0.9,1.9,1.9,1.9S35.3,115.2,35.3,114.2
				z"/>
			<path class="st14" d="M33.4,106.7c1.1,0,1.9-0.9,1.9-1.9v-3.1c0-1.1-0.9-1.9-1.9-1.9s-1.9,0.9-1.9,1.9v3.1
				C31.5,105.8,32.4,106.7,33.4,106.7z"/>
			<path class="st14" d="M65.7,119.3h-3.1c-1.1,0-1.9,0.9-1.9,1.9c0,1.1,0.9,1.9,1.9,1.9h3.1c1.1,0,1.9-0.9,1.9-1.9
				C67.6,120.2,66.8,119.3,65.7,119.3z"/>
			<path class="st14" d="M83,119.3h-1.5c-1.1,0-1.9,0.9-1.9,1.9c0,1.1,0.9,1.9,1.9,1.9H83V119.3z"/>
			<path class="st14" d="M75.1,119.3h-3.1c-1.1,0-1.9,0.9-1.9,1.9c0,1.1,0.9,1.9,1.9,1.9h3.1c1.1,0,1.9-0.9,1.9-1.9
				C77,120.2,76.2,119.3,75.1,119.3z"/>
			<path class="st14" d="M56.3,119.3h-3.1c-1.1,0-1.9,0.9-1.9,1.9c0,1.1,0.9,1.9,1.9,1.9h3.1c1.1,0,1.9-0.9,1.9-1.9
				C58.2,120.2,57.4,119.3,56.3,119.3z"/>
		</g>
		<g>
			<g>
				<circle class="st3" cx="27" cy="102.2" r="15.4"/>
			</g>
			<g>
				<path class="st10" d="M20.4,102.2c0-7,4.6-12.9,11-14.8C30,87,28.5,86.8,27,86.8c-8.5,0-15.4,6.9-15.4,15.4s6.9,15.4,15.4,15.4
					c1.5,0,3-0.2,4.4-0.6C25.1,115.1,20.4,109.2,20.4,102.2L20.4,102.2z"/>
			</g>
			<g>
				<path class="st2" d="M26,108.5c-0.5,0-1-0.2-1.3-0.6l-6-6c-0.7-0.7-0.7-2,0-2.7c0.7-0.7,2-0.7,2.7,0l4.6,4.6l6.6-6.6
					c0.7-0.7,2-0.7,2.7,0c0.7,0.7,0.7,2,0,2.7l-7.9,7.9C27,108.3,26.5,108.5,26,108.5L26,108.5z"/>
			</g>
		</g>
	</g>
	<g>
		<g>
			<path class="st15" d="M85.8,16.1l3.8-3.8c0.5-0.5,0.6-1.4,0.1-2c-1.3-1.7-2.9-3.2-4.6-4.6c-0.6-0.5-1.5-0.4-2,0.1l-3.8,3.8
				c-0.5,0.5-1.2,0.6-1.8,0.3c-1-0.5-2.1-1-3.2-1.3c-0.6-0.2-1.1-0.8-1.1-1.4V1.8c0-0.8-0.6-1.4-1.3-1.5c-1.1-0.1-2.1-0.2-3.2-0.2
				c-1.1,0-2.2,0.1-3.2,0.2c-0.8,0.1-1.3,0.7-1.3,1.5v5.4c0,0.7-0.4,1.2-1.1,1.4C62.1,9,61,9.4,60,9.9c-0.6,0.3-1.3,0.2-1.8-0.3
				l-3.8-3.8c-0.5-0.5-1.4-0.6-2-0.1c-1.7,1.3-3.2,2.9-4.6,4.6c-0.5,0.6-0.4,1.5,0.1,2l3.8,3.8c0.5,0.5,0.6,1.2,0.3,1.8
				c-0.5,1-1,2.1-1.3,3.2c-0.2,0.6-0.8,1.1-1.4,1.1h-5.4c-0.8,0-1.4,0.6-1.5,1.3c-0.1,1.1-0.2,2.1-0.2,3.2c0,1.1,0.1,2.2,0.2,3.2
				c0.1,0.8,0.7,1.3,1.5,1.3h5.4c0.7,0,1.2,0.4,1.4,1.1c0.3,1.1,0.8,2.2,1.3,3.2c0.3,0.6,0.2,1.3-0.3,1.8L48,41.1
				c-0.5,0.5-0.6,1.4-0.1,2c1.3,1.7,2.9,3.2,4.6,4.6c0.6,0.5,1.5,0.4,2-0.1l3.8-3.8c0.5-0.5,1.2-0.6,1.8-0.3c1,0.5,2.1,1,3.2,1.3
				c0.6,0.2,1.1,0.8,1.1,1.4v5.4c0,0.8,0.6,1.4,1.3,1.5c1.1,0.1,2.1,0.2,3.2,0.2s2.2-0.1,3.2-0.2c0.8-0.1,1.3-0.7,1.3-1.5v-5.4
				c0-0.7,0.4-1.2,1.1-1.4c1.1-0.3,2.2-0.8,3.2-1.3c0.6-0.3,1.3-0.2,1.8,0.3l3.8,3.8c0.5,0.5,1.4,0.6,2,0.1c1.7-1.3,3.2-2.9,4.6-4.6
				c0.5-0.6,0.4-1.5-0.1-2l-3.8-3.8c-0.5-0.5-0.6-1.2-0.3-1.8c0.5-1,1-2.1,1.3-3.2c0.2-0.6,0.8-1.1,1.4-1.1h5.4
				c0.8,0,1.4-0.6,1.5-1.3c0.1-1.1,0.2-2.1,0.2-3.2c0-1.1-0.1-2.2-0.2-3.2c-0.1-0.8-0.7-1.3-1.5-1.3h-5.4c-0.7,0-1.2-0.4-1.4-1.1
				c-0.3-1.1-0.8-2.2-1.3-3.2C85.2,17.3,85.3,16.6,85.8,16.1z"/>
		</g>
		<g>
			<path class="st16" d="M64.5,39.8C59,38,55,32.8,55,26.7s4-11.3,9.5-13.1c2.3-2.7,5.4-4.8,8.9-6c0-0.1,0-0.2,0-0.3V1.8
				c0-0.8-0.6-1.4-1.3-1.5c-1.1-0.1-2.1-0.2-3.2-0.2c-1.1,0-2.2,0.1-3.2,0.2c-0.8,0.1-1.3,0.7-1.3,1.5v5.4c0,0.7-0.4,1.2-1.1,1.4
				C62.1,9,61,9.4,60,9.9c-0.6,0.3-1.3,0.2-1.8-0.3l-3.8-3.8c-0.5-0.5-1.4-0.6-2-0.1c-1.7,1.3-3.2,2.9-4.6,4.6
				c-0.5,0.6-0.4,1.5,0.1,2l3.8,3.8c0.5,0.5,0.6,1.2,0.3,1.8c-0.5,1-1,2.1-1.3,3.2c-0.2,0.6-0.8,1.1-1.4,1.1h-5.4
				c-0.8,0-1.4,0.6-1.5,1.3c-0.1,1.1-0.2,2.1-0.2,3.2c0,1.1,0.1,2.2,0.2,3.2c0.1,0.8,0.7,1.3,1.5,1.3h5.4c0.7,0,1.2,0.4,1.4,1.1
				c0.3,1.1,0.8,2.2,1.3,3.2c0.3,0.6,0.2,1.3-0.3,1.8L48,41.1c-0.5,0.5-0.6,1.4-0.1,2c1.3,1.7,2.9,3.2,4.6,4.6
				c0.6,0.5,1.5,0.4,2-0.1l3.8-3.8c0.5-0.5,1.2-0.6,1.8-0.3c1,0.5,2.1,1,3.2,1.3c0.6,0.2,1.1,0.8,1.1,1.4v5.4c0,0.8,0.6,1.4,1.3,1.5
				c1.1,0.1,2.1,0.2,3.2,0.2s2.2-0.1,3.2-0.2c0.8-0.1,1.3-0.7,1.3-1.5v-5.4c0-0.1,0-0.2,0-0.3C69.9,44.7,66.8,42.5,64.5,39.8z"/>
		</g>
		<g>
			<circle class="st17" cx="68.8" cy="26.7" r="11.9"/>
		</g>
		<g>
			<path class="st18" d="M63.6,26.7c0-5.4,3.6-10,8.6-11.4c-1.1-0.3-2.2-0.5-3.3-0.5c-6.6,0-11.9,5.3-11.9,11.9s5.3,11.9,11.9,11.9
				c1.2,0,2.3-0.2,3.3-0.5C67.2,36.7,63.6,32.1,63.6,26.7L63.6,26.7z"/>
		</g>
		<g>
			<path class="st13" d="M68.8,40.5c-7.6,0-13.8-6.2-13.8-13.8s6.2-13.8,13.8-13.8s13.8,6.2,13.8,13.8S76.4,40.5,68.8,40.5z
				 M68.8,16.7c-5.5,0-10,4.5-10,10s4.5,10,10,10s10-4.5,10-10S74.3,16.7,68.8,16.7z"/>
		</g>
		<g>
			<circle class="st2" cx="68.8" cy="26.7" r="4.1"/>
		</g>
	</g>
	<g>
		<g>
			<g>
				<g>
					<g>
						<path class="st19" d="M115.7,75.5V71c0-0.2-0.2-0.4-0.4-0.4H70.7c-0.2,0-0.4,0.2-0.4,0.4v9.1h3.9v-4.4c0-0.1,0.1-0.3,0.3-0.3
							H115.7z"/>
					</g>
				</g>
				<g>
					<g>
						<path class="st20" d="M111.3,71v4.4h4.4V71c0-0.2-0.2-0.4-0.4-0.4h-4.4C111.1,70.6,111.3,70.8,111.3,71z"/>
					</g>
				</g>
				<g>
					<g>
						<path class="st21" d="M112.9,84.5h6.5v-8.8c0-0.2-0.2-0.4-0.4-0.4H74.4c-0.2,0-0.4,0.2-0.4,0.4v4.4h38.6
							c0.1,0,0.3,0.1,0.3,0.3V84.5L112.9,84.5z"/>
					</g>
				</g>
				<g>
					<path class="st22" d="M115,75.7v8.8h4.4v-8.8c0-0.2-0.2-0.4-0.4-0.4h-4.4C114.8,75.3,115,75.5,115,75.7z"/>
				</g>
				<g>
					<path class="st23" d="M113,84.5v-4.1c0-0.2-0.2-0.4-0.4-0.4H68c-0.2,0-0.4,0.2-0.4,0.4v12.1h27.9l3.8-7.4
						c0.2-0.4,0.6-0.6,1.1-0.6H113z"/>
				</g>
				<g>
					<g>
						<path class="st24" d="M108,80.4v4.1h5v-4.1c0-0.2-0.2-0.4-0.4-0.4h-5C107.8,80,108,80.2,108,80.4z"/>
					</g>
				</g>
				<path class="st9" d="M121.8,92.6l0.5-0.1v-6.7c0-0.7-0.6-1.3-1.3-1.3h-20.6c-0.5,0-0.9,0.3-1.2,0.7l-3.7,7.3l0.6,0.1H121.8z"/>
			</g>
		</g>
		<g>
			<g>
				<g>
					<g>
						<path class="st25" d="M115.5,85.7v6.7h6.8v-6.7c0-0.7-0.6-1.3-1.3-1.3h-6.8C114.9,84.4,115.5,85,115.5,85.7z"/>
					</g>
					<path class="st8" d="M64.7,93.7v32.8c0,0.7,0.6,1.3,1.3,1.3h38.8v-15.6c0-0.7,0.5-1.2,1.2-1.2h16.3V92.4H66
						C65.3,92.4,64.7,93,64.7,93.7z"/>
					<g>
						<path class="st9" d="M122.3,99.7v-7.3h-6.8v6c0.6-0.1,1.2-0.2,1.9-0.2C119.2,98.2,120.9,98.8,122.3,99.7z"/>
						<path class="st9" d="M115.5,102.5v8.6h6.7V107c0-2.7-2.2-4.8-4.8-4.8C116.7,102.1,116.1,102.3,115.5,102.5z"/>
					</g>
				</g>
			</g>
			<g>
				<path class="st26" d="M73.1,85.5c0-0.5,0.4-1,1-1h14.7c0.5,0,1,0.4,1,1s-0.4,1-1,1H74.1C73.5,86.5,73.1,86,73.1,85.5z"/>
			</g>
			<g>
				<path class="st2" d="M70.9,121.1v-4.2c0-0.4,0.3-0.7,0.7-0.7H88c0.4,0,0.7,0.3,0.7,0.7v4.2c0,0.4-0.3,0.7-0.7,0.7H71.5
					C71.2,121.7,70.9,121.4,70.9,121.1z"/>
			</g>
			<g>
				<path class="st4" d="M80.9,121.7H88c0.4,0,0.7-0.3,0.7-0.7v-4.2c0-0.4-0.3-0.7-0.7-0.7h-7.2c0.4,0,0.7,0.3,0.7,0.7v4.2
					C81.5,121.4,81.2,121.7,80.9,121.7z"/>
			</g>
			<g>
				<g>
					<path class="st15" d="M126.1,111.1V107c0-4.9-3.9-8.8-8.8-8.8s-8.8,3.9-8.8,8.8v4.1h3.9V107c0-2.7,2.2-4.8,4.8-4.8
						s4.8,2.2,4.8,4.8v4.1H126.1z"/>
				</g>
				<g>
					<g>
						<path class="st16" d="M116.2,98.3c4.3,0.5,7.7,4.2,7.7,8.7v4.1h2.2V107c0-4.9-3.9-8.8-8.8-8.8C117,98.2,116.6,98.2,116.2,98.3
							L116.2,98.3z"/>
					</g>
				</g>
				<g>
					<path class="st7" d="M104.7,124.4v4.2c0,0.7,0.6,1.3,1.3,1.3h22.7c0.7,0,1.3-0.6,1.3-1.3v-4.2l-0.5-0.1h-24.3L104.7,124.4z"/>
					<path class="st7" d="M106,111c-0.7,0-1.3,0.6-1.3,1.3v4.2l0.5,0.1h24.3l0.5-0.1v-4.2c0-0.7-0.6-1.3-1.3-1.3H106L106,111z"/>
				</g>
				<g>
					<path class="st5" d="M123.1,129.9h5.6c0.7,0,1.3-0.6,1.3-1.3v-16.3c0-0.7-0.6-1.3-1.3-1.3h-5.6c0.7,0,1.3,0.6,1.3,1.3v16.3
						C124.4,129.3,123.8,129.9,123.1,129.9z"/>
				</g>
				<g>
					<path class="st2" d="M130,124.4h-25.3v-8H130V124.4z"/>
				</g>
				<g>
					<path class="st4" d="M130,124.4h-5.6v-8h5.6V124.4z"/>
				</g>
			</g>
		</g>
	</g>
</g>
</svg>
