<?xml version="1.0" encoding="utf-8"?>
<!-- Generator: Adobe Illustrator 25.2.0, SVG Export Plug-In . SVG Version: 6.00 Build 0)  -->
<svg version="1.1" id="Capa_1" xmlns="http://www.w3.org/2000/svg" xmlns:xlink="http://www.w3.org/1999/xlink" x="0px" y="0px"
	 viewBox="0 0 130 130" style="enable-background:new 0 0 130 130;" xml:space="preserve">
<style type="text/css">
	.st0{fill:#DFF6FD;}
	.st1{fill:#C8EFFE;}
	.st2{fill:#678D98;}
	.st3{fill:#537983;}
	.st4{fill:#7CA1B1;}
	.st5{fill:#FAC600;}
	.st6{fill:#62DBFB;}
	.st7{fill:#01D0FB;}
	.st8{fill:#3E5959;}
	.st9{fill:#6CF5C2;}
	.st10{fill:#00F2A6;}
	.st11{fill:#0ED290;}
	.st12{fill:#E8B800;}
	.st13{fill:#FED402;}
	.st14{fill:#FEE97D;}
	.st15{fill:#FEDF30;}
	.st16{fill:#05E39C;}
	.st17{fill:#FD5426;}
</style>
<g>
	<path class="st0" d="M100.7,88.4c-0.3,0-0.6-0.3-0.6-0.6V59.9c0-0.2,0.1-0.3,0.2-0.4l5.1-5.1c0.1-0.1,0.3-0.2,0.4-0.2h16.3V37.7
		c0-0.1,0-0.2,0-0.2c-0.1-1.1-1.1-2-2.2-2H81.7v6.3c0,0.3-0.2,0.5-0.5,0.5H48.8c-0.3,0-0.5-0.2-0.5-0.5v-6.3H10.1
		c-1.2,0-2.1,0.9-2.2,2c0,0.1,0,0.2,0,0.2v16.7L8,54.3c0.1-0.1,0.3-0.2,0.4-0.2h20.9c0.3,0,0.6,0.3,0.6,0.6v33
		c0,0.3-0.3,0.6-0.6,0.6H7.9v7.2h114.3v-7.2L100.7,88.4L100.7,88.4z"/>
	<g>
		<path class="st1" d="M8,54.3c0.1-0.1,0.3-0.2,0.4-0.2h8.7V37.7c0-0.8,0.3-1.6,0.7-2.2h-7.7c-1.2,0-2.1,0.9-2.2,2
			c0,0.1,0,0.2,0,0.2v16.7L8,54.3z"/>
		<path class="st1" d="M7.9,88.4h9.3v7.2H7.9L7.9,88.4z"/>
	</g>
	<g>
		<path class="st2" d="M49.7,109.2h30.5v12.5H49.7L49.7,109.2z"/>
		<path class="st3" d="M49.7,109.2h10.9v12.5H49.7L49.7,109.2z"/>
		<g>
			<path class="st4" d="M81.7,35.7h38.2c1,0,1.9,0.8,2,1.8c0,0.1,0,0.1,0,0.2v16.4h3.8V37.7c0-0.4,0-0.8-0.1-1.2
				c-0.5-2.6-2.9-4.6-5.7-4.6H81.7L81.7,35.7z"/>
			<path class="st4" d="M8,54.3c0,0,0.1-0.1,0.1-0.1V37.7c0-0.1,0-0.1,0-0.2c0.1-1,0.9-1.8,2-1.8h38.2v-3.8H10.1
				c-2.8,0-5.1,2-5.7,4.6c-0.1,0.4-0.1,0.8-0.1,1.2V58L8,54.3z"/>
			<path class="st4" d="M121.9,88.4v7H8.1v-7H4.3v16.6c0,2.5,2,4.5,4.5,4.5h112.4c2.5,0,4.5-2,4.5-4.5V88.4H121.9z"/>
		</g>
		<g>
			<path class="st2" d="M8,54.3c0,0,0.1-0.1,0.1-0.1V37.7c0-0.1,0-0.1,0-0.2c0.1-1,0.9-1.8,2-1.8h7.5c0.8-2.2,2.9-3.8,5.4-3.8H10.1
				c-2.8,0-5.1,2-5.7,4.6c-0.1,0.4-0.1,0.8-0.1,1.2V58L8,54.3z"/>
			<path class="st2" d="M17.2,104.9v-9.6H8.1v-7H4.3v16.6c0,2.5,2,4.5,4.5,4.5h12.9C19.3,109.5,17.2,107.4,17.2,104.9z"/>
		</g>
		<g>
			<path class="st4" d="M33.4,127.4v-2c0-2.2,1.8-3.9,3.9-3.9h55.4c2.2,0,3.9,1.8,3.9,3.9v2c0,1.4-1.2,2.6-2.6,2.6H36
				C34.6,130,33.4,128.8,33.4,127.4L33.4,127.4z"/>
		</g>
		<g>
			<path class="st2" d="M44.3,127.4v-2c0-2.2,1.8-3.9,3.9-3.9H37.3c-2.2,0-3.9,1.8-3.9,3.9v2c0,1.4,1.2,2.6,2.6,2.6H47
				C45.5,130,44.3,128.8,44.3,127.4z"/>
		</g>
		<path class="st5" d="M60.5,61.8l0.6-0.3l-2.5-5.9c-0.2-0.4-0.5-0.6-1-0.6H44.1c-0.6,0-1,0.5-1,1v5.5l0.5,0.3L60.5,61.8L60.5,61.8z
			"/>
		<g>
			<g>
				<g>
					<g>
						<path class="st6" d="M105.2,54.1l-5.1,5.1c-0.2,0.2-0.3,0.4-0.3,0.6v27.9c0,0.5,0.4,0.9,0.9,0.9h26c0.5,0,0.9-0.4,0.9-0.9v-33
							c0-0.5-0.4-0.9-0.9-0.9h-20.9C105.6,53.9,105.4,54,105.2,54.1L105.2,54.1z"/>
					</g>
				</g>
				<g>
					<path class="st7" d="M109.1,87.7V59.9c0-0.2,0.1-0.4,0.3-0.6l5.1-5.1c0.2-0.2,0.4-0.3,0.6-0.3h-9.2c-0.2,0-0.4,0.1-0.6,0.3
						l-5.1,5.1c-0.2,0.2-0.3,0.4-0.3,0.6v27.9c0,0.5,0.4,0.9,0.9,0.9h9.2C109.4,88.6,109.1,88.2,109.1,87.7z"/>
				</g>
				<g>
					<g>
						<path class="st8" d="M119.5,63.8h-11.6c-1.1,0-1.9-0.9-1.9-1.9c0-1.1,0.9-1.9,1.9-1.9h11.6c1.1,0,1.9,0.9,1.9,1.9
							C121.4,63,120.6,63.8,119.5,63.8z"/>
					</g>
					<g>
						<path class="st8" d="M119.5,70h-11.6c-1.1,0-1.9-0.9-1.9-1.9c0-1.1,0.9-1.9,1.9-1.9h11.6c1.1,0,1.9,0.9,1.9,1.9
							C121.4,69.2,120.6,70,119.5,70z"/>
					</g>
					<g>
						<path class="st8" d="M119.5,76.3h-11.6c-1.1,0-1.9-0.9-1.9-1.9s0.9-1.9,1.9-1.9h11.6c1.1,0,1.9,0.9,1.9,1.9
							S120.6,76.3,119.5,76.3z"/>
					</g>
					<g>
						<path class="st8" d="M113.1,82.5h-5.2c-1.1,0-1.9-0.9-1.9-1.9c0-1.1,0.9-1.9,1.9-1.9h5.2c1.1,0,1.9,0.9,1.9,1.9
							C115,81.6,114.2,82.5,113.1,82.5z"/>
					</g>
				</g>
			</g>
			<g>
				<g>
					<g>
						<path class="st9" d="M7.8,54.1l-5.1,5.1c-0.2,0.2-0.3,0.4-0.3,0.6v27.9c0,0.5,0.4,0.9,0.9,0.9h26c0.5,0,0.9-0.4,0.9-0.9v-33
							c0-0.5-0.4-0.9-0.9-0.9H8.4C8.2,53.9,8,54,7.8,54.1L7.8,54.1z"/>
					</g>
				</g>
				<g>
					<path class="st10" d="M11.5,87.7V59.9c0-0.2,0.1-0.4,0.3-0.6l5.1-5.1c0.2-0.2,0.4-0.3,0.6-0.3h-9c-0.2,0-0.4,0.1-0.6,0.3
						l-5.1,5.1c-0.2,0.2-0.3,0.4-0.3,0.6v27.9c0,0.5,0.4,0.9,0.9,0.9h9C11.9,88.6,11.5,88.2,11.5,87.7z"/>
				</g>
				<g>
					<g>
						<path class="st8" d="M22.1,63.8H10.5c-1.1,0-1.9-0.9-1.9-1.9c0-1.1,0.9-1.9,1.9-1.9h11.6c1.1,0,1.9,0.9,1.9,1.9
							C24,63,23.2,63.8,22.1,63.8z"/>
					</g>
					<g>
						<path class="st8" d="M22.1,70H10.5c-1.1,0-1.9-0.9-1.9-1.9c0-1.1,0.9-1.9,1.9-1.9h11.6c1.1,0,1.9,0.9,1.9,1.9
							C24,69.2,23.2,70,22.1,70z"/>
					</g>
					<g>
						<path class="st8" d="M22.1,76.3H10.5c-1.1,0-1.9-0.9-1.9-1.9s0.9-1.9,1.9-1.9h11.6c1.1,0,1.9,0.9,1.9,1.9S23.2,76.3,22.1,76.3
							z"/>
					</g>
					<g>
						<path class="st8" d="M15.7,82.5h-5.2c-1.1,0-1.9-0.9-1.9-1.9c0-1.1,0.9-1.9,1.9-1.9h5.2c1.1,0,1.9,0.9,1.9,1.9
							C17.6,81.6,16.8,82.5,15.7,82.5z"/>
					</g>
				</g>
			</g>
		</g>
		<path class="st11" d="M103.1,43.2c-0.7-0.7-1.9-0.7-2.7,0L99,44.6v-25c0-1.1-0.9-1.9-1.9-1.9s-1.9,0.9-1.9,1.9v25l-1.4-1.4
			c-0.7-0.7-1.9-0.7-2.7,0c-0.7,0.7-0.7,1.9,0,2.7l4.6,4.6c0.4,0.4,0.8,0.6,1.3,0.6c0.5,0,1-0.2,1.3-0.6l4.6-4.6
			C103.8,45.2,103.8,44,103.1,43.2L103.1,43.2z"/>
		<path class="st11" d="M39.5,43.2c-0.7-0.7-1.9-0.7-2.7,0l-1.4,1.4v-25c0-1.1-0.9-1.9-1.9-1.9c-1.1,0-1.9,0.9-1.9,1.9v25l-1.4-1.4
			c-0.7-0.7-1.9-0.7-2.7,0c-0.7,0.7-0.7,1.9,0,2.7l4.6,4.6c0.4,0.4,0.9,0.6,1.3,0.6s1-0.2,1.3-0.6l4.6-4.6
			C40.2,45.2,40.2,44,39.5,43.2z"/>
		<g>
			<g>
				<path class="st12" d="M51.9,55h-7.8c-0.6,0-1,0.5-1,1v5.5h7.8V56C50.9,55.4,51.3,55,51.9,55z"/>
			</g>
			<g>
				<path class="st13" d="M86.2,88.9H43.8c-0.4,0-0.8-0.4-0.8-0.8V61.5h43.2c0.4,0,0.8,0.4,0.8,0.8v25.8
					C87,88.5,86.6,88.9,86.2,88.9z"/>
			</g>
			<g>
				<path class="st5" d="M50.9,88.1V61.5H43v26.6c0,0.4,0.4,0.8,0.8,0.8h7.8C51.2,88.9,50.9,88.5,50.9,88.1z"/>
			</g>
		</g>
		<path class="st11" d="M68.3,74.3l-1.4,1.4V42.3h-3.8v33.3l-1.4-1.4c-0.7-0.7-1.9-0.7-2.7,0c-0.7,0.7-0.7,1.9,0,2.7l4.6,4.6
			c0.4,0.4,0.8,0.6,1.3,0.6c0.5,0,1-0.2,1.3-0.6L71,77c0.7-0.7,0.7-1.9,0-2.7C70.2,73.5,69,73.5,68.3,74.3L68.3,74.3z"/>
	</g>
	<g>
		<g>
			<path class="st14" d="M54.7,0.2l-6.4,6.4C48.1,6.8,48,7,48,7.2v34.6c0,0.4,0.4,0.8,0.8,0.8h32.4c0.4,0,0.8-0.4,0.8-0.8v-41
				C82,0.4,81.7,0,81.2,0h-26C55,0,54.8,0.1,54.7,0.2L54.7,0.2z"/>
		</g>
		<g>
			<path class="st15" d="M55.8,41.8V7.2c0-0.2,0.1-0.4,0.2-0.6l6.4-6.4C62.7,0.1,62.9,0,63.1,0h-7.8c-0.2,0-0.4,0.1-0.6,0.2
				l-6.4,6.4C48.1,6.8,48,7,48,7.2v34.6c0,0.4,0.4,0.8,0.8,0.8h7.8C56.2,42.6,55.8,42.2,55.8,41.8z"/>
		</g>
		<g>
			<g>
				<path class="st5" d="M69.4,15.7V9.5c0-1.1-0.9-1.9-1.9-1.9c-1.1,0-1.9,0.9-1.9,1.9v6.2H69.4z"/>
				<path class="st16" d="M74.4,15.7V6.1c0-1.1-0.9-1.9-1.9-1.9c-1.1,0-1.9,0.9-1.9,1.9v9.6L74.4,15.7L74.4,15.7z"/>
				<path class="st17" d="M59.4,15.7v-4.2c0-1.1-0.9-1.9-1.9-1.9c-1.1,0-1.9,0.9-1.9,1.9v4.2H59.4z"/>
				<path class="st7" d="M64.4,15.7V7.5c0-1.1-0.9-1.9-1.9-1.9c-1.1,0-1.9,0.9-1.9,1.9v8.2L64.4,15.7L64.4,15.7z"/>
			</g>
			<g>
				<g>
					<path class="st12" d="M56.1,25.8h-1.1c-1.1,0-1.9-0.9-1.9-1.9S54,22,55.1,22h1.1c1.1,0,1.9,0.9,1.9,1.9S57.2,25.8,56.1,25.8z"
						/>
				</g>
				<g>
					<path class="st12" d="M56.1,31.5h-1.1c-1.1,0-1.9-0.9-1.9-1.9s0.9-1.9,1.9-1.9h1.1c1.1,0,1.9,0.9,1.9,1.9S57.2,31.5,56.1,31.5z
						"/>
				</g>
				<g>
					<path class="st12" d="M56.1,37.1h-1.1c-1.1,0-1.9-0.9-1.9-1.9c0-1.1,0.9-1.9,1.9-1.9h1.1c1.1,0,1.9,0.9,1.9,1.9
						C58,36.2,57.2,37.1,56.1,37.1z"/>
				</g>
			</g>
			<g>
				<g>
					<path class="st12" d="M74.9,25.8h-14c-1.1,0-1.9-0.9-1.9-1.9s0.9-1.9,1.9-1.9h14c1.1,0,1.9,0.9,1.9,1.9S76,25.8,74.9,25.8z"/>
				</g>
				<g>
					<path class="st12" d="M74.9,31.5h-14c-1.1,0-1.9-0.9-1.9-1.9s0.9-1.9,1.9-1.9h14c1.1,0,1.9,0.9,1.9,1.9S76,31.5,74.9,31.5z"/>
				</g>
				<g>
					<path class="st12" d="M74.9,37.1h-14c-1.1,0-1.9-0.9-1.9-1.9c0-1.1,0.9-1.9,1.9-1.9h14c1.1,0,1.9,0.9,1.9,1.9
						C76.8,36.2,76,37.1,74.9,37.1z"/>
				</g>
			</g>
		</g>
	</g>
	<g>
		<path class="st12" d="M74.9,19.3H55.1c-1.1,0-1.9-0.9-1.9-1.9c0-1.1,0.9-1.9,1.9-1.9h19.9c1.1,0,1.9,0.9,1.9,1.9
			C76.8,18.4,76,19.3,74.9,19.3z"/>
	</g>
</g>
</svg>
