<?xml version="1.0" encoding="utf-8"?>
<!-- Generator: Adobe Illustrator 25.2.0, SVG Export Plug-In . SVG Version: 6.00 Build 0)  -->
<svg version="1.1" id="圖層_1" xmlns="http://www.w3.org/2000/svg" xmlns:xlink="http://www.w3.org/1999/xlink" x="0px" y="0px"
	 viewBox="0 0 512 512" style="enable-background:new 0 0 512 512;" xml:space="preserve">
<path d="M474,355c-2.6,0-5.2,1.1-7.1,2.9s-2.9,4.4-2.9,7.1s1.1,5.2,2.9,7.1s4.4,2.9,7.1,2.9s5.2-1.1,7.1-2.9s2.9-4.4,2.9-7.1
	s-1.1-5.2-2.9-7.1S476.6,355,474,355z M474,395c-5.5,0-10,4.5-10,10v59h-63.4c-4.3-13.9-17.2-24-32.5-24c-18.7,0-34,15.3-34,34
	s15.3,34,34,34c15.3,0,28.2-10.1,32.5-24H474c5.5,0,10-4.5,10-10v-69C484,399.5,479.5,395,474,395z M368.1,488c-7.7,0-14-6.3-14-14
	s6.3-14,14-14s14,6.3,14,14S375.8,488,368.1,488z M248.1,436c-17.5,0-32.3,11.9-36.7,28H48v-42.1c0-0.1,0-0.3,0-0.4
	c13.9-4.3,24-17.2,24-32.5c0-18.7-15.3-34-34-34s-34,15.3-34,34c0,15.3,10.1,28.2,24,32.5c0,0.1,0,0.3,0,0.4V474c0,5.5,4.5,10,10,10
	h173.5c4.4,16.1,19.2,28,36.7,28c21,0,38-17,38-38S269.1,436,248.1,436z M38,402.9c-7.7,0-14-6.3-14-14c0-7.7,6.3-14,14-14
	s14,6.3,14,14C52,396.7,45.7,402.9,38,402.9z M248.1,492c-9.9,0-18-8.1-18-18s8.1-18,18-18s18,8.1,18,18S258.1,492,248.1,492z
	 M38,310c21,0,38-17,38-38c0-17.5-11.9-32.3-28-36.7v-54l56.3-37.7c4.6-3.1,5.8-9.3,2.7-13.9s-9.3-5.8-13.9-2.7l-60.8,40.7
	c-2.8,1.9-4.4,5-4.4,8.3v59.3C11.9,239.7,0,254.5,0,272C0,293,17,310,38,310z M38,254c9.9,0,18,8.1,18,18s-8.1,18-18,18
	s-18-8.1-18-18S28.1,254,38,254z M474,138c-9.5,0-18.2,3.5-24.9,9.3L285.8,37.9c-0.2-0.2-0.5-0.3-0.8-0.5c0.6-2.4,0.9-4.9,0.9-7.5
	c0-16.5-13.5-30-30-30s-30,13.5-30,30c0,2.6,0.3,5.1,0.9,7.5c-0.3,0.1-0.5,0.3-0.8,0.5l-66.5,44.6c-4.6,3.1-5.8,9.3-2.7,13.9
	c1.9,2.9,5.1,4.4,8.3,4.4c1.9,0,3.8-0.6,5.6-1.7l66.5-44.5c0.2-0.2,0.5-0.4,0.7-0.5c5,3.8,11.2,6,18,6s13-2.2,18-6
	c0.2,0.2,0.5,0.4,0.7,0.5L438,163.9c-1.3,3.8-2,7.9-2,12.1c0,17.5,11.9,32.3,28,36.7V325c0,5.5,4.5,10,10,10s10-4.5,10-10V212.7
	c16.1-4.4,28-19.2,28-36.7C512,155,495,138,474,138z M256,40c-5.5,0-10-4.5-10-10s4.5-10,10-10s10,4.5,10,10S261.5,40,256,40z
	 M474,194c-9.9,0-18-8.1-18-18s8.1-18,18-18s18,8.1,18,18S483.9,194,474,194z M132.2,122.8c2.6,0,5.2-1.1,7.1-2.9
	c1.9-1.9,2.9-4.4,2.9-7.1c0-2.6-1.1-5.2-2.9-7.1c-1.9-1.9-4.4-2.9-7.1-2.9c-2.6,0-5.2,1.1-7.1,2.9c-1.9,1.9-2.9,4.4-2.9,7.1
	c0,2.6,1.1,5.2,2.9,7.1C127,121.8,129.5,122.8,132.2,122.8z M220,331h72c5.5,0,10-4.5,10-10v-72c0-5.5-4.5-10-10-10h-72
	c-5.5,0-10,4.5-10,10v72C210,326.5,214.5,331,220,331z M230,259h52v52h-52V259z M346,402v-27h27c5.5,0,10-4.5,10-10s-4.5-10-10-10
	h-27v-33.3h27c5.5,0,10-4.5,10-10s-4.5-10-10-10h-27v-33.3h27c5.5,0,10-4.5,10-10c0-5.5-4.5-10-10-10h-27V215h27c5.5,0,10-4.5,10-10
	s-4.5-10-10-10h-27v-27c0-5.5-4.5-10-10-10s-10,4.5-10,10v27h-33.3v-27c0-5.5-4.5-10-10-10c-5.5,0-10,4.5-10,10v27h-33.3v-27
	c0-5.5-4.5-10-10-10c-5.5,0-10,4.5-10,10v27H186v-27c0-5.5-4.5-10-10-10s-10,4.5-10,10v27h-27c-5.5,0-10,4.5-10,10s4.5,10,10,10h27
	v33.3h-27c-5.5,0-10,4.5-10,10s4.5,10,10,10h27v33.3h-27c-5.5,0-10,4.5-10,10c0,5.5,4.5,10,10,10h27V355h-27c-5.5,0-10,4.5-10,10
	s4.5,10,10,10h27v27c0,5.5,4.5,10,10,10s10-4.5,10-10v-27h33.3v27c0,5.5,4.5,10,10,10c5.5,0,10-4.5,10-10v-27h33.3v27
	c0,5.5,4.5,10,10,10c5.5,0,10-4.5,10-10v-27H326v27c0,5.5,4.5,10,10,10S346,407.5,346,402z M326,355H186V215h140V355z"/>
</svg>
