<?xml version="1.0" encoding="utf-8"?>
<!-- Generator: Adobe Illustrator 25.2.0, SVG Export Plug-In . SVG Version: 6.00 Build 0)  -->
<svg version="1.1" id="Capa_1" xmlns="http://www.w3.org/2000/svg" xmlns:xlink="http://www.w3.org/1999/xlink" x="0px" y="0px"
	 viewBox="0 0 512 512" style="enable-background:new 0 0 512 512;" xml:space="preserve">
<path d="M160,20h274.2c-4,6.4-6.2,13.9-6.2,22v131c0,5.5,4.5,10,10,10s10-4.5,10-10v-31h54c5.5,0,10-4.5,10-10V42
	c0-23.2-18.8-42-42-42H160c-5.5,0-10,4.5-10,10C150,15.5,154.5,20,160,20z M448,42c0-12.1,9.9-22,22-22s22,9.9,22,22v80h-44V42z
	 M501.1,407.5l-65.3-65.3c7.5-15.4,11.8-32.6,11.8-50.9c0-64-52-116-116-116s-116,52-116,116c0,14.6,2.7,28.6,7.7,41.5l-11.7,11.7
	l-48.1-48.1c-1.9-1.9-4.4-2.9-7.1-2.9c-2.7,0-5.2,1.1-7.1,2.9L138,307.6v-91.3c0-5.5-4.5-10-10-10s-10,4.5-10,10v111.3l-90.4,90.4
	c-3.9,3.9-3.9,10.2,0,14.1c2,2,4.5,2.9,7.1,2.9s5.1-1,7.1-2.9l76.3-76.3V428H74c-5.5,0-10,4.5-10,10v32c0,23.2,18.8,42,42,42h300
	c23.2,0,42-18.8,42-42v-8.6c7,6.8,16.2,10.5,26.1,10.5c0.1,0,0.1,0,0.2,0c10.1,0,19.5-4,26.6-11.1
	C515.6,446.1,515.7,422.2,501.1,407.5z M331.5,195.3c52.9,0,96,43.1,96,96c0,52.9-43.1,96-96,96c-36.3,0-68-20.3-84.3-50.2
	l57.8-57.8V302c0,5.5,4.5,10,10,10s10-4.5,10-10v-48c0-5.5-4.5-10-10-10h-48c-5.5,0-10,4.5-10,10c0,5.5,4.5,10,10,10h25l-53,53
	c-2.3-8.2-3.5-16.8-3.5-25.7C235.5,238.4,278.6,195.3,331.5,195.3z M106,492L106,492c-12.1,0-22-9.9-22-22v-22h280v12
	c0,0.3,0,0.6,0,1c0,0.3,0,0.6,0,1v8.1c0,8.1,2.3,15.6,6.2,22H106z M428,470c0,12.1-9.9,22-22,22c-12.1,0-22-9.9-22-22v-8.1
	c0-0.3,0-0.7,0-1c0-0.3,0-0.6,0-1v-22c0-5.5-4.5-10-10-10H138v-92.1l18.3-18.3l48.1,48.1c1.9,1.9,4.4,2.9,7.1,2.9s5.2-1.1,7.1-2.9
	l14-14c20.4,33.3,57.1,55.5,99,55.5c18.2,0,35.4-4.2,50.7-11.7l45.8,45.8V470z M486.7,446.7c-3.4,3.4-7.8,5.2-12.6,5.2
	c0,0-0.1,0-0.1,0c-4.7,0-9.1-1.8-12.3-5.1L399.8,385c9.6-7.1,18.2-15.6,25.2-25.2l61.9,61.8C493.8,428.5,493.7,439.7,486.7,446.7z
	 M321.5,354.6c0,5.5,4.5,10,10,10c40.4,0,73.3-32.9,73.3-73.3c0-5.5-4.5-10-10-10s-10,4.5-10,10c0,29.4-23.9,53.3-53.3,53.3
	C326,344.6,321.5,349.1,321.5,354.6z M10,192h246.1c5.5,0,10-4.5,10-10c0-5.5-4.5-10-10-10H247v-67c0-5.5-4.5-10-10-10h-45.9
	c-5.5,0-10,4.5-10,10v67H165V64c0-5.5-4.5-10-10-10h-44c-5.5,0-10,4.5-10,10v108H85v-44c0-5.5-4.5-10-10-10H31c-5.5,0-10,4.5-10,10
	v44H10c-5.5,0-10,4.5-10,10C0,187.5,4.5,192,10,192z M201.1,115H227v57h-25.9V115z M121,74h24v98h-24V74z M41,138h24v34H41V138z
	 M347.5,64c0-5.5-4.5-10-10-10H260c-5.5,0-10,4.5-10,10c0,5.5,4.5,10,10,10h77.5C343,74,347.5,69.5,347.5,64z M394,56.9
	c-1.9-1.9-4.4-2.9-7.1-2.9s-5.2,1.1-7.1,2.9c-1.9,1.9-2.9,4.4-2.9,7.1s1.1,5.2,2.9,7.1c1.9,1.9,4.4,2.9,7.1,2.9s5.2-1.1,7.1-2.9
	c1.9-1.9,2.9-4.4,2.9-7.1C396.9,61.4,395.8,58.8,394,56.9z M282.3,98c-5.5,0-10,4.5-10,10c0,5.5,4.5,10,10,10h16.4
	c5.5,0,10-4.5,10-10c0-5.5-4.5-10-10-10H282.3z M337.5,118h49.5c5.5,0,10-4.5,10-10c0-5.5-4.5-10-10-10h-49.5c-5.5,0-10,4.5-10,10
	C327.5,113.5,331.9,118,337.5,118z M10,439.8c-2.6,0-5.2,1.1-7.1,2.9c-1.9,1.9-2.9,4.4-2.9,7.1s1.1,5.2,2.9,7.1
	c1.9,1.9,4.4,2.9,7.1,2.9c2.6,0,5.2-1.1,7.1-2.9c1.9-1.9,2.9-4.4,2.9-7.1c0-2.6-1.1-5.2-2.9-7.1C15.2,440.8,12.6,439.8,10,439.8z"/>
</svg>
