<?xml version="1.0" encoding="utf-8"?>
<!-- Generator: Adobe Illustrator 25.2.0, SVG Export Plug-In . SVG Version: 6.00 Build 0)  -->
<svg version="1.1" id="Capa_1" xmlns="http://www.w3.org/2000/svg" xmlns:xlink="http://www.w3.org/1999/xlink" x="0px" y="0px"
	 viewBox="0 0 512 512" style="enable-background:new 0 0 512 512;" xml:space="preserve">
<path d="M502,453.1h-58.6V244.6c0-5.5-4.5-10-10-10h-72c-5.5,0-10,4.5-10,10v208.5h-34v-136c0-5.5-4.5-10-10-10h-72
	c-5.5,0-10,4.5-10,10v136h-30.7V197.9c0-5.5-4.5-10-10-10h-72c-5.5,0-10,4.5-10,10v255.2h-40V146.9c0-5.5-4.5-10-10-10
	c-5.5,0-10,4.5-10,10v306.2H10c-5.5,0-10,4.5-10,10s4.5,10,10,10h32.7V502c0,5.5,4.5,10,10,10c5.5,0,10-4.5,10-10v-28.9H502
	c5.5,0,10-4.5,10-10S507.5,453.1,502,453.1z M174.7,453.1h-52V207.9h52V453.1z M297.4,453.1h-52v-126h52V453.1z M423.4,453.1h-52
	V254.6h52V453.1z M52.7,69.5c5.5,0,10-4.5,10-10V10c0-5.5-4.5-10-10-10s-10,4.5-10,10v49.5C42.7,65,47.1,69.5,52.7,69.5z
	 M253.2,208.3h8.1V251c0,8.6,10.7,13.2,16.9,7.2l52.3-50h59.3c5.5,0,10-4.5,10-10s-4.5-10-10-10h-63.3c-2.6,0-5,1-6.9,2.8
	l-38.3,36.6v-29.4c0-5.5-4.5-10-10-10h-18.1c-8,0-14.6-6.5-14.6-14.6V34.6c0-8,6.5-14.6,14.6-14.6h224.2c8,0,14.6,6.5,14.6,14.6
	v139.2c0,7.9-6.4,14.4-14.3,14.5c-5.5,0.1-9.9,4.6-9.8,10.2c0.1,5.5,4.6,9.9,10.2,9.8c18.7-0.3,34-15.8,34-34.5V34.6
	C512,15.5,496.5,0,477.4,0H253.2c-19.1,0-34.6,15.5-34.6,34.6v139.2C218.7,192.8,234.2,208.3,253.2,208.3z M48.8,93.1
	c-5,2.1-7.5,8-5.4,13.1c2.1,5,8,7.5,13.1,5.4c5-2.1,7.5-8,5.4-13.1C59.8,93.5,53.9,91,48.8,93.1z M461.2,87.5V55.2
	c0-5.5-4.5-10-10-10h-34.1c-5.5,0-10,4.5-10,10s4.5,10,10,10h9.7l-31.6,27.1h-65.8c-2.3,0-4.5,0.8-6.3,2.2l-49.2,40
	c-4.3,3.5-4.9,9.8-1.4,14.1c2,2.4,4.9,3.7,7.8,3.7c2.2,0,4.5-0.7,6.3-2.2l46.4-37.8h65.9c2.4,0,4.7-0.9,6.5-2.4l35.7-30.7v8.2
	c0,5.5,4.5,10,10,10S461.2,93,461.2,87.5z M424.7,194.5c-1.4,4-0.1,8.6,3.3,11.3c3.3,2.5,7.8,2.8,11.3,0.7c4.2-2.5,5.9-7.9,4.1-12.4
	C439.9,185.8,427.8,186.1,424.7,194.5z"/>
</svg>
