<?xml version="1.0" encoding="utf-8"?>
<!-- Generator: Adobe Illustrator 25.2.0, SVG Export Plug-In . SVG Version: 6.00 Build 0)  -->
<svg version="1.1" id="Capa_1" xmlns="http://www.w3.org/2000/svg" xmlns:xlink="http://www.w3.org/1999/xlink" x="0px" y="0px"
	 viewBox="0 0 512 512" style="enable-background:new 0 0 512 512;" xml:space="preserve">
<path d="M51.7,357.3l20.5,35.5c2.5,4.3,7.7,6.1,12.3,4.3l26.3-10.2c7.8,6.2,16.5,11.3,25.7,14.9l4.4,27.9c0.8,4.9,5,8.5,9.9,8.5h41
	c4.9,0,9.1-3.6,9.9-8.5l4.4-27.9c9.2-3.6,18-8.6,25.7-14.9l26.3,10.2c4.6,1.8,9.8-0.1,12.3-4.3l20.5-35.5c2.5-4.3,1.5-9.7-2.4-12.8
	l-22-17.7c1.5-9.8,1.5-19.9,0-29.7l22-17.7c3.8-3.1,4.8-8.5,2.4-12.8l-20.5-35.5c-2.5-4.3-7.7-6.1-12.3-4.3l-26.3,10.2
	c-7.8-6.2-16.5-11.3-25.7-14.9l-4.4-27.9c-0.8-4.9-5-8.5-9.9-8.5h-41c-4.9,0-9.1,3.6-9.9,8.5l-4.4,27.9c-9.2,3.6-18,8.6-25.7,14.9
	l-26.3-10.2c-4.6-1.8-9.8,0.1-12.3,4.3l-20.5,35.5c-2.5,4.3-1.5,9.7,2.4,12.8l22,17.7c-1.5,9.8-1.5,19.9,0,29.7l-22,17.7
	C50.3,347.6,49.3,353,51.7,357.3z M93.3,338.6c3-2.4,4.3-6.2,3.5-10c-2.4-11-2.4-22.5,0-33.4c0.8-3.7-0.5-7.6-3.5-10l-20-16.1
	l11.9-20.7l23.9,9.2c3.6,1.4,7.6,0.6,10.4-2c8.3-7.6,18.3-13.4,28.9-16.7c3.6-1.1,6.3-4.2,6.9-8l4-25.3h23.9l4,25.3
	c0.6,3.8,3.3,6.9,6.9,8c10.7,3.3,20.7,9.1,28.9,16.7c2.8,2.6,6.8,3.3,10.4,2l23.9-9.2l11.9,20.7l-20,16.1c-3,2.4-4.3,6.2-3.5,10
	c2.4,11,2.4,22.5,0,33.4c-0.8,3.7,0.5,7.6,3.5,10l20,16.1l-11.9,20.7l-23.9-9.2c-3.6-1.4-7.6-0.6-10.4,2
	c-8.3,7.6-18.3,13.4-28.9,16.7c-3.6,1.1-6.3,4.2-6.9,8l-4,25.3h-23.9l-4-25.3c-0.6-3.8-3.3-6.9-6.9-8c-10.7-3.3-20.7-9.1-28.9-16.7
	c-2.8-2.6-6.8-3.3-10.4-2l-23.9,9.2l-11.9-20.7L93.3,338.6z M427.6,48.1L427.6,48.1c-12.9,0-25.2,2.9-36.2,8.2
	c-0.2,0.1-0.4,0.1-0.5,0.2L193,141.9c-7.1-0.9-14.3-1.4-21.6-1.4c-24.9,0-49,5.3-71.5,15.6c-5,2.3-7.2,8.2-4.9,13.3
	c2.3,5,8.2,7.2,13.3,4.9c19.9-9.1,41.1-13.8,63.2-13.8c83.5,0,151.4,67.9,151.4,151.4s-67.9,151.4-151.4,151.4S20,395.4,20,311.9
	c0-30.3,8.9-59.5,25.7-84.5c3.1-4.6,1.9-10.8-2.7-13.9c-4.6-3.1-10.8-1.9-13.9,2.7C10.1,244.6,0,277.7,0,311.9
	c0,94.5,76.9,171.4,171.4,171.4s171.4-76.9,171.4-171.4c0-75.4-49-139.6-116.8-162.5L352,95c-5.6,11.3-8.8,24-8.8,37.5
	c0,46.6,37.9,84.4,84.4,84.4c2.9,0,5.7-0.1,8.4-0.4L392.3,262c-3.8,4-3.7,10.3,0.3,14.1c1.9,1.9,4.4,2.8,6.9,2.8
	c2.6,0,5.2-1,7.2-3.1c0,0,85.2-88.7,85.5-89.1c12.4-14.7,19.9-33.6,19.9-54.3C512,86,474.1,48.1,427.6,48.1z M476,175l-4,4.2
	c-11.6,11-27.2,17.8-44.4,17.8c-35.5,0-64.4-28.9-64.4-64.4c0-35.5,28.9-64.4,64.4-64.4c35.5,0,64.4,28.9,64.4,64.4
	C492,148.8,485.9,163.6,476,175z M427.6,87c-5.5,0-10,4.5-10,10v31.4L400,146c-3.9,3.9-3.9,10.2,0,14.1c2,2,4.5,2.9,7.1,2.9
	s5.1-1,7.1-2.9l20.5-20.5c1.9-1.9,2.9-4.4,2.9-7.1V97C437.6,91.5,433.1,87,427.6,87z M378.8,37.1c0.5-0.2,45.8-22.5,100.2,0.3
	c1.3,0.5,2.6,0.8,3.9,0.8c3.9,0,7.6-2.3,9.2-6.1c2.1-5.1-0.3-11-5.4-13.1C423.9-7.3,372,18.1,369.8,19.2c-4.9,2.5-6.9,8.5-4.4,13.4
	C367.8,37.6,373.8,39.6,378.8,37.1z M81.5,485.9c-24.3-11.4-46.8-29.8-63.5-51.5c-3.4-4.4-9.6-5.2-14-1.8c-4.4,3.4-5.2,9.6-1.8,14
	C20.8,470.8,45.9,491.2,73,504c1.4,0.7,2.8,1,4.3,1c3.8,0,7.3-2.1,9.1-5.7C88.7,494.2,86.5,488.2,81.5,485.9z M366.5,292.5
	c-5,2.1-7.5,8-5.4,13.1c2.1,5,8,7.5,13.1,5.4c5.1-2.1,7.5-8,5.4-13.1C377.4,292.9,371.5,290.5,366.5,292.5z M70.5,198.4
	c5-2.1,7.5-8,5.4-13.1c-2.1-5-8-7.5-13.1-5.4c-5.1,2.1-7.5,8-5.4,13.1C59.5,198,65.4,200.5,70.5,198.4z M145.2,355.5
	c7.5,4.9,12.7,6.6,19.1,7.1v5.2c0,4.1,3.4,7.5,7.5,7.5c4.1,0,7.5-3.4,7.5-7.5v-5.9c13-3.2,21.4-14.2,23.2-25.2
	c2.4-14.1-5-26.4-18.8-31.3c-1.4-0.5-2.9-1-4.4-1.6v-25.6c1.2,0.4,2.3,0.9,3.4,1.6c2,1.2,3.6,2.3,6,2.6c2.5,0.3,5-0.3,6.6-2.3
	c4.4-5.3-0.9-10.3-0.9-10.3c-0.3-0.3-5.9-5.3-15.1-7.1v-4.6c0-4.1-3.4-7.5-7.5-7.5c-4.1,0-7.5,3.4-7.5,7.5v5.1
	c-0.6,0.1-1.1,0.3-1.7,0.5c-9.2,2.8-16,10.6-17.9,20.4c-1.7,9,1.2,17.7,7.6,22.8c3.1,2.4,6.9,4.6,11.9,6.9v33.6
	c-3.8-0.5-6.5-1.7-10.9-4.5c-3.5-2.3-8.1-1.3-10.4,2.2C140.8,348.6,141.8,353.2,145.2,355.5z M179.4,319.8c9.4,3.7,8.8,12,8.4,14.5
	c-0.8,4.5-3.6,9.2-8.4,11.7V319.8z M161.7,295.1L161.7,295.1c-1.9-1.5-2.8-4.7-2.1-8.2c0.5-2.6,2-5.7,4.8-7.6v17.6
	C163.4,296.3,162.5,295.7,161.7,295.1z"/>
</svg>
