<?xml version="1.0" encoding="utf-8"?>
<!-- Generator: Adobe Illustrator 25.2.0, SVG Export Plug-In . SVG Version: 6.00 Build 0)  -->
<svg version="1.1" xmlns="http://www.w3.org/2000/svg" xmlns:xlink="http://www.w3.org/1999/xlink" x="0px" y="0px"
	 viewBox="0 0 1024 802.2" style="enable-background:new 0 0 1024 802.2;" xml:space="preserve">
<style type="text/css">
	.st0{fill:none;stroke:url(#SVGID_1_);stroke-miterlimit:10;stroke-dasharray:3.9772,3.9772;}
	.st1{fill:none;stroke:url(#SVGID_2_);stroke-miterlimit:10;stroke-dasharray:4.0287,4.0287;}
	.st2{fill:none;stroke:url(#SVGID_3_);stroke-miterlimit:10;stroke-dasharray:3.9869,3.9869;}
	.st3{fill:url(#SVGID_4_);}
	.st4{fill:#FFFFFF;}
	.st5{fill:none;stroke:url(#SVGID_5_);stroke-miterlimit:10;}
	.st6{fill:url(#SVGID_6_);}
	.st7{fill:none;stroke:url(#SVGID_7_);stroke-miterlimit:10;}
	.st8{fill:url(#SVGID_8_);}
	.st9{fill:url(#SVGID_9_);}
	.st10{fill:url(#SVGID_10_);}
	.st11{fill:url(#SVGID_11_);}
	.st12{fill:none;stroke:url(#SVGID_12_);stroke-miterlimit:10;}
	.st13{fill:url(#SVGID_13_);}
	.st14{opacity:0.3;fill:url(#SVGID_14_);}
	.st15{fill:url(#SVGID_23_);}
	.st16{fill:none;stroke:url(#SVGID_24_);stroke-miterlimit:10;}
	.st17{fill:none;stroke:url(#SVGID_25_);stroke-miterlimit:10;}
	.st18{fill:url(#SVGID_26_);}
	.st19{fill:#FFFFFF;stroke:url(#SVGID_27_);stroke-miterlimit:10;}
	.st20{fill:url(#SVGID_28_);}
	.st21{fill:#FFFFFF;stroke:url(#SVGID_29_);stroke-miterlimit:10;}
	.st22{fill:url(#SVGID_30_);}
	.st23{fill:none;stroke:url(#SVGID_31_);stroke-miterlimit:10;}
	.st24{fill:url(#SVGID_32_);}
	.st25{fill:none;stroke:url(#SVGID_33_);stroke-miterlimit:10;}
	.st26{fill:url(#SVGID_34_);}
	.st27{fill:url(#SVGID_35_);}
	.st28{fill:url(#SVGID_36_);}
	.st29{fill:url(#SVGID_37_);}
	.st30{fill:url(#SVGID_38_);}
	.st31{fill:url(#SVGID_39_);}
	.st32{fill:none;stroke:url(#SVGID_40_);stroke-miterlimit:10;}
	.st33{font-family:'Roboto-Bold';}
	.st34{font-size:22.8085px;}
	.st35{fill:url(#SVGID_41_);}
	.st36{font-family:'Roboto-BoldCondensed';}
	.st37{opacity:0.5;}
	.st38{fill:url(#SVGID_42_);}
	.st39{fill:none;stroke:url(#SVGID_43_);stroke-miterlimit:10;}
	.st40{fill:url(#SVGID_44_);}
	.st41{fill:none;stroke:url(#SVGID_45_);stroke-miterlimit:10;}
	.st42{fill:url(#SVGID_46_);}
	.st43{fill:url(#SVGID_47_);}
	.st44{fill:none;stroke:url(#SVGID_48_);stroke-miterlimit:10;}
	.st45{fill:url(#SVGID_49_);}
	.st46{fill:none;stroke:url(#SVGID_50_);stroke-miterlimit:10;}
	.st47{fill:url(#SVGID_51_);}
	.st48{fill:none;stroke:url(#SVGID_52_);stroke-miterlimit:10;}
	.st49{fill:url(#SVGID_53_);}
	.st50{fill:url(#SVGID_54_);}
	.st51{fill:url(#SVGID_55_);}
	.st52{fill:url(#SVGID_56_);}
	.st53{fill:url(#SVGID_57_);}
</style>
<g id="BACKGROUND">
	<g id="Layer_2">
	</g>
</g>
<g id="OBJECTS">
	<g>
		<g>
			<g>
				<linearGradient id="SVGID_1_" gradientUnits="userSpaceOnUse" x1="142.3787" y1="72.1588" x2="287.6964" y2="72.1588">
					<stop  offset="0" style="stop-color:#F5C44C"/>
					<stop  offset="1" style="stop-color:#F2AA42"/>
				</linearGradient>
				<circle class="st0" cx="215" cy="72.2" r="72.2"/>
			</g>
			<g>
				<linearGradient id="SVGID_2_" gradientUnits="userSpaceOnUse" x1="898.0173" y1="213.1495" x2="1014.4564" y2="213.1495">
					<stop  offset="0" style="stop-color:#649AD7"/>
					<stop  offset="1" style="stop-color:#445BCD"/>
				</linearGradient>
				
					<ellipse transform="matrix(0.1336 -0.991 0.991 0.1336 617.2587 1132.3422)" class="st1" cx="956.2" cy="213.1" rx="57.7" ry="57.7"/>
			</g>
			<g>
				<linearGradient id="SVGID_3_" gradientUnits="userSpaceOnUse" x1="457.8317" y1="764.149" x2="534.9965" y2="764.149">
					<stop  offset="0" style="stop-color:#EF3B2F"/>
					<stop  offset="1" style="stop-color:#DB3835"/>
				</linearGradient>
				
					<ellipse transform="matrix(0.6154 -0.7882 0.7882 0.6154 -411.3915 685.1586)" class="st2" cx="496.4" cy="764.1" rx="38.1" ry="38.1"/>
			</g>
		</g>
		<g>
			<g>
				<linearGradient id="SVGID_4_" gradientUnits="userSpaceOnUse" x1="701.319" y1="395.6591" x2="964.5153" y2="395.6591">
					<stop  offset="0" style="stop-color:#F5C44C"/>
					<stop  offset="1" style="stop-color:#F2AA42"/>
				</linearGradient>
				<path class="st3" d="M955.2,577.6H710.6c-5.1,0-9.3-4.2-9.3-9.3V223c0-5.1,4.2-9.3,9.3-9.3h244.6c5.1,0,9.3,4.2,9.3,9.3v345.3
					C964.5,573.4,960.4,577.6,955.2,577.6z"/>
				<g>
					
						<image style="overflow:visible;opacity:0.35;" width="965" height="804" xlink:href="A92B51CB106049EC.png"  transform="matrix(0.24 0 0 0.24 717.2534 259.37)">
					</image>
					<g>
						<g>
							<path class="st4" d="M944.9,450.1h-224c-1.3,0-2.3-1-2.3-2.3V262.2c0-1.3,1-2.3,2.3-2.3h224c1.3,0,2.3,1,2.3,2.3v185.5
								C947.3,449,946.2,450.1,944.9,450.1z"/>
							<linearGradient id="SVGID_5_" gradientUnits="userSpaceOnUse" x1="718.072" y1="355.0049" x2="947.7622" y2="355.0049">
								<stop  offset="0" style="stop-color:#FFF2F7"/>
								<stop  offset="1" style="stop-color:#EDA6DE"/>
							</linearGradient>
							<path class="st5" d="M944.9,450.1h-224c-1.3,0-2.3-1-2.3-2.3V262.2c0-1.3,1-2.3,2.3-2.3h224c1.3,0,2.3,1,2.3,2.3v185.5
								C947.3,449,946.2,450.1,944.9,450.1z"/>
						</g>
					</g>
				</g>
				<linearGradient id="SVGID_6_" gradientUnits="userSpaceOnUse" x1="701.319" y1="228.2103" x2="964.5153" y2="228.2103">
					<stop  offset="0" style="stop-color:#EF3B2F"/>
					<stop  offset="1" style="stop-color:#DB3835"/>
				</linearGradient>
				<path class="st6" d="M936.9,213.7h-208c-15.2,0-27.6,12.4-27.6,27.6v1.3h263.2v-1.3C964.5,226.1,952.2,213.7,936.9,213.7z"/>
				<linearGradient id="SVGID_7_" gradientUnits="userSpaceOnUse" x1="700.819" y1="228.2103" x2="965.0153" y2="228.2103">
					<stop  offset="0" style="stop-color:#F66B63"/>
					<stop  offset="1" style="stop-color:#BA2F2E"/>
				</linearGradient>
				<path class="st7" d="M936.9,213.7h-208c-15.2,0-27.6,12.4-27.6,27.6v1.3h263.2v-1.3C964.5,226.1,952.2,213.7,936.9,213.7z"/>
				<g>
					
						<image style="overflow:visible;opacity:0.6;" width="541" height="228" xlink:href="A92B51CB106049ED.png"  transform="matrix(0.24 0 0 0.24 719.3834 485.9)">
					</image>
					<g>
						<g>
							<g>
								<path class="st4" d="M839.8,503.6h-111c-4.9,0-8.9-4-8.9-8.9l0,0c0-4.9,4-8.9,8.9-8.9h111c4.9,0,8.9,4,8.9,8.9l0,0
									C848.7,499.6,844.7,503.6,839.8,503.6z"/>
							</g>
							<g>
								<linearGradient id="SVGID_8_" gradientUnits="userSpaceOnUse" x1="719.9207" y1="530.7197" x2="848.6736" y2="530.7197">
									<stop  offset="0" style="stop-color:#EF3B2F"/>
									<stop  offset="1" style="stop-color:#DB3835"/>
								</linearGradient>
								<path class="st8" d="M839.8,539.6h-111c-4.9,0-8.9-4-8.9-8.9l0,0c0-4.9,4-8.9,8.9-8.9h111c4.9,0,8.9,4,8.9,8.9l0,0
									C848.7,535.6,844.7,539.6,839.8,539.6z"/>
								<path class="st4" d="M839.8,539.6h-111c-4.9,0-8.9-4-8.9-8.9l0,0c0-4.9,4-8.9,8.9-8.9h111c4.9,0,8.9,4,8.9,8.9l0,0
									C848.7,535.6,844.7,539.6,839.8,539.6z"/>
							</g>
						</g>
					</g>
				</g>
				<linearGradient id="SVGID_9_" gradientUnits="userSpaceOnUse" x1="722.7" y1="228.2103" x2="735.7737" y2="228.2103">
					<stop  offset="0" style="stop-color:#F5C44C"/>
					<stop  offset="1" style="stop-color:#F2AA42"/>
				</linearGradient>
				<path class="st9" d="M735.8,228.2c0,3.6-2.9,6.5-6.5,6.5s-6.5-2.9-6.5-6.5c0-3.6,2.9-6.5,6.5-6.5S735.8,224.6,735.8,228.2z"/>
				<linearGradient id="SVGID_10_" gradientUnits="userSpaceOnUse" x1="745.3853" y1="228.2103" x2="758.4589" y2="228.2103">
					<stop  offset="0" style="stop-color:#F9D7E4"/>
					<stop  offset="1" style="stop-color:#F9BAEE"/>
				</linearGradient>
				<path class="st10" d="M758.5,228.2c0,3.6-2.9,6.5-6.5,6.5c-3.6,0-6.5-2.9-6.5-6.5c0-3.6,2.9-6.5,6.5-6.5
					C755.5,221.7,758.5,224.6,758.5,228.2z"/>
				<g>
					
						<image style="overflow:visible;" width="496" height="414" xlink:href="A92B51CB106049EB.png"  transform="matrix(0.24 0 0 0.24 846.4033 494.36)">
					</image>
				</g>
				<g>
					<linearGradient id="SVGID_11_" gradientUnits="userSpaceOnUse" x1="873.2408" y1="512.7267" x2="938.5576" y2="512.7267">
						<stop  offset="0" style="stop-color:#649AD7"/>
						<stop  offset="1" style="stop-color:#445BCD"/>
					</linearGradient>
					<circle class="st11" cx="905.9" cy="512.7" r="32.7"/>
					<linearGradient id="SVGID_12_" gradientUnits="userSpaceOnUse" x1="872.7408" y1="512.7267" x2="939.0576" y2="512.7267">
						<stop  offset="0" style="stop-color:#6B84E8"/>
						<stop  offset="1" style="stop-color:#3765BC"/>
					</linearGradient>
					<circle class="st12" cx="905.9" cy="512.7" r="32.7"/>
					<path class="st4" d="M905.9,528.6l-2.3-2.1c-8.2-7.4-13.6-12.3-13.6-18.3c0-4.9,3.8-8.7,8.7-8.7c2.8,0,5.4,1.3,7.1,3.3
						c1.7-2,4.4-3.3,7.1-3.3c4.9,0,8.7,3.8,8.7,8.7c0,6-5.4,10.9-13.6,18.3L905.9,528.6z M905.9,528.6"/>
				</g>
				<g>
					<linearGradient id="SVGID_13_" gradientUnits="userSpaceOnUse" x1="735.9187" y1="396.5191" x2="929.9156" y2="396.5191">
						<stop  offset="0" style="stop-color:#F5C44C"/>
						<stop  offset="1" style="stop-color:#F2AA42"/>
					</linearGradient>
					<path class="st13" d="M929,423.6c-2.7-9.4-7.2-18.4-13.1-26.2c-4.4-5.8-9.8-11.2-16.6-13.7c-18.2-6.7-38,8.9-57,5.3
						c-8.7-1.7-16.7-6.8-22.3-13.6c-13-15.9-24.5-10.6-30.9-0.5c-10.7,16.9-23.2,46.5-53.2,52.9h194L929,423.6z"/>
					<linearGradient id="SVGID_14_" gradientUnits="userSpaceOnUse" x1="735.6839" y1="385.4659" x2="930.9396" y2="385.4659">
						<stop  offset="0" style="stop-color:#EF3B2F"/>
						<stop  offset="1" style="stop-color:#DB3835"/>
					</linearGradient>
					<path class="st14" d="M735.7,427.7c14.8-65,50.5-47.4,58.1-44.8c4,1.4,7.6,4.1,11.7,5.3c6.3,1.8,13.1-0.3,18.7-4.4
						c5.5-4.1,10-10,14-16.2c4.1-6.3,7.9-13,13.1-18c5.2-5,12.2-8,18.6-5.7c6.2,2.2,10.4,8.9,13.6,15.7c6.8,14.6,10.6,32,21.3,42.7
						c8.8,8.8,21.8,12.7,26.2,25.4L735.7,427.7"/>
				</g>
			</g>
			<g>
				
					<image style="overflow:visible;opacity:0.3;" width="653" height="384" xlink:href="A92B51CB106049F4.png"  transform="matrix(0.24 0 0 0.24 703.9633 262.88)">
				</image>
				<g>
					<g>
						<g>
							<defs>
								<path id="SVGID_15_" d="M714.4,287.3l-0.3-0.2c-1.3-1-1.5-2.9-0.5-4.2s2.9-1.5,4.2-0.5l0.3,0.2L714.4,287.3z"/>
							</defs>
							<clipPath id="SVGID_16_">
								<use xlink:href="#SVGID_15_"  style="overflow:visible;"/>
							</clipPath>
							<g style="clip-path:url(#SVGID_16_);">
								
									<image style="overflow:visible;" width="13.9" height="12.8" xlink:href="AAA04E5199153D1A.png"  transform="matrix(1 0 0 1 704.7968 274.9333)"/>
							</g>
						</g>
						
							<image style="overflow:visible;" width="136.6" height="73" xlink:href="AAA04E5199153D1E.png"  transform="matrix(1 0 0 1 714.1533 264.95)"/>
						<g>
							<defs>
								<path id="SVGID_17_" d="M846.3,265.2l0.2-0.2c1.2-1.2,3.1-1.1,4.2,0.1c1.2,1.2,1.1,3.1-0.1,4.2l-0.2,0.2L846.3,265.2z"/>
							</defs>
							<clipPath id="SVGID_18_">
								<use xlink:href="#SVGID_17_"  style="overflow:visible;"/>
							</clipPath>
							<g style="clip-path:url(#SVGID_18_);">
								
									<image style="overflow:visible;" width="13.5" height="13.3" xlink:href="AAA04E5199153D19.png"  transform="matrix(1 0 0 1 845.858 256.602)"/>
							</g>
						</g>
					</g>
				</g>
			</g>
			<g>
				<g>
					<g>
						<defs>
							<path id="SVGID_19_" d="M146.4,590.6l-0.2,0.2c-1.3,1.1-3.1,1-4.2-0.3c-1.1-1.3-1-3.1,0.3-4.2l0.2-0.2L146.4,590.6z"/>
						</defs>
						<clipPath id="SVGID_20_">
							<use xlink:href="#SVGID_19_"  style="overflow:visible;"/>
						</clipPath>
						<g style="clip-path:url(#SVGID_20_);">
							
								<image style="overflow:visible;" width="13.7" height="13" xlink:href="AAA04E5199153D1B.png"  transform="matrix(1 0 0 1 133.1481 585.6306)"/>
						</g>
					</g>
					
						<image style="overflow:visible;" width="708.5" height="325.9" xlink:href="AAA04E5199153D18.png"  transform="matrix(1 0 0 1 142.2136 264.95)"/>
					<g>
						<defs>
							<path id="SVGID_21_" d="M846.3,265.2l0.2-0.2c1.2-1.2,3.1-1.1,4.2,0.1c1.2,1.2,1.1,3.1-0.1,4.2l-0.2,0.2L846.3,265.2z"/>
						</defs>
						<clipPath id="SVGID_22_">
							<use xlink:href="#SVGID_21_"  style="overflow:visible;"/>
						</clipPath>
						<g style="clip-path:url(#SVGID_22_);">
							
								<image style="overflow:visible;" width="13.5" height="13.3" xlink:href="AAA04E5199153D26.png"  transform="matrix(1 0 0 1 845.858 256.602)"/>
						</g>
					</g>
				</g>
			</g>
			<g>
				<g>
					<linearGradient id="SVGID_23_" gradientUnits="userSpaceOnUse" x1="221.2935" y1="252.916" x2="638.9466" y2="252.916">
						<stop  offset="0" style="stop-color:#649AD7"/>
						<stop  offset="1" style="stop-color:#445BCD"/>
					</linearGradient>
					<path class="st15" d="M608.5,72.2H251.7c-16.8,0-30.4,13.6-30.4,30.4v300.7c0,16.8,13.6,30.4,30.4,30.4h356.8
						c16.8,0,30.4-13.6,30.4-30.4V102.6C638.9,85.8,625.3,72.2,608.5,72.2z"/>
					<linearGradient id="SVGID_24_" gradientUnits="userSpaceOnUse" x1="220.7935" y1="252.916" x2="639.4466" y2="252.916">
						<stop  offset="0" style="stop-color:#6B84E8"/>
						<stop  offset="1" style="stop-color:#3765BC"/>
					</linearGradient>
					<path class="st16" d="M608.5,72.2H251.7c-16.8,0-30.4,13.6-30.4,30.4v300.7c0,16.8,13.6,30.4,30.4,30.4h356.8
						c16.8,0,30.4-13.6,30.4-30.4V102.6C638.9,85.8,625.3,72.2,608.5,72.2z"/>
				</g>
				<g>
					
						<image style="overflow:visible;opacity:0.6;" width="1436" height="865" xlink:href="A92B51CB106049F7.png"  transform="matrix(0.24 0 0 0.24 257.8933 190.25)">
					</image>
					<g>
						<g>
							<path class="st4" d="M595.8,395.7H264.4c-2.8,0-5.1-2.3-5.1-5.1V195.9c0-2.8,2.3-5.1,5.1-5.1h331.4c2.8,0,5.1,2.3,5.1,5.1
								v194.7C600.9,393.4,598.6,395.7,595.8,395.7z"/>
							<linearGradient id="SVGID_25_" gradientUnits="userSpaceOnUse" x1="258.8077" y1="293.2088" x2="601.4324" y2="293.2088">
								<stop  offset="0" style="stop-color:#FFF2F7"/>
								<stop  offset="1" style="stop-color:#EDA6DE"/>
							</linearGradient>
							<path class="st17" d="M595.8,395.7H264.4c-2.8,0-5.1-2.3-5.1-5.1V195.9c0-2.8,2.3-5.1,5.1-5.1h331.4c2.8,0,5.1,2.3,5.1,5.1
								v194.7C600.9,393.4,598.6,395.7,595.8,395.7z"/>
						</g>
					</g>
				</g>
				<g>
					
						<image style="overflow:visible;opacity:0.6;" width="674" height="232" xlink:href="A92B51CB106049F5.png"  transform="matrix(0.24 0 0 0.24 359.1433 104.3)">
					</image>
					<g>
						<g>
							<g>
								<linearGradient id="SVGID_26_" gradientUnits="userSpaceOnUse" x1="360.1322" y1="113.301" x2="519.9404" y2="113.301">
									<stop  offset="0" style="stop-color:#F9D7E4"/>
									<stop  offset="1" style="stop-color:#F9BAEE"/>
								</linearGradient>
								<path class="st18" d="M511,122.2H369c-4.9,0-8.9-4-8.9-8.9l0,0c0-4.9,4-8.9,8.9-8.9h142c4.9,0,8.9,4,8.9,8.9l0,0
									C519.9,118.2,516,122.2,511,122.2z"/>
								<linearGradient id="SVGID_27_" gradientUnits="userSpaceOnUse" x1="359.6322" y1="113.301" x2="520.4404" y2="113.301">
									<stop  offset="0" style="stop-color:#FFF2F7"/>
									<stop  offset="1" style="stop-color:#EDA6DE"/>
								</linearGradient>
								<path class="st19" d="M511,122.2H369c-4.9,0-8.9-4-8.9-8.9l0,0c0-4.9,4-8.9,8.9-8.9h142c4.9,0,8.9,4,8.9,8.9l0,0
									C519.9,118.2,516,122.2,511,122.2z"/>
							</g>
							<g>
								<linearGradient id="SVGID_28_" gradientUnits="userSpaceOnUse" x1="360.1322" y1="149.2875" x2="519.9404" y2="149.2875">
									<stop  offset="0" style="stop-color:#F9D7E4"/>
									<stop  offset="1" style="stop-color:#F9BAEE"/>
								</linearGradient>
								<path class="st20" d="M511,158.2H369c-4.9,0-8.9-4-8.9-8.9l0,0c0-4.9,4-8.9,8.9-8.9h142c4.9,0,8.9,4,8.9,8.9l0,0
									C519.9,154.2,516,158.2,511,158.2z"/>
								<linearGradient id="SVGID_29_" gradientUnits="userSpaceOnUse" x1="359.6322" y1="149.2875" x2="520.4404" y2="149.2875">
									<stop  offset="0" style="stop-color:#FFF2F7"/>
									<stop  offset="1" style="stop-color:#EDA6DE"/>
								</linearGradient>
								<path class="st21" d="M511,158.2H369c-4.9,0-8.9-4-8.9-8.9l0,0c0-4.9,4-8.9,8.9-8.9h142c4.9,0,8.9,4,8.9,8.9l0,0
									C519.9,154.2,516,158.2,511,158.2z"/>
							</g>
						</g>
					</g>
				</g>
				<g>
					
						<image style="overflow:visible;opacity:0.6;" width="252" height="252" xlink:href="A92B51CB106049FB.png"  transform="matrix(0.24 0 0 0.24 258.3434 101.9)">
					</image>
					<g>
						<g>
							<g>
								<linearGradient id="SVGID_30_" gradientUnits="userSpaceOnUse" x1="253.1246" y1="131.0773" x2="324.1487" y2="131.5131">
									<stop  offset="0" style="stop-color:#F5C44C"/>
									<stop  offset="1" style="stop-color:#F2AA42"/>
								</linearGradient>
								<circle class="st22" cx="288.5" cy="131.3" r="29.2"/>
								<linearGradient id="SVGID_31_" gradientUnits="userSpaceOnUse" x1="258.8077" y1="131.2943" x2="318.1857" y2="131.2943">
									<stop  offset="0" style="stop-color:#FFDA7D"/>
									<stop  offset="1" style="stop-color:#EE8D34"/>
								</linearGradient>
								
									<ellipse transform="matrix(0.7071 -0.7071 0.7071 0.7071 -8.3403 242.4532)" class="st23" cx="288.5" cy="131.3" rx="29.2" ry="29.2"/>
							</g>
							<g>
								<linearGradient id="SVGID_32_" gradientUnits="userSpaceOnUse" x1="285.2964" y1="116.6797" x2="312.1725" y2="116.8446">
									<stop  offset="0" style="stop-color:#EF3B2F"/>
									<stop  offset="1" style="stop-color:#DB3835"/>
								</linearGradient>
								<path class="st24" d="M317.7,131.3c0-7.5-2.8-14.9-8.5-20.6c-5.7-5.7-13.2-8.5-20.6-8.5v29.2H317.7z"/>
								<linearGradient id="SVGID_33_" gradientUnits="userSpaceOnUse" x1="287.9039" y1="116.6972" x2="318.2771" y2="116.8836">
									<stop  offset="0" style="stop-color:#F66B63"/>
									<stop  offset="1" style="stop-color:#BA2F2E"/>
								</linearGradient>
								<path class="st25" d="M317.7,131.3c0-7.5-2.8-14.9-8.5-20.6c-5.7-5.7-13.2-8.5-20.6-8.5v29.2H317.7z"/>
							</g>
						</g>
					</g>
				</g>
				<g>
					
						<image style="overflow:visible;" width="395" height="333" xlink:href="A92B51CB106049FC.png"  transform="matrix(0.24 0 0 0.24 270.6433 327.08)">
					</image>
				</g>
				<g>
					
						<image style="overflow:visible;" width="395" height="361" xlink:href="A92B51CB106049FF.png"  transform="matrix(0.24 0 0 0.24 326.8033 328.76)">
					</image>
				</g>
				<g>
					
						<image style="overflow:visible;" width="395" height="333" xlink:href="7342D2595DEAAF7B.png"  transform="matrix(0.24 0 0 0.24 382.7234 327.08)">
					</image>
				</g>
				<g>
					
						<image style="overflow:visible;" width="395" height="333" xlink:href="7342D2595DEAAF79.png"  transform="matrix(0.24 0 0 0.24 438.6433 327.08)">
					</image>
				</g>
				<g>
					
						<image style="overflow:visible;" width="395" height="333" xlink:href="7342D2595DEAAF7F.png"  transform="matrix(0.24 0 0 0.24 494.8033 327.08)">
					</image>
				</g>
				<linearGradient id="SVGID_34_" gradientUnits="userSpaceOnUse" x1="301.6784" y1="332.8839" x2="334.579" y2="332.8839">
					<stop  offset="0" style="stop-color:#EF3B2F"/>
					<stop  offset="1" style="stop-color:#DB3835"/>
				</linearGradient>
				<path class="st26" d="M332,369h-27.8c-1.4,0-2.6-1.1-2.6-2.6v-67.2c0-1.4,1.1-2.6,2.6-2.6H332c1.4,0,2.6,1.1,2.6,2.6v67.2
					C334.6,367.9,333.4,369,332,369z"/>
				<linearGradient id="SVGID_35_" gradientUnits="userSpaceOnUse" x1="413.6697" y1="316.7116" x2="446.5703" y2="316.7116">
					<stop  offset="0" style="stop-color:#EF3B2F"/>
					<stop  offset="1" style="stop-color:#DB3835"/>
				</linearGradient>
				<path class="st27" d="M444,369h-27.8c-1.4,0-2.6-1.1-2.6-2.6V267c0-1.4,1.1-2.6,2.6-2.6H444c1.4,0,2.6,1.1,2.6,2.6v99.5
					C446.6,367.9,445.4,369,444,369z"/>
				<linearGradient id="SVGID_36_" gradientUnits="userSpaceOnUse" x1="469.6655" y1="344.1192" x2="502.5659" y2="344.1192">
					<stop  offset="0" style="stop-color:#EF3B2F"/>
					<stop  offset="1" style="stop-color:#DB3835"/>
				</linearGradient>
				<path class="st28" d="M500,369h-27.8c-1.4,0-2.6-1.1-2.6-2.6v-44.7c0-1.4,1.1-2.6,2.6-2.6H500c1.4,0,2.6,1.1,2.6,2.6v44.7
					C502.6,367.9,501.4,369,500,369z"/>
				<linearGradient id="SVGID_37_" gradientUnits="userSpaceOnUse" x1="525.6611" y1="310.9716" x2="558.5616" y2="310.9716">
					<stop  offset="0" style="stop-color:#EF3B2F"/>
					<stop  offset="1" style="stop-color:#DB3835"/>
				</linearGradient>
				<path class="st29" d="M556,369h-27.8c-1.4,0-2.6-1.1-2.6-2.6v-111c0-1.4,1.1-2.6,2.6-2.6H556c1.4,0,2.6,1.1,2.6,2.6v111
					C558.6,367.9,557.4,369,556,369z"/>
				<linearGradient id="SVGID_38_" gradientUnits="userSpaceOnUse" x1="357.6739" y1="302.2671" x2="390.5745" y2="302.2671">
					<stop  offset="0" style="stop-color:#649AD7"/>
					<stop  offset="1" style="stop-color:#445BCD"/>
				</linearGradient>
				<path class="st30" d="M388,369h-27.8c-1.4,0-2.6-1.1-2.6-2.6V238.1c0-1.4,1.1-2.6,2.6-2.6H388c1.4,0,2.6,1.1,2.6,2.6v128.4
					C390.6,367.9,389.4,369,388,369z"/>
			</g>
			<g>
				
					<image style="overflow:visible;" width="617" height="425" xlink:href="7342D2595DEAAF7A.png"  transform="matrix(0.24 0 0 0.24 524.5634 86.84)">
				</image>
			</g>
			<g>
				<linearGradient id="SVGID_39_" gradientUnits="userSpaceOnUse" x1="558.5616" y1="76.165" x2="682.5024" y2="76.165">
					<stop  offset="0" style="stop-color:#F5C44C"/>
					<stop  offset="1" style="stop-color:#F2AA42"/>
				</linearGradient>
				<path class="st31" d="M672.3,138.1H568.8c-5.7,0-10.2-4.6-10.2-10.2V24.4c0-5.7,4.6-10.2,10.2-10.2h103.5
					c5.7,0,10.2,4.6,10.2,10.2v103.5C682.5,133.6,677.9,138.1,672.3,138.1z"/>
				<linearGradient id="SVGID_40_" gradientUnits="userSpaceOnUse" x1="558.0616" y1="76.165" x2="683.0024" y2="76.165">
					<stop  offset="0" style="stop-color:#FFDA7D"/>
					<stop  offset="1" style="stop-color:#EE8D34"/>
				</linearGradient>
				<path class="st32" d="M672.3,138.1H568.8c-5.7,0-10.2-4.6-10.2-10.2V24.4c0-5.7,4.6-10.2,10.2-10.2h103.5
					c5.7,0,10.2,4.6,10.2,10.2v103.5C682.5,133.6,677.9,138.1,672.3,138.1z"/>
				<g>
					
						<image style="overflow:visible;opacity:0.2;" width="243" height="289" xlink:href="7342D2595DEAAF65.png"  transform="matrix(0.24 0 0 0.24 592.9333 38.33)">
					</image>
					<g>
						<path class="st4" d="M650.1,98.7l-4.4-37.8c-0.2-3.5-2.7-6.2-5.7-6.2h-4.9v-2.2c0-3.7-1.4-7.2-3.8-9.9
							c-2.5-2.7-5.8-4.1-9.4-4.1c-7.3,0-13.2,6.3-13.2,14v2.2h-4.9c-3,0-5.4,2.7-5.7,6.2l-4.4,37.8c-0.2,3.8,2.4,7.1,5.7,7.1h45
							C647.8,105.8,650.4,102.5,650.1,98.7L650.1,98.7z M611.5,52.5c0-6.2,4.7-11.3,10.4-11.3c2.8,0,5.4,1.2,7.3,3.3
							c2,2.1,3.1,5,3.1,8v2.2h-20.9V52.5z M610.2,64.2c-1.5,0-2.6-1.2-2.6-2.6c0-1.5,1.2-2.6,2.6-2.6c1.5,0,2.7,1.2,2.7,2.6
							C612.8,63,611.6,64.2,610.2,64.2L610.2,64.2z M633.8,64.2c-1.5,0-2.7-1.2-2.7-2.7c0-1.5,1.2-2.6,2.6-2.6h0
							c1.5,0,2.6,1.2,2.6,2.6C636.4,63,635.2,64.2,633.8,64.2L633.8,64.2z M633.8,64.2"/>
					</g>
				</g>
			</g>
			<g>
				<g>
					<path class="st4" d="M747.2,674.4H395.6c-5.7,0-10.2-4.6-10.2-10.2V487.4c0-5.7,4.6-10.2,10.2-10.2h351.6
						c5.7,0,10.2,4.6,10.2,10.2v176.7C757.4,669.8,752.9,674.4,747.2,674.4z"/>
				</g>
				<text transform="matrix(1 0 0 1 432.026 550.1011)" class="st33 st34">Engagment</text>
				<g>
					<linearGradient id="SVGID_41_" gradientUnits="userSpaceOnUse" x1="430.5738" y1="601.3413" x2="526.3932" y2="601.3413">
						<stop  offset="0" style="stop-color:#649AD7"/>
						<stop  offset="1" style="stop-color:#445BCD"/>
					</linearGradient>
					<path class="st35" d="M523.9,620.9h-90.9c-1.4,0-2.5-1.1-2.5-2.5v-34.2c0-1.4,1.1-2.5,2.5-2.5h90.9c1.4,0,2.5,1.1,2.5,2.5v34.2
						C526.4,619.8,525.3,620.9,523.9,620.9z"/>
					<text transform="matrix(1 0 0 1 444.2565 608.524)" class="st4 st36 st34">+350%</text>
				</g>
				<g class="st37">
					
						<image style="overflow:visible;" width="708" height="621" xlink:href="7342D2595DEAAF66.png"  transform="matrix(0.24 0 0 0.24 567.5233 541.64)">
					</image>
				</g>
				<g>
					<g>
						<linearGradient id="SVGID_42_" gradientUnits="userSpaceOnUse" x1="591.2474" y1="575.811" x2="713.6781" y2="575.811">
							<stop  offset="0" style="stop-color:#649AD7"/>
							<stop  offset="1" style="stop-color:#445BCD"/>
						</linearGradient>
						<circle class="st38" cx="652.5" cy="575.8" r="61.2"/>
						<linearGradient id="SVGID_43_" gradientUnits="userSpaceOnUse" x1="590.7474" y1="575.811" x2="714.1781" y2="575.811">
							<stop  offset="0" style="stop-color:#6B84E8"/>
							<stop  offset="1" style="stop-color:#3765BC"/>
						</linearGradient>
						<circle class="st39" cx="652.5" cy="575.8" r="61.2"/>
					</g>
					<g>
						<linearGradient id="SVGID_44_" gradientUnits="userSpaceOnUse" x1="652.4629" y1="540.2255" x2="723.6334" y2="540.2255">
							<stop  offset="0" style="stop-color:#EF3B2F"/>
							<stop  offset="1" style="stop-color:#DB3835"/>
						</linearGradient>
						<path class="st40" d="M652.5,504.6v71.2h71.2C723.6,536.5,691.8,504.6,652.5,504.6z"/>
						<linearGradient id="SVGID_45_" gradientUnits="userSpaceOnUse" x1="651.9629" y1="540.2255" x2="724.1334" y2="540.2255">
							<stop  offset="0" style="stop-color:#F66B63"/>
							<stop  offset="1" style="stop-color:#BA2F2E"/>
						</linearGradient>
						<path class="st41" d="M652.5,504.6v71.2h71.2C723.6,536.5,691.8,504.6,652.5,504.6z"/>
					</g>
				</g>
			</g>
			
				<linearGradient id="SVGID_46_" gradientUnits="userSpaceOnUse" x1="788.3477" y1="196.7786" x2="906.8175" y2="196.7786" gradientTransform="matrix(0.9975 7.050000e-02 -7.050000e-02 0.9975 24.0702 -1.1447)">
				<stop  offset="0" style="stop-color:#649AD7"/>
				<stop  offset="1" style="stop-color:#445BCD"/>
			</linearGradient>
			<path class="st42" d="M797,244.9l122.1-47.3L873,317.9l-1-2.8c-11.4-33.6-38.6-59.6-72.7-69.4L797,244.9z"/>
			<g>
				<g>
					<linearGradient id="SVGID_47_" gradientUnits="userSpaceOnUse" x1="77.1238" y1="472.3949" x2="211.2333" y2="704.6794">
						<stop  offset="0" style="stop-color:#F5C44C"/>
						<stop  offset="1" style="stop-color:#F2AA42"/>
					</linearGradient>
					<path class="st43" d="M144.2,722.7c-74,0-134.1-60.2-134.1-134.1c0-74,60.2-134.1,134.1-134.1c74,0,134.1,60.2,134.1,134.1
						C278.3,662.5,218.1,722.7,144.2,722.7z M144.2,505.9c-45.5,0-82.6,37.1-82.6,82.6c0,45.5,37.1,82.6,82.6,82.6
						s82.6-37.1,82.6-82.6C226.8,543,189.7,505.9,144.2,505.9z"/>
				</g>
				<g>
					<linearGradient id="SVGID_48_" gradientUnits="userSpaceOnUse" x1="9.5436" y1="588.5372" x2="278.8148" y2="588.5372">
						<stop  offset="0" style="stop-color:#FFDA7D"/>
						<stop  offset="1" style="stop-color:#EE8D34"/>
					</linearGradient>
					<path class="st44" d="M144.2,722.7c-74,0-134.1-60.2-134.1-134.1c0-74,60.2-134.1,134.1-134.1c74,0,134.1,60.2,134.1,134.1
						C278.3,662.5,218.1,722.7,144.2,722.7z M144.2,505.9c-45.5,0-82.6,37.1-82.6,82.6c0,45.5,37.1,82.6,82.6,82.6
						s82.6-37.1,82.6-82.6C226.8,543,189.7,505.9,144.2,505.9z"/>
				</g>
			</g>
			<g>
				<linearGradient id="SVGID_49_" gradientUnits="userSpaceOnUse" x1="144.1792" y1="518.0909" x2="278.1433" y2="518.0909">
					<stop  offset="0" style="stop-color:#649AD7"/>
					<stop  offset="1" style="stop-color:#445BCD"/>
				</linearGradient>
				<path class="st45" d="M144.2,454.4v51.5c43.3,0,78.9,33.5,82.3,75.8h51.7C274.6,510.9,215.9,454.4,144.2,454.4z"/>
				<linearGradient id="SVGID_50_" gradientUnits="userSpaceOnUse" x1="143.6792" y1="518.0909" x2="278.6689" y2="518.0909">
					<stop  offset="0" style="stop-color:#6B84E8"/>
					<stop  offset="1" style="stop-color:#3765BC"/>
				</linearGradient>
				<path class="st46" d="M144.2,454.4v51.5c43.3,0,78.9,33.5,82.3,75.8h51.7C274.6,510.9,215.9,454.4,144.2,454.4z"/>
			</g>
			<g>
				<linearGradient id="SVGID_51_" gradientUnits="userSpaceOnUse" x1="104.6627" y1="588.5371" x2="183.6954" y2="588.5371">
					<stop  offset="0" style="stop-color:#F5C44C"/>
					<stop  offset="1" style="stop-color:#F2AA42"/>
				</linearGradient>
				<circle class="st47" cx="144.2" cy="588.5" r="39.5"/>
				<linearGradient id="SVGID_52_" gradientUnits="userSpaceOnUse" x1="104.1627" y1="588.5371" x2="184.1954" y2="588.5371">
					<stop  offset="0" style="stop-color:#FFDA7D"/>
					<stop  offset="1" style="stop-color:#EE8D34"/>
				</linearGradient>
				
					<ellipse transform="matrix(0.2311 -0.9729 0.9729 0.2311 -461.746 592.8224)" class="st48" cx="144.2" cy="588.5" rx="39.5" ry="39.5"/>
			</g>
			<g>
				<path class="st4" d="M156.4,398.3H52.9c-5.7,0-10.2-4.6-10.2-10.2V284.6c0-5.7,4.6-10.2,10.2-10.2h103.5
					c5.7,0,10.2,4.6,10.2,10.2v103.5C166.6,393.7,162.1,398.3,156.4,398.3z"/>
				<g>
					
						<image style="overflow:visible;opacity:0.3;" width="292" height="205" xlink:href="7342D2595DEAAF67.png"  transform="matrix(0.24 0 0 0.24 69.7333 312.41)">
					</image>
					<g>
						<linearGradient id="SVGID_53_" gradientUnits="userSpaceOnUse" x1="70.6456" y1="336.3345" x2="138.6801" y2="336.3345">
							<stop  offset="0" style="stop-color:#EF3B2F"/>
							<stop  offset="1" style="stop-color:#DB3835"/>
						</linearGradient>
						<path class="st49" d="M129.2,312.7c-0.3,0-0.7,0-1,0.1v0l-54.2,15v0c-1.9,0.4-3.4,3.6-3.4,7.5s1.5,7.1,3.4,7.5v0l12,3.3
							c-0.2,0.8-0.3,1.6-0.3,2.4c0,6.3,5.1,11.3,11.3,11.3c5,0,9.1-3.2,10.7-7.7l20.5,5.7v0c0.3,0.1,0.6,0.1,1,0.1
							c5.2,0,9.4-10.2,9.4-22.7S134.4,312.7,129.2,312.7z M97.1,356.2c-4.2,0-7.6-3.4-7.6-7.6c0-0.5,0.1-0.9,0.1-1.4l14.5,4
							C103.1,354.1,100.3,356.2,97.1,356.2z"/>
					</g>
				</g>
			</g>
			<linearGradient id="SVGID_54_" gradientUnits="userSpaceOnUse" x1="136.1496" y1="199.5807" x2="167.5618" y2="199.5807">
				<stop  offset="0" style="stop-color:#0A0A0A"/>
				<stop  offset="1" style="stop-color:#171717"/>
			</linearGradient>
			<path class="st50" d="M164.6,215.3h-25.4c-1.6,0-3-1.3-3-3v-25.4c0-1.6,1.3-3,3-3h25.4c1.6,0,3,1.3,3,3v25.4
				C167.6,214,166.2,215.3,164.6,215.3z"/>
			<linearGradient id="SVGID_55_" gradientUnits="userSpaceOnUse" x1="751.9221" y1="76.165" x2="779.7391" y2="76.165">
				<stop  offset="0" style="stop-color:#F9D7E4"/>
				<stop  offset="1" style="stop-color:#F9BAEE"/>
			</linearGradient>
			<path class="st51" d="M777.1,90.1h-22.5c-1.5,0-2.6-1.2-2.6-2.6V64.9c0-1.5,1.2-2.6,2.6-2.6h22.5c1.5,0,2.6,1.2,2.6,2.6v22.5
				C779.7,88.9,778.6,90.1,777.1,90.1z"/>
			<linearGradient id="SVGID_56_" gradientUnits="userSpaceOnUse" x1="812.396" y1="644.6954" x2="855.5503" y2="644.6954">
				<stop  offset="0" style="stop-color:#0A0A0A"/>
				<stop  offset="1" style="stop-color:#171717"/>
			</linearGradient>
			<path class="st52" d="M851.5,666.3h-35c-2.3,0-4.1-1.8-4.1-4.1v-35c0-2.3,1.8-4.1,4.1-4.1h35c2.3,0,4.1,1.8,4.1,4.1v35
				C855.6,664.4,853.7,666.3,851.5,666.3z"/>
			<linearGradient id="SVGID_57_" gradientUnits="userSpaceOnUse" x1="320.6703" y1="685.0485" x2="348.4874" y2="685.0485">
				<stop  offset="0" style="stop-color:#EF3B2F"/>
				<stop  offset="1" style="stop-color:#DB3835"/>
			</linearGradient>
			<path class="st53" d="M345.8,699h-22.5c-1.5,0-2.6-1.2-2.6-2.6v-22.5c0-1.5,1.2-2.6,2.6-2.6h22.5c1.5,0,2.6,1.2,2.6,2.6v22.5
				C348.5,697.8,347.3,699,345.8,699z"/>
		</g>
	</g>
</g>
</svg>
