<?xml version="1.0" encoding="utf-8"?>
<!-- Generator: Adobe Illustrator 25.2.0, SVG Export Plug-In . SVG Version: 6.00 Build 0)  -->
<svg version="1.1" id="Capa_1" xmlns="http://www.w3.org/2000/svg" xmlns:xlink="http://www.w3.org/1999/xlink" x="0px" y="0px"
	 viewBox="0 0 138.8 130" style="enable-background:new 0 0 138.8 130;" xml:space="preserve">
<style type="text/css">
	.st0{fill:#C8EFFE;}
	.st1{fill:#A8D3D8;}
	.st2{fill:#8EBAC5;}
	.st3{fill:#7CA1B1;}
	.st4{fill:#678D98;}
	.st5{fill:#FD5426;}
	.st6{fill:#EF4424;}
	.st7{fill:#FFFFFF;}
	.st8{fill:#EEF5F6;}
	.st9{fill:#FAC600;}
	.st10{fill:#01D0FB;}
	.st11{fill:#01C0FA;}
	.st12{fill:#D73D24;}
	.st13{fill:#FED402;}
	.st14{fill:#E8B800;}
	.st15{fill:#FEE97D;}
	.st16{fill:#C99C56;}
</style>
<g>
	<g>
		<g>
			<path class="st0" d="M87.5,113.4c-8.9,7.8-20.5,12.5-33.1,12.5c-27.7,0-50.3-22.6-50.3-50.3c0-25.2,18.7-46.2,42.9-49.8v-4.1
				C20.5,25.4,0,48.2,0,75.6c0,30,24.4,54.4,54.4,54.4c13.8,0,26.4-5.2,36-13.7C89.3,115.4,88.4,114.5,87.5,113.4L87.5,113.4z"/>
			<path class="st0" d="M61.7,25.9c4.4,0.6,8.7,1.9,12.8,3.6c1,0.4,2.2,0,2.7-1c0.4-1,0-2.2-1-2.7c-4.6-2-9.4-3.4-14.4-4L61.7,25.9z
				"/>
		</g>
		<path class="st0" d="M103.8,66.2c1.3-0.3,2.7-0.4,4-0.5c-0.6-3.4-1.6-6.7-2.8-9.9c-0.4-1-1.6-1.6-2.6-1.1c-1,0.4-1.6,1.6-1.1,2.6
			C102.3,60.1,103.2,63.1,103.8,66.2L103.8,66.2z"/>
	</g>
	<g>
		<path class="st1" d="M46.7,19.7v11.9c2.5-0.4,5-0.7,7.6-0.7s5.1,0.2,7.6,0.7V19.7L46.7,19.7z"/>
		<path class="st2" d="M46.7,19.7v11.9c2.4-0.4,4.8-0.6,7.3-0.7V19.7H46.7z"/>
		<g>
			<path class="st1" d="M87.4,34.2l-5.9,5.9c3,2.3,5.6,4.9,8,7.8l5.8-5.8L87.4,34.2z"/>
		</g>
		<g>
			<g>
				<path class="st2" d="M91.1,37.9l-3.7-3.7l-5.9,5.9c1.4,1.1,2.7,2.2,4,3.4L91.1,37.9z"/>
			</g>
		</g>
		<g>
			<path class="st3" d="M96.7,43.9L85.6,32.8c-1.1-1.1-1.1-2.8,0-3.9l1.6-1.6c1.1-1.1,2.8-1.1,3.9,0l11.1,11.1
				c1.1,1.1,1.1,2.8,0,3.9l-1.6,1.6C99.5,45,97.7,45,96.7,43.9z"/>
		</g>
		<g>
			<path class="st4" d="M91.3,32.8c-1.1-1.1-1.1-2.8,0-3.9l0.6-0.6L91,27.4c-1.1-1.1-2.8-1.1-3.9,0l-1.6,1.6c-1.1,1.1-1.1,2.8,0,3.9
				l11.1,11.1c1.1,1.1,2.8,1.1,3.9,0l0.9-0.9L91.3,32.8z"/>
		</g>
		<g>
			<path class="st5" d="M80.5,94.6c0-12.1,7.5-22.5,18.1-26.9c-3.7-21.1-22.1-37.1-44.3-37.1c-24.8,0-45,20.1-45,45s20.1,45,45,45
				c11.6,0,22.1-4.4,30.1-11.5C82,104.8,80.5,99.9,80.5,94.6L80.5,94.6z"/>
		</g>
		<path class="st6" d="M31,107.1c-9.6-7.2-15.9-18.6-15.9-31.5S21.4,51.3,31,44.2c7.2-7.3,16.9-12.2,27.7-13.3
			c-1.4-0.1-2.9-0.2-4.4-0.2c-24.8,0-45,20.1-45,45s20.1,45,45,45c1.5,0,2.9-0.1,4.4-0.2C47.9,119.3,38.2,114.5,31,107.1L31,107.1z"
			/>
		<g>
			<path class="st5" d="M66.7,3.1v13.8c0,1.7-1.4,3.1-3.1,3.1H45.1c-1.7,0-3.1-1.4-3.1-3.1V3.1C42,1.4,43.4,0,45.1,0h18.5
				C65.3,0,66.7,1.4,66.7,3.1z"/>
		</g>
		<g>
			<path class="st6" d="M52.8,16.9V3.1c0-1.7,1.4-3.1,3.1-3.1H45.1C43.4,0,42,1.4,42,3.1v13.8c0,1.7,1.4,3.1,3.1,3.1h10.8
				C54.2,20,52.8,18.6,52.8,16.9z"/>
		</g>
		<g>
			<path class="st7" d="M80.5,94.6c0-9.1,4.2-17.3,10.8-22.6c-1.8-18.8-17.7-33.6-37-33.6c-20.5,0-37.2,16.6-37.2,37.2
				c0,20.5,16.6,37.2,37.2,37.2c10.6,0,20.2-4.4,27-11.6C80.8,99.1,80.5,96.9,80.5,94.6L80.5,94.6z"/>
		</g>
		<g>
			<path class="st8" d="M28.6,75.6c0-18.6,13.7-34,31.5-36.7c-1.9-0.3-3.8-0.4-5.7-0.4c-20.5,0-37.2,16.6-37.2,37.2
				c0,20.5,16.6,37.2,37.2,37.2c1.9,0,3.8-0.1,5.7-0.4C42.2,109.6,28.6,94.2,28.6,75.6z"/>
		</g>
		<path class="st9" d="M56.1,58.8v12.5c1.7,0.7,2.9,2.4,2.9,4.3c0,0.1,0,0.2,0,0.3h12.2c0-0.1,0-0.2,0-0.3
			C71.3,66.9,64.6,59.7,56.1,58.8L56.1,58.8z"/>
		<g>
			<path class="st10" d="M54.4,75.6h20.2c0.8,0,1.4,0.7,1.4,1.5c-0.8,11.2-10.2,20.2-21.6,20.2c-11.9,0-21.7-9.8-21.7-21.7
				c0-11.9,9.8-21.7,21.7-21.7L54.4,75.6z"/>
		</g>
		<g>
			<path class="st11" d="M41.3,75.6c0-8.9,5.4-16.5,13.1-19.9V54c-11.9,0-21.7,9.8-21.7,21.7c0,11.9,9.8,21.7,21.7,21.7
				c1.5,0,2.9-0.1,4.3-0.4C48.8,94.9,41.3,86.1,41.3,75.6L41.3,75.6z"/>
		</g>
		<g>
			<path class="st12" d="M54.4,71c0.7,0,1.4,0.2,2,0.5v-24c0-1.1-0.9-2-2-2c-1.1,0-2,0.9-2,2v24C52.9,71.1,53.6,71,54.4,71z"/>
			<path class="st12" d="M54.4,80.3c-0.7,0-1.4-0.2-2-0.5v7.8c0,1.1,0.9,2,2,2c1.1,0,2-0.9,2-2v-7.8C55.8,80.1,55.1,80.3,54.4,80.3z
				"/>
		</g>
		<g>
			<circle class="st5" cx="54.4" cy="75.6" r="4.9"/>
		</g>
		<path class="st6" d="M54,75.6c0-1.9,1.1-3.6,2.7-4.4c-0.7-0.4-1.5-0.6-2.3-0.6c-2.7,0-4.9,2.2-4.9,4.9c0,2.7,2.2,4.9,4.9,4.9
			c0.8,0,1.6-0.2,2.3-0.6C55,79.2,54,77.5,54,75.6L54,75.6z"/>
		<path class="st12" d="M80.8,98.7c-2.1,2.4-4.5,4.5-7.2,6.3l-0.4-0.6c-0.6-1-1.8-1.3-2.8-0.7c-1,0.6-1.3,1.8-0.7,2.8l0.4,0.6
			c-4.2,2.1-8.8,3.4-13.7,3.7V110c0-1.1-0.9-2-2-2c-1.1,0-2,0.9-2,2v0.7c-4.9-0.3-9.6-1.6-13.7-3.7l0.4-0.6c0.6-1,0.2-2.2-0.7-2.8
			c-1-0.6-2.2-0.2-2.8,0.7l-0.4,0.6c-4-2.6-7.4-6.1-10.1-10.1l0.6-0.4c1-0.6,1.3-1.8,0.7-2.8c-0.6-1-1.8-1.3-2.8-0.7L23,91.4
			c-2.1-4.2-3.4-8.8-3.7-13.7H20c1.1,0,2-0.9,2-2c0-1.1-0.9-2-2-2h-0.7c0.3-4.9,1.6-9.6,3.7-13.7l0.6,0.4c0.3,0.2,0.7,0.3,1,0.3
			c0.7,0,1.4-0.4,1.8-1c0.6-1,0.2-2.2-0.7-2.8L25,56.3c2.6-4,6.1-7.4,10.1-10.1l0.4,0.6c0.4,0.7,1.1,1,1.8,1c0.3,0,0.7-0.1,1-0.3
			c1-0.6,1.3-1.8,0.7-2.8l-0.4-0.6c4.2-2.1,8.8-3.4,13.7-3.7v0.7c0,1.1,0.9,2,2,2s2-0.9,2-2v-0.7c4.9,0.3,9.6,1.6,13.7,3.7l-0.4,0.6
			c-0.6,1-0.2,2.2,0.7,2.8c0.3,0.2,0.7,0.3,1,0.3c0.7,0,1.4-0.4,1.8-1l0.4-0.6c4,2.6,7.4,6.1,10.1,10.1l-0.6,0.4
			c-1,0.6-1.3,1.8-0.7,2.8c0.4,0.7,1.1,1,1.8,1c0.3,0,0.7-0.1,1-0.3l0.6-0.4c2.1,4.2,3.4,8.9,3.7,13.8c1.2-1.1,2.4-2.2,3.8-3.1
			c-2.5-19.3-19-34.2-38.9-34.2c-21.6,0-39.2,17.6-39.2,39.2s17.6,39.2,39.2,39.2c10.7,0,20.5-4.3,27.6-11.4
			C81.4,102,81.1,100.4,80.8,98.7L80.8,98.7z"/>
	</g>
	<g>
		<g>
			<circle class="st13" cx="109.5" cy="94.6" r="29.3"/>
		</g>
		<g>
			<circle class="st9" cx="109.5" cy="94.6" r="20.5"/>
		</g>
		<g>
			<path class="st14" d="M99.8,94.6c0-9.5,6.4-17.4,15.1-19.8c-1.7-0.5-3.5-0.7-5.4-0.7C98.2,74.1,89,83.3,89,94.6
				s9.2,20.5,20.5,20.5c1.9,0,3.7-0.3,5.4-0.7C106.2,112,99.8,104.1,99.8,94.6z"/>
		</g>
		<g>
			<path class="st15" d="M109.5,117.2C97.1,117.2,87,107,87,94.6S97.1,72,109.5,72c12.4,0,22.6,10.1,22.6,22.6
				S122,117.2,109.5,117.2z M109.5,76.1c-10.2,0-18.5,8.3-18.5,18.5s8.3,18.5,18.5,18.5s18.5-8.3,18.5-18.5S119.7,76.1,109.5,76.1z"
				/>
		</g>
		<path class="st16" d="M111.9,92.6h-4.7c-1.2,0-2.2-1-2.2-2.2c0-1.2,1-2.2,2.2-2.2h8.3c1.1,0,2-0.9,2-2c0-1.1-0.9-2-2-2h-3.9v-2.3
			c0-1.1-0.9-2-2-2c-1.1,0-2,0.9-2,2V84h-0.3c-3.5,0-6.3,2.8-6.3,6.3c0,3.5,2.8,6.3,6.3,6.3h4.7c1.2,0,2.2,1,2.2,2.2
			c0,1.2-1,2.2-2.2,2.2h-8.3c-1.1,0-2,0.9-2,2c0,1.1,0.9,2,2,2h3.9v2.3c0,1.1,0.9,2,2,2c1.1,0,2-0.9,2-2v-2.3h0.3
			c3.5,0,6.3-2.8,6.3-6.3C118.2,95.4,115.4,92.6,111.9,92.6L111.9,92.6z"/>
	</g>
	<g>
		<path class="st13" d="M119.8,39.1c-1.3,4.9-3.2,6.8-8.1,8.1c-1,0.3-1,1.7,0,2c4.9,1.3,6.8,3.2,8.1,8.1c0.3,1,1.7,1,2,0
			c1.3-4.9,3.2-6.8,8.1-8.1c1-0.3,1-1.7,0-2c-4.9-1.3-6.8-3.2-8.1-8.1C121.5,38.1,120.1,38.1,119.8,39.1z"/>
	</g>
	<g>
		<g>
			<path class="st9" d="M115.6,45.7c-1,0.6-2.3,1.1-4,1.6c-1,0.3-1,1.7,0,2c4.9,1.3,6.8,3.2,8.1,8.1c0.3,1,1.7,1,2,0
				c0.4-1.6,0.9-2.8,1.5-3.8C122,48.8,120.2,47,115.6,45.7L115.6,45.7z"/>
		</g>
	</g>
	<g>
		<path class="st13" d="M111,16.7c-1.1,4-2.6,5.5-6.5,6.5c-0.8,0.2-0.8,1.4,0,1.6c4,1.1,5.5,2.6,6.5,6.5c0.2,0.8,1.4,0.8,1.6,0
			c1.1-4,2.6-5.5,6.5-6.5c0.8-0.2,0.8-1.4,0-1.6c-4-1.1-5.5-2.6-6.5-6.5C112.3,15.9,111.2,15.9,111,16.7z"/>
	</g>
	<g>
		<g>
			<path class="st9" d="M107.5,22.1c-0.8,0.5-1.8,0.9-3.1,1.2c-0.8,0.2-0.8,1.4,0,1.6c4,1.1,5.5,2.6,6.5,6.5c0.2,0.8,1.4,0.8,1.6,0
				c0.4-1.3,0.7-2.3,1.3-3.2C112.8,24.6,111.3,23.1,107.5,22.1z"/>
		</g>
	</g>
</g>
</svg>
