<?xml version="1.0" encoding="utf-8"?>
<!-- Generator: Adobe Illustrator 25.2.0, SVG Export Plug-In . SVG Version: 6.00 Build 0)  -->
<svg version="1.1" id="Capa_1" xmlns="http://www.w3.org/2000/svg" xmlns:xlink="http://www.w3.org/1999/xlink" x="0px" y="0px"
	 viewBox="0 0 130 130" style="enable-background:new 0 0 130 130;" xml:space="preserve">
<style type="text/css">
	.st0{fill:#FD5426;}
	.st1{fill:#EF4424;}
	.st2{fill:#05E39C;}
	.st3{fill:#0ED290;}
	.st4{fill:#FED402;}
	.st5{fill:#FAC600;}
	.st6{fill:#537983;}
	.st7{fill:#8EBAC5;}
	.st8{fill:#3E5959;}
</style>
<g>
	<g>
		<g>
			<g>
				<path class="st0" d="M34.7,126.4V95.9c0-0.6-0.5-1-1-1H22.1c-0.6,0-1,0.5-1,1v30.6H34.7z"/>
				<path class="st1" d="M26.4,126.4V95.9c0-0.6,0.5-1,1-1h-5.3c-0.6,0-1,0.5-1,1v30.6H26.4z"/>
				<path class="st2" d="M55.4,126.4v-55c0-0.6-0.5-1-1-1H42.8c-0.6,0-1,0.5-1,1v55H55.4z"/>
				<path class="st3" d="M47,126.4v-55c0-0.6,0.5-1,1-1h-5.2c-0.6,0-1,0.5-1,1v55H47z"/>
				<path class="st4" d="M76.1,126.4V83c0-0.6-0.5-1-1-1H63.5c-0.6,0-1,0.5-1,1v43.5H76.1z"/>
				<path class="st5" d="M67.8,126.4V83c0-0.6,0.5-1,1-1h-5.3c-0.6,0-1,0.5-1,1v43.5H67.8z"/>
				<path class="st0" d="M96.8,126.4V96.2c0-0.6-0.5-1-1-1H84.2c-0.6,0-1,0.5-1,1v30.2H96.8z"/>
				<path class="st1" d="M88.5,126.4V96.2c0-0.6,0.5-1,1-1h-5.3c-0.6,0-1,0.5-1,1v30.2H88.5z"/>
				<path class="st2" d="M117.5,126.4V71.9c0-0.6-0.5-1-1-1h-11.5c-0.6,0-1,0.5-1,1v54.6H117.5z"/>
				<path class="st3" d="M109.2,126.4V71.9c0-0.6,0.5-1,1-1h-5.3c-0.6,0-1,0.5-1,1v54.6H109.2z"/>
			</g>
			<g>
				<g>
					<path class="st6" d="M105,55.6L93,68c1.2,0.6,2.1,1.5,2.7,2.6l12-12.4C106.6,57.6,105.6,56.7,105,55.6L105,55.6z"/>
					<path class="st6" d="M42.8,44.9L31,56.2c1.1,0.6,2.1,1.6,2.6,2.7l11.7-11.3C44.3,47,43.4,46,42.8,44.9z"/>
					<path class="st6" d="M86.2,68.5L54.7,44.2c-0.5,1.2-1.3,2.3-2.3,3l31.5,24.3C84.3,70.3,85.2,69.2,86.2,68.5z"/>
				</g>
				<g>
					<circle class="st0" cx="27.9" cy="61.9" r="6.8"/>
				</g>
				<g>
					<path class="st1" d="M26.4,61.9c0-2.8,1.7-5.2,4.1-6.2c-0.8-0.3-1.7-0.5-2.7-0.5c-3.7,0-6.8,3-6.8,6.8c0,3.7,3,6.8,6.8,6.8
						c0.9,0,1.8-0.2,2.7-0.5C28.1,67.1,26.4,64.7,26.4,61.9z"/>
				</g>
				<g>
					<circle class="st2" cx="48.6" cy="41.9" r="6.8"/>
				</g>
				<g>
					<path class="st3" d="M47,41.9c0-2.8,1.7-5.2,4.2-6.3c-0.8-0.3-1.7-0.5-2.6-0.5c-3.7,0-6.8,3-6.8,6.8c0,3.7,3,6.8,6.8,6.8
						c0.9,0,1.8-0.2,2.6-0.5C48.8,47.1,47,44.7,47,41.9z"/>
				</g>
				<g>
					<circle class="st0" cx="90" cy="73.8" r="6.8"/>
				</g>
				<g>
					<path class="st1" d="M88.5,73.8c0-2.8,1.7-5.2,4.1-6.2C91.8,67.2,90.9,67,90,67c-3.7,0-6.8,3-6.8,6.8c0,3.7,3,6.8,6.8,6.8
						c0.9,0,1.8-0.2,2.7-0.5C90.2,79,88.5,76.6,88.5,73.8z"/>
				</g>
				<g>
					<circle class="st2" cx="110.7" cy="52.4" r="6.8"/>
				</g>
				<g>
					<path class="st3" d="M109.2,52.4c0-2.8,1.7-5.2,4.2-6.3c-0.8-0.3-1.7-0.5-2.6-0.5c-3.7,0-6.8,3-6.8,6.8c0,3.7,3,6.8,6.8,6.8
						c0.9,0,1.8-0.2,2.6-0.5C110.9,57.6,109.2,55.2,109.2,52.4L109.2,52.4z"/>
				</g>
			</g>
		</g>
		<g>
			<path class="st6" d="M124.3,130h-110c-1.1,0-1.9-0.9-1.9-1.9s0.9-1.9,1.9-1.9h110c1.1,0,1.9,0.9,1.9,1.9S125.3,130,124.3,130z"/>
		</g>
	</g>
	<g>
		<path class="st7" d="M48.6,59.8c-9.9,0-17.9-8-17.9-17.9S38.7,24,48.6,24s17.9,8,17.9,17.9S58.5,59.8,48.6,59.8z M48.6,27.8
			c-7.8,0-14.1,6.3-14.1,14.1S40.8,56,48.6,56c7.8,0,14.1-6.3,14.1-14.1S56.4,27.8,48.6,27.8z"/>
	</g>
	<g>
		<g>
			<path class="st4" d="M36.6,34.6H3.4c-0.7,0-1.2-0.6-1.2-1.2V20.6c0-0.7,0.6-1.2,1.2-1.2h33.2c0.7,0,1.2,0.6,1.2,1.2v12.8
				C37.8,34.1,37.3,34.6,36.6,34.6L36.6,34.6z"/>
		</g>
		<g>
			<path class="st5" d="M10.3,33.4V20.6c0-0.7,0.6-1.2,1.2-1.2H3.4c-0.7,0-1.2,0.6-1.2,1.2v12.8c0,0.7,0.6,1.2,1.2,1.2h8.1
				C10.8,34.6,10.3,34.1,10.3,33.4z"/>
		</g>
		<g>
			<g>
				<path class="st8" d="M13.5,28.9H8.9C7.8,28.9,7,28.1,7,27c0-1.1,0.9-1.9,1.9-1.9h4.7c1.1,0,1.9,0.9,1.9,1.9
					C15.4,28.1,14.6,28.9,13.5,28.9z"/>
			</g>
			<g>
				<path class="st8" d="M31.1,28.9H19.6c-1.1,0-1.9-0.9-1.9-1.9c0-1.1,0.9-1.9,1.9-1.9h11.5c1.1,0,1.9,0.9,1.9,1.9
					C33,28.1,32.2,28.9,31.1,28.9z"/>
			</g>
		</g>
	</g>
	<g>
		<g>
			<path class="st4" d="M127.8,17.1c0-9.7-8.1-17.5-17.9-17.1C101.3,0.4,94,7.6,93.6,16.3c-0.4,8.6,5.5,15.8,13.5,17.5
				c0.5,0.1,1,0.5,1.1,1l1.8,3.1c0.3,0.5,1,0.5,1.3,0l1.8-3.1c0.2-0.5,0.6-0.9,1.1-1C122.1,32.2,127.8,25.3,127.8,17.1L127.8,17.1z"
				/>
		</g>
		<g>
			<g>
				<path class="st5" d="M114.1,32.2c-0.2-0.5-0.6-0.9-1.1-1c-8-1.7-13.9-9-13.5-17.6c0.3-5.4,3.1-10.2,7.3-13.1
					C99.6,2.1,94,8.5,93.6,16.2c-0.4,8.6,5.5,15.9,13.5,17.6c0.5,0.1,1,0.5,1.1,1l1.8,3.1c0.3,0.5,1,0.5,1.3,0l1.8-3.1
					c0.2-0.5,0.6-0.9,1.1-1c0.2,0,0.4-0.1,0.7-0.2L114.1,32.2z"/>
			</g>
		</g>
		<path class="st8" d="M112.7,15.2h-3.9c-0.9,0-1.7-0.7-1.7-1.7c0-0.9,0.7-1.7,1.7-1.7h6.9c1.1,0,1.9-0.9,1.9-1.9s-0.9-1.9-1.9-1.9
			h-3.1V6.3c0-1.1-0.9-1.9-1.9-1.9s-1.9,0.9-1.9,1.9v1.7h-0.1c-3,0-5.5,2.5-5.5,5.5s2.5,5.5,5.5,5.5h3.9c0.9,0,1.7,0.7,1.7,1.7
			s-0.7,1.7-1.7,1.7h-6.9c-1.1,0-1.9,0.9-1.9,1.9c0,1.1,0.9,1.9,1.9,1.9h3.1v1.7c0,1.1,0.9,1.9,1.9,1.9s1.9-0.9,1.9-1.9v-1.7h0.1
			c3,0,5.5-2.5,5.5-5.5S115.7,15.2,112.7,15.2L112.7,15.2z"/>
	</g>
</g>
</svg>
